<svg width="138" height="70" viewBox="0 0 138 70" fill="none" xmlns="http://www.w3.org/2000/svg">
<g clip-path="url(#clip0_4141_3159)">
<path d="M0 66.226H1.32078V63.1571H5.34119V66.226H6.66197V59.0068H5.34119V61.9588H1.32078V59.0068H0V66.226Z" fill="white"/>
<path d="M14.9129 64.9844V66.2266H16.2337V59.0074H14.9129V60.2057C14.7387 59.8258 13.9404 58.832 12.3729 58.832C10.4861 58.832 8.875 60.2642 8.875 62.617C8.875 64.9991 10.4861 66.402 12.3729 66.402C13.9985 66.402 14.7387 65.3498 14.9129 64.9844ZM14.9419 62.617C14.9419 64.0492 14.013 65.1744 12.6196 65.1744C11.1827 65.1744 10.2393 64.0492 10.2393 62.617C10.2393 61.1702 11.1827 60.0596 12.6196 60.0596C14.013 60.0596 14.9419 61.1702 14.9419 62.617Z" fill="white"/>
<path d="M24.1463 61.2579H25.4816C25.38 60.7172 24.6397 58.832 22.0562 58.832C20.0097 58.832 18.4277 60.4834 18.4277 62.617C18.4277 64.7506 20.0242 66.402 22.0707 66.402C24.6397 66.402 25.3945 64.473 25.4816 63.9761H24.1753C24.0592 64.2245 23.5221 65.1744 22.0707 65.1744C20.7354 65.1744 19.792 64.0345 19.792 62.617C19.792 61.1995 20.7354 60.0596 22.0562 60.0596C23.4786 60.0596 24.0301 61.0241 24.1463 61.2579Z" fill="white"/>
<path d="M29.4145 66.226H30.7353V60.2051H33.6382V59.0068H26.5117V60.2051H29.4145V66.226Z" fill="white"/>
<path d="M36.7409 65.0575C36.9151 65.3936 37.7569 66.402 39.3534 66.402C41.2693 66.402 42.8804 65.0137 42.8804 62.617C42.8804 60.2496 41.2693 58.832 39.3534 58.832C37.7424 58.832 36.9151 59.8842 36.7409 60.2496V59.0074H35.4346V69.5001H36.7409V65.0575ZM36.7119 62.617C36.7119 61.1702 37.6698 60.0596 39.1212 60.0596C40.5726 60.0596 41.5305 61.1702 41.5305 62.617C41.5305 64.0492 40.5726 65.1744 39.1212 65.1744C37.6698 65.1744 36.7119 64.0492 36.7119 62.617Z" fill="white"/>
<path d="M48.3235 58.832C46.1754 58.832 44.5498 60.4688 44.5498 62.617C44.5498 64.7652 46.1754 66.402 48.3235 66.402C50.4571 66.402 52.0972 64.7652 52.0972 62.617C52.0972 60.4688 50.4571 58.832 48.3235 58.832ZM48.3235 65.1744C46.8866 65.1744 45.9142 64.0345 45.9142 62.617C45.9142 61.1995 46.8866 60.0596 48.3235 60.0596C49.7604 60.0596 50.7329 61.1849 50.7329 62.617C50.7329 64.0492 49.7604 65.1744 48.3235 65.1744Z" fill="white"/>
<path d="M57.7114 56.8006C57.0728 56.8006 56.797 56.2745 56.797 55.7484V55.5H55.6939V55.7777C55.6939 56.9468 56.3616 57.8528 57.7114 57.8528C59.0612 57.8528 59.7288 56.9468 59.7288 55.7777V55.5H58.6258V55.7484C58.6258 56.2891 58.35 56.8006 57.7114 56.8006ZM54.2861 66.2265H55.6068L59.7724 60.7463V66.2265H61.0932V59.0073H59.7724L55.6068 64.4436V59.0073H54.2861V66.2265Z" fill="white"/>
<path d="M68.9723 65.0575C69.1465 65.3936 69.9883 66.402 71.5849 66.402C73.5007 66.402 75.1118 65.0137 75.1118 62.617C75.1118 60.2496 73.5007 58.832 71.5849 58.832C69.9738 58.832 69.1465 59.8842 68.9723 60.2496V59.0074H67.666V69.5001H68.9723V65.0575ZM68.9433 62.617C68.9433 61.1702 69.9012 60.0596 71.3526 60.0596C72.804 60.0596 73.762 61.1702 73.762 62.617C73.762 64.0492 72.804 65.1744 71.3526 65.1744C69.9012 65.1744 68.9433 64.0492 68.9433 62.617Z" fill="white"/>
<path d="M82.8338 64.9844V66.2266H84.1545V59.0074H82.8338V60.2057C82.6596 59.8258 81.8613 58.832 80.2938 58.832C78.4069 58.832 76.7959 60.2642 76.7959 62.617C76.7959 64.9991 78.4069 66.402 80.2938 66.402C81.9194 66.402 82.6596 65.3498 82.8338 64.9844ZM82.8628 62.617C82.8628 64.0492 81.9339 65.1744 80.5405 65.1744C79.1036 65.1744 78.1602 64.0492 78.1602 62.617C78.1602 61.1702 79.1036 60.0596 80.5405 60.0596C81.9339 60.0596 82.8628 61.1702 82.8628 62.617Z" fill="white"/>
<path d="M89.8176 65.2036C88.4969 65.2036 87.8292 64.5314 87.6115 64.0199H86.2617C86.4359 65.2036 87.6405 66.402 89.8176 66.402C91.7771 66.402 93.0688 65.5252 93.0688 64.093C93.0688 63.2454 92.4737 62.7193 91.7335 62.5293C92.3431 62.354 92.8801 61.7986 92.8801 60.951C92.8801 59.6212 91.69 58.8174 89.7741 58.8174C87.7712 58.8174 86.6391 59.9719 86.4359 61.0387H87.7276C88.0179 60.4688 88.5985 60.0158 89.7451 60.0158C90.8772 60.0158 91.5738 60.3665 91.5738 60.9949C91.5738 61.6817 91.0368 61.9886 90.195 61.9886H88.9903V63.1577H90.1805C91.211 63.1577 91.69 63.45 91.69 64.1076C91.69 64.9114 90.9643 65.2036 89.8176 65.2036Z" fill="white"/>
<path d="M95.376 66.226H99.1642C100.79 66.226 101.85 65.3784 101.85 64.0924C101.85 63.1863 101.226 62.6749 100.543 62.4995C101.08 62.3241 101.617 61.8127 101.617 60.9066C101.617 59.5914 100.514 59.0068 99.1496 59.0068H95.376V66.226ZM99.1496 60.1759C99.8754 60.1759 100.311 60.4974 100.311 61.0235C100.311 61.6811 99.8318 61.9588 99.1496 61.9588H96.6968V60.1759H99.1496ZM99.1932 63.1279C100.079 63.1279 100.471 63.5225 100.471 64.0339C100.471 64.6916 100.035 65.0569 99.1787 65.0569H96.6968V63.1279H99.1932Z" fill="white"/>
<path d="M104.164 66.226H105.485L109.651 60.7458V66.226H110.971V59.0068H109.651L105.485 64.4431V59.0068H104.164V66.226Z" fill="white"/>
<path d="M115.677 66.226H116.998V60.2051H119.901V59.0068H112.774V60.2051H115.677V66.226Z" fill="white"/>
<path d="M121.697 66.226H123.018L127.184 60.7458V66.226H128.504V59.0068H127.184L123.018 64.4431V59.0068H121.697V66.226Z" fill="white"/>
<path d="M134.342 58.832C132.238 58.832 130.699 60.4249 130.699 62.617C130.699 64.736 132.267 66.402 134.473 66.402C136.882 66.402 137.811 64.7798 137.913 64.1661H136.607C136.476 64.3999 135.924 65.1744 134.473 65.1744C133.065 65.1744 132.107 64.1222 132.035 62.7778H138C138 60.4103 136.447 58.832 134.342 58.832ZM134.342 59.9719C135.416 59.9719 136.215 60.5857 136.534 61.6671H132.122C132.398 60.6295 133.196 59.9719 134.342 59.9719Z" fill="white"/>
<path fill-rule="evenodd" clip-rule="evenodd" d="M47.5 0.5C46.3133 0.5 45.1533 0.851896 44.1666 1.51118C43.1799 2.17047 42.4109 3.10755 41.9567 4.2039C41.5026 5.30026 41.3838 6.50665 41.6153 7.67054C41.8468 8.83443 42.4182 9.90352 43.2574 10.7426C44.0965 11.5818 45.1656 12.1532 46.3295 12.3847C47.4933 12.6162 48.6998 12.4974 49.7961 12.0433C50.8925 11.5891 51.8295 10.8201 52.4888 9.83342C53.1481 8.84672 53.5 7.68669 53.5 6.5C53.5 4.9087 52.8679 3.38258 51.7426 2.25736C50.6174 1.13214 49.0913 0.5 47.5 0.5ZM95.2834 30.3291C101.278 23.6519 105.904 18.5 114.6 18.5C128.5 18.5 135.6 35.37 138 49.17H127.65C124.57 35.43 119.92 28.32 114.47 28.32C110.819 28.32 108.723 30.6255 104.569 35.1951C104.024 35.7944 103.444 36.4328 102.82 37.11C102.435 37.5281 102.044 37.9584 101.647 38.3963L101.643 38.4004L101.642 38.401C97.0008 43.5126 91.4187 49.66 83.03 49.66C68.78 49.66 62.87 34.08 61.18 18.96H71.51C73.76 33.76 78.18 39.76 83.18 39.76C86.8032 39.76 90.1585 36.0285 94.5864 31.1043C94.7658 30.9048 94.947 30.7033 95.13 30.5L95.2834 30.3291ZM14.1 40.72H21.67L21.65 19H31.5V49.22H14.07C5.80001 49.2 0.24 43.17 0 35V19H9.85V35.79C9.85 38.83 11.1 40.72 14.1 40.72ZM52.66 19V49.17H42.34L42.32 19H52.66Z" fill="white"/>
</g>
<defs>
<clipPath id="clip0_4141_3159">
<rect width="138" height="69" fill="white" transform="translate(0 0.5)"/>
</clipPath>
</defs>
</svg>
