<svg width="81" height="89" viewBox="0 0 81 89" fill="none" xmlns="http://www.w3.org/2000/svg">
<g clip-path="url(#clip0_4141_3201)">
<path d="M41.3799 0.5C41.2605 0.698438 41.1425 0.896877 40.9174 1.2735C41.331 1.13716 41.5439 1.06562 41.8341 0.969772V2.53298C41.6063 2.43714 41.3839 2.34129 41.0246 2.1901C41.2063 2.72602 41.4029 3.13505 41.4734 3.56567C41.5372 3.95715 41.4734 4.37157 41.4449 4.7752C41.4287 5.01549 41.3473 5.25307 41.35 5.49066C41.3514 5.6216 41.4395 5.81734 41.5426 5.86189C41.6402 5.90373 41.807 5.78494 41.9426 5.73769C42.1799 5.65535 42.4498 5.45691 42.6505 5.51091C43.4302 5.71744 44.2263 5.92803 44.945 6.28036C46.0827 6.83923 46.6116 8.09466 46.1953 9.28798C45.7193 10.6487 45.1389 11.9743 44.568 13.3C44.2019 14.1504 44.2453 14.7741 44.907 15.422C46.3201 16.8043 48.0423 17.7182 49.8228 18.5322C49.9557 18.593 50.1266 18.5687 50.448 18.5997C50.3205 18.2393 50.2391 17.9626 50.1266 17.6993C49.7767 16.8813 49.2668 16.0916 49.4038 15.1601C49.4634 14.7525 49.633 14.253 49.9313 14.01C50.6609 13.416 51.5084 13.0111 52.5743 13.3161C52.7492 12.1539 52.0197 10.9322 52.5987 9.69026C53.0543 9.8455 53.5615 9.41083 54.0185 10.0183C54.3833 10.5029 54.2396 10.8809 54.1216 11.321C54.0985 11.406 53.91 11.4627 53.9073 11.5356C53.8883 12.1174 53.8965 12.6992 53.8965 13.1528C54.5081 13.2581 55.1237 13.2851 55.6851 13.4741C57.0548 13.9344 57.505 15.0224 56.9477 16.367C56.7008 16.9609 56.4188 17.5414 56.1937 18.1421C56.1259 18.3217 56.1977 18.5538 56.2059 18.7617C56.3984 18.7523 56.6141 18.7955 56.7822 18.7266C57.5009 18.4283 58.2508 18.1691 58.9072 17.7628C59.8958 17.1499 60.1399 16.1982 59.7181 15.121C59.3208 14.1045 58.914 13.0921 58.5261 12.0742C58.1993 11.2184 58.4719 10.5083 59.2991 10.0493C60.0029 9.65921 60.7148 9.28664 61.4227 8.90326C62.2065 8.47938 62.7408 8.52393 63.3741 9.14354C63.7226 9.48507 64.0359 9.8725 64.3084 10.2775C64.8333 11.0604 65.4977 11.568 66.4714 11.6908C66.8809 11.7421 67.2945 11.9311 67.6607 12.1363C68.7483 12.7478 68.934 14.1288 68.0824 15.0535C67.7949 15.3667 67.4573 15.6515 67.2471 16.0106C67.1155 16.2374 67.0586 16.6613 67.1888 16.8421C67.3162 17.0203 67.7719 17.1324 67.9929 17.0446C68.6099 16.8016 69.1307 16.7503 69.5321 17.3592C69.8955 17.9099 69.7748 18.5025 69.1442 19.2369C69.0195 18.4634 68.534 18.3959 67.9116 18.5336C67.0545 18.7239 66.2259 18.705 65.5642 17.9396C65.5099 17.995 65.4557 18.0503 65.4015 18.1057C65.5859 18.4472 65.7595 18.7941 65.9574 19.1276C66.6206 20.2466 66.3236 21.3806 65.213 21.8908C65.0462 21.9678 64.8495 21.9813 64.562 22.0501C64.6895 21.6654 64.8048 21.4103 64.8577 21.143C64.9973 20.4343 64.7166 19.8147 64.3084 19.2801C63.3945 18.0814 63.3822 16.8853 64.2556 15.692C64.9797 14.7025 64.9594 13.6617 64.5566 12.5899C64.4942 12.4239 64.2434 12.2943 64.0508 12.2187C63.1978 11.8812 62.3354 11.5707 61.4322 11.2332C60.6782 11.9959 61.2491 12.814 61.4173 13.6226C61.5882 14.446 61.9109 15.2789 61.8756 16.0956C61.8241 17.3079 60.7759 17.8451 59.7981 18.2407C59.0021 18.5633 58.1125 18.6537 57.2745 18.8819C57.0222 18.9507 56.8012 19.137 56.5666 19.2707C56.7483 19.4002 56.9341 19.5258 57.1117 19.6608C57.2162 19.7404 57.2975 19.8511 57.406 19.9213C57.6447 20.0725 57.8793 20.2831 58.1437 20.3344C60.4043 20.7758 61.3603 22.2553 60.5426 24.457C60.2782 25.1671 60.0612 25.1793 59.432 24.7797C58.1247 23.9508 56.7646 24.0737 55.3298 24.7405C55.5712 24.8337 55.8072 24.9457 56.054 25.0159C56.8256 25.2319 57.6053 25.4249 58.377 25.6423C59.0252 25.8245 59.6557 26.0797 60.3134 26.2106C61.1447 26.3753 61.8539 26.0513 62.4479 25.4411C62.5428 26.2106 61.9787 27.0759 61.1569 27.435C60.0761 27.9074 59.0903 27.7968 58.1329 27.0597C57.5213 26.5886 56.8148 26.2376 56.1381 25.8569C55.9916 25.7746 55.7855 25.7975 55.6011 25.8191C57.444 26.8599 57.821 27.8602 56.553 28.6445C56.431 27.6145 55.8519 26.8761 54.8932 26.6669C54.1379 26.5022 53.3025 26.5643 52.5255 26.6777C52.0047 26.7533 51.5369 27.0651 50.9646 26.81C50.8168 26.7438 50.4764 26.8937 50.3395 27.0475C48.7949 28.7768 47.6273 30.6518 47.8362 33.1208C47.9948 35.004 49.6574 36.1663 51.5016 35.5574C51.7335 36.3998 51.1192 36.8088 50.49 37.3623C51.2711 37.4838 52.0373 37.5121 52.1186 38.5786C52.6204 38.2532 52.9974 38.0089 53.3717 37.7673C54.1962 38.7608 54.0307 40.2471 53.0042 41.0786C52.2298 41.7063 52.3221 42.4231 53.2252 42.7984C54.6016 43.3708 56.4445 42.8956 57.3857 41.7266C58.1532 40.7722 58.1098 39.8259 57.2528 38.8904C57.0277 38.6447 56.7863 38.4139 56.5761 38.1574C55.7109 37.0991 55.6187 36.2 56.3889 35.0904C56.9205 34.325 57.5416 33.6095 58.1912 32.9372C59.7629 31.3079 61.3752 29.7163 62.989 28.0924C63.1015 28.2314 63.2521 28.415 63.4677 28.6796C65.0624 27.4633 66.0456 25.8232 66.8986 24.0197C67.5603 24.5596 67.8261 24.1547 68.1733 23.6714C70.5112 20.4221 72.5846 17.0176 74.3882 13.4484C74.4682 13.2905 74.5808 13.1474 74.7123 12.9463C75.8582 13.5834 76.3423 14.6188 76.4752 15.8405C76.7396 18.2852 75.6778 20.3236 74.3855 22.2729C73.9068 22.9937 73.3643 23.6741 72.8504 24.372C72.8897 24.4206 72.9291 24.4692 72.9684 24.5178C73.222 24.3167 73.4905 24.1304 73.7278 23.9103C75.0228 22.7048 76.3016 21.4805 77.6062 20.2844C78.2191 19.7229 78.3181 19.7377 78.6042 20.491C79.2077 22.0798 78.9677 23.6282 78.1161 25.0456C77.6075 25.8907 76.9078 26.6223 76.2569 27.4512C76.7288 27.3094 77.1844 27.1447 77.6523 27.0381C78.2422 26.9031 78.8402 26.8059 79.4382 26.7074C79.9291 26.6264 80.1231 26.8019 80.0932 27.3378C80.0051 28.8848 79.1358 29.9742 78.0618 30.9623C77.8069 31.1959 77.5506 31.4294 77.1777 31.7696H81.0018C80.6248 34.2426 78.7249 35.2092 76.9783 36.3809C77.5316 36.4065 78.0876 36.4038 78.6368 36.4659C79.1494 36.524 79.6593 36.632 80.1597 36.7575C80.7157 36.8966 80.8486 37.2448 80.618 37.7727C80.1095 38.9295 79.1494 39.5964 78.0564 40.1026C77.5546 40.3348 77.0176 40.4901 76.3003 40.7506C77.7553 41.1947 79.106 41.4782 79.9942 42.6499C78.9934 43.8973 77.6997 44.5371 75.9206 44.6195C76.2257 44.8611 76.4142 44.988 76.5755 45.1419C77.057 45.6009 77.5302 46.072 78.0049 46.5377C78.4062 46.9319 78.2706 47.2532 77.8475 47.4988C76.7423 48.1441 75.5571 48.1887 74.3353 47.9308C74.0383 47.8687 73.7359 47.8282 73.4362 47.7783C73.4172 47.8296 73.3983 47.8822 73.3793 47.9335C73.8485 48.2346 74.3109 48.545 74.7869 48.8326C75.6968 49.382 75.8134 50.3404 75.8961 51.2287C75.9165 51.446 75.21 51.8685 74.7869 51.959C73.664 52.2006 72.6022 51.9495 71.6679 51.2462C71.4319 51.0694 71.1743 50.9209 70.9261 50.7603C70.8868 50.8129 70.8488 50.8642 70.8095 50.9168C71.2299 51.2867 71.6503 51.6566 72.0706 52.0265C72.8206 52.6866 73.0836 53.8003 72.6822 54.7061C72.6239 54.837 72.4992 54.9599 72.3744 55.0382C71.5906 55.5255 69.9294 55.219 69.3463 54.5144C68.1095 53.0173 66.8606 51.5297 65.6157 50.0394C65.5018 49.9031 65.3852 49.7708 65.2699 49.6371L65.1153 49.7397C65.2306 49.949 65.3255 50.1703 65.4625 50.3634C66.4687 51.7889 67.502 53.1955 68.4852 54.6372C69.029 55.435 68.8242 56.7769 68.1353 57.441C68.1028 57.4721 68.0716 57.5072 68.0322 57.5274C67.4627 57.8325 65.7025 57.3141 65.3662 56.7215C64.5173 55.2271 63.6833 53.7247 62.8412 52.2263C62.734 52.0346 62.6093 51.8523 62.494 51.6661C62.4343 51.6877 62.3747 51.7079 62.315 51.7295C62.4832 52.1696 62.6296 52.6204 62.8235 53.0484C63.328 54.1648 63.8392 55.2784 64.3735 56.3813C64.6597 56.9726 64.6068 57.4802 64.181 57.9837C63.3077 59.0191 62.7951 59.1095 61.5624 58.4939C60.6511 58.039 60.6565 57.1157 60.3921 56.3422C60.0124 55.2379 59.7018 54.1094 59.3615 52.9917L59.0835 53.0443C59.1838 53.8138 59.215 54.6008 59.3994 55.3486C59.7791 56.8821 59.3601 57.7245 57.8454 58.2496C57.3884 58.4076 55.9848 57.5666 55.894 57.0212C55.7679 56.2733 55.6973 55.5147 55.6458 54.7574C55.6078 54.2026 55.639 53.6437 55.639 53.3265C54.8417 52.962 54.1731 52.7473 53.6076 52.3734C53.0503 52.0049 52.8089 52.2627 52.6312 52.6947C51.9071 54.4604 51.7484 56.2382 52.6041 58.0161C52.6516 58.1146 52.6882 58.2199 52.7506 58.3765C52.6285 58.4049 52.5323 58.4332 52.4346 58.4481C52.3261 58.4643 52.2163 58.4656 52.1078 58.4737C52.1498 59.582 53.6429 60.1922 55.1915 59.9127C55.6146 60.2016 55.8479 60.4446 56.1313 60.5391C58.2915 61.2586 59.1974 62.7071 58.8814 64.9695C58.8285 65.3462 58.815 65.7309 58.8082 66.1116C58.7892 67.1847 59.2245 67.61 60.308 67.5951C60.1968 68.2687 59.7086 68.7709 58.8489 68.7453C58.1939 68.7263 57.547 68.3889 56.77 68.1553C56.8337 68.8411 56.8975 69.5296 56.9748 70.3652C56.6357 70.2059 56.2696 70.0871 55.9686 69.8751C55.6499 69.6524 55.4058 69.4796 55.2376 69.9548C54.9529 69.8076 54.7074 69.6794 54.405 69.5228C54.2029 70.2437 54.485 70.7836 54.9176 71.0887C55.6187 71.5841 56.4011 72.004 57.2067 72.3063C58.2698 72.7059 59.3764 73.0083 60.4857 73.2661C61.3969 73.4781 62.3313 73.5361 63.0826 72.7721C63.507 72.3414 63.545 71.8204 63.1761 71.3371C63.0676 71.1954 62.9415 71.0671 62.8425 70.9213C62.4398 70.326 62.372 69.7901 62.7408 69.0706C63.3009 67.9744 63.4921 66.6718 64.5363 65.8618C65.1248 65.4042 65.7825 65.0249 66.4429 64.6725C67.0138 64.3661 67.4749 64.0192 67.6498 63.1458C67.2376 63.3874 66.9854 63.5332 66.6789 63.7127V61.6676C66.9772 61.8472 67.2308 61.9997 67.6647 62.2616C67.5278 61.8323 67.4478 61.5826 67.3406 61.2478H69.1632C69.029 61.538 68.9028 61.808 68.7767 62.0793C68.8188 62.109 68.8608 62.1387 68.9015 62.1671C69.1429 62.0267 69.3843 61.885 69.7165 61.6919V63.6628C69.4141 63.4873 69.17 63.3469 68.9178 63.1998C68.8161 63.7222 69.3829 64.4593 69.9782 64.6752C71.6476 65.2827 72.7514 66.4261 73.2545 68.131C73.3494 68.451 73.3982 68.8222 73.5962 69.0679C74.197 69.8171 73.8417 70.457 73.4118 71.0617C72.7595 71.981 72.0517 72.8625 71.3669 73.7575C71.0821 74.1301 70.8515 74.5756 70.4895 74.8523C69.9538 75.2613 69.3409 75.5839 68.7279 75.8728C68.4187 76.0186 68.0309 75.993 67.6851 76.0753C67.0233 76.2333 66.3385 76.3467 65.7161 76.6031C65.175 76.8259 64.7465 76.8718 64.1986 76.5964C62.8249 75.9093 61.4295 75.2559 60.0042 74.6835C59.413 74.446 58.7214 74.4676 58.0827 74.3353C56.8134 74.072 55.5577 73.7413 54.2816 73.5199C53.0652 73.308 51.8298 73.1986 50.6026 73.0461C49.8255 72.9503 49.7414 72.7505 50.0669 72.0418C50.3124 71.5099 50.4656 70.9362 50.7097 70.2383C49.176 70.4219 47.9541 70.2801 47.352 68.7088C47.5866 68.7088 47.7616 68.671 47.9121 68.7156C48.6213 68.9234 49.26 68.8762 49.7347 68.2458C50.1903 67.6397 50.1713 66.7595 49.7197 66.0346C48.9481 64.7994 47.0971 64.5322 45.8427 65.4717C44.987 66.1116 44.45 66.9728 44.134 67.9677C43.8818 68.7628 44.3429 69.6537 45.1104 70.2045C45.7383 70.654 46.3106 71.1846 46.8638 71.7245C47.0252 71.8825 47.0361 72.193 47.15 72.5372C46.2984 72.2038 45.6705 71.5693 44.7212 72.0728C45.3464 72.4184 45.9417 72.8423 46.6035 73.0933C48.2959 73.7359 49.8771 74.5391 51.2223 75.7675C51.4501 75.9754 51.7403 76.1226 52.0183 76.2684C52.539 76.5397 53.0733 76.7152 53.59 76.2589C54.0985 75.8094 53.8924 75.2937 53.6741 74.7105C54.4375 74.7929 55.0302 75.0642 55.4221 75.6865C55.9862 76.5815 55.898 77.3321 55.1536 78.57C55.5563 79.1396 55.997 79.6405 56.2981 80.2155C56.789 81.1537 56.3971 81.9718 55.8248 82.7615C55.4682 83.2515 55.2064 83.809 54.8688 84.3949C54.2057 84.1451 54.1067 83.4135 53.887 82.7561C53.8327 82.5941 53.6985 82.4578 53.6008 82.3093C53.5113 82.4672 53.3527 82.6211 53.3432 82.7831C53.2401 84.6109 50.6473 86.3091 48.7339 84.9038C48.3949 84.6554 48.224 84.6959 47.9962 85.0591C46.9696 86.7046 45.2338 87.2419 43.3841 86.5143C43.0044 86.3644 42.6912 86.3118 42.5162 86.7923C42.4647 86.9327 42.34 87.0502 42.2355 87.1676C40.5825 89.017 40.3004 88.9347 38.7328 87.0043C38.3219 86.4994 38.0968 86.3347 37.4594 86.6034C35.8376 87.2837 34.0584 86.6425 33.082 85.1022C32.8867 84.7945 32.7498 84.5798 32.3687 84.8809C30.5638 86.3023 27.7485 84.7297 27.6848 82.5792C27.6821 82.4956 27.6455 82.4118 27.5899 82.1851C26.8413 82.8506 27.1627 84.1492 26.2094 84.3922C25.8161 83.7456 25.4771 83.1206 25.073 82.5401C24.3041 81.4318 24.4316 80.0211 25.5042 79.1275C25.9544 78.7522 25.987 78.5376 25.6263 78.0624C24.6621 76.7921 25.5544 75.0467 27.3526 74.7146C27.3173 74.8523 27.2549 74.9657 27.2644 75.0723C27.2983 75.4436 27.2319 75.9241 27.4394 76.1536C27.6536 76.3912 28.1757 76.5289 28.5025 76.4533C28.9853 76.3399 29.4803 76.0726 29.8545 75.7419C31.1659 74.5783 32.6779 73.7899 34.2984 73.1527C35.0076 72.8733 35.664 72.4629 36.3054 72.0256C35.3751 71.5706 34.7337 72.1889 33.9702 72.5628C33.9512 71.846 34.3337 71.387 34.7785 70.9821C35.0402 70.7431 35.3534 70.5555 35.6572 70.3679C37.0146 69.5323 37.2709 68.7588 36.6675 67.2657C35.9298 65.442 34.1343 64.5092 32.4921 65.0991C31.414 65.4865 30.8241 66.5557 31.0709 67.6748C31.2567 68.5171 31.928 68.9612 32.7755 68.8019C33.0345 68.7533 33.2935 68.6994 33.6882 68.6197C33.2583 70.0317 32.267 70.3503 30.896 70.3422C31.1903 70.8768 31.3937 71.3047 31.65 71.6989C32.1911 72.5304 32.0934 72.8733 31.1414 73.1419C30.8268 73.231 30.4634 73.2715 30.1447 73.2121C26.9281 72.6047 24.0993 73.5159 21.4929 75.341C21.0902 75.6231 20.6725 75.885 20.2548 76.1442C19.3314 76.7179 19.3937 76.8961 19.7436 77.8977C20.0297 78.7185 20.0257 79.658 20.0406 80.5463C20.0474 80.9998 19.5429 81.1429 19.2256 80.9472C18.5475 80.5314 17.9373 80.0076 17.3094 79.5149C17.2349 79.4555 17.1779 79.2989 17.1982 79.2071C17.4315 78.1677 16.5202 78.0921 15.9574 77.706C15.6048 77.4644 15.3336 77.0986 14.9675 76.888C14.2366 76.4681 13.8474 75.8958 13.4717 75.1142C13.0866 74.311 12.7123 73.8736 13.3334 73.1203C13.8772 72.4602 13.9504 71.8136 13.7348 71.0604C13.705 70.9537 13.6982 70.8187 13.629 70.7472C12.8086 69.9048 12.4981 68.8937 12.4967 67.7342C12.4967 67.4642 12.1292 67.2117 12.0261 66.9188C11.7631 66.1723 11.6139 65.3826 11.3142 64.6509C10.0097 61.4624 8.62375 58.3063 7.3653 55.1003C7.00459 54.1823 6.28993 53.5802 5.81259 52.7892C5.11828 51.6391 3.85035 51.2503 2.836 50.5456C1.8542 49.8626 1.62637 48.973 1.52602 47.7958C1.82436 47.9227 2.00608 48.0253 2.20271 48.0793C2.64886 48.2022 2.89838 48.0901 2.81294 47.5596C2.67056 46.674 3.21434 46.1098 3.81373 45.6022C4.17852 45.2931 4.59755 45.046 5.00979 44.7585C4.20564 44.5047 3.44895 44.3333 2.75463 44.0242C2.27729 43.8122 1.87996 43.4167 1.45958 43.0887C1.05004 42.7701 1.13276 42.4906 1.50704 42.1721C2.26373 41.5295 3.15468 41.1947 4.09444 40.9504C4.23818 40.9126 4.3765 40.8572 4.64094 40.7695C3.83407 40.4307 3.1262 40.1823 2.46714 39.8421C1.61688 39.4047 0.914433 38.7919 0.494048 37.8982C0.155028 37.1774 0.21334 36.906 0.979525 36.7413C1.8108 36.5631 2.67191 36.5199 3.52082 36.42C3.6944 36.3998 3.86797 36.3863 4.08902 36.3026C2.27729 35.2429 0.491336 34.1778 0.00585938 31.7885H3.86391C3.55608 31.4969 3.34317 31.2849 3.11942 31.0852C2.03727 30.1105 1.1192 29.0387 0.993085 27.5065C0.930706 26.7479 1.05818 26.6142 1.83521 26.7506C2.81837 26.9234 3.78932 27.1542 5.00708 27.4107C3.10721 25.915 2.08609 24.1385 2.15253 21.8949C2.17287 21.2118 2.4685 20.5369 2.63665 19.8579C2.73022 19.8349 2.82244 19.812 2.91601 19.789C4.70061 21.4413 6.48521 23.095 8.26981 24.7473C8.30507 24.7108 8.34033 24.6744 8.37694 24.6366C7.67585 23.6403 6.92187 22.6752 6.28315 21.6411C5.24168 19.9564 4.36972 18.1799 4.54466 16.1253C4.6545 14.8497 5.06946 13.6779 6.36452 12.9422C6.82558 13.8089 7.2297 14.6958 7.74365 15.5165C9.50791 18.3352 11.3115 21.1295 13.0975 23.9346C13.2737 24.2114 13.4202 24.4773 13.8379 24.21C13.9233 24.1547 14.3071 24.3626 14.3884 24.5286C15.0597 25.9028 15.914 27.142 17.0057 28.2166C17.5508 28.7525 17.6213 28.7376 18.0892 28.0384C18.8405 28.8416 19.5714 29.6421 20.3226 30.4237C21.6109 31.7642 22.9602 33.0493 24.1915 34.4397C25.568 35.9948 25.4527 37.1396 24.0464 38.6717C23.6572 39.0956 23.3169 39.6572 23.1948 40.2079C22.9345 41.3851 24.1997 42.4555 25.294 42.8362C26.0765 43.1089 26.8969 43.1886 27.6726 42.8389C27.9899 42.6958 28.3398 42.4353 28.4808 42.137C28.6775 41.7212 28.4401 41.3675 28.0496 41.0651C27.0013 40.2498 26.8603 38.8715 27.6834 37.7497C27.7689 37.7997 27.8692 37.8388 27.9452 37.9063C28.668 38.557 28.653 38.5489 29.2253 37.7754C29.3379 37.6242 29.5915 37.5567 29.7935 37.4946C29.9956 37.4338 30.2139 37.4311 30.5299 37.3879C29.9766 36.7953 29.2958 36.393 29.5047 35.5331C31.5917 36.3228 32.9776 34.8919 33.1959 33.2761C33.5471 30.6937 32.2277 28.7322 30.5895 26.9315C30.4932 26.8248 30.2261 26.7438 30.1149 26.7992C29.4992 27.1069 28.9799 26.8383 28.4347 26.6102C27.457 26.2011 25.8378 26.4873 25.1598 27.2622C24.8438 27.624 24.6933 28.1302 24.38 28.743C24.1698 28.388 23.8891 28.0789 23.7956 27.7225C23.6491 27.1569 24.1888 26.598 25.4391 25.8637C25.4161 25.8043 25.3917 25.7462 25.3686 25.6868C24.8682 25.9055 24.3461 26.0877 23.8729 26.3564C23.4471 26.5967 23.0701 26.9261 22.6795 27.2257C21.3289 28.2638 19.174 27.682 18.5218 25.8421C18.473 25.7044 18.515 25.5329 18.515 25.2603C19.6527 26.7641 20.998 26.1836 22.3283 25.7948C23.2694 25.5208 24.2187 25.2751 25.1598 25.0038C25.3564 24.9471 25.5368 24.8337 25.7809 24.7189C24.479 23.9562 22.5859 24.0197 21.5214 24.889C21.0943 25.2387 20.8759 25.0996 20.6671 24.7554C19.8643 23.4338 19.9877 21.2847 21.992 20.6125C22.369 20.4856 22.7758 20.4505 23.1569 20.3317C23.3291 20.2777 23.4701 20.1265 23.622 20.0131C23.7929 19.8862 23.9651 19.7593 24.1251 19.6203C24.2458 19.5163 24.3502 19.3935 24.4614 19.2787C24.3394 19.1708 24.2349 19.0034 24.0939 18.9656C23.1894 18.7253 22.2754 18.5214 21.3709 18.2852C21.1363 18.2245 20.9139 18.103 20.6996 17.9842C19.2229 17.1702 18.8337 16.2468 19.2961 14.631C19.4737 14.0087 19.6894 13.3971 19.867 12.7762C20.0257 12.2214 20.0704 11.6746 19.6283 11.2359C18.7415 11.5653 17.8803 11.8785 17.026 12.2052C16.4348 12.432 15.9886 13.7495 16.2829 14.5243C16.4863 15.0589 16.7656 15.5678 17.0409 16.0713C17.559 17.0163 17.5969 17.9599 17.0125 18.8711C16.4022 19.8214 15.7581 20.7434 16.4483 21.9354C15.2604 21.9934 14.421 20.7596 14.8414 19.6959C14.9553 19.4083 15.137 19.1492 15.2794 18.8724C15.4069 18.6254 15.5221 18.3716 15.6428 18.1205C15.5994 18.08 15.5574 18.0409 15.514 18.0004C15.2387 18.1786 14.9797 18.4647 14.6827 18.5093C14.1362 18.5916 13.5653 18.57 13.0107 18.5214C12.1563 18.4472 12.1034 18.4688 12.0804 19.3341C11.0538 18.7091 11.1325 17.2539 11.9258 17.0149C12.2174 16.9272 12.5564 16.9987 12.8737 16.9893C13.2127 16.9798 13.5517 16.9636 13.8908 16.9488C13.8474 16.5951 13.8379 16.2333 13.747 15.8918C13.6996 15.7177 13.5314 15.5462 13.3741 15.4342C12.532 14.8348 12.2635 13.9965 12.5537 13.0705C12.8208 12.22 13.6345 11.838 14.44 11.7232C15.5709 11.5626 16.3331 11.0064 16.8904 10.0628C17.0572 9.78071 17.2864 9.52692 17.521 9.29338C18.3075 8.51313 18.8377 8.45238 19.8128 8.98965C20.4379 9.33523 21.0631 9.67946 21.6936 10.0156C22.567 10.48 22.8653 11.2805 22.4978 12.2146C22.0815 13.2716 21.6272 14.3151 21.2529 15.3856C20.9939 16.128 21.059 16.9461 21.733 17.397C22.5914 17.972 23.5772 18.3635 24.5197 18.809C24.616 18.8549 24.8926 18.7563 24.9116 18.6807C24.9577 18.5025 24.9455 18.2798 24.8764 18.107C24.6133 17.4496 24.2526 16.8232 24.0505 16.1483C23.8308 15.4126 23.7088 14.5986 24.4275 14.0357C25.1937 13.4363 26.0372 12.9787 27.2305 13.3944C27.1112 12.6587 27.0624 11.9676 26.8698 11.3183C26.7437 10.8917 26.7817 9.90625 27.1817 9.78071C27.5777 9.65651 28.1296 9.62547 28.4673 9.8131C28.9649 10.0912 28.9812 10.8593 28.6476 11.3237C28.6096 11.3763 28.512 11.4168 28.5107 11.4641C28.5012 12.081 28.5039 12.6979 28.5039 13.3323C29.384 12.9638 30.1705 13.3796 30.9123 13.8278C31.6934 14.3002 31.9022 15.3275 31.4927 16.3508C31.2608 16.9312 30.9814 17.4928 30.7373 18.0679C30.6804 18.2015 30.679 18.3581 30.6329 18.6132C30.9407 18.5498 31.2025 18.5592 31.3923 18.4458C32.8677 17.5657 34.3472 16.6923 35.7874 15.7568C36.7841 15.1102 36.9102 14.06 36.3217 12.9301C35.7386 11.811 35.2585 10.619 34.9046 9.40948C34.4218 7.75987 35.0944 6.59354 36.7244 5.97663C37.2289 5.78494 37.7523 5.63915 38.2785 5.51766C38.4819 5.47041 38.7233 5.51226 38.9308 5.5703C39.141 5.6297 39.3295 5.76199 39.5274 5.86189C39.6047 5.6108 39.8258 5.27332 39.7349 5.12078C39.1437 4.13804 39.6671 3.28084 39.9546 2.39124C39.9641 2.36154 39.9261 2.31564 39.8909 2.2306C39.6929 2.31969 39.499 2.40609 39.2359 2.52488V0.945474C39.4813 1.05617 39.6861 1.14796 39.8922 1.23976C39.9329 1.19926 39.9722 1.15876 40.0129 1.11691C39.8814 0.911726 39.7485 0.705188 39.6169 0.5C40.2041 0.5 40.7927 0.5 41.3799 0.5ZM52.2285 43.8068C52.0075 42.2868 51.8257 40.9801 51.6237 39.6761C51.5505 39.2063 51.2901 38.9336 50.7639 38.8958C50.0466 38.8445 49.317 38.7932 48.6227 38.6218C47.2842 38.2924 45.8997 38.0265 44.6616 37.4608C43.395 36.8831 42.2599 36.0056 41.1086 35.1997C40.6625 34.8879 40.3709 34.8703 39.9397 35.2024C39.1654 35.8004 38.3599 36.3647 37.5299 36.8858C35.4267 38.206 33.0617 38.6717 30.6289 38.8783C29.6565 38.9606 29.5359 39.0213 29.388 39.9487C29.2579 40.7641 29.2633 41.6024 29.0978 42.4083C28.7547 44.0768 29.0856 45.7156 29.3324 47.3342C29.6443 49.3779 30.123 51.4028 30.6492 53.4048C31.0886 55.0787 31.612 56.7431 32.2534 58.3495C33.8997 62.4722 36.6281 65.8429 39.8787 68.8249C40.4862 69.3824 40.6191 69.4013 41.2036 68.7939C42.5163 67.4264 43.8669 66.0859 45.082 64.6347C47.1988 62.105 48.662 59.1932 49.6452 56.0641C50.2527 54.1324 50.7775 52.1669 51.187 50.1852C51.6345 48.0199 51.9071 45.8182 52.2285 43.8082V43.8068ZM18.7252 51.7416C18.6777 51.7201 18.6303 51.6984 18.5842 51.6768C18.4648 51.8253 18.3184 51.959 18.2289 52.1237C17.601 53.2752 16.946 54.4158 16.3751 55.5943C15.7621 56.8605 14.9661 57.7677 13.3917 57.5301C13.2453 57.5085 13.0649 57.5072 12.9646 57.4221C12.1699 56.7553 11.9665 55.4148 12.5645 54.5522C13.5436 53.1388 14.5607 51.7511 15.5574 50.3499C15.6808 50.1771 15.773 49.9841 15.8801 49.8005C15.8245 49.7667 15.7703 49.7343 15.7147 49.7006C14.4576 51.2071 13.1788 52.696 11.9543 54.2282C11.3901 54.9329 10.765 55.3419 9.82794 55.2204C9.40078 55.165 8.96005 55.2109 8.44339 55.2109C9.51062 57.4221 10.5223 59.5239 11.5407 61.6244C11.9787 62.5262 12.4113 63.4306 12.8805 64.3162C13.2059 64.929 13.7131 65.4744 13.9125 66.1197C14.101 66.7312 14.4183 67.1685 14.8034 67.6478C15.1763 68.1135 15.4638 68.729 15.5601 69.3149C15.7472 70.4623 16.0401 70.7364 17.1603 70.4597C18.2994 70.1789 18.4946 70.2558 18.9232 71.3412C19.3191 72.3441 20.6969 73.0448 21.4848 72.8058C23.0823 72.3225 24.6255 71.6624 26.1823 71.0523C26.8929 70.7728 26.8305 70.2086 26.6366 69.5201C26.3409 69.678 26.0941 69.8103 25.8093 69.9629C25.6276 69.4837 25.3835 69.643 25.0662 69.8778C24.7841 70.0871 24.4343 70.2045 24.0153 70.4124C24.0993 69.8846 24.1753 69.539 24.2024 69.1894C24.2295 68.8424 24.2078 68.4928 24.2078 68.1661C23.4932 68.3875 22.8626 68.7385 22.2347 68.7331C21.5716 68.7277 20.8691 68.4361 20.6617 67.6059C21.8876 67.5938 22.3066 67.1645 22.2551 65.9766C22.2401 65.6188 22.1995 65.2584 22.1262 64.9101C21.7438 63.0945 22.7609 61.3585 24.536 60.7011C24.9618 60.5431 25.6914 60.6741 25.6059 59.8533C27.3485 60.288 28.8253 59.5307 29.0205 58.4859C28.7805 58.4589 28.5432 58.4305 28.2625 58.3995C28.314 58.2807 28.3439 58.201 28.3818 58.1241C29.2768 56.3327 29.148 54.5265 28.4306 52.7257C28.1811 52.098 27.9777 52.0778 27.3851 52.4342C26.9634 52.6879 26.4535 53.1429 26.0806 53.0632C25.2113 52.8769 25.4378 53.425 25.4147 53.8084C25.3754 54.4577 25.3713 55.1097 25.3673 55.7617C25.3605 56.8524 25.0377 57.6584 23.8837 58.1146C23.1216 58.4157 22.7649 57.9594 22.2917 57.6705C21.4346 57.1467 21.3031 56.6959 21.5431 55.7442C21.7235 55.0328 21.8401 54.3038 21.9594 53.5789C21.992 53.3832 21.9296 53.1726 21.9106 52.9687C21.8523 52.9633 21.7926 52.9593 21.7343 52.9539C21.5404 53.5343 21.3397 54.1135 21.1553 54.6966C20.9681 55.2892 20.8352 55.9021 20.6101 56.4799C20.3552 57.1332 20.1803 57.9432 19.6894 58.3549C18.6899 59.1959 17.7122 58.9664 16.8619 57.958C16.4877 57.5126 16.3493 57.0698 16.63 56.4893C17.3094 55.0895 17.9359 53.6653 18.576 52.2465C18.6479 52.0886 18.675 51.9117 18.7238 51.743L18.7252 51.7416ZM48.1087 19.1478C48.1019 19.0884 48.0938 19.0277 48.087 18.9683C46.7743 18.3689 45.3301 17.9491 44.1829 17.1229C42.7495 16.0902 41.3148 15.4652 39.5559 15.7028C39.2033 15.7501 38.8304 15.8554 38.528 16.0349C37.7835 16.4777 37.1109 17.05 36.342 17.4388C35.2219 18.0058 34.0435 18.4566 32.8908 18.9561L32.9003 19.1411C34.1316 19.052 35.3616 18.9629 36.5929 18.8738C36.6268 18.9696 36.6607 19.0668 36.6946 19.1627C35.7765 19.6891 34.8585 20.2169 33.9404 20.7434C33.9472 20.7812 33.9526 20.8177 33.9594 20.8555H35.942C35.9542 20.9027 35.9664 20.9486 35.9786 20.9958C35.5392 21.2942 35.1012 21.5925 34.6089 21.9273C35.6518 23.3326 37.2452 23.5337 38.8101 23.8617C38.5701 24.0359 38.3409 24.1709 38.0927 24.2168C37.2113 24.3842 37.1882 24.4287 37.6574 25.2198C38.6243 26.8491 39.4678 28.5325 39.9004 30.3913C40.0807 31.1635 40.2719 31.9329 40.4848 32.8144C40.5784 32.6362 40.6408 32.566 40.653 32.4877C41.0869 29.7636 42.0864 27.2568 43.5808 24.9376C43.8384 24.538 43.6784 24.3261 43.2241 24.2465C42.9014 24.1898 42.5895 24.0669 42.2735 23.9738C42.2776 23.909 42.2803 23.8442 42.2844 23.7794C43.8181 23.5 45.4061 23.3326 46.4326 21.93C45.962 21.5939 45.5512 21.3009 45.0494 20.9432C45.8685 20.7056 46.5764 21.1916 47.3086 20.707C46.1939 20.2291 45.1253 19.893 44.3402 18.8441C45.699 18.9534 46.9045 19.0493 48.1087 19.1465V19.1478ZM43.1536 84.5393C44.1368 83.9494 44.427 83.0976 44.3361 82.2634C44.1951 80.9634 43.8927 79.6688 43.532 78.4093C42.957 76.402 42.2749 74.4244 41.6429 72.4332C41.5168 72.035 41.4056 71.6314 41.289 71.2291C41.1181 71.4977 41.0395 71.7623 41.0802 72.0094C41.2849 73.2567 41.4273 74.5256 41.7636 75.7392C42.4878 78.3513 43.1658 80.9607 43.1129 83.6983C43.1089 83.9346 43.136 84.1708 43.1563 84.538L43.1536 84.5393ZM37.8473 84.4543C37.8744 84.2356 37.8961 84.0831 37.9124 83.9305C38.0886 82.2202 38.1565 80.4896 38.4697 78.8049C38.7816 77.1256 39.3946 75.503 39.7688 73.8331C39.956 72.9975 39.9099 72.1093 39.9682 71.2453C39.8841 71.2372 39.7987 71.2278 39.7146 71.2197C39.6753 71.3317 39.6251 71.4424 39.598 71.5585C39.3756 72.5129 39.1586 73.4686 38.9362 74.423C38.3707 76.8488 36.9821 79.0128 36.7 81.5412C36.5902 82.5279 36.9794 83.9751 37.8459 84.4556L37.8473 84.4543ZM33.3763 78.9871C34.8069 76.9771 36.1928 75.0318 37.5774 73.0866C36.6485 73.6738 35.8064 74.3245 35.0158 75.0332C34.3228 75.6528 33.6095 76.2778 33.0467 77.0081C32.4229 77.8194 32.682 78.7131 33.3763 78.9871ZM43.555 72.9746C43.5103 73.0137 43.4669 73.0528 43.4221 73.092C43.5835 73.3377 43.7218 73.605 43.9117 73.8277C45.1986 75.3383 46.4597 76.8691 47.2829 78.6915C47.5161 79.2071 47.786 79.1167 48.0016 78.7968C48.1833 78.5268 48.3474 78.1029 48.262 77.8262C48.0897 77.2727 47.8402 76.6801 47.4456 76.2738C46.735 75.5421 45.8956 74.9346 45.1091 74.2745C44.5924 73.8412 44.073 73.4079 43.5564 72.9759L43.555 72.9746ZM7.96605 54.3969C8.02029 54.3888 8.07318 54.3807 8.12742 54.3726C8.25082 53.7598 8.24269 53.074 8.53153 52.553C8.83801 51.9995 9.4279 51.6013 9.89439 51.1355C9.32619 51.28 8.8475 51.5878 8.32677 51.7875C7.73416 52.0143 7.14833 52.1601 7.72738 52.9566C7.78026 53.0295 7.71382 53.178 7.73416 53.286C7.80467 53.6585 7.88875 54.0284 7.9674 54.3983L7.96605 54.3969ZM32.6548 81.2712C32.6711 81.3117 32.6562 81.1065 32.5558 81.0471C32.1368 80.8 31.6974 80.5827 31.2472 80.3964C31.1862 80.3708 30.9543 80.5665 30.9218 80.6921C30.7523 81.3265 31.3123 81.9866 32.0378 82.0609C32.4894 82.1068 32.7321 81.9475 32.6548 81.2712ZM49.9869 80.3181C49.5746 80.5125 49.2139 80.7433 48.8193 80.8527C48.2281 81.016 48.2782 81.448 48.4708 81.7747C48.5739 81.9502 49.0566 82.0514 49.298 81.9745C50.0805 81.7247 50.2893 81.201 49.9869 80.3181Z" fill="white"/>
<path d="M36.0736 43.7379C35.637 42.932 35.199 42.1261 34.6592 41.1299C35.7766 41.2689 36.6825 41.3823 37.6806 41.5079C37.5206 41.844 37.4283 42.037 37.2955 42.3165C38.2515 42.9712 39.2021 43.6326 40.1676 44.2711C40.2707 44.34 40.5012 44.3346 40.607 44.2657C41.5698 43.6259 42.5191 42.9644 43.4846 42.3003C43.3463 42.0465 43.2541 41.875 43.0696 41.5362C44.0487 41.3972 44.9505 41.2689 46.0937 41.1069C45.5594 42.1059 45.1227 42.9226 44.6088 43.8837C44.2643 43.0333 43.8874 43.2182 43.4249 43.5705C42.8038 44.0457 42.1353 44.4601 41.4925 44.8975C41.7759 45.59 42.0689 45.6818 42.6425 45.2755C42.8079 45.158 42.9544 44.9812 43.1361 44.934C43.3205 44.8867 43.5375 44.9664 43.7395 44.9907C43.6799 45.1607 43.6433 45.3443 43.5538 45.4969C43.49 45.6062 43.349 45.6683 43.2554 45.7628C43.0371 45.9842 42.9395 46.184 43.2947 46.3986C43.6175 46.5944 43.8928 46.867 44.2128 47.0709C44.6657 47.3598 44.8407 47.6068 44.2074 47.8808C44.0908 47.9308 44.0067 48.055 43.9063 48.1468C44.48 48.5909 45.2828 48.5058 45.9066 47.9821C46.7026 47.3139 46.7785 46.4162 46.7555 45.4847C46.7405 44.9016 46.7066 44.3184 46.6673 43.7366C46.6429 43.3748 46.7311 43.1264 47.146 43.0738C47.5203 43.0265 47.8932 42.8834 48.2634 42.8983C49.0757 42.9293 49.3605 43.2749 49.3727 44.0889C49.3971 45.6265 49.252 47.1222 48.2539 48.3952C47.504 49.3522 46.3107 49.7073 45.1309 49.3685C44.4474 49.1727 43.7382 48.8582 43.0642 48.9095C42.4892 48.9527 41.9482 49.4427 41.2416 49.8139C42.4987 50.6765 43.5714 51.4136 44.7281 52.2073C43.5524 53.0308 42.4784 53.7813 41.3 54.6061C42.2221 55.2474 43.0425 55.8508 43.905 56.3826C44.0352 56.4623 44.3688 56.2153 44.7376 56.0668C45.1255 56.7674 45.5567 57.549 45.9893 58.3306C45.9581 58.3927 45.9269 58.4548 45.8957 58.5155C45.0007 58.4021 44.107 58.2874 43.0995 58.1605C43.7816 57.2965 43.0669 57.0603 42.5855 56.7242C41.997 56.3138 41.3976 55.9196 40.8145 55.5011C40.4972 55.273 40.2232 55.2906 39.914 55.5214C39.2889 55.9885 38.6759 56.4839 38.002 56.8727C37.4812 57.1737 37.1544 57.4383 37.6874 58.1321C36.6852 58.2766 35.7956 58.4035 34.906 58.5317C34.8613 58.4723 34.8165 58.4116 34.7718 58.3522C35.1949 57.5719 35.6166 56.7917 36.098 55.9048C36.5388 56.654 36.9374 56.3961 37.3795 56.0627C38.0155 55.5821 38.6841 55.1434 39.4516 54.6075C38.3003 53.7975 37.2507 53.0578 36.0424 52.2087C37.1788 51.4284 38.2298 50.7062 39.2713 49.9908C38.8129 49.0526 37.8677 48.7839 36.8656 49.1012C35.6288 49.4926 34.346 49.8369 33.1309 48.9851C32.0732 48.2426 31.7274 47.106 31.5077 45.9329C31.3924 45.32 31.3992 44.6802 31.3965 44.0525C31.3938 43.2628 31.6894 42.9334 32.4854 42.8996C32.876 42.8834 33.2977 42.9644 33.6598 43.1102C33.8659 43.1939 34.0843 43.4841 34.1141 43.7055C34.1629 44.0741 34.0232 44.4615 34.0341 44.8395C34.0544 45.5711 34.03 46.3244 34.1955 47.029C34.4111 47.9483 35.679 48.8879 36.8507 48.2021C36.8493 48.1819 36.8561 48.1522 36.8452 48.1414C36.3263 47.6554 36.3629 47.1964 36.9551 46.7645C37.0446 46.6983 37.1436 46.6457 37.2371 46.5836C37.8745 46.157 37.8664 46.0841 37.3158 45.5698C37.1585 45.4226 37.1164 45.1553 37.0215 44.9448C37.267 44.9677 37.526 44.9529 37.7565 45.0258C37.9382 45.0838 38.0779 45.2606 38.2488 45.3659C38.7166 45.6562 38.996 45.5401 39.2753 44.9124C38.5539 44.4102 37.846 43.8635 37.0785 43.4167C36.8656 43.2925 36.4777 43.4652 36.1713 43.503C36.1401 43.5813 36.1102 43.6596 36.079 43.7379H36.0736ZM37.9681 52.1007C38.0426 52.2586 38.0616 52.3639 38.124 52.4139C38.3301 52.5799 38.5485 52.7325 38.7695 52.8796C40.6911 54.162 40.0551 54.1971 42.0092 52.8593C42.298 52.6609 42.5598 52.422 42.8839 52.1614C42.2384 51.7241 41.7041 51.3974 41.2105 51.0167C40.6612 50.5928 40.1853 50.4443 39.5886 50.9843C39.1167 51.4122 38.5336 51.7187 37.9681 52.1007ZM39.2767 48.4141C40.1134 49.2281 40.6341 49.2996 41.2362 48.6584C41.3298 48.5585 41.3094 48.1819 41.2077 48.1036C40.5297 47.5758 39.9113 47.6837 39.2767 48.4141ZM37.9152 47.4043C38.3301 47.947 38.6095 47.9051 39.3635 47.1829C38.8482 46.6443 38.7939 46.6524 37.9152 47.4043ZM41.3976 47.1937C42.199 47.9227 42.4513 47.9578 42.8418 47.3935C41.9658 46.6565 41.9007 46.647 41.3976 47.1937ZM39.7418 46.184C40.2056 46.7996 40.5121 46.8049 41.0247 46.1894C40.5961 45.6535 40.1744 45.6427 39.7418 46.184Z" fill="white"/>
</g>
<defs>
<clipPath id="clip0_4141_3201">
<rect width="81" height="88" fill="white" transform="translate(0 0.5)"/>
</clipPath>
</defs>
</svg>
