<svg width="75" height="54" viewBox="0 0 75 54" fill="none" xmlns="http://www.w3.org/2000/svg">
<g clip-path="url(#clip0_4132_18469)">
<path d="M18.8255 0.989902H14.3381C13.0221 0.989902 12.0807 1.17153 11.505 1.51663C10.9384 1.87081 10.5362 2.55193 10.326 3.56907C10.1158 4.5862 9.98787 6.1119 9.95132 8.13709C9.91476 10.1714 9.85993 13.2409 9.79595 17.3458C9.7137 20.1792 9.59489 22.1954 9.43952 23.3941C9.27502 24.5929 8.92773 25.4647 8.38852 26.0005C7.84017 26.5363 6.95366 26.8088 5.7016 26.8088C4.33986 26.8088 3.2066 26.4818 2.31096 25.8371C1.39704 25.2013 0.949219 24.2569 0.949219 23.0218C0.949219 22.1045 1.20512 21.3871 1.71691 20.8604C2.2287 20.3336 2.89587 20.0703 3.71839 20.0703C4.48608 20.0703 5.08927 20.2882 5.53709 20.7332C5.98491 21.1782 6.21339 21.6414 6.21339 22.1499C6.21339 22.8401 6.00319 23.4758 5.57365 24.0571C5.30861 24.4294 5.17152 24.8562 5.17152 25.3467C5.17152 25.4738 5.24464 25.5919 5.4 25.7008C5.54623 25.8098 5.69246 25.8643 5.84782 25.8643C6.78002 25.8643 7.51116 25.3921 8.02295 24.4657C8.54388 23.5303 8.89117 22.2952 9.07396 20.7514C9.25674 19.2166 9.34813 17.4003 9.34813 15.3206C9.34813 14.0492 9.32071 12.4327 9.26588 10.4711C9.21104 8.50035 9.18363 7.08363 9.18363 6.22088C9.18363 5.06752 9.11965 4.1412 9.00998 3.43284C8.89117 2.74264 8.58044 2.15234 8.06865 1.67102C7.55685 1.1897 6.76174 0.944494 5.68332 0.944494C5.29033 0.944494 4.97046 0.962657 4.7237 0.98082V0.227051H26.411V0.989902H23.3219V26.3819H18.8255V0.989902Z" fill="black"/>
<path d="M18.8254 52.428L18.8345 27.0723H23.331V52.428H27.992C29.0064 52.428 30.0574 52.1192 31.1359 51.4926C32.2143 50.866 33.183 49.976 34.0421 48.8317C34.9012 47.6874 35.5409 46.3797 35.9522 44.9266H36.7199L35.4678 53.2362H15.7363V52.4371H18.8254V52.428Z" fill="black"/>
<path d="M74.2542 41.6663L74.9488 42.1113C73.9435 43.6915 72.8559 44.8812 71.6861 45.6895C70.5254 46.4977 69.1728 46.8973 67.6192 46.8973C65.9467 46.8973 64.4479 46.5068 63.1227 45.7258C61.7884 44.9448 60.7648 43.8732 60.0154 42.4928C59.2751 41.1214 58.9004 39.5776 58.9004 37.8793C58.9004 36.172 59.2842 34.6281 60.0337 33.2477C60.7922 31.8582 61.8067 30.7775 63.0587 30.0147C64.3199 29.2428 65.6451 28.8613 67.0434 28.8613C68.2315 28.8613 69.3922 29.1065 70.5163 29.5969C71.6496 30.0873 72.6 30.9319 73.4043 32.1307C74.1994 33.3295 74.6655 34.9278 74.7934 36.9258H63.4426L63.4791 39.7047C63.5065 41.4575 63.7624 42.9559 64.2377 44.2001C64.7129 45.4443 65.7822 46.0618 67.4455 46.0618C69.9314 46.0436 72.1979 44.5906 74.2542 41.6663ZM63.4426 36.2628H70.5803C70.5803 36.1357 70.5894 35.9359 70.5985 35.6634C70.6168 35.391 70.6168 35.1912 70.6168 35.055C70.6168 33.3022 70.3792 31.94 69.9131 30.9773C69.4379 30.0147 68.5514 29.5424 67.2536 29.5424C65.8188 29.5424 64.8317 29.9965 64.2925 30.8956C63.7533 31.7947 63.4883 32.7392 63.4883 33.729L63.4426 36.2628Z" fill="black"/>
<path d="M54.7883 39.6502C56.2232 38.1154 57.6672 37.1982 59.1295 36.8985V36.2537H52.0557V36.8985H52.5036C53.3809 36.8985 53.9201 37.1618 54.112 37.6976V38.406C54.0024 38.7602 53.7282 39.2233 53.2621 39.8136C52.8051 40.404 52.403 40.8489 52.0557 41.1668L48.4732 44.636V32.7209H48.135C47.8334 33.3112 47.413 33.8561 46.883 34.3375C46.161 35.0004 45.375 35.4727 44.5342 35.7542V53.2362H48.464V46.0073L49.8258 44.645L55.1996 53.2362H59.9885L52.7229 41.8207L54.7883 39.6502Z" fill="black"/>
<path d="M57.0185 24.0752C56.8632 24.3658 56.6347 24.6201 56.324 24.838C56.0132 25.056 55.6934 25.1559 55.3644 25.1559C54.9165 25.1559 54.6149 24.9379 54.4596 24.5111C54.3042 24.0752 54.1671 23.3668 54.0392 22.3679C53.8564 20.8785 53.3903 19.6979 52.6226 18.817C51.864 17.9361 50.3012 17.4366 47.9342 17.3003V17.1823C48.5465 17.0097 48.9943 16.6556 49.2868 16.1288C49.5701 15.6021 49.8351 14.7848 50.0636 13.7041C50.4109 11.6335 50.7856 10.5982 51.1877 10.5982C51.8366 10.5982 52.1565 10.7798 52.1565 11.1521C52.1565 11.2339 52.1382 11.3156 52.1017 11.4064C52.0651 11.4972 52.0468 11.5699 52.0285 11.6244C51.9554 11.9059 51.9097 12.2056 51.9097 12.5144C51.9097 13.032 52.1199 13.4407 52.5221 13.7585C52.9333 14.0764 53.4268 14.2308 53.9935 14.2308C54.6515 14.2308 55.1816 13.9947 55.5746 13.5315C55.9675 13.0683 56.1595 12.478 56.1595 11.7515C56.1595 10.9523 55.867 10.2803 55.273 9.75357C54.6972 9.20868 53.9478 8.94531 53.043 8.94531C52.2113 8.94531 51.5533 9.12694 51.0781 9.47204C50.5937 9.82622 50.2373 10.3257 49.9905 10.9614C49.7529 11.5971 49.5244 12.469 49.3051 13.5678C49.104 14.6031 48.7841 15.4477 48.3546 16.0834C47.9251 16.7191 47.1299 17.0461 45.9693 17.0461H44.5161L44.507 9.37215H40.5771V24.0389C41.2078 23.8118 41.8658 23.7029 42.5512 23.7029C43.2367 23.7029 43.8947 23.8027 44.507 24.0116V17.7363L45.3935 17.6999H46.2434C46.9654 17.6999 47.5412 17.7726 47.9708 17.9361C48.4003 18.0904 48.7841 18.481 49.1223 19.1076C49.4604 19.7342 49.7163 20.6969 49.89 22.0046C50.0179 23.0671 50.155 23.8936 50.3012 24.4748C50.4383 25.056 50.7582 25.5918 51.2334 26.0913C51.7087 26.5908 52.4398 26.836 53.3903 26.836C54.2859 26.836 55.1085 26.6271 55.8487 26.2003C56.589 25.7734 57.1465 25.165 57.5212 24.3658L57.0185 24.0752Z" fill="black"/>
<path d="M38.6028 53.2271V36.8984H36.0713V36.2173H40.0468C40.9059 36.2173 41.7376 36.1538 42.5418 36.0266V53.2271H38.6028Z" fill="black"/>
<path d="M44.1779 29.0883C44.0499 28.6342 43.8763 28.2891 43.6478 28.0711C43.1543 27.5898 42.6882 27.2901 42.0119 27.2356C41.3813 27.1811 40.7872 27.2538 40.2572 27.7805C39.8093 28.2255 39.5717 28.7159 39.5535 29.2517C39.5169 29.7876 41.4727 32.6392 38.8406 33.4293C37.8079 33.738 37.0128 33.8198 36.1445 33.6654V34.4646C37.6799 34.5554 38.9594 34.4918 39.9739 34.2557C41.0249 34.0105 42.0119 33.4474 42.9167 32.5393C43.5564 31.9036 43.9585 31.286 44.1322 30.6775C44.2875 30.0782 44.2967 29.5424 44.1779 29.0883Z" fill="black"/>
<path d="M38.6022 24.2296V13.8403C38.6022 12.9594 38.4834 12.1784 38.2458 11.4973C38.0082 10.8162 37.405 10.2259 36.4362 9.70821C35.4675 9.19056 33.9961 8.93628 32.0037 8.93628C30.9801 8.93628 29.9474 9.09067 28.9238 9.39036C27.8911 9.69913 27.0503 10.1532 26.374 10.7708C25.6977 11.3792 25.3687 12.1057 25.3687 12.9322C25.3687 13.7404 25.588 14.4034 26.0267 14.9119C26.4654 15.4205 27.0777 15.6748 27.8545 15.6748C28.6679 15.6748 29.2802 15.4205 29.6915 14.921C30.1028 14.4215 30.3038 13.8494 30.3038 13.1955C30.3038 12.8232 30.1302 12.3873 29.7829 11.8787C29.5179 11.4065 29.3808 10.9615 29.3808 10.5256C29.3808 10.244 29.6458 10.0261 30.1667 9.87168C30.6877 9.71729 31.2909 9.64464 31.9489 9.64464C33.0821 9.64464 33.8224 9.88984 34.1514 10.3621C34.4804 10.8434 34.6449 11.4973 34.6449 12.3146V16.7918C34.3433 16.7646 33.8955 16.7555 33.3106 16.7555C30.313 16.7555 28.0282 17.2641 26.4562 18.2721C26.0084 18.5627 25.6246 18.8897 25.3047 19.2348V25.5283C25.3321 25.5555 25.3595 25.5919 25.3961 25.6282C26.2552 26.4183 27.3793 26.8179 28.7776 26.8179C30.6877 26.8179 32.6435 25.9551 34.6449 24.2205C35.0562 25.6282 35.8696 26.4637 37.0851 26.7271C37.3684 26.2821 37.7157 25.8643 38.1361 25.4738C38.3189 25.3013 38.5108 25.1469 38.7027 25.0016C38.6388 24.7927 38.6022 24.5384 38.6022 24.2296ZM34.6632 22.9855C34.6632 23.2942 34.453 23.6212 34.0417 23.9481C33.6305 24.275 33.1461 24.5566 32.616 24.7927C32.086 25.0197 31.6747 25.1378 31.4097 25.1378C29.5544 25.1378 28.6314 24.2205 28.6314 22.3861C28.6314 21.0148 28.8324 19.9795 29.2254 19.2711C29.6184 18.5627 30.249 18.0814 31.0898 17.8271C31.9397 17.5728 33.1278 17.4457 34.6632 17.4457V22.9855Z" fill="black"/>
<path d="M58.4443 26.3456C59.0749 26.7815 59.9888 27.0085 61.1678 27.0085C62.9042 27.0085 64.4305 26.2548 65.7374 24.7472V26.1367C66.2035 26.0822 66.6787 26.055 67.1631 26.055C67.7663 26.055 68.3512 26.1004 68.9361 26.1821V18.0541H68.9452V12.6143C68.3329 12.7232 67.6657 12.7777 66.9529 12.7777H65.7465L65.7374 23.9299C64.7138 25.3557 63.544 26.0641 62.237 26.0641C61.7709 26.0641 61.2957 25.9187 60.8113 25.6281C60.327 25.3375 60.0893 24.6927 60.0893 23.7028V12.6233C59.934 12.6415 59.7877 12.6687 59.6324 12.6869C59.3034 13.3408 58.8464 13.9311 58.2706 14.4578C57.832 14.8574 57.375 15.1934 56.8906 15.4659V22.7402C56.8906 23.4758 56.9912 24.1569 57.1831 24.7745C57.3933 25.3829 57.8045 25.9097 58.4443 26.3456Z" fill="black"/>
</g>
<defs>
<clipPath id="clip0_4132_18469">
<rect width="74" height="53" fill="white" transform="translate(0.949219 0.227051)"/>
</clipPath>
</defs>
</svg>
