<svg width="166" height="26" viewBox="0 0 166 26" fill="none" xmlns="http://www.w3.org/2000/svg">
<g clip-path="url(#clip0_4132_18480)">
<path d="M2.97504 1.4982H1.13466C1.10995 1.49973 1.08519 1.49606 1.06203 1.48743C1.03887 1.47881 1.01784 1.46543 1.00033 1.44819C0.982827 1.43094 0.969246 1.41022 0.960492 1.38741C0.951738 1.3646 0.948012 1.34021 0.949561 1.31587V0.847023C0.949561 0.748044 1.0236 0.70116 1.13466 0.70116H6.57648C6.61091 0.699683 6.64528 0.705275 6.6774 0.71758C6.70952 0.729886 6.73868 0.748636 6.76305 0.772641C6.78742 0.796645 6.80646 0.825378 6.81895 0.857016C6.83144 0.888655 6.83712 0.922506 6.83562 0.956421V12.7297L18.5337 0.956421C18.6735 0.812077 18.861 0.721572 19.0625 0.70116H21.3472C21.4582 0.70116 21.527 0.737625 21.527 0.847023V1.31587C21.5293 1.33994 21.5263 1.36423 21.5182 1.38706C21.5101 1.40988 21.497 1.43068 21.4799 1.44803C21.4628 1.46538 21.4421 1.47885 21.4191 1.48751C21.3962 1.49618 21.3717 1.49982 21.3472 1.4982H19.7818L9.99812 11.3544C12.8967 14.8343 16.0048 18.1396 19.3058 21.2523C20.739 22.4869 21.8443 23.3361 23.1294 23.3361C23.5948 23.3188 24.0495 23.1939 24.4568 22.9714C24.5308 22.9714 24.5678 23.0444 24.6419 23.1538C24.7117 23.2524 24.7603 23.3641 24.7847 23.4819C24.7847 23.5549 24.7106 23.6591 24.4938 23.8049C23.4234 24.503 22.1708 24.8812 20.8871 24.8937C19.9854 24.9151 19.0884 24.7594 18.2485 24.4356C17.4086 24.1119 16.6426 23.6265 15.9952 23.0079C13.277 20.8095 9.44812 16.3763 6.83562 13.0944V23.8883H8.75004C8.77475 23.8868 8.79951 23.8904 8.82267 23.899C8.84583 23.9077 8.86686 23.9211 8.88436 23.9383C8.90187 23.9555 8.91545 23.9763 8.92421 23.9991C8.93296 24.0219 8.93669 24.0463 8.93514 24.0706V24.5447C8.93514 24.6541 8.8611 24.6853 8.75004 24.6853H3.23418C3.2004 24.686 3.16682 24.6801 3.13541 24.6678C3.104 24.6556 3.07539 24.6372 3.05125 24.614C3.02712 24.5907 3.00794 24.5629 2.99486 24.5322C2.98177 24.5015 2.97503 24.4686 2.97504 24.4353V1.4982Z" fill="black"/>
<path d="M48.1642 13.2507C45.8479 9.54156 43.0873 5.22816 40.4061 1.49821H38.7138C38.6891 1.49974 38.6643 1.49607 38.6411 1.48744C38.618 1.47882 38.5969 1.46544 38.5794 1.4482C38.5619 1.43095 38.5484 1.41024 38.5396 1.38742C38.5308 1.36461 38.5271 1.34022 38.5287 1.31588V0.847036C38.5287 0.737638 38.6027 0.701172 38.7138 0.701172H44.4465C44.5287 0.711259 44.6077 0.73885 44.678 0.782029C44.7483 0.825209 44.8083 0.882942 44.8537 0.951224C46.9109 3.87371 49.5234 8.09334 51.6546 11.6097C53.77 8.09334 56.3666 3.70701 58.3128 1.02416C58.3576 0.933734 58.4255 0.85638 58.5099 0.799737C58.5943 0.743093 58.6922 0.709119 58.794 0.701172H61.5916C61.7027 0.701172 61.7767 0.737638 61.7767 0.847036V1.31588C61.7783 1.34022 61.7746 1.36461 61.7658 1.38742C61.7571 1.41024 61.7435 1.43095 61.726 1.4482C61.7085 1.46544 61.6874 1.47882 61.6643 1.48744C61.6411 1.49607 61.6164 1.49974 61.5916 1.49821H59.7142C57.2498 4.83224 54.6003 8.92163 52.0618 13.0944V23.8883H54.0873C54.112 23.8868 54.1368 23.8904 54.1599 23.8991C54.1831 23.9077 54.2041 23.9211 54.2216 23.9383C54.2391 23.9556 54.2527 23.9763 54.2615 23.9991C54.2702 24.0219 54.274 24.0463 54.2724 24.0706V24.5447C54.2724 24.6489 54.1984 24.6853 54.0873 24.6853H48.4181C48.3846 24.686 48.3512 24.6801 48.3201 24.6677C48.289 24.6554 48.2607 24.637 48.237 24.6137C48.2133 24.5903 48.1946 24.5625 48.1821 24.5318C48.1696 24.5011 48.1635 24.4683 48.1642 24.4353V13.2507Z" fill="black"/>
<path d="M82.6191 23.7058H85.1206C85.1453 23.7043 85.1701 23.708 85.1932 23.7166C85.2164 23.7252 85.2374 23.7386 85.2549 23.7558C85.2724 23.7731 85.286 23.7938 85.2948 23.8166C85.3035 23.8394 85.3072 23.8638 85.3057 23.8881V24.5445C85.3057 24.6487 85.2317 24.6852 85.1206 24.6852H81.4768C81.4431 24.6859 81.4095 24.6799 81.3781 24.6677C81.3467 24.6554 81.3181 24.6371 81.2939 24.6138C81.2698 24.5905 81.2506 24.5627 81.2375 24.532C81.2244 24.5014 81.2177 24.4684 81.2177 24.4351V1.51369H79.3456C79.3209 1.51521 79.2961 1.51154 79.273 1.50292C79.2498 1.49429 79.2288 1.48092 79.2113 1.46367C79.1938 1.44643 79.1802 1.42571 79.1714 1.4029C79.1627 1.38008 79.1589 1.3557 79.1605 1.33136V0.810415C79.1605 0.701017 79.2345 0.664551 79.3456 0.664551H82.323C82.5297 0.69083 82.7186 0.793192 82.8518 0.951069C88.336 6.63975 97.0143 14.8654 102.313 19.4653V1.024C102.307 0.979669 102.311 0.934492 102.326 0.892093C102.341 0.849693 102.365 0.811251 102.397 0.779849C102.43 0.748447 102.469 0.724959 102.512 0.711269C102.556 0.697579 102.602 0.694068 102.647 0.701017H105.587C105.698 0.701017 105.772 0.737483 105.772 0.84688V1.31573C105.774 1.34007 105.77 1.36446 105.761 1.38727C105.752 1.41008 105.739 1.4308 105.721 1.44804C105.704 1.46529 105.683 1.47867 105.66 1.48729C105.636 1.49591 105.612 1.49958 105.587 1.49806H103.71V24.7946C103.714 24.8284 103.71 24.8628 103.699 24.8951C103.688 24.9273 103.669 24.9566 103.645 24.9807C103.62 25.0049 103.59 25.0232 103.558 25.0342C103.525 25.0453 103.49 25.0489 103.456 25.0446H103.16C103.066 25.0365 102.976 25.0102 102.893 24.9673C102.811 24.9244 102.738 24.8657 102.678 24.7946C95.6298 18.9634 88.9204 12.7457 82.5821 6.17091L82.6191 23.7058Z" fill="black"/>
<path d="M126.946 4.68631C126.946 6.89511 129.152 8.2756 133.049 10.0833C136.947 11.8909 139.967 14.1414 139.967 18.236C139.967 22.3306 136.619 25.2323 131.431 25.2323C128.686 25.2221 126.021 24.3173 123.853 22.6588C123.451 22.3306 123.266 22.1379 123.266 21.9295C123.29 21.7546 123.367 21.5911 123.488 21.4606C123.636 21.2783 123.71 21.2106 123.89 21.2106C124.069 21.2106 124.26 21.3877 124.445 21.4971C125.656 22.2941 128.12 23.8518 131.399 23.8518C134.572 23.8518 136.915 22.4035 136.915 19.8666C136.915 17.116 134.118 15.3344 130.183 13.4538C125.804 11.37 124.112 9.39563 124.112 6.0616C124.112 2.41501 127.285 0.227051 131.69 0.227051C133.427 0.239623 135.133 0.676366 136.656 1.49815C137.798 2.11286 138.681 2.87344 138.681 3.92574C138.686 4.1262 138.649 4.32544 138.573 4.51137C138.496 4.6973 138.383 4.86604 138.238 5.00733C138.094 5.14862 137.922 5.25952 137.733 5.33329C137.543 5.40706 137.341 5.44216 137.137 5.43647C136.938 5.4422 136.739 5.40775 136.553 5.33524C136.367 5.26272 136.198 5.15365 136.057 5.0147C135.915 4.87575 135.804 4.70983 135.73 4.52708C135.655 4.34432 135.62 4.14857 135.625 3.95179C135.636 3.63832 135.743 3.33554 135.932 3.08283C136.121 2.83012 136.382 2.63917 136.682 2.53482C135.268 1.71996 133.662 1.28356 132.023 1.26893C129.226 1.26893 126.946 2.3577 126.946 4.67589" fill="black"/>
<path d="M159.989 1.49821H158.148C158.124 1.49974 158.099 1.49607 158.076 1.48744C158.053 1.47882 158.032 1.46544 158.014 1.4482C157.996 1.43095 157.983 1.41024 157.974 1.38742C157.965 1.36461 157.962 1.34022 157.963 1.31588V0.847036C157.963 0.737638 158.037 0.701172 158.148 0.701172H163.632C163.666 0.701165 163.7 0.707801 163.731 0.720692C163.762 0.733583 163.79 0.752468 163.814 0.776243C163.837 0.800017 163.856 0.8282 163.869 0.859142C163.881 0.890084 163.887 0.92316 163.886 0.956433V23.8779H165.764C165.788 23.8764 165.813 23.88 165.836 23.8886C165.859 23.8973 165.881 23.9106 165.898 23.9279C165.916 23.9451 165.929 23.9659 165.938 23.9887C165.947 24.0115 165.95 24.0359 165.949 24.0602V24.5343C165.949 24.6437 165.875 24.6749 165.764 24.6749H160.248C160.214 24.6756 160.18 24.6697 160.149 24.6574C160.118 24.6451 160.089 24.6268 160.065 24.6035C160.041 24.5803 160.022 24.5525 160.009 24.5218C159.995 24.4911 159.989 24.4581 159.989 24.4249V1.49821Z" fill="black"/>
</g>
<defs>
<clipPath id="clip0_4132_18480">
<rect width="165" height="25" fill="white" transform="translate(0.949219 0.227051)"/>
</clipPath>
</defs>
</svg>
