<svg width="136" height="48" viewBox="0 0 136 48" fill="none" xmlns="http://www.w3.org/2000/svg">
<g clip-path="url(#clip0_4132_18216)">
<path d="M4.69779 25.3551V23.774C3.12253 23.6641 1.56726 23.5541 0.0139934 23.4462C0.0139934 23.2923 0.0119944 23.1363 0.0099953 22.9824C1.47331 22.4327 3.07855 22.8965 4.64581 22.5707V21.1255C3.12853 21.0095 1.57126 20.8916 0.0139934 20.7737C0.0099953 20.6337 0.00399812 20.4918 0 20.3519C1.4793 19.7722 3.13652 20.3119 4.6818 19.8482V18.4669C3.14452 18.351 1.57526 18.2331 0.00799624 18.1131C0.0099953 17.9492 0.0139934 17.7833 0.0159925 17.6194C1.53128 17.3196 3.09654 17.4075 4.6798 17.2796V15.7944C3.11253 15.6905 1.56127 15.5865 0.0119944 15.4846C0.0139934 15.3447 0.0179915 15.2047 0.0199906 15.0628C1.4833 14.4092 3.10454 14.9309 4.6718 14.5911V13.1619C3.13053 13.0439 1.57326 12.926 0.0139934 12.8061C0.0099953 12.6621 0.00399812 12.5202 0 12.3763C1.47531 11.7946 3.11853 12.3083 4.6738 11.9305V10.4913C3.10654 10.3754 1.55927 10.2615 0.0139934 10.1475C0.0139934 9.96763 0.0139934 9.78773 0.0139934 9.60983C1.54727 9.50389 3.08055 9.39995 4.60383 9.29401C4.8937 7.81882 4.85571 7.77485 3.46237 7.72088C2.59678 7.6869 1.73318 7.65092 0.869591 7.58495C0.57373 7.56097 0.285865 7.43903 0.00599718 7.20516C1.51928 6.6015 3.11254 6.86135 4.6818 6.64147V5.19228C3.10854 5.07434 1.55327 4.95641 0 4.84047C0.00199906 4.71054 0.00599718 4.58061 0.00799624 4.45069C1.46331 3.77106 3.09654 4.35874 4.59184 3.97895C4.8897 2.6117 4.8877 2.6197 3.53833 2.47178C2.39687 2.34585 1.25741 2.18994 0.117944 2.04801C0.0959548 1.93208 0.0739652 1.81614 0.0539746 1.70021C0.511759 1.57628 0.969544 1.3464 1.42533 1.3484C6.61889 1.37439 11.8184 1.29643 17.004 1.52231C23.339 1.79815 28.8904 6.84936 29.9739 13.1579C30.6976 17.3795 30.7535 21.6212 28.7425 25.553C26.6734 29.6008 23.7608 32.793 19.045 33.7645C18.1694 33.9444 17.2679 34.0863 16.3783 34.0923C11.4506 34.1223 6.52093 34.1143 1.59125 34.0883C1.0675 34.0863 0.545743 33.8864 0.0239887 33.7765C0.0379821 33.6245 0.0519755 33.4706 0.065969 33.3187C1.58725 33.1888 3.10854 33.0609 4.6738 32.9289V31.7476C3.12253 31.6277 1.56926 31.5057 0.0159925 31.3858C0.0119944 31.2359 0.00799624 31.086 0.00399812 30.936C1.4933 30.4023 3.14252 30.9041 4.68779 30.5143V29.0771C3.14452 28.9711 1.58725 28.8652 0.0299859 28.7572C0.0239887 28.6373 0.0179915 28.5174 0.0119944 28.3974C0.641698 27.7838 1.50929 28.1596 2.25294 28.0596C3.03857 27.9537 3.83819 27.9477 4.6778 27.8957V26.4365C3.15452 26.3206 1.58725 26.2027 0.0179915 26.0847C0.0139934 25.9128 0.0119944 25.7409 0.00799624 25.569C0.751646 25.499 1.4953 25.3991 2.24095 25.3651C3.03457 25.3291 3.8302 25.3571 4.70379 25.3571L4.69779 25.3551ZM11.3247 32.877C13.3977 32.877 15.3988 32.9889 17.3818 32.849C19.9986 32.6651 21.7917 31.3258 22.7213 28.7592C23.7508 25.9168 24.3765 23.0204 24.5464 20.0121C24.7923 15.6465 24.4005 11.3709 22.7953 7.26513C22.1316 5.57007 21.1081 4.11887 19.3869 3.39927C16.8241 2.32786 14.1074 2.22192 11.3247 2.34185V32.879V32.877Z" fill="black"/>
<path d="M110.476 7.92473C110.308 7.71485 110.082 7.53095 109.978 7.29308C108.703 4.3727 106.338 2.80357 103.391 1.95604C98.9752 0.686738 97.156 1.46631 94.8311 5.44611C93.056 8.48243 92.3663 11.8126 92.0164 15.2367C91.6246 19.0726 91.7606 22.8885 92.8001 26.6264C93.4698 29.0291 94.4673 31.2698 96.4923 32.8749C98.1316 34.1742 100.015 34.7079 102.098 34.502C103.919 34.3221 105.7 32.661 105.954 30.5922C106.234 28.3215 106.322 26.0187 106.368 23.728C106.388 22.7106 105.812 21.931 104.756 21.5672C103.381 21.0934 102.627 20.082 102.709 18.9486C102.791 17.8213 103.671 16.7459 105.1 16.6719C106.867 16.5799 108.657 16.8458 110.43 17.0117C111.617 17.1216 112.795 17.4495 113.976 17.4475C114.76 17.4475 115.543 17.0337 116.395 16.7858V21.4413C116.235 21.4413 116.083 21.4892 115.993 21.4333C114.432 20.4978 112.803 20.7796 111.141 21.0795C110.252 21.2414 109.84 21.7291 109.824 22.5367C109.8 23.664 109.816 24.7994 109.926 25.9208C110.232 28.9931 109.742 31.7755 107.169 33.8224C105.818 34.8958 104.199 35.4535 102.523 35.3855C100.211 35.2916 97.8577 35.1337 95.6167 34.6C92.0164 33.7425 89.7555 31.1319 88.0043 28.0016C83.6724 20.2599 84.1321 12.4622 89.2298 5.62001C92.1024 1.77014 96.1285 -0.160793 101.056 0.290957C101.998 0.376909 102.915 0.766694 103.837 1.04454C104.599 1.27641 105.354 1.53627 106.102 1.81012C107.399 2.28585 108.579 2.11995 109.652 1.22844C110.146 0.818665 110.718 0.642762 110.748 1.52827C110.818 3.61512 110.77 5.70596 110.77 7.79481C110.672 7.83878 110.574 7.88076 110.478 7.92473H110.476Z" fill="black"/>
<path d="M46.1562 45.2222C48.8589 46.1117 50.934 45.1583 52.8191 43.6611C53.5367 43.0914 54.2104 42.3718 54.6582 41.5803C55.7817 39.5874 56.7732 37.5205 57.8027 35.4756C58.1845 34.7161 58.1186 34.0444 57.6388 33.2629C55.4258 29.6648 53.2489 26.0448 51.1579 22.3769C50.2663 20.8117 49.1948 19.9782 47.5655 20.5219C47.4276 21.5094 47.4056 22.4748 47.1158 23.3523C46.9818 23.7581 46.3701 24.1019 45.9023 24.2798C44.8548 24.6796 43.7074 24.1939 43.1596 23.2404C42.4759 22.0491 42.7678 21.0516 44.1412 19.5764C43.5874 19.6604 43.0037 19.6564 42.4879 19.8443C39.5673 20.9057 37.4383 23.984 37.4323 27.0803C37.4283 29.0372 37.4323 30.9961 37.4323 33.077C38.2999 33.077 39.0915 33.031 39.8732 33.1029C40.129 33.1269 40.3589 33.4547 40.5988 33.6426C40.3609 33.7966 40.1251 34.0804 39.8852 34.0824C37.4543 34.1164 35.0215 34.1164 32.5906 34.0824C32.3367 34.0784 32.0848 33.7986 31.833 33.6486C32.0848 33.4627 32.3227 33.1509 32.5946 33.1149C33.2123 33.035 33.848 33.0889 34.5497 33.0889V20.37C33.808 20.37 33.0784 20.4 32.3547 20.35C32.1588 20.336 31.9789 20.0841 31.793 19.9422C31.9729 19.7543 32.1468 19.4085 32.3347 19.4025C33.7321 19.3526 35.1354 19.3066 36.5267 19.4105C36.8426 19.4345 37.2924 20.0102 37.3683 20.394C37.5043 21.0936 37.4063 21.8372 37.5862 22.6547C37.7702 22.3769 37.9581 22.103 38.134 21.8232C39.9191 19.0007 43.0177 18.0033 46.0962 19.2466C46.3601 19.3526 46.676 19.3625 46.9678 19.3625C49.3327 19.3625 51.6976 19.3446 54.0625 19.3386C54.2924 19.3386 54.5403 19.3446 54.7482 19.4265C54.9121 19.4925 55.15 19.7004 55.134 19.8143C55.108 20.0022 54.9301 20.274 54.7662 20.318C54.2904 20.4419 53.7906 20.4699 53.1329 20.5559C55.2399 24.1279 57.319 27.65 59.5179 31.3779C60.0457 30.2245 60.5314 29.2651 60.9273 28.2696C61.6609 26.4166 62.3386 24.5417 63.0423 22.6787C63.528 21.3914 63.1162 20.5479 61.8648 20.6179C61.6729 20.6278 61.425 20.6039 61.2891 20.4919C61.0852 20.322 60.8693 20.0722 60.8353 19.8323C60.8173 19.7084 61.1771 19.3985 61.3711 19.3945C63.4361 19.3526 65.5011 19.3426 67.5641 19.3705C67.766 19.3725 67.9659 19.6964 68.1659 19.8723C67.9699 20.0722 67.766 20.4539 67.5761 20.4459C65.5231 20.366 64.8794 21.8772 64.2337 23.3603C61.9508 28.5974 59.6938 33.8485 57.4149 39.0876C56.3914 41.4403 55.03 43.5352 52.8771 45.0403C50.7061 46.5575 48.3272 46.8333 45.8224 46.2317C44.0992 45.8159 43.1496 44.5706 43.1696 42.9435C43.1856 41.7262 43.9273 40.7587 45.0207 40.5308C46.1242 40.301 47.3217 40.9266 47.7175 41.9401C48.1513 43.0494 47.7655 44.2028 46.7219 44.8984C46.59 44.9864 46.4441 45.0583 46.1522 45.2242L46.1562 45.2222Z" fill="black"/>
<path d="M125.477 34.9159C123.16 34.8719 120.466 33.8485 118.425 31.4238C115.842 28.3555 116.082 24.2218 118.956 21.4293C122.633 17.8573 128.874 17.5435 132.884 20.7317C137.452 24.3617 136.922 30.6442 131.812 33.4827C130.039 34.4661 128.308 34.9159 125.479 34.9179L125.477 34.9159ZM133.02 27.3181C133.038 21.4933 129.192 18.7948 124.382 19.8542C121.703 20.4439 120.386 22.4688 119.826 24.9954C119.208 27.7778 119.706 30.3344 121.949 32.2593C124.19 34.1823 126.807 34.4081 129.42 33.2008C132.122 31.9535 132.972 29.5109 133.02 27.3161V27.3181Z" fill="black"/>
<path d="M76.8234 22.8885C77.581 21.917 77.599 20.9835 76.9353 20.2219C76.2876 19.4803 75.1182 19.3364 74.2006 19.8861C73.297 20.4278 72.9592 21.2694 73.369 22.2748C73.6549 22.9764 74.0427 23.646 74.4645 24.2777C75.536 25.8828 76.6514 27.4559 77.7529 29.0411C77.7889 29.091 77.8549 29.119 77.9868 29.217C78.2307 28.4014 78.4306 27.6058 78.7105 26.8383C78.8764 26.3805 79.0943 25.8988 79.4181 25.551C79.9059 25.0293 80.5656 24.9333 81.0814 25.499C81.2513 25.6849 81.2653 26.2866 81.0994 26.4605C80.5136 27.0761 80.0678 26.5604 79.5661 25.9528C79.1703 27.29 78.7644 28.4774 78.4806 29.6947C78.3127 30.4103 80.8255 33.5446 81.5751 33.6945C81.775 33.7345 81.9709 33.8004 82.1449 34.0903H78.2307C78.2107 34.0323 78.1927 33.9743 78.1727 33.9144C78.4226 33.7964 78.6725 33.6765 78.9764 33.5326C78.5426 32.8909 78.1168 32.2633 77.623 31.5337C77.3071 32.0354 77.0533 32.4811 76.7614 32.8989C75.6639 34.47 73.5569 35.0617 72.0036 34.2502C70.4544 33.4386 69.8566 31.5277 70.5523 29.6487C71.0781 28.2335 72.0816 27.302 73.5329 26.7743C73.433 26.9022 73.343 27.0402 73.2291 27.1581C73.0911 27.302 72.9272 27.42 72.7853 27.5599C71.4599 28.8492 71.172 30.5822 72.0096 32.2213C72.5474 33.2727 73.6629 33.7904 74.8643 33.5446C75.7379 33.3667 77.1012 31.9155 77.0952 31.0899C77.0932 30.8221 76.9053 30.5342 76.7434 30.2944C75.57 28.5593 74.3705 26.8403 73.2031 25.0992C72.8712 24.6055 72.5534 24.0858 72.3415 23.5341C71.8057 22.1429 72.1576 20.6957 73.1811 19.7922C74.3525 18.7587 76.1037 18.4749 77.3651 19.1145C78.2947 19.5863 78.7365 20.4198 78.5805 21.4053C78.4446 22.2688 77.9808 22.6886 76.8254 22.8905L76.8234 22.8885Z" fill="black"/>
<path d="M120.665 47.227C120.575 46.9411 120.485 46.6553 120.381 46.3215H116.635C116.505 46.6293 116.381 46.9251 116.255 47.223C115.987 46.6033 115.522 46.0056 116.415 45.5759C116.613 45.4799 116.731 45.0882 116.771 44.8163C116.927 43.7329 117.071 42.6435 117.153 41.5521C117.195 40.9964 117.397 40.7965 117.949 40.8205C118.74 40.8565 119.534 40.8305 120.459 40.8305C120.459 42.2117 120.431 43.529 120.479 44.8443C120.491 45.1501 120.831 45.43 120.897 45.7498C120.995 46.2195 120.985 46.7113 121.021 47.195C120.901 47.207 120.781 47.219 120.661 47.231L120.665 47.227ZM119.76 45.6698V41.4582H117.853C117.679 42.8914 117.513 44.2606 117.343 45.6698H119.76Z" fill="black"/>
<path d="M125.411 46.3414C123.794 46.3494 122.632 45.2181 122.6 43.603C122.568 41.9719 123.78 40.7106 125.383 40.7066C126.964 40.7026 128.146 41.8799 128.172 43.481C128.198 45.1881 127.092 46.3334 125.413 46.3414H125.411ZM125.333 45.7318C126.598 45.7458 127.534 44.8003 127.518 43.523C127.502 42.2917 126.578 41.3202 125.409 41.3062C124.233 41.2942 123.324 42.2417 123.308 43.497C123.292 44.8023 124.124 45.7178 125.333 45.7318Z" fill="black"/>
<path d="M70.887 42.9015C71.5807 42.9415 72.2104 42.9535 72.8341 43.0214C73.7677 43.1234 74.2694 43.6751 74.3034 44.6066C74.3354 45.4701 73.6937 46.1317 72.7541 46.2596C72.6222 46.2776 72.4883 46.2736 72.3543 46.2736C71.6886 46.2736 71.0249 46.2736 70.2793 46.2736V40.9126H73.7517C72.956 41.8241 71.8346 41.1265 70.885 41.5682V42.9015H70.887ZM70.887 45.676C71.4967 45.676 72.0924 45.8059 72.5882 45.636C72.996 45.4961 73.5398 45.0103 73.5498 44.6625C73.5598 44.3067 73.06 43.753 72.6682 43.6151C72.1484 43.4332 71.5167 43.5691 70.887 43.5691V45.676Z" fill="black"/>
<path d="M134.445 41.0365C133.791 41.3743 132.578 43.2293 132.796 43.6091C133.301 44.4926 133.921 45.3102 134.347 46.3596C134.075 46.2057 133.747 46.1037 133.547 45.8838C133.215 45.52 132.919 45.1043 132.69 44.6685C132.312 43.9589 131.82 43.6091 130.87 44.0049C130.87 44.5306 130.894 45.1503 130.854 45.7639C130.844 45.9358 130.647 46.0937 130.535 46.2596C130.421 46.1017 130.207 45.9458 130.205 45.7879C130.181 44.1688 130.189 42.5477 130.189 40.9126C130.499 40.9632 130.759 41.7168 130.966 43.1733C132.13 43.3652 132.32 43.2353 132.758 41.942C133.125 40.8526 133.419 40.6787 134.445 41.0365Z" fill="black"/>
<path d="M75.542 46.0996C76.3856 44.3246 77.2292 42.5496 78.2088 40.4907C79.1743 42.5456 80.0079 44.3206 80.8415 46.0956C80.7656 46.1736 80.6916 46.2515 80.6156 46.3295C80.3878 46.1256 80.0459 45.9637 79.956 45.7118C79.7081 45.0162 79.2523 44.8623 78.5786 44.9063C77.661 44.9643 76.6055 44.6464 76.3077 46.0097C76.2757 46.1516 75.9219 46.2236 75.716 46.3275C75.658 46.2515 75.598 46.1776 75.54 46.1016L75.542 46.0996ZM79.2843 44.2906C78.9184 43.4691 78.5986 42.7475 78.1868 41.82C77.781 42.7755 77.4731 43.4971 77.1353 44.2906H79.2843Z" fill="black"/>
<path d="M83.4807 44.5866C83.2528 45.3222 83.1089 45.7879 82.963 46.2536C82.843 45.7699 82.6351 45.2882 82.6171 44.8005C82.5671 43.5112 82.6011 42.2199 82.6011 40.8446C83.5067 40.8446 84.3323 40.7827 85.1439 40.8606C86.1195 40.9546 86.7612 41.7721 86.7292 42.7176C86.6972 43.6671 86.0115 44.4127 85.044 44.5046C84.4643 44.5606 83.8785 44.5666 83.4787 44.5846L83.4807 44.5866ZM83.2868 41.4043V43.887C84.1964 43.847 85.1759 44.2907 85.7956 43.3832C86.0195 43.0554 86.0415 42.3558 85.8396 42.014C85.2639 41.0445 84.2603 41.4843 83.2868 41.4043Z" fill="black"/>
<path d="M103.081 46.1617C103.385 45.5441 103.759 45.0483 103.873 44.4967C104.065 43.5572 104.121 42.5877 104.183 41.6262C104.219 41.0586 104.402 40.7867 105.02 40.8187C105.84 40.8627 106.665 40.8287 107.601 40.8287C107.601 42.5457 107.611 44.1648 107.585 45.7839C107.583 45.9439 107.369 46.1018 107.253 46.2597C107.157 46.0838 106.981 45.9099 106.979 45.732C106.957 44.3427 106.967 42.9535 106.967 41.6162C106.825 41.5303 106.773 41.4723 106.717 41.4663C105.533 41.3611 104.866 41.8994 104.718 43.0814C104.618 43.871 104.558 44.6726 104.388 45.4461C104.205 46.2757 103.699 46.4436 103.083 46.1597L103.081 46.1617Z" fill="black"/>
<path d="M114.428 46.3536C114.216 46.1717 113.886 46.0278 113.814 45.7999C113.563 45.0044 113.039 44.8884 112.289 44.9004C111.342 44.9164 110.424 44.8045 110.112 46.0278C110.076 46.1677 109.712 46.2237 109.351 46.1517C110.186 44.3787 111.024 42.6057 111.859 40.8307C111.955 40.8087 112.051 40.7867 112.149 40.7627C112.995 42.5497 113.838 44.3347 114.684 46.1217C114.6 46.1977 114.514 46.2736 114.43 46.3516L114.428 46.3536ZM110.936 44.2708H113.115C112.745 43.4552 112.425 42.7456 112.025 41.8641C111.624 42.7536 111.292 43.4832 110.936 44.2708Z" fill="black"/>
<path d="M97.9602 43.2194C99.1917 43.4812 99.5675 42.8196 99.8414 41.9321C100.175 40.8507 100.539 40.6688 101.191 40.9206C100.721 41.7682 100.237 42.6377 99.7474 43.5172C100.381 44.4227 100.987 45.2862 101.591 46.1478C101.537 46.2177 101.485 46.2877 101.431 46.3596C101.157 46.2037 100.823 46.1038 100.621 45.8819C100.287 45.5161 100.003 45.0943 99.7654 44.6586C99.3816 43.957 98.8878 43.5992 97.9602 43.9929C97.9602 44.5406 97.9842 45.1643 97.9443 45.782C97.9343 45.9459 97.7244 46.0958 97.6064 46.2517C97.5085 46.1078 97.3285 45.9639 97.3265 45.8179C97.3066 44.3208 97.3046 42.8216 97.3325 41.3244C97.3345 41.1685 97.5604 41.0166 97.6824 40.8627C97.7763 41.0106 97.9423 41.1545 97.9503 41.3064C97.9802 41.9321 97.9623 42.5617 97.9623 43.2174L97.9602 43.2194Z" fill="black"/>
<path d="M91.2254 40.7845C92.4188 41.3102 92.4028 42.8094 93.2764 43.6469C94.088 42.8494 94.0381 41.3742 95.1275 40.7805C95.2295 40.8485 95.3314 40.9164 95.4334 40.9844C94.6098 42.5935 93.8262 44.2246 92.9466 45.8017C92.5568 46.5034 91.949 46.5073 91.3173 45.8977C91.5372 45.8437 91.7032 45.8057 91.8671 45.7598C92.6387 45.5439 93.0065 44.6963 92.6167 43.9767C92.081 42.9893 91.5252 42.0118 90.9795 41.0284C91.0615 40.9464 91.1434 40.8645 91.2254 40.7845Z" fill="black"/>
</g>
<defs>
<clipPath id="clip0_4132_18216">
<rect width="136" height="47" fill="white" transform="translate(0 0.227051)"/>
</clipPath>
</defs>
</svg>
