<svg width="226" height="58" viewBox="0 0 226 58" fill="none" xmlns="http://www.w3.org/2000/svg">
<path d="M15.5086 29.0784V50.0319C15.5086 50.2759 15.3067 50.4768 15.0617 50.4768H2.70763C2.46256 50.4768 2.26074 50.2759 2.26074 50.0319V29.0784C2.26074 28.8774 2.4049 28.6909 2.60671 28.6335L5.48981 27.9303C5.69162 27.8872 5.83578 27.7007 5.83578 27.4854V7.42171C5.83578 7.17773 6.03761 6.97681 6.28267 6.97681H11.4722C11.7174 6.97681 11.9192 7.17773 11.9192 7.42171V27.4997C11.9192 27.7007 12.0633 27.8872 12.2651 27.9446L15.1482 28.6479C15.3645 28.6909 15.5086 28.8632 15.5086 29.0784Z" fill="black"/>
<path d="M30.0964 29.0784V50.0319C30.0964 50.2759 29.8946 50.4768 29.6496 50.4768H17.2955C17.0504 50.4768 16.8486 50.2759 16.8486 50.0319V29.0784C16.8486 28.8774 16.9928 28.6909 17.1947 28.6335L20.0777 27.9303C20.2796 27.8872 20.4236 27.7007 20.4236 27.4854V7.42171C20.4236 7.17773 20.6255 6.97681 20.8705 6.97681H26.0889C26.334 6.97681 26.5358 7.17773 26.5358 7.42171V27.4997C26.5358 27.7007 26.68 27.8872 26.8819 27.9446L29.7649 28.6479C29.9524 28.6909 30.0964 28.8632 30.0964 29.0784Z" fill="black"/>
<path d="M44.6833 29.0784V50.0319C44.6833 50.2759 44.4815 50.4768 44.2364 50.4768H31.8824C31.6373 50.4768 31.4355 50.2759 31.4355 50.0319V29.0784C31.4355 28.8774 31.5797 28.6909 31.7815 28.6335L34.6646 27.9303C34.8664 27.8872 35.0105 27.7007 35.0105 27.4854V7.42171C35.0105 7.17773 35.2124 6.97681 35.4574 6.97681H40.6759C40.9209 6.97681 41.1227 7.17773 41.1227 7.42171V27.4997C41.1227 27.7007 41.2669 27.8872 41.4687 27.9446L44.3518 28.6479C44.5392 28.6909 44.6833 28.8632 44.6833 29.0784Z" fill="black"/>
<path d="M59.2751 29.0784V50.0319C59.2751 50.2759 59.0733 50.4768 58.8282 50.4768H46.4742C46.2291 50.4768 46.0273 50.2759 46.0273 50.0319V29.0784C46.0273 28.8774 46.1715 28.6909 46.3733 28.6335L49.2564 27.9303C49.4582 27.8872 49.6023 27.7007 49.6023 27.4854V7.42171C49.6023 7.17773 49.8042 6.97681 50.0492 6.97681H55.2677C55.5127 6.97681 55.7145 7.17773 55.7145 7.42171V27.4997C55.7145 27.7007 55.8587 27.8872 56.0605 27.9446L58.9436 28.6479C59.131 28.6909 59.2751 28.8632 59.2751 29.0784Z" fill="black"/>
<path d="M99.2312 37.3108C99.2312 37.2105 99.1807 37.1353 99.0549 37.0851C98.9291 37.035 98.8025 37.0099 98.6767 36.9848C98.6262 36.9848 98.6014 36.9347 98.6014 36.8846C98.6014 36.8596 98.6014 36.8344 98.6014 36.8344C98.6014 36.8093 98.6014 36.7843 98.6262 36.7593C98.7777 36.7843 98.9789 36.7843 99.1807 36.7843C99.3818 36.7843 99.5837 36.7843 99.7601 36.7843C99.8859 36.7843 99.9868 36.8093 100.012 36.8344C100.062 36.8596 100.087 36.9096 100.113 36.9848L101.523 40.1188L101.069 40.2943L102.631 36.9848C102.656 36.9096 102.706 36.8596 102.731 36.8344C102.782 36.8093 102.857 36.7843 103.008 36.7843C103.185 36.7843 103.386 36.7843 103.562 36.7843C103.738 36.7843 103.915 36.7843 104.091 36.7593C104.091 36.7843 104.091 36.8093 104.117 36.8344C104.117 36.8596 104.117 36.8846 104.117 36.8846C104.117 36.9347 104.091 36.9848 104.041 36.9848C103.915 37.0099 103.789 37.035 103.663 37.0851C103.537 37.1353 103.487 37.2105 103.512 37.2858L103.663 40.1439C103.663 40.2442 103.713 40.3195 103.839 40.3695C103.94 40.4197 104.066 40.4447 104.217 40.4698C104.267 40.4698 104.293 40.52 104.293 40.5701C104.293 40.5952 104.293 40.6203 104.293 40.6453C104.293 40.6704 104.293 40.6954 104.267 40.7206C104.117 40.7206 103.94 40.6954 103.815 40.6954C103.663 40.6954 103.512 40.6704 103.336 40.6704C103.16 40.6704 103.008 40.6704 102.832 40.6954C102.656 40.6954 102.504 40.7206 102.354 40.7206C102.354 40.6954 102.354 40.6704 102.328 40.6453C102.328 40.6203 102.328 40.5952 102.328 40.5701C102.328 40.52 102.354 40.4698 102.404 40.4698C102.53 40.4447 102.656 40.4197 102.757 40.3695C102.857 40.3195 102.907 40.2442 102.907 40.1439L102.757 37.0601H103.033L101.371 40.6453C101.347 40.6704 101.321 40.7206 101.27 40.7206C101.221 40.7457 101.195 40.7457 101.145 40.7457C101.12 40.7457 101.094 40.7457 101.094 40.7457L99.3818 36.9598L99.6839 36.8846L99.5333 40.1188C99.5333 40.2191 99.5837 40.2943 99.6839 40.3445C99.7849 40.3946 99.9107 40.4197 100.036 40.4447C100.087 40.4447 100.113 40.4949 100.113 40.545C100.113 40.5701 100.113 40.5952 100.113 40.6203C100.113 40.6453 100.113 40.6704 100.087 40.6954C99.9611 40.6954 99.8353 40.6704 99.6839 40.6704C99.5333 40.6704 99.4074 40.6453 99.3066 40.6453C99.1807 40.6453 99.0549 40.6453 98.9035 40.6704C98.7528 40.6954 98.6262 40.6954 98.5004 40.6954C98.5004 40.6704 98.5004 40.6453 98.4756 40.6203C98.4756 40.5952 98.4756 40.5701 98.4756 40.545C98.4756 40.4949 98.5004 40.4447 98.551 40.4447C98.6767 40.4197 98.8025 40.3946 98.9291 40.3445C99.0293 40.2943 99.1054 40.2191 99.1054 40.1188L99.2312 37.3108Z" fill="black"/>
<path d="M109.733 40.4701C109.783 40.4701 109.833 40.5454 109.833 40.6706C109.683 40.7709 109.456 40.8462 109.23 40.8462C108.953 40.8462 108.751 40.7709 108.625 40.6205C108.499 40.4701 108.424 40.2946 108.398 40.1191C108.247 40.3948 108.046 40.5954 107.844 40.6957C107.642 40.7959 107.391 40.8462 107.089 40.8462C106.962 40.8462 106.836 40.8462 106.686 40.8211C106.535 40.7959 106.409 40.7459 106.283 40.6957C106.157 40.6205 106.056 40.5202 105.981 40.3948C105.905 40.2694 105.854 40.094 105.854 39.8934C105.854 39.6678 105.905 39.4672 106.031 39.3168C106.132 39.1664 106.283 39.016 106.459 38.9157C106.636 38.8154 106.812 38.7401 107.013 38.6649C107.215 38.5897 107.416 38.5396 107.592 38.5145C107.694 38.4894 107.795 38.4643 107.895 38.4643C107.995 38.4392 108.071 38.4142 108.147 38.3892C108.222 38.364 108.298 38.3389 108.298 38.2889C108.324 38.2386 108.324 38.1635 108.324 38.0381C108.324 37.7373 108.272 37.4866 108.147 37.311C108.046 37.1355 107.844 37.0352 107.542 37.0352C107.315 37.0352 107.165 37.0855 107.089 37.1857C107.013 37.286 106.913 37.4614 106.836 37.7122C106.812 37.7874 106.786 37.8375 106.711 37.8627C106.636 37.8877 106.535 37.9378 106.384 37.9629C106.334 37.988 106.308 37.988 106.233 38.013C106.182 38.0381 106.132 38.0381 106.081 38.0381C106.031 38.0381 105.981 37.9629 105.981 37.8375C105.981 37.7121 106.031 37.5617 106.132 37.4364C106.233 37.311 106.384 37.1857 106.535 37.0855C106.711 36.9852 106.888 36.8848 107.063 36.8347C107.265 36.7595 107.442 36.7344 107.618 36.7344C107.844 36.7344 108.021 36.7595 108.197 36.7845C108.373 36.8347 108.524 36.8848 108.65 36.9852C108.776 37.0855 108.877 37.2107 108.927 37.3863C109.003 37.5617 109.028 37.7624 109.028 38.0381V39.6426C109.028 39.8683 109.028 40.0188 109.053 40.1191C109.078 40.2194 109.104 40.2946 109.128 40.3447C109.179 40.42 109.23 40.4951 109.28 40.5202C109.33 40.5454 109.381 40.5704 109.456 40.5704C109.531 40.5704 109.581 40.5704 109.607 40.5454C109.683 40.4701 109.707 40.4701 109.733 40.4701ZM108.324 38.6399L108.021 38.69C107.869 38.715 107.694 38.7652 107.542 38.7903C107.391 38.8404 107.265 38.8906 107.139 38.9657C107.013 39.041 106.938 39.1413 106.862 39.2667C106.786 39.3919 106.762 39.5424 106.762 39.6929C106.762 39.9185 106.812 40.1191 106.938 40.2444C107.063 40.3698 107.215 40.42 107.391 40.42C107.517 40.42 107.618 40.3948 107.744 40.3447C107.869 40.2946 107.971 40.2194 108.046 40.1191C108.121 40.0188 108.197 39.9185 108.247 39.768C108.298 39.6426 108.324 39.4922 108.324 39.3419V38.6399Z" fill="black"/>
<path d="M115.298 40.1941C115.298 40.2943 115.348 40.3695 115.474 40.3946C115.575 40.4447 115.701 40.4698 115.853 40.4949C115.903 40.4949 115.927 40.545 115.927 40.5952C115.927 40.6203 115.927 40.6453 115.927 40.6704C115.927 40.6954 115.927 40.7206 115.903 40.7457C115.751 40.7457 115.575 40.7206 115.424 40.7206C115.273 40.7206 115.097 40.6954 114.921 40.6954C114.744 40.6954 114.592 40.6954 114.417 40.7206C114.241 40.7206 114.089 40.7457 113.913 40.7457C113.913 40.7206 113.913 40.6954 113.888 40.6704C113.888 40.6453 113.888 40.6203 113.888 40.5952C113.888 40.545 113.913 40.4949 113.964 40.4949C114.089 40.4698 114.215 40.4447 114.316 40.3946C114.417 40.3445 114.467 40.2692 114.467 40.1941V38.8903H112.579V40.1941C112.579 40.2943 112.629 40.3695 112.73 40.3946C112.83 40.4447 112.956 40.4698 113.082 40.4949C113.132 40.4949 113.158 40.545 113.158 40.5952C113.158 40.6203 113.158 40.6453 113.158 40.6704C113.158 40.6954 113.158 40.7206 113.132 40.7457C112.982 40.7457 112.805 40.7206 112.653 40.7206C112.503 40.7206 112.327 40.6954 112.15 40.6954C111.974 40.6954 111.797 40.6954 111.621 40.7206C111.47 40.7206 111.294 40.7457 111.143 40.7457C111.143 40.7206 111.143 40.6954 111.117 40.6704C111.117 40.6453 111.117 40.6203 111.117 40.5952C111.117 40.545 111.143 40.4949 111.193 40.4949C111.32 40.4698 111.446 40.4447 111.571 40.3946C111.672 40.3445 111.747 40.2692 111.747 40.1689V37.3108C111.747 37.2105 111.697 37.1353 111.571 37.0851C111.47 37.035 111.344 37.0099 111.193 36.9848C111.143 36.9848 111.117 36.9347 111.117 36.8846C111.117 36.8596 111.117 36.8344 111.117 36.8344C111.117 36.8093 111.117 36.7843 111.143 36.7593C111.294 36.7843 111.446 36.7843 111.621 36.7843C111.797 36.7843 111.949 36.7843 112.15 36.7843C112.327 36.7843 112.477 36.7843 112.653 36.7843C112.805 36.7843 112.982 36.7593 113.132 36.7593C113.132 36.7843 113.132 36.8093 113.158 36.8344C113.158 36.8596 113.158 36.8846 113.158 36.8846C113.158 36.9347 113.132 36.9848 113.082 36.9848C112.956 37.0099 112.83 37.035 112.73 37.0851C112.629 37.1353 112.579 37.2105 112.579 37.2858V38.5142H114.467V37.2858C114.467 37.1855 114.417 37.1102 114.316 37.0851C114.215 37.035 114.089 37.0099 113.964 36.9848C113.913 36.9848 113.888 36.9347 113.888 36.8846C113.888 36.8596 113.888 36.8344 113.888 36.8344C113.888 36.8093 113.888 36.7843 113.913 36.7593C114.064 36.7843 114.241 36.7843 114.417 36.7843C114.592 36.7843 114.744 36.7843 114.921 36.7843C115.097 36.7843 115.273 36.7843 115.424 36.7843C115.575 36.7843 115.751 36.7593 115.903 36.7593C115.903 36.7843 115.903 36.8093 115.927 36.8344C115.927 36.8596 115.927 36.8846 115.927 36.8846C115.927 36.9347 115.903 36.9848 115.853 36.9848C115.727 37.0099 115.6 37.035 115.474 37.0851C115.374 37.1353 115.298 37.2105 115.298 37.2858V40.1941Z" fill="black"/>
<path d="M120.663 37.988L118.874 40.0689V40.1692C118.874 40.3447 119 40.445 119.277 40.4951C119.328 40.4951 119.353 40.5454 119.353 40.5954C119.353 40.6205 119.353 40.6456 119.353 40.6706C119.353 40.6957 119.353 40.7208 119.328 40.7459C119.151 40.7459 119 40.7208 118.874 40.7208C118.724 40.7208 118.598 40.6957 118.471 40.6957C118.295 40.6957 118.119 40.6957 117.968 40.7208C117.817 40.7208 117.641 40.7459 117.49 40.7459C117.49 40.7208 117.49 40.6957 117.465 40.6706C117.465 40.6456 117.465 40.6205 117.465 40.5954C117.465 40.5454 117.49 40.4951 117.541 40.4951C117.666 40.4701 117.792 40.4451 117.918 40.3948C118.019 40.3447 118.094 40.2695 118.094 40.1692V37.311C118.094 37.2107 118.044 37.1355 117.918 37.0855C117.817 37.0352 117.691 37.0102 117.541 36.9852C117.49 36.9852 117.465 36.9349 117.465 36.8848C117.465 36.8598 117.465 36.8347 117.465 36.8347C117.465 36.8096 117.464 36.7845 117.49 36.7595C117.641 36.7845 117.817 36.7845 117.968 36.7845C118.119 36.7845 118.295 36.7845 118.471 36.7845C118.648 36.7845 118.8 36.7845 118.975 36.7845C119.127 36.7845 119.277 36.7595 119.454 36.7595C119.454 36.7845 119.454 36.8096 119.48 36.8347C119.48 36.8598 119.48 36.8848 119.48 36.8848C119.48 36.9349 119.454 36.9852 119.403 36.9852C119.277 37.0102 119.151 37.0352 119.051 37.0855C118.951 37.1355 118.874 37.2107 118.874 37.286V39.5173L120.663 37.4364V37.286C120.663 37.1105 120.537 37.0102 120.26 36.9601C120.21 36.9601 120.184 36.9099 120.184 36.8598C120.184 36.8347 120.184 36.8096 120.184 36.8096C120.184 36.7845 120.184 36.7595 120.21 36.7344C120.361 36.7595 120.537 36.7595 120.687 36.7595C120.839 36.7595 120.965 36.7595 121.09 36.7595C121.267 36.7595 121.443 36.7595 121.595 36.7595C121.745 36.7595 121.922 36.7344 122.073 36.7344C122.073 36.7595 122.073 36.7845 122.098 36.8096C122.098 36.8347 122.098 36.8598 122.098 36.8598C122.098 36.9099 122.073 36.9601 122.023 36.9601C121.897 36.9852 121.772 37.0102 121.645 37.0603C121.545 37.1105 121.468 37.1857 121.468 37.2609V40.1191C121.468 40.2194 121.519 40.2946 121.645 40.3197C121.745 40.3698 121.871 40.3948 122.023 40.42C122.073 40.42 122.098 40.4701 122.098 40.5202C122.098 40.5454 122.098 40.5704 122.098 40.5954C122.098 40.6205 122.098 40.6456 122.073 40.6706C121.922 40.6706 121.745 40.6456 121.595 40.6456C121.443 40.6456 121.267 40.6205 121.09 40.6205C120.915 40.6205 120.763 40.6205 120.587 40.6456C120.41 40.6456 120.26 40.6706 120.109 40.6706C120.109 40.6456 120.109 40.6205 120.084 40.5954C120.084 40.5704 120.084 40.5454 120.084 40.5202C120.084 40.4701 120.109 40.42 120.159 40.42C120.285 40.3948 120.41 40.3698 120.512 40.3197C120.613 40.2694 120.663 40.1943 120.663 40.1191V37.988Z" fill="black"/>
<path d="M127.614 40.4959C127.664 40.4959 127.69 40.5461 127.69 40.5962C127.69 40.6212 127.69 40.6463 127.69 40.6715C127.69 40.6965 127.69 40.7215 127.664 40.7466C127.614 40.7466 127.564 40.7466 127.489 40.7215C127.413 40.7215 127.363 40.7215 127.287 40.7215C127.211 40.7215 127.136 40.7215 127.086 40.7215C127.01 40.7215 126.96 40.7215 126.91 40.7215C126.733 40.7215 126.607 40.6965 126.557 40.6463C126.481 40.5962 126.431 40.4959 126.405 40.3705C126.33 40.0697 126.255 39.819 126.179 39.6435C126.103 39.4429 126.028 39.3175 125.927 39.2172C125.801 39.117 125.675 39.0418 125.549 39.0167C125.424 38.9917 125.272 38.9665 125.096 38.9665H125.021V40.195C125.021 40.2954 125.071 40.3705 125.197 40.3957C125.298 40.4458 125.424 40.4709 125.549 40.4959C125.6 40.4959 125.625 40.5461 125.625 40.5962C125.625 40.6212 125.625 40.6463 125.625 40.6715C125.625 40.6965 125.625 40.7215 125.6 40.7466C125.448 40.7466 125.272 40.7215 125.122 40.7215C124.971 40.7215 124.794 40.6965 124.618 40.6965C124.442 40.6965 124.265 40.6965 124.114 40.7215C123.963 40.7215 123.786 40.7466 123.635 40.7466C123.635 40.7215 123.635 40.6965 123.61 40.6715C123.61 40.6463 123.61 40.6212 123.61 40.5962C123.61 40.5461 123.635 40.4959 123.686 40.4959C123.812 40.4709 123.938 40.4458 124.064 40.3957C124.165 40.3455 124.24 40.2703 124.24 40.17V37.3118C124.24 37.2116 124.19 37.1363 124.064 37.0862C123.963 37.036 123.837 37.011 123.686 36.9859C123.635 36.9859 123.61 36.9358 123.61 36.8856C123.61 36.8605 123.61 36.8355 123.61 36.8355C123.61 36.8104 123.61 36.7853 123.635 36.7602C123.786 36.7853 123.963 36.7853 124.114 36.7853C124.265 36.7853 124.442 36.7853 124.618 36.7853C124.794 36.7853 124.945 36.7853 125.122 36.7853C125.272 36.7853 125.424 36.7602 125.6 36.7602C125.6 36.7853 125.6 36.8104 125.625 36.8355C125.625 36.8605 125.625 36.8856 125.625 36.8856C125.625 36.9358 125.6 36.9859 125.549 36.9859C125.424 37.011 125.298 37.036 125.197 37.0862C125.096 37.1363 125.021 37.2116 125.021 37.2867V38.5904H125.147C125.398 38.5904 125.574 38.5403 125.725 38.44C125.877 38.3397 125.977 38.2395 126.078 38.0891C126.179 37.9385 126.229 37.7882 126.305 37.6377C126.355 37.4623 126.431 37.3118 126.507 37.1864C126.581 37.036 126.683 36.9358 126.784 36.8355C126.884 36.7351 127.061 36.6851 127.262 36.6851C127.313 36.6851 127.363 36.6851 127.438 36.7101C127.489 36.7101 127.539 36.7352 127.564 36.7602C127.614 36.7853 127.64 36.8355 127.64 36.9107C127.64 36.9859 127.64 37.061 127.614 37.1363C127.59 37.2116 127.564 37.2867 127.539 37.362C127.513 37.4372 127.489 37.4873 127.438 37.5374C127.387 37.5876 127.363 37.6127 127.313 37.6127C127.287 37.6127 127.237 37.6127 127.237 37.6127C127.211 37.6127 127.187 37.6127 127.136 37.6127C127.01 37.6127 126.91 37.6628 126.834 37.738C126.758 37.8132 126.683 37.9135 126.633 38.0389C126.557 38.1642 126.481 38.2896 126.381 38.415C126.28 38.5403 126.154 38.6657 125.977 38.766V38.791C126.103 38.8161 126.229 38.8663 126.355 38.9164C126.481 38.9665 126.581 39.0418 126.633 39.0919C126.683 39.142 126.758 39.2172 126.808 39.2674C126.859 39.3426 126.91 39.4178 126.96 39.493C127.01 39.5933 127.061 39.6936 127.11 39.7939C127.161 39.9193 127.211 40.0447 127.262 40.2201C127.313 40.3455 127.363 40.4207 127.438 40.4458C127.464 40.4709 127.539 40.4959 127.614 40.4959Z" fill="black"/>
<path d="M130.584 38.5405H131.441C131.466 38.2898 131.516 38.0391 131.616 37.8135C131.718 37.5878 131.869 37.3872 132.045 37.2117C132.222 37.0363 132.422 36.911 132.649 36.8106C132.876 36.7103 133.128 36.6602 133.405 36.6602C133.707 36.6602 133.984 36.7103 134.236 36.8106C134.487 36.911 134.69 37.0613 134.866 37.2368C135.043 37.4122 135.168 37.6379 135.269 37.8887C135.369 38.1394 135.394 38.4402 135.394 38.7412C135.394 39.0419 135.344 39.2927 135.243 39.5434C135.143 39.7941 135.017 40.0198 134.84 40.1952C134.664 40.3708 134.463 40.5212 134.21 40.6466C133.959 40.7719 133.707 40.8221 133.405 40.8221C133.104 40.8221 132.851 40.7719 132.599 40.6716C132.372 40.5714 132.171 40.4459 131.995 40.2705C131.819 40.0949 131.693 39.8944 131.592 39.6687C131.491 39.4431 131.441 39.1673 131.441 38.8665H130.584V40.1702C130.584 40.2705 130.636 40.3457 130.736 40.3708C130.836 40.4209 130.962 40.4459 131.088 40.4711C131.139 40.4711 131.164 40.5212 131.164 40.5713C131.164 40.5964 131.164 40.6214 131.164 40.6466C131.164 40.6716 131.164 40.6967 131.139 40.7218C130.987 40.7218 130.812 40.6967 130.66 40.6967C130.509 40.6967 130.332 40.6716 130.156 40.6716C129.98 40.6716 129.803 40.6716 129.627 40.6967C129.477 40.6967 129.3 40.7218 129.149 40.7218C129.149 40.6967 129.149 40.6716 129.124 40.6466C129.124 40.6214 129.124 40.5964 129.124 40.5713C129.124 40.5212 129.149 40.4711 129.2 40.4711C129.326 40.4459 129.451 40.4209 129.577 40.3708C129.677 40.3206 129.754 40.2455 129.754 40.1452V37.2869C129.754 37.1867 129.703 37.1114 129.577 37.0613C129.477 37.0112 129.351 36.986 129.2 36.961C129.149 36.961 129.124 36.911 129.124 36.8607C129.124 36.8357 129.124 36.8106 129.124 36.8106C129.124 36.7856 129.124 36.7604 129.149 36.7354C129.3 36.7604 129.451 36.7604 129.627 36.7604C129.803 36.7604 129.954 36.7604 130.156 36.7604C130.332 36.7604 130.484 36.7604 130.66 36.7604C130.812 36.7604 130.987 36.7354 131.139 36.7354C131.139 36.7604 131.139 36.7856 131.164 36.8106C131.164 36.8357 131.164 36.8607 131.164 36.8607C131.164 36.911 131.139 36.961 131.088 36.961C130.962 36.986 130.836 37.0112 130.736 37.0613C130.636 37.1114 130.584 37.1867 130.584 37.2619V38.5405ZM132.297 38.4402C132.297 38.6659 132.322 38.9166 132.372 39.1422C132.422 39.393 132.498 39.5935 132.599 39.7941C132.701 39.9947 132.826 40.1452 132.977 40.2705C133.128 40.3959 133.304 40.4711 133.531 40.4711C133.858 40.4711 134.084 40.3457 134.287 40.0949C134.463 39.8442 134.563 39.5184 134.563 39.1422C134.563 38.9166 134.538 38.6659 134.487 38.4152C134.437 38.1644 134.361 37.9388 134.261 37.7132C134.161 37.5125 134.034 37.3371 133.884 37.1867C133.733 37.0613 133.531 36.986 133.304 36.986C133.002 36.986 132.751 37.0864 132.599 37.312C132.448 37.5376 132.297 37.9388 132.297 38.4402Z" fill="black"/>
<path d="M137.636 37.6133C137.636 37.4377 137.61 37.3123 137.536 37.2372C137.484 37.162 137.334 37.1118 137.133 37.0867C137.057 37.0867 137.007 37.0366 137.007 36.9613C137.007 36.9363 137.007 36.8862 137.032 36.8361C137.107 36.8361 137.233 36.8361 137.359 36.811C137.51 36.811 137.61 36.7858 137.711 36.7608C137.837 36.7358 137.963 36.7107 138.09 36.6856C138.19 36.6605 138.266 36.6355 138.316 36.6355C138.392 36.6355 138.442 36.6856 138.442 36.7858C138.442 36.8611 138.442 36.9613 138.416 37.0617C138.416 37.162 138.392 37.3123 138.392 37.513C138.568 37.2623 138.795 37.0617 139.021 36.9112C139.248 36.7358 139.549 36.6605 139.878 36.6605C140.078 36.6605 140.305 36.7108 140.481 36.7858C140.684 36.8611 140.859 37.0115 141.01 37.162C141.162 37.3374 141.288 37.538 141.363 37.7888C141.464 38.0395 141.488 38.3153 141.488 38.6412C141.488 38.9922 141.414 39.2931 141.288 39.5688C141.162 39.8447 140.985 40.0703 140.809 40.2457C140.607 40.4212 140.406 40.5717 140.179 40.6719C139.952 40.7722 139.752 40.8225 139.549 40.8225C139.349 40.8225 139.147 40.7973 138.972 40.7722C138.769 40.7222 138.593 40.6719 138.366 40.5717V42.2515C138.366 42.4019 138.442 42.5273 138.568 42.5774C138.693 42.6276 138.945 42.6777 139.273 42.7028C139.349 42.7028 139.373 42.753 139.373 42.8281C139.373 42.8532 139.373 42.8784 139.373 42.9034C139.373 42.9284 139.373 42.9535 139.349 42.9786C139.273 42.9786 139.198 42.9535 139.097 42.9535C138.996 42.9535 138.895 42.9535 138.769 42.9284C138.643 42.9284 138.542 42.9284 138.416 42.9284C138.29 42.9284 138.19 42.9284 138.064 42.9284C137.913 42.9284 137.737 42.9284 137.561 42.9535C137.384 42.9535 137.208 42.9786 137.057 42.9786C137.057 42.9535 137.057 42.9284 137.032 42.9034C137.032 42.8784 137.032 42.8532 137.032 42.8281C137.032 42.778 137.057 42.7278 137.107 42.7278C137.233 42.7028 137.359 42.6527 137.434 42.6276C137.536 42.5774 137.561 42.5022 137.561 42.4019V37.6133H137.636ZM138.416 39.97C138.568 40.1204 138.744 40.2708 138.92 40.346C139.097 40.4464 139.323 40.4965 139.549 40.4965C139.726 40.4965 139.878 40.4464 140.029 40.3711C140.155 40.296 140.281 40.1706 140.381 40.0453C140.481 39.8947 140.532 39.7444 140.582 39.5438C140.632 39.3432 140.658 39.1427 140.658 38.917C140.658 38.6913 140.632 38.4657 140.582 38.24C140.532 38.0145 140.457 37.8389 140.355 37.6885C140.255 37.538 140.129 37.3876 139.978 37.3123C139.827 37.212 139.676 37.162 139.5 37.162C139.373 37.162 139.248 37.187 139.122 37.2623C138.996 37.3374 138.895 37.4377 138.769 37.538C138.668 37.6383 138.593 37.7888 138.517 37.9141C138.442 38.0395 138.416 38.1899 138.416 38.3403V39.97Z" fill="black"/>
<path d="M152.542 40.6461C152.542 40.6461 152.542 40.6711 152.542 40.7212C152.542 40.7464 152.542 40.7965 152.517 40.8216C152.34 40.7965 152.088 40.7965 151.787 40.7965C151.685 40.7965 151.611 40.7965 151.509 40.7714C151.408 40.7464 151.282 40.7212 151.157 40.6711C151.031 40.621 150.855 40.5207 150.679 40.3954C150.478 40.27 150.25 40.0945 149.998 39.8689C149.722 40.1697 149.445 40.3954 149.117 40.596C148.79 40.7714 148.437 40.8717 148.034 40.8717C147.783 40.8717 147.556 40.8466 147.354 40.7714C147.153 40.7212 146.977 40.621 146.825 40.4957C146.675 40.3703 146.549 40.2199 146.472 40.0192C146.398 39.8187 146.347 39.5931 146.347 39.3423C146.347 38.9913 146.448 38.6654 146.675 38.3645C146.901 38.0637 147.204 37.813 147.607 37.5623C147.455 37.4118 147.304 37.2613 147.204 37.1109C147.103 36.9855 147.027 36.8352 146.951 36.7098C146.901 36.5845 146.851 36.4591 146.825 36.3337C146.801 36.2083 146.801 36.083 146.801 35.9576C146.801 35.6067 146.927 35.3308 147.178 35.1303C147.43 34.9297 147.757 34.8293 148.16 34.8293C148.361 34.8293 148.538 34.8546 148.689 34.9297C148.84 35.0049 148.992 35.0801 149.117 35.1804C149.243 35.2807 149.319 35.4311 149.394 35.5815C149.469 35.7321 149.495 35.9075 149.495 36.083C149.495 36.3086 149.42 36.5093 149.293 36.7348C149.167 36.9605 148.916 37.1611 148.589 37.3867C148.916 37.7377 149.218 38.0386 149.495 38.3145C149.772 38.5902 150.023 38.8158 150.225 39.0164C150.351 38.866 150.452 38.6905 150.553 38.5149C150.653 38.3395 150.729 38.1891 150.805 38.0385C150.879 37.8882 150.931 37.7377 150.981 37.6124C151.031 37.487 151.031 37.3867 151.031 37.3115C151.031 37.2363 151.006 37.1862 150.956 37.1611C150.905 37.1361 150.805 37.0858 150.628 37.0608C150.553 37.0608 150.502 37.0107 150.502 36.9355C150.502 36.9104 150.502 36.8853 150.502 36.8602C150.502 36.8352 150.502 36.785 150.528 36.785C150.653 36.8101 150.779 36.8101 150.931 36.8101C151.082 36.8101 151.232 36.8101 151.384 36.8101C151.661 36.8101 151.912 36.8101 152.114 36.785C152.114 36.8101 152.114 36.8352 152.14 36.8853C152.14 36.9104 152.14 36.9355 152.14 36.9605C152.14 37.0358 152.088 37.0608 152.014 37.0858C151.937 37.1109 151.862 37.1109 151.811 37.1361C151.761 37.1611 151.711 37.1611 151.661 37.2112C151.611 37.2363 151.585 37.2865 151.535 37.3366C151.485 37.3867 151.459 37.462 151.408 37.5623C151.282 37.8631 151.132 38.1389 150.956 38.4398C150.805 38.7406 150.628 39.0164 150.452 39.2922C150.679 39.5179 150.879 39.6933 151.056 39.8438C151.232 39.9942 151.384 40.1195 151.509 40.1947C151.635 40.295 151.737 40.3703 151.837 40.4204C151.912 40.4706 152.014 40.4957 152.064 40.5207C152.088 40.5207 152.114 40.5207 152.164 40.5457C152.214 40.5457 152.265 40.5457 152.315 40.5708C152.367 40.596 152.417 40.596 152.467 40.621C152.517 40.5708 152.542 40.596 152.542 40.6461ZM147.807 37.7628C147.581 37.9383 147.43 38.164 147.304 38.4146C147.178 38.6654 147.127 38.9161 147.127 39.1668C147.127 39.3925 147.178 39.5679 147.254 39.7185C147.33 39.8689 147.43 39.9692 147.556 40.0694C147.681 40.1446 147.807 40.2199 147.933 40.2449C148.059 40.27 148.186 40.2951 148.286 40.2951C148.537 40.2951 148.79 40.2449 149.017 40.1446C149.243 40.0444 149.495 39.8689 149.746 39.6182C149.495 39.3925 149.218 39.1417 148.916 38.8409C148.537 38.54 148.186 38.1891 147.807 37.7628ZM148.337 37.1611C148.513 37.0107 148.639 36.8352 148.714 36.6346C148.79 36.4591 148.815 36.2836 148.815 36.108C148.815 35.8072 148.764 35.5815 148.639 35.4061C148.513 35.2556 148.311 35.1553 148.059 35.1553C147.908 35.1553 147.757 35.2055 147.656 35.3058C147.556 35.4061 147.505 35.5565 147.505 35.7321C147.505 35.9075 147.556 36.108 147.681 36.3337C147.807 36.5845 148.009 36.8352 148.337 37.1611Z" fill="black"/>
<path d="M158.16 37.1353V40.1941C158.16 40.2943 158.211 40.3695 158.311 40.3946C158.412 40.4447 158.538 40.4698 158.664 40.4949C158.715 40.4949 158.74 40.545 158.74 40.5952C158.74 40.6203 158.74 40.6453 158.74 40.6704C158.74 40.6954 158.74 40.7206 158.715 40.7457C158.563 40.7457 158.387 40.7206 158.236 40.7206C158.085 40.7206 157.908 40.6954 157.732 40.6954C157.556 40.6954 157.379 40.6954 157.203 40.7206C157.052 40.7206 156.876 40.7457 156.725 40.7457C156.725 40.7206 156.725 40.6954 156.699 40.6704C156.699 40.6453 156.699 40.6203 156.699 40.5952C156.699 40.545 156.725 40.4949 156.776 40.4949C156.902 40.4698 157.028 40.4447 157.153 40.3946C157.254 40.3445 157.329 40.2692 157.329 40.1689V37.3108C157.329 37.2105 157.279 37.1353 157.153 37.0851C157.052 37.035 156.926 37.0099 156.776 36.9848C156.725 36.9848 156.699 36.9347 156.699 36.8846C156.699 36.8596 156.699 36.8344 156.699 36.8344C156.699 36.8093 156.699 36.7843 156.725 36.7593C156.876 36.7843 157.028 36.7843 157.203 36.7843C157.379 36.7843 157.531 36.7843 157.732 36.7843H160.351C160.527 36.7843 160.704 36.7843 160.855 36.7843C161.006 36.7843 161.183 36.7843 161.333 36.7593C161.333 36.7843 161.333 36.8093 161.359 36.8344C161.359 36.8596 161.359 36.8846 161.359 36.8846C161.359 36.9347 161.333 36.9848 161.283 36.9848C161.157 37.0099 161.032 37.035 160.906 37.0851C160.805 37.1353 160.729 37.2105 160.729 37.2858V40.1439C160.729 40.2442 160.779 40.3195 160.906 40.3445C161.006 40.3946 161.132 40.4197 161.283 40.4447C161.333 40.4447 161.359 40.4949 161.359 40.545C161.359 40.5701 161.359 40.5952 161.359 40.6203C161.359 40.6453 161.359 40.6704 161.333 40.6954C161.183 40.6954 161.006 40.6704 160.855 40.6704C160.704 40.6704 160.527 40.6453 160.351 40.6453C160.176 40.6453 160.024 40.6453 159.847 40.6704C159.671 40.6704 159.521 40.6954 159.37 40.6954C159.37 40.6704 159.37 40.6453 159.344 40.6203C159.344 40.5952 159.344 40.5701 159.344 40.545C159.344 40.4949 159.37 40.4447 159.42 40.4447C159.546 40.4197 159.671 40.3946 159.773 40.3445C159.873 40.2943 159.923 40.2192 159.923 40.1439V37.0851H158.16V37.1353Z" fill="black"/>
<path d="M166.394 39.8447C166.445 39.7945 166.495 39.7694 166.545 39.7694C166.596 39.7694 166.671 39.8196 166.722 39.9199C166.646 40.0201 166.545 40.1455 166.445 40.2457C166.344 40.346 166.219 40.4464 166.067 40.5216C165.916 40.5968 165.764 40.6719 165.563 40.7222C165.387 40.7722 165.161 40.7973 164.908 40.7973C164.657 40.7973 164.43 40.7472 164.203 40.6719C163.977 40.5968 163.775 40.4714 163.599 40.296C163.422 40.1204 163.297 39.9199 163.196 39.6692C163.095 39.4185 163.045 39.1175 163.045 38.7917C163.045 38.4657 163.095 38.1899 163.222 37.9141C163.348 37.6383 163.498 37.4127 163.699 37.2372C163.901 37.0366 164.102 36.9112 164.328 36.7858C164.555 36.6605 164.783 36.6355 165.01 36.6355C165.588 36.6355 166.016 36.8109 166.268 37.1369C166.52 37.4628 166.671 37.9141 166.671 38.4406C166.671 38.4907 166.646 38.4907 166.62 38.4907L163.901 38.6161C163.901 38.8668 163.927 39.0925 164.002 39.2931C164.077 39.4936 164.178 39.6692 164.304 39.8196C164.43 39.97 164.581 40.0954 164.758 40.1706C164.934 40.2457 165.135 40.296 165.361 40.296C165.563 40.296 165.764 40.2457 165.941 40.1455C166.117 40.1204 166.268 39.995 166.394 39.8447ZM164.858 37.0115C164.531 37.0115 164.304 37.1369 164.128 37.3876C163.951 37.6383 163.876 37.9392 163.876 38.3403L165.639 38.2651C165.739 38.2651 165.79 38.215 165.79 38.1398C165.79 38.0145 165.764 37.8891 165.739 37.7637C165.69 37.6383 165.639 37.513 165.563 37.4127C165.487 37.3124 165.387 37.212 165.287 37.1369C165.161 37.0366 165.034 37.0115 164.858 37.0115Z" fill="black"/>
<path d="M168.283 40.4447C168.711 40.3445 169.013 40.0185 169.164 39.492C169.341 38.9655 169.416 38.2384 169.416 37.3108C169.416 37.2105 169.365 37.1353 169.29 37.0851C169.215 37.035 169.089 37.0099 168.962 36.9848C168.912 36.9848 168.887 36.9347 168.887 36.8846C168.887 36.8596 168.887 36.8344 168.887 36.8344C168.887 36.8093 168.887 36.7843 168.912 36.7593C169.064 36.7843 169.215 36.7843 169.341 36.7843C169.467 36.7843 169.618 36.7843 169.794 36.7843H171.456C171.632 36.7843 171.809 36.7843 171.959 36.7843C172.11 36.7843 172.286 36.7843 172.439 36.7593C172.439 36.7843 172.439 36.8093 172.463 36.8344C172.463 36.8596 172.463 36.8846 172.463 36.8846C172.463 36.9347 172.439 36.9848 172.388 36.9848C172.262 37.0099 172.135 37.035 172.009 37.0851C171.909 37.1353 171.833 37.2105 171.833 37.2858V40.0185C171.833 40.1439 171.859 40.2442 171.935 40.2943C172.009 40.3445 172.161 40.3946 172.388 40.4447C172.439 40.4447 172.488 40.4949 172.488 40.5952C172.488 40.6203 172.488 40.6453 172.488 40.6704C172.488 40.6954 172.488 40.7206 172.463 40.7457C172.439 40.9462 172.413 41.1969 172.413 41.4978C172.413 41.7986 172.413 42.0744 172.413 42.3502C172.413 42.4004 172.388 42.4505 172.312 42.4755C172.286 42.4755 172.236 42.5007 172.186 42.5007C172.135 42.5007 172.086 42.5007 172.06 42.5007C172.035 42.25 171.985 42.0243 171.935 41.7986C171.883 41.5729 171.809 41.3975 171.733 41.222C171.657 41.0465 171.557 40.9211 171.43 40.8208C171.305 40.7206 171.154 40.6704 170.977 40.6704H169.718C169.517 40.6704 169.341 40.7206 169.215 40.8208C169.089 40.9211 168.988 41.0465 168.887 41.222C168.787 41.3975 168.735 41.5729 168.686 41.7986C168.635 42.0243 168.585 42.25 168.535 42.5007C168.509 42.5007 168.459 42.5007 168.409 42.5007C168.358 42.5007 168.308 42.4755 168.283 42.4755C168.207 42.4254 168.158 42.4004 168.182 42.3251C168.207 42.0494 168.232 41.7735 168.232 41.4726C168.232 41.1718 168.232 40.9211 168.207 40.7206C168.207 40.6954 168.207 40.6704 168.207 40.6453C168.207 40.6203 168.207 40.5952 168.207 40.5701C168.182 40.52 168.207 40.4698 168.283 40.4447ZM168.912 40.3695H171.028V37.1353H169.794C169.794 37.6869 169.768 38.1633 169.718 38.5393C169.667 38.9154 169.618 39.2413 169.541 39.492C169.467 39.7427 169.365 39.9684 169.265 40.1439C169.164 40.3195 169.038 40.4698 168.887 40.5952L168.912 40.3695Z" fill="black"/>
<path d="M177.2 37.988L175.412 40.0689V40.1692C175.412 40.3447 175.538 40.445 175.815 40.4951C175.865 40.4951 175.89 40.5454 175.89 40.5954C175.89 40.6205 175.89 40.6456 175.89 40.6706C175.89 40.6957 175.89 40.7208 175.865 40.7459C175.689 40.7459 175.538 40.7208 175.412 40.7208C175.287 40.7208 175.134 40.6957 175.008 40.6957C174.832 40.6957 174.657 40.6957 174.505 40.7208C174.354 40.7459 174.178 40.7459 174.028 40.7459C174.028 40.7208 174.028 40.6957 174.002 40.6706C174.002 40.6456 174.002 40.6205 174.002 40.5954C174.002 40.5454 174.028 40.4951 174.077 40.4951C174.203 40.4701 174.329 40.4451 174.455 40.3948C174.556 40.3447 174.631 40.2695 174.631 40.1692V37.311C174.631 37.2107 174.581 37.1355 174.455 37.0855C174.354 37.0352 174.228 37.0102 174.077 36.9852C174.028 36.9852 174.002 36.9349 174.002 36.8848C174.002 36.8598 174.002 36.8347 174.002 36.8347C174.002 36.8096 174.002 36.7845 174.028 36.7595C174.178 36.7845 174.354 36.7845 174.505 36.7845C174.657 36.7845 174.832 36.7845 175.008 36.7845C175.185 36.7845 175.337 36.7845 175.513 36.7845C175.664 36.7845 175.815 36.7595 175.991 36.7595C175.991 36.7845 175.991 36.8096 176.016 36.8347C176.016 36.8598 176.016 36.8848 176.016 36.8848C176.016 36.9349 175.991 36.9852 175.941 36.9852C175.815 37.0102 175.689 37.0352 175.588 37.0855C175.487 37.1355 175.412 37.2107 175.412 37.286V39.5173L177.2 37.4364V37.286C177.2 37.1105 177.073 37.0102 176.797 36.9601C176.747 36.9601 176.721 36.9099 176.721 36.8598C176.721 36.8347 176.721 36.8096 176.721 36.8096C176.721 36.7845 176.721 36.7595 176.747 36.7344C176.897 36.7595 177.073 36.7595 177.225 36.7595C177.377 36.7595 177.503 36.7595 177.629 36.7595C177.805 36.7595 177.98 36.7595 178.132 36.7595C178.283 36.7595 178.459 36.7344 178.61 36.7344C178.61 36.7595 178.61 36.7845 178.635 36.8096C178.635 36.8347 178.635 36.8598 178.635 36.8598C178.635 36.9099 178.61 36.9601 178.56 36.9601C178.435 36.9852 178.308 37.0102 178.182 37.0603C178.082 37.1105 178.006 37.1857 178.006 37.2609V40.1191C178.006 40.2194 178.056 40.2946 178.182 40.3197C178.283 40.3698 178.409 40.3948 178.56 40.42C178.61 40.42 178.635 40.4701 178.635 40.5202C178.635 40.5454 178.635 40.5704 178.635 40.5954C178.635 40.6205 178.635 40.6456 178.61 40.6706C178.459 40.6706 178.283 40.6456 178.132 40.6456C177.98 40.6456 177.805 40.6205 177.629 40.6205C177.452 40.6205 177.3 40.6205 177.124 40.6456C176.947 40.6456 176.797 40.6706 176.646 40.6706C176.646 40.6456 176.646 40.6205 176.621 40.5954C176.621 40.5704 176.621 40.5454 176.621 40.5202C176.621 40.4701 176.646 40.42 176.696 40.42C176.822 40.3948 176.947 40.3698 177.049 40.3197C177.15 40.2694 177.2 40.1943 177.2 40.1191V37.988Z" fill="black"/>
<path d="M184.149 40.4959C184.199 40.4959 184.224 40.5461 184.224 40.5962C184.224 40.6212 184.224 40.6463 184.224 40.6715C184.224 40.6965 184.224 40.7215 184.199 40.7466C184.149 40.7466 184.099 40.7466 184.023 40.7215C183.947 40.7215 183.897 40.7215 183.82 40.7215C183.746 40.7215 183.67 40.7215 183.62 40.7215C183.544 40.7215 183.494 40.7215 183.443 40.7215C183.267 40.7215 183.141 40.6965 183.091 40.6463C183.016 40.5962 182.965 40.4959 182.94 40.3705C182.864 40.0697 182.789 39.819 182.714 39.6435C182.637 39.4429 182.563 39.3175 182.461 39.2172C182.335 39.117 182.21 39.0418 182.084 39.0167C181.958 38.9917 181.807 38.9665 181.631 38.9665H181.58V40.195C181.58 40.2954 181.631 40.3705 181.731 40.3957C181.832 40.4458 181.958 40.4709 182.084 40.4959C182.134 40.4959 182.16 40.5461 182.16 40.5962C182.16 40.6212 182.16 40.6463 182.16 40.6715C182.16 40.6965 182.16 40.7215 182.134 40.7466C181.983 40.7466 181.807 40.7215 181.656 40.7215C181.505 40.7215 181.328 40.6965 181.152 40.6965C180.975 40.6965 180.799 40.6965 180.623 40.7215C180.472 40.7215 180.295 40.7466 180.145 40.7466C180.145 40.7215 180.145 40.6965 180.119 40.6715C180.119 40.6463 180.119 40.6212 180.119 40.5962C180.119 40.5461 180.145 40.4959 180.195 40.4959C180.321 40.4709 180.446 40.4458 180.572 40.3957C180.673 40.3455 180.749 40.2703 180.749 40.17V37.3118C180.749 37.2116 180.698 37.1363 180.572 37.0862C180.472 37.036 180.346 37.011 180.195 36.9859C180.145 36.9859 180.119 36.9358 180.119 36.8856C180.119 36.8605 180.119 36.8355 180.119 36.8355C180.119 36.8104 180.119 36.7853 180.145 36.7602C180.295 36.7853 180.446 36.7853 180.623 36.7853C180.799 36.7853 180.951 36.7853 181.152 36.7853C181.328 36.7853 181.479 36.7853 181.656 36.7853C181.807 36.7853 181.983 36.7602 182.134 36.7602C182.134 36.7853 182.134 36.8104 182.16 36.8355C182.16 36.8605 182.16 36.8856 182.16 36.8856C182.16 36.9358 182.134 36.9859 182.084 36.9859C181.958 37.011 181.832 37.036 181.731 37.0862C181.631 37.1363 181.58 37.2116 181.58 37.2867V38.5904H181.705C181.958 38.5904 182.134 38.5403 182.285 38.44C182.437 38.3397 182.537 38.2395 182.637 38.0891C182.738 37.9385 182.788 37.7882 182.864 37.6377C182.914 37.4623 182.99 37.3118 183.066 37.1864C183.141 37.036 183.243 36.9358 183.343 36.8355C183.443 36.7351 183.62 36.6851 183.82 36.6851C183.872 36.6851 183.922 36.6851 183.997 36.7101C184.047 36.7101 184.099 36.7352 184.124 36.7602C184.173 36.7853 184.199 36.8355 184.199 36.9107C184.199 36.9859 184.199 37.061 184.173 37.1363C184.149 37.2116 184.124 37.2867 184.099 37.362C184.073 37.4372 184.047 37.4873 183.997 37.5374C183.947 37.5876 183.922 37.6127 183.872 37.6127C183.82 37.6127 183.796 37.6127 183.796 37.6127C183.771 37.6127 183.746 37.6127 183.695 37.6127C183.569 37.6127 183.469 37.6628 183.393 37.738C183.317 37.8132 183.243 37.9135 183.191 38.0389C183.116 38.1642 183.04 38.2896 182.965 38.415C182.864 38.5403 182.738 38.6657 182.563 38.766V38.791C182.688 38.8161 182.814 38.8663 182.94 38.9164C183.066 38.9665 183.166 39.0418 183.217 39.0919C183.267 39.142 183.343 39.2172 183.393 39.2674C183.443 39.3426 183.494 39.4178 183.544 39.493C183.595 39.5933 183.645 39.6936 183.695 39.7939C183.746 39.9193 183.796 40.0447 183.847 40.2201C183.897 40.3455 183.947 40.4207 184.023 40.4458C183.997 40.4709 184.073 40.4959 184.149 40.4959Z" fill="black"/>
<path d="M187.121 38.5405H187.977C188.003 38.2898 188.052 38.0391 188.153 37.8135C188.255 37.5878 188.405 37.3872 188.581 37.2117C188.758 37.0363 188.959 36.911 189.186 36.8106C189.413 36.7103 189.665 36.6602 189.942 36.6602C190.244 36.6602 190.521 36.7103 190.772 36.8106C191.024 36.911 191.227 37.0613 191.403 37.2368C191.578 37.4122 191.704 37.6379 191.804 37.8887C191.906 38.1394 191.931 38.4402 191.931 38.7412C191.931 39.0419 191.881 39.2927 191.78 39.5434C191.679 39.7941 191.553 40.0198 191.377 40.1952C191.201 40.3708 191 40.5212 190.747 40.6466C190.495 40.7468 190.244 40.8221 189.942 40.8221C189.639 40.8221 189.388 40.7719 189.136 40.6716C188.909 40.5714 188.708 40.4459 188.532 40.2705C188.355 40.0949 188.229 39.8944 188.129 39.6687C188.027 39.4431 187.977 39.1673 187.952 38.8665H187.121V40.1702C187.121 40.2705 187.171 40.3457 187.297 40.3708C187.397 40.4209 187.523 40.4459 187.65 40.4711C187.7 40.4711 187.726 40.5212 187.726 40.5713C187.726 40.5964 187.726 40.6214 187.726 40.6466C187.726 40.6716 187.726 40.6967 187.7 40.7218C187.549 40.7218 187.373 40.6967 187.222 40.6967C187.071 40.6967 186.894 40.6716 186.718 40.6716C186.541 40.6716 186.365 40.6716 186.214 40.6967C186.064 40.6967 185.887 40.7218 185.735 40.7218C185.735 40.6967 185.735 40.6716 185.711 40.6466C185.711 40.6214 185.711 40.5964 185.711 40.5713C185.711 40.5212 185.735 40.4711 185.787 40.4711C185.912 40.4459 186.038 40.4209 186.164 40.3708C186.264 40.3206 186.34 40.2455 186.34 40.1452V37.2869C186.34 37.1867 186.29 37.1114 186.164 37.0613C186.064 37.0112 185.937 36.986 185.787 36.961C185.735 36.961 185.711 36.911 185.711 36.8607C185.711 36.8357 185.711 36.8106 185.711 36.8106C185.711 36.7856 185.711 36.7604 185.735 36.7354C185.887 36.7604 186.064 36.7604 186.214 36.7604C186.365 36.7604 186.541 36.7604 186.718 36.7604C186.894 36.7604 187.046 36.7604 187.222 36.7604C187.373 36.7604 187.523 36.7354 187.7 36.7354C187.7 36.7604 187.7 36.7856 187.726 36.8106C187.726 36.8357 187.726 36.8607 187.726 36.8607C187.726 36.911 187.7 36.961 187.65 36.961C187.523 36.986 187.397 37.0112 187.297 37.0613C187.197 37.1114 187.121 37.1867 187.121 37.2619V38.5405ZM188.833 38.4402C188.833 38.6659 188.858 38.9166 188.909 39.1422C188.959 39.3679 189.035 39.5935 189.111 39.7941C189.211 39.9947 189.337 40.1452 189.488 40.2705C189.639 40.3959 189.816 40.4711 190.042 40.4711C190.37 40.4711 190.597 40.3457 190.797 40.0949C190.974 39.8442 191.074 39.5184 191.074 39.1422C191.074 38.9166 191.05 38.6659 191 38.4152C190.948 38.1644 190.874 37.9388 190.772 37.7132C190.671 37.5125 190.545 37.3371 190.394 37.1867C190.244 37.0613 190.042 36.986 189.816 36.986C189.513 36.986 189.262 37.0864 189.111 37.312C188.909 37.5878 188.833 37.9388 188.833 38.4402Z" fill="black"/>
<path d="M194.17 37.6133C194.17 37.4377 194.144 37.3123 194.069 37.2372C194.019 37.162 193.867 37.1118 193.666 37.0867C193.59 37.0867 193.54 37.0366 193.54 36.9613C193.54 36.9363 193.54 36.8862 193.565 36.8361C193.64 36.8361 193.766 36.8361 193.892 36.811C194.044 36.811 194.144 36.7858 194.245 36.7608C194.37 36.7358 194.496 36.7107 194.622 36.6856C194.723 36.6605 194.799 36.6355 194.849 36.6355C194.925 36.6355 194.975 36.6856 194.975 36.7858C194.975 36.8611 194.975 36.9613 194.95 37.0617C194.95 37.162 194.925 37.3123 194.925 37.513C195.102 37.2623 195.328 37.0617 195.554 36.9112C195.781 36.7358 196.083 36.6605 196.411 36.6605C196.612 36.6605 196.838 36.7108 197.015 36.7858C197.217 36.8611 197.393 37.0115 197.544 37.162C197.695 37.3374 197.821 37.538 197.896 37.7888C197.997 38.0395 198.022 38.3153 198.022 38.6412C198.022 38.9922 197.947 39.2931 197.821 39.5688C197.695 39.8447 197.518 40.0703 197.343 40.2457C197.141 40.4212 196.94 40.5717 196.713 40.6719C196.487 40.7722 196.285 40.8225 196.083 40.8225C195.882 40.8225 195.68 40.7973 195.504 40.7722C195.302 40.7222 195.126 40.6719 194.899 40.5717V42.2515C194.899 42.4019 194.975 42.5273 195.102 42.5774C195.252 42.6276 195.479 42.6777 195.806 42.7028C195.882 42.7028 195.907 42.753 195.907 42.8281C195.907 42.8532 195.907 42.8784 195.907 42.9034C195.907 42.9284 195.907 42.9535 195.882 42.9786C195.806 42.9786 195.731 42.9535 195.631 42.9535C195.529 42.9535 195.428 42.9535 195.302 42.9284C195.176 42.9034 195.076 42.9284 194.95 42.9284C194.825 42.9284 194.723 42.9284 194.598 42.9284C194.446 42.9284 194.27 42.9284 194.093 42.9535C193.917 42.9535 193.74 42.9786 193.59 42.9786C193.59 42.9535 193.59 42.9284 193.565 42.9034C193.565 42.8784 193.565 42.8532 193.565 42.8281C193.565 42.778 193.59 42.7278 193.64 42.7278C193.766 42.7028 193.892 42.6527 193.968 42.6276C194.069 42.5774 194.093 42.5022 194.093 42.4019V37.6133H194.17ZM194.95 39.97C195.102 40.1204 195.278 40.2708 195.454 40.346C195.631 40.4464 195.857 40.4965 196.083 40.4965C196.26 40.4965 196.411 40.4464 196.561 40.3711C196.688 40.296 196.814 40.1706 196.914 40.0453C197.015 39.8947 197.065 39.7444 197.116 39.5438C197.167 39.3432 197.191 39.1427 197.191 38.917C197.191 38.6913 197.167 38.4657 197.116 38.24C197.065 38.0145 196.99 37.8389 196.89 37.6885C196.788 37.538 196.662 37.3876 196.512 37.3123C196.361 37.212 196.208 37.162 196.032 37.162C195.907 37.162 195.781 37.187 195.655 37.2623C195.529 37.3374 195.428 37.4377 195.302 37.538C195.202 37.6383 195.126 37.7888 195.051 37.9141C194.975 38.0645 194.95 38.1899 194.95 38.3403V39.97Z" fill="black"/>
<path d="M86.7408 28.6848C86.7408 28.9607 86.8162 29.1362 86.9924 29.2365C87.1688 29.3368 87.5213 29.437 88.0501 29.5373C88.1759 29.5624 88.2521 29.6376 88.2521 29.8131C88.2521 29.8633 88.2521 29.9134 88.2521 29.9887C88.2521 30.0388 88.2264 30.114 88.2264 30.1892C87.8994 30.1642 87.4964 30.1391 87.043 30.114C86.5895 30.0889 86.1616 30.0889 85.8089 30.0889C85.4315 30.0889 85.0285 30.0889 84.5998 30.114C84.172 30.1391 83.7689 30.1642 83.3659 30.1892C83.341 30.114 83.341 30.0638 83.341 29.9887C83.341 29.9385 83.341 29.8633 83.341 29.8131C83.341 29.6376 83.4164 29.5373 83.5422 29.5373C84.0461 29.437 84.3738 29.3368 84.575 29.2365C84.7761 29.1362 84.8522 28.9355 84.8522 28.6848V23.8209H78.4805V28.6848C78.4805 28.9607 78.5567 29.1362 78.7329 29.2365C78.9092 29.3368 79.2617 29.437 79.7906 29.5373C79.9412 29.5624 80.0166 29.6627 80.0166 29.8131C80.0166 29.8633 80.0166 29.9134 80.0166 29.9887C80.0166 30.0388 79.9918 30.114 79.9918 30.1892C79.6391 30.1642 79.2361 30.1391 78.7827 30.114C78.3299 30.0889 77.9013 30.0889 77.5486 30.0889C77.1712 30.0889 76.7682 30.0889 76.3652 30.114C75.9621 30.1391 75.5342 30.1642 75.1062 30.1892C75.0811 30.114 75.0811 30.0638 75.0811 29.9887C75.0811 29.9385 75.0811 29.8633 75.0811 29.8131C75.0811 29.6376 75.1566 29.5373 75.2825 29.5373C75.7858 29.437 76.1385 29.3368 76.3404 29.2365C76.5166 29.1362 76.6175 28.9355 76.6175 28.6848V18.4557C76.6175 18.1798 76.5414 18.0043 76.3652 17.904C76.2145 17.8038 75.8619 17.6785 75.3077 17.5781C75.1818 17.5531 75.1062 17.4528 75.1062 17.2522C75.1062 17.2021 75.1062 17.1519 75.1062 17.1018C75.1062 17.0516 75.1314 16.9764 75.1314 16.9263C75.459 16.9513 75.8619 16.9764 76.3147 17.0015C76.7682 17.0265 77.1712 17.0265 77.5238 17.0265C77.9013 17.0265 78.3042 17.0265 78.7073 17.0015C79.1352 16.9764 79.5383 16.9513 79.9412 16.9263C79.9668 17.0015 79.9668 17.0516 79.9668 17.1018C79.9668 17.1519 79.9668 17.2021 79.9668 17.2522C79.9668 17.4528 79.8908 17.5531 79.765 17.5781C79.2361 17.6533 78.8836 17.7536 78.7329 17.879C78.5567 18.0043 78.4805 18.205 78.4805 18.4557V22.9686H84.8267V18.4557C84.8267 18.23 84.7513 18.0546 84.575 17.904C84.4236 17.7536 84.0711 17.6533 83.5422 17.5781C83.3916 17.5531 83.3162 17.4528 83.3162 17.2522C83.3162 17.2021 83.3162 17.1519 83.3162 17.1018C83.3162 17.0516 83.341 16.9764 83.341 16.9263C83.6687 16.9513 84.0711 16.9764 84.5245 17.0015C84.978 17.0265 85.3811 17.0265 85.7585 17.0265C86.1366 17.0265 86.5397 17.0265 86.942 17.0015C87.345 16.9764 87.7736 16.9513 88.1759 16.9263C88.2015 17.0015 88.2015 17.0516 88.2015 17.1018C88.2015 17.1519 88.2015 17.2021 88.2015 17.2522C88.2015 17.4528 88.1263 17.5531 87.9996 17.5781C87.4709 17.6533 87.1182 17.7536 86.9676 17.879C86.7913 18.0043 86.716 18.205 86.716 18.4557V28.6848H86.7408Z" fill="black"/>
<path d="M97.8724 25.3028H93.3645L92.0801 28.537C92.0048 28.7125 91.9792 28.8379 91.9792 28.9382C91.9792 29.214 92.3821 29.4146 93.2131 29.54C93.3141 29.565 93.3645 29.59 93.415 29.6402C93.4398 29.6904 93.4647 29.7655 93.4647 29.8408C93.4647 29.8909 93.4647 29.9411 93.4647 29.9912C93.4647 30.0414 93.4398 30.1165 93.4398 30.1668C93.0873 30.1416 92.6842 30.1165 92.2813 30.0915C91.8782 30.0665 91.4759 30.0665 91.0978 30.0665C90.8205 30.0665 90.5441 30.0665 90.2668 30.0915C89.9896 30.1165 89.6875 30.1416 89.3854 30.1668C89.3605 30.0414 89.335 29.916 89.335 29.8408C89.335 29.7405 89.3605 29.6653 89.3854 29.59C89.4102 29.5148 89.4863 29.4897 89.5865 29.4647C90.0152 29.3895 90.3173 29.3143 90.5185 29.214C90.7203 29.1137 90.871 28.9632 90.972 28.7376L95.8325 17.0792C95.9334 16.8536 96.0592 16.7283 96.2098 16.7283C96.2354 16.7283 96.3108 16.7533 96.4623 16.7784L101.348 28.8128C101.423 29.0135 101.599 29.1388 101.901 29.2642C102.178 29.3644 102.456 29.4397 102.732 29.4897C102.808 29.5149 102.884 29.565 102.934 29.59C102.985 29.6403 103.009 29.7154 103.009 29.8408C103.009 29.8909 103.009 29.9411 103.009 29.9912C103.009 30.0414 102.985 30.1165 102.985 30.1668C102.556 30.1416 102.128 30.1165 101.7 30.0915C101.271 30.0665 100.894 30.0665 100.517 30.0665C100.139 30.0665 99.7106 30.0665 99.2323 30.0915C98.7538 30.1165 98.3003 30.1416 97.9222 30.1668C97.8974 30.0915 97.8974 30.0414 97.8974 29.9912C97.8974 29.9411 97.8974 29.8909 97.8974 29.8408C97.8974 29.7154 97.9222 29.6403 97.9726 29.59C98.0232 29.54 98.0736 29.5149 98.0984 29.5149C98.4511 29.4397 98.7282 29.3644 98.955 29.2892C99.1817 29.214 99.2827 29.0635 99.2827 28.8881C99.2827 28.7878 99.2571 28.6875 99.2066 28.5872L97.8724 25.3028ZM97.5447 24.4754L95.6561 19.5614L93.6914 24.4754H97.5447Z" fill="black"/>
<path d="M118.096 19.2846C117.793 19.2846 117.542 19.3598 117.34 19.5102C117.139 19.6607 116.987 19.8613 116.837 20.112C116.686 20.3627 116.56 20.6385 116.434 20.9393C116.308 21.2402 116.157 21.5661 116.006 21.8669C115.829 22.1929 115.628 22.4687 115.401 22.7695C115.15 23.0454 114.848 23.2961 114.444 23.4966V23.5469C114.897 23.622 115.275 23.7474 115.603 23.8978C115.93 24.0481 116.207 24.2238 116.434 24.3992C116.66 24.5748 116.862 24.8003 117.039 25.026C117.215 25.2517 117.366 25.5275 117.516 25.8283C117.668 26.1292 117.819 26.4802 117.97 26.9064C118.121 27.3076 118.297 27.784 118.474 28.3105C118.549 28.5612 118.649 28.7617 118.725 28.9121C118.825 29.0626 118.927 29.188 119.028 29.2882C119.154 29.3885 119.255 29.4387 119.381 29.4888C119.506 29.5389 119.632 29.5639 119.758 29.6142C119.884 29.6392 119.934 29.7395 119.934 29.8899C119.934 29.9401 119.934 29.9902 119.934 30.0654C119.934 30.1156 119.909 30.1907 119.909 30.266C119.607 30.241 119.279 30.2159 118.977 30.1907C118.675 30.1657 118.373 30.1657 118.096 30.1657C117.819 30.1657 117.567 30.1407 117.39 30.0905C117.19 30.0404 117.039 29.9652 116.913 29.8398C116.787 29.7145 116.686 29.5891 116.61 29.4387C116.534 29.2882 116.484 29.0877 116.409 28.887C116.157 27.9093 115.905 27.1321 115.703 26.5303C115.477 25.9286 115.2 25.4522 114.897 25.0761C114.721 24.8756 114.544 24.7001 114.344 24.5748C114.142 24.4494 113.941 24.3491 113.714 24.2738C113.487 24.1987 113.21 24.1485 112.909 24.1234C112.606 24.0984 112.279 24.0734 111.9 24.0734H111.649V28.7116C111.649 28.9873 111.724 29.1629 111.9 29.2632C112.076 29.3634 112.38 29.4637 112.832 29.5639C112.909 29.5891 112.958 29.6142 112.983 29.6392C113.035 29.6893 113.035 29.7645 113.035 29.8649C113.035 29.915 113.035 29.9652 113.035 30.0153C113.035 30.0654 113.009 30.1407 113.009 30.1907C112.58 30.1657 112.177 30.1407 111.775 30.1156C111.372 30.0905 111.019 30.0905 110.692 30.0905C110.34 30.0905 109.937 30.0905 109.508 30.1156C109.08 30.1407 108.652 30.1657 108.249 30.1907C108.225 30.1156 108.225 30.0654 108.225 30.0153C108.225 29.9652 108.225 29.915 108.225 29.8649C108.225 29.6642 108.299 29.5639 108.425 29.5389C108.929 29.4387 109.282 29.3384 109.483 29.2381C109.659 29.1378 109.76 28.9623 109.76 28.6865V18.4573C109.76 18.1815 109.659 18.0059 109.483 17.8805C109.282 17.7552 108.954 17.68 108.425 17.5797C108.299 17.5547 108.225 17.4544 108.225 17.2287C108.225 17.1786 108.225 17.1536 108.225 17.0783C108.225 17.0282 108.249 16.953 108.249 16.9028C108.628 16.9279 109.055 16.953 109.508 16.978C109.961 17.003 110.34 17.003 110.692 17.003C111.044 17.003 111.422 17.003 111.876 16.978C112.303 16.953 112.732 16.9279 113.16 16.9028C113.185 16.978 113.185 17.0282 113.185 17.0783C113.185 17.1284 113.185 17.1786 113.185 17.2287C113.185 17.4544 113.109 17.5547 112.983 17.5797C112.479 17.655 112.127 17.7552 111.926 17.8805C111.724 18.0059 111.649 18.1815 111.649 18.4573V23.271H112.052C112.883 23.271 113.512 23.1206 113.991 22.7947C114.469 22.4687 114.848 22.0676 115.124 21.5912C115.401 21.1149 115.628 20.5883 115.804 20.0367C115.98 19.4852 116.157 18.9587 116.383 18.4823C116.61 18.0059 116.886 17.6048 117.215 17.2789C117.567 16.953 118.045 16.8025 118.675 16.8025C118.825 16.8025 118.977 16.8276 119.104 16.8527C119.255 16.8778 119.355 16.9279 119.405 16.953C119.506 17.0282 119.557 17.1786 119.557 17.4043C119.557 17.5797 119.531 17.8054 119.481 18.0311C119.431 18.2567 119.355 18.4823 119.279 18.683C119.204 18.8835 119.104 19.059 118.977 19.1842C118.876 19.3348 118.751 19.3849 118.625 19.3849C118.524 19.3849 118.423 19.3598 118.373 19.3348C118.373 19.3096 118.247 19.2846 118.096 19.2846Z" fill="black"/>
<path d="M129.121 17.8287H125.596C125.596 18.7563 125.596 19.709 125.57 20.6868C125.545 21.6395 125.495 22.5923 125.393 23.5199C125.293 24.4475 125.167 25.325 124.99 26.1525C124.815 26.9798 124.563 27.7319 124.236 28.4089C123.933 29.0356 123.607 29.5121 123.254 29.8379C122.901 30.1639 122.548 30.3143 122.196 30.3143C122.071 30.3143 121.969 30.2642 121.868 30.1639C121.768 30.0636 121.692 29.9132 121.616 29.7628C121.542 29.6124 121.491 29.4118 121.465 29.2363C121.441 29.0356 121.416 28.8602 121.416 28.6846C121.416 28.4589 121.441 28.2835 121.491 28.1832C121.542 28.083 121.668 27.9827 121.894 27.9324C122.397 27.7821 122.825 27.5564 123.178 27.2556C123.531 26.9798 123.807 26.4784 124.034 25.8265C124.261 25.1496 124.413 24.247 124.513 23.0685C124.613 21.8902 124.664 20.3858 124.664 18.4805C124.664 18.2046 124.589 18.0292 124.462 17.9038C124.336 17.7784 124.034 17.6781 123.607 17.603C123.481 17.5779 123.404 17.4776 123.404 17.277C123.404 17.2269 123.404 17.1767 123.404 17.1266C123.404 17.0765 123.43 17.0012 123.43 16.9512C123.757 16.9762 124.11 17.0012 124.487 17.0263C124.84 17.0513 125.218 17.0513 125.57 17.0513H130.078C130.456 17.0513 130.859 17.0513 131.262 17.0263C131.665 17.0012 132.092 16.9762 132.495 16.9512C132.521 17.0263 132.521 17.0765 132.521 17.1266C132.521 17.1767 132.521 17.2269 132.521 17.277C132.521 17.4776 132.445 17.5779 132.319 17.603C131.791 17.6781 131.438 17.7784 131.288 17.9038C131.111 18.0292 131.035 18.2298 131.035 18.4805V28.7097C131.035 28.9856 131.136 29.161 131.338 29.2864C131.539 29.4117 131.916 29.487 132.421 29.5872C132.572 29.6124 132.647 29.7126 132.647 29.9132C132.647 29.9633 132.647 30.0135 132.647 30.0636C132.647 30.1137 132.621 30.1889 132.621 30.2391C132.219 30.214 131.791 30.1889 131.338 30.1639C130.885 30.1389 130.482 30.1389 130.129 30.1389C129.625 30.1389 129.121 30.1389 128.593 30.1639C128.064 30.1889 127.635 30.214 127.258 30.2391C127.232 30.1639 127.232 30.1137 127.232 30.0636C127.232 30.0135 127.232 29.9633 127.232 29.9132C127.232 29.7126 127.308 29.5872 127.484 29.5621C128.038 29.487 128.467 29.4117 128.743 29.3114C129.02 29.2111 129.146 29.0106 129.146 28.7097L129.121 17.8287Z" fill="black"/>
<path d="M142.191 25.3028H137.684L136.399 28.537C136.324 28.7125 136.298 28.8379 136.298 28.9382C136.298 29.214 136.701 29.4146 137.533 29.54C137.634 29.565 137.684 29.59 137.734 29.6402C137.76 29.6904 137.784 29.7655 137.784 29.8408C137.784 29.8909 137.784 29.9411 137.784 29.9912C137.784 30.0414 137.76 30.1165 137.76 30.1668C137.407 30.1416 137.004 30.1165 136.601 30.0915C136.198 30.0665 135.795 30.0665 135.418 30.0665C135.14 30.0665 134.863 30.0665 134.586 30.0915C134.309 30.1165 134.007 30.1416 133.704 30.1668C133.679 30.0414 133.654 29.916 133.654 29.8408C133.654 29.7405 133.679 29.6653 133.704 29.59C133.73 29.5148 133.806 29.4897 133.906 29.4647C134.334 29.3895 134.636 29.3143 134.838 29.214C135.04 29.1137 135.19 28.9632 135.292 28.7376L140.152 17.0792C140.252 16.8536 140.379 16.7283 140.529 16.7283C140.555 16.7283 140.63 16.7533 140.781 16.7784L145.667 28.8128C145.742 29.0135 145.919 29.1388 146.221 29.2642C146.498 29.3644 146.774 29.4397 147.051 29.4897C147.127 29.5149 147.203 29.565 147.254 29.59C147.303 29.6403 147.328 29.7154 147.328 29.8408C147.328 29.8909 147.328 29.9411 147.328 29.9912C147.328 30.0414 147.303 30.1165 147.303 30.1668C146.875 30.1416 146.448 30.1165 146.019 30.0915C145.591 30.0665 145.213 30.0665 144.835 30.0665C144.458 30.0665 144.03 30.0665 143.551 30.0915C143.073 30.1165 142.62 30.1416 142.241 30.1668C142.217 30.0915 142.217 30.0414 142.217 29.9912C142.217 29.9411 142.217 29.8909 142.217 29.8408C142.217 29.7154 142.241 29.6403 142.292 29.59C142.343 29.54 142.393 29.5149 142.418 29.5149C142.77 29.4397 143.047 29.3644 143.274 29.2892C143.501 29.214 143.601 29.0635 143.601 28.8881C143.601 28.7878 143.577 28.6875 143.526 28.5872L142.191 25.3028ZM141.864 24.4754L139.976 19.5363L138.011 24.4754H141.864Z" fill="black"/>
<path d="M155.112 23.1184C155.54 23.1685 155.968 23.2687 156.396 23.4193C156.825 23.5697 157.227 23.7452 157.581 24.0209C157.932 24.2716 158.209 24.5976 158.435 24.9737C158.663 25.3498 158.764 25.8011 158.764 26.3275C158.764 26.9293 158.663 27.4558 158.435 27.9071C158.209 28.3834 157.907 28.7595 157.479 29.0854C157.076 29.4113 156.572 29.662 155.993 29.8376C155.414 30.0131 154.784 30.0883 154.08 30.0883H150.88C150.654 30.0883 150.402 30.0883 150.1 30.1134C149.798 30.1385 149.547 30.1385 149.294 30.1635L148.388 30.2137C148.363 30.1885 148.363 30.1635 148.363 30.0883C148.337 30.0381 148.337 29.988 148.337 29.8877C148.337 29.7123 148.413 29.5869 148.564 29.5617C149.093 29.4615 149.446 29.3612 149.647 29.261C149.849 29.1606 149.95 28.9851 149.95 28.7094V18.4801C149.95 18.2043 149.849 18.0289 149.647 17.9286C149.446 17.8283 149.093 17.7279 148.564 17.6276C148.413 17.6026 148.337 17.4772 148.337 17.2515C148.337 17.1764 148.337 17.1262 148.363 17.1011C148.363 17.0511 148.363 17.0008 148.388 16.9758C148.791 17.0008 149.219 17.026 149.697 17.0511C150.15 17.0761 150.553 17.0761 150.88 17.0761H153.374C154.13 17.0761 154.759 17.1514 155.313 17.3268C155.842 17.5023 156.27 17.7279 156.622 18.0289C156.951 18.3297 157.202 18.6556 157.353 19.0568C157.504 19.4328 157.581 19.834 157.581 20.2602C157.581 20.561 157.529 20.862 157.402 21.1628C157.277 21.4636 157.126 21.7394 156.899 21.9901C156.698 22.2409 156.446 22.4665 156.145 22.6671C155.842 22.8676 155.515 23.0181 155.162 23.1184H155.112ZM152.141 22.8425C153.324 22.8425 154.18 22.6419 154.709 22.2158C155.238 21.7896 155.49 21.1377 155.49 20.2351C155.49 19.4077 155.238 18.8061 154.709 18.4048C154.18 18.0037 153.348 17.8032 152.141 17.8032H151.838V22.8175H152.141V22.8425ZM151.838 28.5338C151.838 28.6843 151.889 28.8097 151.989 28.8848C152.089 28.9851 152.191 29.0604 152.341 29.1105C152.492 29.1606 152.644 29.2108 152.795 29.2108C152.946 29.2358 153.122 29.2358 153.248 29.2358C153.751 29.2358 154.23 29.1858 154.633 29.1105C155.061 29.0353 155.414 28.8848 155.69 28.6843C155.993 28.4837 156.219 28.2079 156.371 27.882C156.522 27.5311 156.622 27.1048 156.622 26.5783C156.622 25.6005 156.296 24.8734 155.64 24.397C154.986 23.8956 154.054 23.6449 152.895 23.6449H151.838V28.5338Z" fill="black"/>
<path d="M169.944 20.1855L163.85 28.0832V28.6598C163.85 28.8102 163.875 28.9607 163.901 29.0359C163.926 29.1362 164.001 29.2115 164.077 29.2615C164.152 29.3117 164.253 29.3618 164.404 29.412C164.53 29.462 164.707 29.4872 164.933 29.5373C165.084 29.5874 165.16 29.6627 165.16 29.8131C165.16 29.8633 165.16 29.9134 165.16 29.9887C165.16 30.0388 165.134 30.114 165.134 30.1892C164.781 30.1642 164.43 30.1391 164.052 30.114C163.674 30.0889 163.296 30.0889 162.943 30.0889C162.565 30.0889 162.163 30.0889 161.76 30.114C161.332 30.1391 160.93 30.1642 160.5 30.1892C160.476 30.114 160.476 30.0638 160.476 29.9887C160.476 29.9385 160.476 29.8633 160.476 29.8131C160.476 29.6376 160.551 29.5373 160.677 29.5373C161.181 29.437 161.533 29.3368 161.735 29.2365C161.91 29.1362 162.012 28.9355 162.012 28.6848V18.4557C162.012 18.1798 161.936 18.0043 161.76 17.904C161.609 17.8038 161.256 17.6785 160.703 17.5781C160.577 17.5531 160.5 17.4528 160.5 17.2522C160.5 17.2021 160.5 17.1519 160.5 17.1018C160.5 17.0516 160.527 16.9764 160.527 16.9263C160.853 16.9513 161.256 16.9764 161.71 17.0015C162.163 17.0265 162.565 17.0265 162.918 17.0265C163.296 17.0265 163.699 17.0265 164.102 17.0015C164.53 16.9764 164.933 16.9513 165.337 16.9263C165.361 17.0015 165.361 17.0516 165.361 17.1018C165.361 17.1519 165.361 17.2021 165.361 17.2522C165.361 17.4528 165.286 17.5531 165.16 17.5781C164.631 17.6533 164.278 17.7536 164.127 17.879C163.951 18.0043 163.875 18.205 163.875 18.4557V26.5789L169.97 18.6812V18.4557C169.97 18.1548 169.894 17.9543 169.768 17.854C169.642 17.7286 169.365 17.6533 168.937 17.5781C168.785 17.5531 168.711 17.4528 168.711 17.2522C168.711 17.2021 168.711 17.1519 168.711 17.1018C168.711 17.0516 168.736 16.9764 168.736 16.9263C169.063 16.9513 169.415 16.9764 169.794 17.0015C170.171 17.0265 170.524 17.0265 170.901 17.0265C171.279 17.0265 171.683 17.0265 172.086 17.0015C172.488 16.9764 172.916 16.9513 173.319 16.9263C173.344 17.0015 173.344 17.0516 173.344 17.1018C173.344 17.1519 173.344 17.2021 173.344 17.2522C173.344 17.4528 173.269 17.5531 173.143 17.5781C172.615 17.6533 172.262 17.7536 172.11 17.879C171.934 18.0043 171.859 18.205 171.859 18.4557V28.6848C171.859 28.9607 171.934 29.1362 172.11 29.2365C172.286 29.3368 172.639 29.437 173.168 29.5373C173.294 29.5624 173.369 29.6376 173.369 29.8131C173.369 29.8633 173.369 29.9134 173.369 29.9887C173.369 30.0388 173.344 30.114 173.344 30.1892C173.016 30.1642 172.615 30.1391 172.16 30.114C171.707 30.0889 171.279 30.0889 170.927 30.0889C170.549 30.0889 170.147 30.0889 169.718 30.114C169.29 30.1391 168.887 30.1642 168.484 30.1892C168.459 30.114 168.459 30.0638 168.459 29.9887C168.459 29.9385 168.459 29.8633 168.459 29.8131C168.459 29.6376 168.534 29.5373 168.66 29.5373C169.164 29.437 169.491 29.3368 169.693 29.2365C169.87 29.1362 169.97 28.9355 169.97 28.6848V20.1855H169.944Z" fill="black"/>
<path d="M184.477 17.0265C184.83 17.0265 185.257 17.0265 185.711 17.0015C186.163 16.9764 186.566 16.9513 186.895 16.9263C186.919 17.0015 186.919 17.0516 186.919 17.1268C186.919 17.177 186.919 17.2522 186.919 17.3024C186.919 17.4778 186.844 17.5781 186.718 17.5781C186.189 17.6785 185.837 17.7787 185.66 17.879C185.484 17.9793 185.408 18.1548 185.408 18.4305V29.2615H190.244V18.4305C190.244 18.1548 190.143 17.9793 189.966 17.879C189.766 17.7787 189.437 17.6785 188.934 17.5781C188.808 17.5531 188.733 17.4778 188.733 17.3024C188.733 17.2522 188.733 17.2021 188.733 17.1268C188.733 17.0767 188.757 17.0015 188.757 16.9263C189.16 16.9513 189.563 16.9764 189.993 17.0015C190.42 17.0265 190.823 17.0265 191.2 17.0265C191.553 17.0265 191.981 17.0265 192.435 17.0015C192.888 16.9764 193.291 16.9513 193.618 16.9263C193.644 17.0015 193.644 17.0516 193.644 17.1268C193.644 17.177 193.644 17.2522 193.644 17.3024C193.644 17.4778 193.567 17.5781 193.441 17.5781C192.912 17.6785 192.561 17.7787 192.384 17.879C192.208 17.9793 192.132 18.1548 192.132 18.4305V28.6348C192.132 28.9105 192.208 29.0861 192.384 29.2115C192.561 29.3368 192.888 29.437 193.417 29.5123C193.543 29.5373 193.618 29.6377 193.618 29.8382C193.618 29.8883 193.618 29.9385 193.618 29.9887C193.618 30.0388 193.593 30.114 193.593 30.1642C193.165 30.1391 192.762 30.114 192.359 30.0889C191.956 30.0638 191.553 30.0638 191.176 30.0638H177.678C177.325 30.0638 176.922 30.0638 176.468 30.0889C176.015 30.114 175.637 30.1391 175.284 30.1642C175.26 30.0889 175.26 30.0388 175.26 29.9887C175.26 29.9385 175.26 29.8883 175.26 29.8382C175.26 29.6377 175.336 29.5373 175.461 29.5123C175.99 29.412 176.342 29.2866 176.519 29.1863C176.67 29.0861 176.771 28.8855 176.771 28.6348V18.4305C176.771 18.1548 176.67 17.9793 176.493 17.879C176.292 17.7787 175.965 17.6785 175.436 17.5781C175.31 17.5531 175.234 17.4778 175.234 17.3024C175.234 17.2522 175.234 17.2021 175.234 17.1268C175.234 17.0767 175.26 17.0015 175.26 16.9263C175.687 16.9513 176.09 16.9764 176.519 17.0015C176.946 17.0265 177.325 17.0265 177.702 17.0265C178.055 17.0265 178.483 17.0265 178.936 17.0015C179.39 16.9764 179.793 16.9513 180.146 16.9263C180.17 17.0015 180.17 17.0516 180.17 17.1268C180.17 17.177 180.17 17.2522 180.17 17.3024C180.17 17.4528 180.094 17.5531 179.943 17.5781C179.414 17.6785 179.061 17.7787 178.886 17.879C178.71 17.9793 178.634 18.1548 178.634 18.4305V29.2615H183.468V18.4305C183.468 18.1548 183.394 17.9793 183.217 17.879C183.041 17.7787 182.688 17.6785 182.159 17.5781C182.034 17.5531 181.959 17.4778 181.959 17.3024C181.959 17.2522 181.959 17.2021 181.959 17.1268C181.959 17.0767 181.983 17.0015 181.983 16.9263C182.311 16.9513 182.714 16.9764 183.192 17.0015C183.721 17.0015 184.124 17.0265 184.477 17.0265Z" fill="black"/>
<path d="M203.313 25.3028H198.806L197.521 28.537C197.446 28.7125 197.42 28.8379 197.42 28.9382C197.42 29.214 197.823 29.4146 198.655 29.54C198.756 29.565 198.806 29.59 198.856 29.6402C198.882 29.6904 198.906 29.7655 198.906 29.8408C198.906 29.8909 198.906 29.9411 198.906 29.9912C198.906 30.0414 198.882 30.1165 198.882 30.1668C198.529 30.1416 198.126 30.1165 197.723 30.0915C197.32 30.0665 196.917 30.0665 196.54 30.0665C196.261 30.0665 195.985 30.0665 195.708 30.0915C195.431 30.1165 195.129 30.1416 194.826 30.1668C194.801 30.0414 194.776 29.916 194.776 29.8408C194.776 29.7405 194.801 29.6653 194.826 29.59C194.852 29.5148 194.928 29.4897 195.028 29.4647C195.457 29.3895 195.758 29.3143 195.96 29.214C196.161 29.1137 196.313 28.9632 196.414 28.7376L201.274 17.0792C201.374 16.8536 201.501 16.7283 201.651 16.7283C201.677 16.7283 201.753 16.7533 201.903 16.7784L206.788 28.8128C206.864 29.0135 207.04 29.1388 207.343 29.2642C207.62 29.3644 207.896 29.4397 208.173 29.4897C208.249 29.5149 208.325 29.565 208.376 29.59C208.425 29.6403 208.45 29.7154 208.45 29.8408C208.45 29.8909 208.45 29.9411 208.45 29.9912C208.45 30.0414 208.425 30.1165 208.425 30.1668C207.997 30.1416 207.57 30.1165 207.141 30.0915C206.713 30.0665 206.335 30.0665 205.957 30.0665C205.58 30.0665 205.152 30.0665 204.673 30.0915C204.195 30.1165 203.742 30.1416 203.363 30.1668C203.339 30.0915 203.339 30.0414 203.339 29.9912C203.339 29.9411 203.339 29.8909 203.339 29.8408C203.339 29.7154 203.363 29.6403 203.414 29.59C203.465 29.54 203.515 29.5149 203.54 29.5149C203.892 29.4397 204.169 29.3644 204.396 29.2892C204.623 29.214 204.724 29.0635 204.724 28.8881C204.724 28.7878 204.698 28.6875 204.648 28.5872L203.313 25.3028ZM202.986 24.4754L201.098 19.5363L199.133 24.4754H202.986Z" fill="black"/>
<path d="M219.708 28.8357C219.833 29.0363 219.984 29.1616 220.211 29.2618C220.412 29.3622 220.765 29.4375 221.244 29.5126C221.318 29.5378 221.37 29.5628 221.444 29.6129C221.495 29.6631 221.545 29.7383 221.545 29.8386C221.545 29.8887 221.545 29.9389 221.545 29.989C221.545 30.0392 221.52 30.1143 221.52 30.1646C221.318 30.1394 221.091 30.1394 220.865 30.1143C220.638 30.0893 220.387 30.0893 220.16 30.0893C219.934 30.0893 219.708 30.0643 219.481 30.0643C219.253 30.0643 219.078 30.0643 218.926 30.0643C218.573 30.0643 218.12 30.0643 217.642 30.0893C217.138 30.1143 216.66 30.1394 216.181 30.1646C216.156 30.0893 216.156 30.0392 216.156 29.989C216.156 29.9389 216.156 29.8887 216.156 29.8386C216.156 29.6631 216.231 29.5378 216.383 29.5126C216.711 29.4375 216.963 29.3622 217.163 29.287C217.366 29.2118 217.466 29.0613 217.466 28.8859C217.466 28.7353 217.416 28.61 217.314 28.5348L214.545 24.2727L211.951 28.1838C211.774 28.4346 211.698 28.6351 211.698 28.8106C211.698 29.1616 212.051 29.3872 212.756 29.5126C212.907 29.5378 212.983 29.638 212.983 29.8386C212.983 29.8887 212.983 29.9389 212.983 29.989C212.983 30.0392 212.959 30.1143 212.959 30.1646C212.606 30.1394 212.203 30.1143 211.774 30.0893C211.346 30.0643 210.968 30.0643 210.641 30.0643C210.339 30.0643 210.037 30.0643 209.759 30.0893C209.482 30.1143 209.155 30.1394 208.778 30.1646C208.752 30.0893 208.752 30.0392 208.752 29.989C208.752 29.9389 208.752 29.8887 208.752 29.8386C208.752 29.638 208.828 29.5378 208.979 29.5126C209.281 29.4375 209.583 29.3371 209.885 29.2118C210.188 29.0864 210.389 28.936 210.515 28.7353L214.066 23.4202L210.667 18.2303C210.565 18.0549 210.389 17.9044 210.162 17.8041C209.935 17.6788 209.583 17.6036 209.129 17.5785C208.979 17.5534 208.878 17.4531 208.878 17.2276C208.878 17.1773 208.878 17.1523 208.878 17.077C208.878 17.0269 208.903 16.9516 208.903 16.9016C209.332 16.9266 209.759 16.9518 210.238 16.9768C210.717 17.0019 211.12 17.0019 211.422 17.0019C211.774 17.0019 212.203 17.0019 212.681 16.9768C213.185 16.9518 213.663 16.9266 214.116 16.9016C214.142 16.9768 214.142 17.0269 214.142 17.077C214.142 17.1273 214.142 17.1773 214.142 17.2276C214.142 17.4281 214.066 17.5534 213.915 17.5785C213.587 17.6287 213.31 17.6788 213.134 17.729C212.959 17.8041 212.857 17.9044 212.857 18.0799C212.857 18.1301 212.857 18.1803 212.882 18.2554C212.907 18.3056 212.933 18.3808 213.009 18.456L215.501 22.2168L217.919 18.6816C218.045 18.5062 218.12 18.3306 218.12 18.1803C218.12 17.8794 217.768 17.6788 217.088 17.5785C216.937 17.5534 216.861 17.4281 216.861 17.2276C216.861 17.1773 216.861 17.1523 216.861 17.077C216.861 17.0269 216.887 16.9516 216.887 16.9016C217.289 16.9266 217.667 16.9518 218.02 16.9768C218.372 17.0019 218.675 17.0019 218.902 17.0019C219.253 17.0019 219.606 17.0019 219.984 16.9768C220.362 16.9518 220.688 16.9266 220.992 16.9016C221.017 16.9768 221.017 17.0269 221.017 17.077C221.017 17.1273 221.017 17.1773 221.017 17.2276C221.017 17.4281 220.941 17.5534 220.765 17.5785C220.387 17.6287 220.085 17.7038 219.833 17.8041C219.581 17.9295 219.405 18.0799 219.253 18.3056L216.005 23.0442L219.708 28.8357Z" fill="black"/>
</svg>
