<svg width="150" height="45" viewBox="0 0 150 45" fill="none" xmlns="http://www.w3.org/2000/svg">
<path d="M0.126121 43.8809C-0.253496 43.1217 0.180352 42.254 2.02421 39.922C7.33886 33.3601 16.9378 20.2904 16.7208 20.0192C16.5581 19.8565 15.2024 20.1277 13.6839 20.67C12.1654 21.1581 10.2673 21.4834 9.45387 21.375C7.44732 21.1581 7.39309 19.5854 9.34541 19.5854C10.1589 19.5311 12.5993 19.0973 14.877 18.5007L18.9443 17.5246L22.2524 12.1557C26.3197 5.64796 26.9163 4.29219 25.9944 3.20756C25.5063 2.61102 24.6928 2.44833 22.9574 2.71948C19.7578 3.15333 11.4604 7.1122 11.135 8.30529C10.7012 9.82376 5.87462 12.8065 4.79 12.1557C2.89191 11.1253 3.7596 9.60683 7.9354 6.89528C13.467 3.26179 19.6493 0.767164 23.2828 0.658702C25.7774 0.604471 26.374 0.821395 27.2959 1.96025C29.0313 4.07526 28.489 8.52221 25.9401 12.7522L23.9878 16.0603H32.5021L34.0206 14.0538C39.0098 7.32913 43.2398 2.50256 43.9991 2.66525C45.7345 2.99064 44.5956 5.70219 40.5283 10.7457C36.8406 15.3553 36.5694 15.8434 37.5456 16.2773C39.1725 17.0365 38.7387 17.7957 36.8406 17.5788C35.2136 17.4161 34.834 17.7415 31.9598 21.4834C28.6517 25.7677 28.1636 26.7981 29.899 25.7135C30.4413 25.3339 31.0921 25.2254 31.309 25.3881C31.7429 25.8762 25.5063 32.872 24.5843 32.872C22.4151 32.872 23.554 29.2927 27.9467 22.6223C29.3567 20.3988 30.6582 18.2296 30.8209 17.85C31.1463 16.9823 27.8924 16.9823 24.5843 17.85C22.3609 18.4465 21.8186 19.0973 15.2024 27.9912C11.352 33.1974 8.20656 37.8612 8.20656 38.3493C8.20656 39.4339 2.62075 44.8028 1.4819 44.8028C1.04805 44.8028 0.397277 44.369 0.126121 43.8809ZM93.729 33.577C93.0782 32.9262 93.3494 30.7027 94.4882 27.1235C95.139 25.1712 95.5186 23.4358 95.3559 23.2731C94.7594 22.7308 90.6921 26.4185 88.1432 29.7266C85.6486 32.9262 85.5943 32.9804 84.5639 31.8958C83.4793 30.8654 83.5336 30.8112 86.2451 25.9304C87.7636 23.2731 89.0109 20.9411 89.0109 20.7242C89.0109 19.043 81.0389 24.9 77.0258 29.5639C72.9043 34.3904 70.8977 32.8177 74.0431 27.2319C76.8089 22.2969 78.4901 20.4531 79.7916 20.7784C81.0389 21.1038 81.0932 21.2123 80.3339 22.6223C79.6289 23.8696 80.4424 23.9781 81.4728 22.785C82.5574 21.4834 87.4924 18.7719 88.8482 18.7719C89.499 18.7719 90.4209 19.1515 90.909 19.6396C91.7225 20.4531 91.6682 21.1038 90.7463 23.5442C90.6378 23.9238 91.7225 23.49 93.2409 22.5138C97.7963 19.6938 99.4233 21.2665 97.9048 27.1777C97.3083 29.4012 97.254 30.4858 97.6337 30.5943C98.7183 30.9739 98.2844 31.7874 96.4948 32.872C94.5425 34.0651 94.2713 34.1193 93.729 33.577ZM34.0206 32.0043C33.5325 31.5704 33.1529 30.6485 33.1529 29.9435C33.1529 28.0996 35.756 23.2731 38.0337 20.8327C40.0402 18.7719 40.1487 18.7177 42.9687 19.0973C44.5956 19.26 46.1683 19.6938 46.4937 20.0734C47.3072 20.8327 48.0122 24.195 47.3614 24.195C47.0903 24.195 46.0056 25.4965 44.8668 27.1235C43.7822 28.7504 41.9383 30.7027 40.7994 31.462C38.4675 33.0889 35.3221 33.3601 34.0206 32.0043ZM41.9925 27.5031C44.0533 25.3339 44.5414 24.4119 44.5414 22.8392C44.5414 21.8088 44.3245 20.9411 44.1075 20.9411C43.0229 20.9411 39.0641 24.4662 37.5456 26.7439C33.6409 32.6008 36.7321 33.1431 41.9925 27.5031ZM50.6153 32.2212C49.0968 30.7027 49.856 28.2081 52.9472 24.4662C57.3399 19.043 56.7976 17.6873 51.5914 21.2665C48.5003 23.3815 47.5783 23.4358 49.5307 21.375C52.4591 18.2296 56.2553 16.7653 58.0449 18.0669C60.1057 19.4769 59.4549 21.2123 55.3876 25.5508C53.3268 27.7743 51.5914 29.835 51.5914 30.1604C51.5914 31.6247 53.4895 31.245 56.5807 29.13C58.3703 27.8827 59.9973 27.015 60.16 27.1777C60.7023 27.6658 57.4484 30.6485 55.1165 31.7874C52.5134 33.0347 51.5372 33.1431 50.6153 32.2212ZM61.6242 32.167C60.8107 31.5704 60.7023 30.9197 60.9192 28.8046C61.4073 24.5204 67.3727 16.9823 68.9996 18.6092C69.3792 18.9888 70.3554 19.0973 71.1689 18.9346C73.1212 18.555 74.1516 19.3684 74.5854 21.5377C74.8566 22.9477 74.477 23.7611 72.2535 26.6896C68.0235 32.3839 64.4442 34.1735 61.6242 32.167ZM67.7523 28.8589C70.9519 25.8219 72.0908 23.8154 71.7112 21.8631L71.3858 20.2904L69.0539 22.0258C65.1492 24.8458 61.8954 31.245 64.3358 31.245C64.8238 31.245 66.3423 30.1604 67.7523 28.8589ZM102.135 31.6247C99.8571 29.2385 101.05 24.195 105.118 18.6092C106.419 16.8196 106.907 15.7892 106.473 15.6265C105.28 15.2469 105.823 14.0538 108.317 11.7761C114.174 6.29874 122.363 5.15988 123.773 9.49837C123.936 9.93222 125.02 9.66106 127.19 8.6849C128.925 7.87144 131.42 7.1122 132.667 6.94951C134.619 6.73258 135.107 6.89528 135.867 7.9799C137.548 10.3661 136.463 14.1622 132.613 19.3684L130.66 22.0258H132.342C138.578 22.0258 147.092 14.7588 148.069 8.57644C148.394 6.78682 148.448 6.73258 149.316 7.54605C151.051 9.33568 149.099 13.9453 144.977 17.7957C141.669 20.8869 139.012 22.2969 134.728 23.1646C131.42 23.8696 131.365 23.8696 131.691 25.4965C132.342 28.9131 133.372 30.7027 134.673 30.7027C135.378 30.7027 136.246 30.4316 136.626 30.052C137.71 28.9673 138.036 30.1062 137.005 31.245C135.433 32.9804 132.721 32.7093 131.148 30.5943C130.389 29.6181 129.63 28.1539 129.359 27.3404C128.654 25.1169 127.895 25.2796 126.647 27.9912C125.4 30.5943 122.96 32.872 121.441 32.872C120.899 32.872 120.465 32.5466 120.465 32.167C120.465 31.7874 122.851 28.2081 125.834 24.3035C131.691 16.3315 135.107 10.9084 135.107 9.44414C135.107 8.08836 133.209 8.19682 129.413 9.66106C125.508 11.1253 124.478 12.2642 122.96 16.7111C120.031 25.4965 112.168 32.872 105.768 32.872C103.87 32.872 103.003 32.5466 102.135 31.6247ZM108.914 30.1062C111.734 28.7504 116.235 23.9238 119.001 19.26C120.682 16.3857 120.845 15.7349 120.194 15.3553C119.001 14.7046 119.218 13.5115 120.736 12.4811C122.417 11.3965 122.526 9.28145 120.953 8.41375C118.404 7.05797 111.788 9.44414 111.788 11.7218C111.788 12.3184 112.059 12.7522 112.385 12.6438C113.957 12.3184 113.144 13.7284 111.137 14.9757C107.124 17.4161 102.623 24.1408 102.569 27.6658C102.569 29.5639 103.924 31.245 105.443 31.245C106.094 31.245 107.612 30.757 108.914 30.1062Z" fill="black"/>
</svg>
