<svg width="209" height="31" viewBox="0 0 209 31" fill="none" xmlns="http://www.w3.org/2000/svg">
<g clip-path="url(#clip0_4132_18434)">
<path d="M1.09318 0.819621C4.65596 0.819621 8.19401 0.578612 11.6826 0.882689C15.7469 1.23632 17.9962 4.1014 17.3416 8.21657C17.0987 9.75047 15.9831 10.8271 14.7573 11.6583C15.7492 12.557 16.8176 13.3408 17.6498 14.3251C18.9206 15.8253 18.7654 19.4269 17.7487 21.132C16.4712 23.274 14.6156 24.1907 12.2449 24.2718C8.80805 24.3912 5.37122 24.4745 1.93439 24.5782C1.3361 24.5939 0.946979 24.4723 0.949228 23.7177C0.97397 16.1834 0.971721 8.64904 0.982967 1.11469C0.982967 1.04712 1.03245 0.979543 1.09318 0.819621ZM4.19262 21.6162C6.41261 21.6162 8.57413 21.6613 10.7289 21.5937C11.5161 21.5689 12.3258 21.3617 13.0703 21.0892C14.809 20.4517 15.3623 19.4764 15.3286 17.3727C15.3016 15.7689 14.4874 14.6022 12.8859 14.1157C11.984 13.8409 11.0258 13.6539 10.0879 13.6179C8.12653 13.5435 6.15845 13.5954 4.19262 13.5954V21.6207V21.6162ZM4.16338 3.53379C4.16338 5.84703 4.14089 8.08368 4.20387 10.3158C4.20837 10.5028 4.78867 10.8361 5.09007 10.8249C7.27857 10.7393 9.46932 10.6357 11.6488 10.4375C14.2962 10.1965 14.8877 7.63995 13.9138 5.37852C13.2255 3.78155 11.6218 3.76128 10.3285 3.59686C8.37844 3.35134 6.37438 3.53379 4.16338 3.53379Z" fill="black"/>
<path d="M47.9673 0.778978C48.5251 0.778978 49.1909 0.778978 49.8544 0.778978C53.4509 0.785735 57.0519 0.720415 60.6462 0.830784C62.6503 0.891599 64.5036 1.51552 65.8509 3.19583C66.9261 4.53376 67.232 6.1037 67.1645 7.71418C67.061 10.1828 65.7002 11.9465 63.5252 12.9758C62.5535 13.4353 61.4109 13.5367 60.0771 13.8655C63.2553 17.2937 66.3682 20.6543 69.4812 24.0105C68.4735 24.8619 65.8599 24.5533 64.8793 23.5082C62.0835 20.5237 59.2652 17.5618 56.4424 14.6021C56.2355 14.3859 55.9251 14.1448 55.6529 14.1336C54.3439 14.084 53.0303 14.1178 51.719 14.1021C50.943 14.0908 50.9408 14.5818 50.943 15.1539C50.9565 17.8929 50.916 20.6341 50.9678 23.373C50.9858 24.328 50.6304 24.6704 49.7239 24.5848C49.3146 24.5465 48.8692 24.6659 48.4981 24.5398C48.2012 24.4384 47.7761 24.0758 47.7761 23.8303C47.7536 16.2126 47.7761 8.59713 47.7918 0.979444C47.7918 0.952415 47.8368 0.925385 47.965 0.783483L47.9673 0.778978ZM50.952 3.48414C50.952 5.77935 50.9813 7.94618 50.9385 10.1153C50.9205 11.0027 51.2647 11.3428 52.1239 11.3045C54.8477 11.1807 57.5782 11.1379 60.2976 10.9464C62.4568 10.7955 63.7209 9.40575 63.7322 7.41011C63.7434 5.41897 62.2836 3.59 60.3358 3.51567C57.2701 3.39854 54.1977 3.48414 50.9543 3.48414H50.952Z" fill="black"/>
<path d="M84.6909 25.3236C80.1092 25.4857 76.7803 23.632 74.1465 20.5282C71.7195 17.6676 71.1302 14.1606 71.8455 10.6153C72.6192 6.77713 75.0304 3.92557 78.5077 2.13264C81.9445 0.359987 85.4713 0.317191 89.1173 1.71594C91.704 2.70926 93.8452 4.15081 95.215 6.54288C96.0157 7.94164 96.8345 9.44175 97.1224 10.9937C97.498 13.0276 97.4642 15.1967 96.6725 17.1766C95.8268 19.2893 94.565 21.1994 92.7094 22.5576C90.2375 24.3685 87.5294 25.6299 84.6953 25.3258L84.6909 25.3236ZM74.9449 13.0524C74.9314 18.7262 79.4299 22.4923 84.4007 22.4607C89.7741 22.427 93.9195 18.7645 94.0184 13.0884C94.1039 8.15111 90.0395 3.84448 84.5402 3.79268C79.2905 3.74312 74.8235 7.94164 74.9449 13.0501V13.0524Z" fill="black"/>
<path d="M23.9585 0.853138H27.0534C27.0534 1.23155 27.0534 1.62347 27.0534 2.01764C27.0579 6.52023 27.0152 11.0228 27.0962 15.5209C27.1164 16.6787 27.4291 17.8612 27.7889 18.9716C28.2545 20.3974 29.5546 21.0889 30.8524 21.3885C32.9622 21.8772 35.1372 21.8998 37.0985 20.733C38.7157 19.7712 39.1633 18.1157 39.1903 16.3994C39.2645 11.6738 39.2398 6.94594 39.2533 2.22036C39.2563 1.26233 39.7526 0.781812 40.7423 0.778809C41.2641 0.778809 41.7859 0.778809 42.4044 0.778809C42.4404 1.16397 42.4989 1.48832 42.4989 1.81267C42.4967 6.31526 42.5799 10.8178 42.4314 15.3159C42.373 17.048 41.9906 18.841 41.372 20.4605C40.7513 22.08 39.3342 23.1273 37.6608 23.758C35.0899 24.7266 32.4448 24.6139 29.8447 24.1387C27.1479 23.6454 24.7907 21.4966 24.2914 18.1652C23.4592 12.604 24.1092 7.02477 23.8843 1.46129C23.8775 1.28335 23.927 1.10316 23.9585 0.855391V0.853138Z" fill="black"/>
<path d="M111.638 0.81936C115.037 0.81936 118.341 0.648176 121.616 0.877923C123.865 1.03559 125.977 2.02441 126.755 4.41422C127.428 6.48195 127.473 8.63076 125.972 10.4552C125.527 10.9958 124.855 11.3517 124.299 11.7819C125.03 12.3 125.849 12.7932 126.566 13.4081C127.551 14.2551 128.046 15.379 128.091 16.6944C128.154 18.5932 128.267 20.4898 126.989 22.1228C126.087 23.276 124.933 24.0936 123.494 24.1747C119.908 24.3797 116.316 24.4428 112.727 24.5734C111.984 24.6004 111.537 24.445 111.539 23.535C111.564 16.1786 111.555 8.82446 111.557 1.46806C111.557 1.28561 111.6 1.10316 111.638 0.814855V0.81936ZM113.671 22.5958C115.957 22.5958 118.012 22.598 120.068 22.5935C120.554 22.5935 121.053 22.6228 121.523 22.5304C122.315 22.375 123.123 22.2084 123.869 21.9088C126.22 20.9628 126.335 17.913 125.714 15.9309C125.32 14.6695 124.33 13.8248 123.107 13.6446C121.053 13.3406 118.962 13.2302 116.883 13.1829C113.671 13.1108 113.671 13.1649 113.671 16.4039V22.598V22.5958ZM113.678 3.02223C113.678 5.53818 113.678 8.00458 113.678 10.4687C113.678 11.1715 114.11 11.3359 114.719 11.3021C116.989 11.176 119.261 11.0927 121.526 10.9305C123.325 10.8021 124.769 9.32901 124.891 7.70726C125.147 4.22502 124.011 3.37811 121.897 3.10331C119.261 2.76095 116.546 3.01998 113.676 3.01998L113.678 3.02223Z" fill="black"/>
<path d="M150.393 12.3697C149.86 10.6061 151.913 8.21174 153.281 7.68918C155.422 6.87155 157.586 6.84452 159.745 7.29951C161.673 7.70495 163.056 8.89423 163.137 11.1714C163.249 14.3203 163.18 17.476 163.186 20.6293C163.191 22.4583 163.328 22.6002 165.139 22.6588C165.564 23.9427 165.404 24.1837 164.111 24.2332C162.221 24.303 162.228 24.3008 161.477 22.661C161.211 22.0822 160.942 22.1655 160.476 22.5664C158.173 24.5531 155.462 24.7535 152.633 24.1656C151.157 23.8593 149.569 22.1069 149.407 20.6924C149.133 18.3093 149.754 16.7597 151.65 15.8114C152.865 15.2033 154.293 15.005 155.64 14.6875C157.289 14.2978 158.955 13.9802 160.613 13.6153C160.768 13.5815 160.955 13.4509 161.023 13.3135C161.855 11.6197 160.597 9.03388 158.717 8.919C157.197 8.82666 155.615 9.01811 154.133 9.38075C153.515 9.53166 152.831 10.3628 152.613 11.0273C152.12 12.5341 152.122 12.64 150.393 12.3742V12.3697ZM161.052 15.6357C159.556 15.8542 158.197 16.0412 156.843 16.2551C155.753 16.4263 154.614 16.4849 153.593 16.8588C152.466 17.271 151.627 18.1494 151.493 19.4468C151.358 20.7217 151.969 21.6317 153.089 22.1723C155.141 23.1633 157.127 22.7421 159.016 21.724C161.502 20.3861 161.259 18.0751 161.054 15.6335L161.052 15.6357Z" fill="black"/>
<path d="M132.973 16.2484C133.22 19.5054 134.046 21.3794 136.814 22.5326C138.899 23.4021 142.003 22.2804 142.964 20.2307C143.56 18.958 144.336 18.7688 145.629 19.0864C145.314 20.5235 144.612 21.6992 143.567 22.7331C140.933 25.3346 134.734 25.0013 132.707 22.0258C130.876 19.3409 130.204 16.4421 131.146 13.2031C131.621 11.5723 132.3 10.1556 133.452 8.90323C134.916 7.31302 136.832 6.96389 138.776 6.99092C141.428 7.02921 143.558 8.16443 144.837 10.6534C145.645 12.2255 145.71 13.9149 145.775 15.6064C145.802 16.3272 145.211 16.2506 144.718 16.2506C141.27 16.2484 137.822 16.2506 134.374 16.2506C133.933 16.2506 133.492 16.2506 132.975 16.2506L132.973 16.2484ZM138.279 14.6424C139.738 14.6424 141.198 14.6131 142.656 14.6559C143.416 14.6784 143.598 14.3563 143.607 13.6536C143.639 11.5723 142.316 9.56994 140.249 8.99558C138.441 8.49329 136.495 8.51581 134.952 10.1488C134.061 11.0903 133.593 12.1264 133.276 13.354C132.973 14.5253 132.934 14.6289 134.124 14.6401C135.51 14.6537 136.893 14.6424 138.279 14.6424Z" fill="black"/>
<path d="M193.913 7.29523H196.131C197.816 11.7685 199.507 16.2576 201.219 20.803C202.379 20.5733 202.141 19.4358 202.456 18.7398C203.218 17.0527 203.805 15.2846 204.446 13.5412C205.087 11.8001 205.751 10.0635 206.322 8.29981C206.659 7.25919 207.296 6.9934 208.951 7.43713C208.108 9.55891 207.238 11.6672 206.428 13.798C205.65 15.8432 204.995 17.9379 204.176 19.9651C203.011 22.8595 201.817 25.7471 200.501 28.5739C199.725 30.2429 198.263 30.8848 196.398 30.6889C195.463 30.5898 195.465 30.0154 195.447 29.3577C195.429 28.6459 195.805 28.4522 196.452 28.5423C198.551 28.8396 198.85 27.6504 199.876 25.5421C200.758 23.7311 199.624 22.4202 199.145 20.9472C198.616 19.3209 197.921 17.7465 197.296 16.1517C196.473 14.0457 195.64 11.942 194.826 9.83145C194.523 9.04761 194.257 8.25025 193.915 7.29072L193.913 7.29523Z" fill="black"/>
<path d="M179.156 7.79522H181.198C181.234 8.12632 181.295 8.41689 181.295 8.70745C181.302 13.4713 181.279 18.2352 181.317 22.9968C181.324 23.9834 180.892 24.3393 180.042 24.1208C179.696 24.0329 179.378 23.596 179.181 23.2446C179.032 22.9833 179.097 22.6004 179.046 22.0305C177.759 23.5982 176.221 24.3505 174.426 24.4429C172.226 24.5555 170.112 24.2694 168.827 22.1544C168.427 21.4922 168.038 20.6948 168.02 19.9515C167.925 16.0526 167.952 12.1537 167.943 8.25246C167.943 8.11056 168.018 7.9664 168.065 7.78846C168.373 7.77269 168.67 7.7772 168.962 7.74116C169.797 7.64205 170.064 7.99343 170.058 8.83133C170.033 12.4307 170.046 16.0323 170.087 19.6317C170.105 21.2287 171.441 22.4855 173.029 22.6499C175.197 22.8752 177.104 22.472 178.256 20.4493C178.708 19.652 179.048 18.6834 179.084 17.7779C179.196 14.9309 179.142 12.0793 179.151 9.22776C179.151 8.78628 179.151 8.34481 179.151 7.79522H179.156Z" fill="black"/>
<path d="M190.739 23.6093C190.96 25.1928 190.897 25.2626 189.484 25.3122C188.251 25.355 186.981 25.4924 186.38 24.0418C186.216 23.6454 186.088 23.1994 186.085 22.7759C186.061 18.9153 186.067 15.0524 186.065 11.1917C186.065 10.7886 186.065 10.3876 186.065 10.1579C185.377 9.39431 183.791 10.6016 183.89 8.88076C183.973 7.42795 185.255 8.53839 185.998 7.86717V3.51099H187.741C187.741 4.52458 187.739 5.52015 187.741 6.51572C187.745 7.91447 187.97 8.13971 189.365 8.14872C189.803 8.15097 190.244 8.14872 190.753 8.14872V9.83804C190.071 9.83804 189.448 9.83804 188.825 9.83804C188.112 9.83804 187.725 10.1016 187.73 10.9057C187.754 14.3924 187.714 17.8792 187.752 21.3659C187.772 23.2535 188.591 23.8436 190.741 23.6116L190.739 23.6093Z" fill="black"/>
<path d="M101.656 25.3166C100.478 25.3121 99.9807 24.7873 99.9155 23.6386C99.8458 22.4245 100.865 21.9042 101.724 21.8749C102.558 21.8456 103.51 22.8074 103.526 23.598C103.546 24.4945 102.646 25.3189 101.656 25.3166Z" fill="black"/>
</g>
<defs>
<clipPath id="clip0_4132_18434">
<rect width="208" height="30" fill="white" transform="translate(0.949219 0.727051)"/>
</clipPath>
</defs>
</svg>
