<svg width="198" height="60" viewBox="0 0 198 60" fill="none" xmlns="http://www.w3.org/2000/svg">
<g clip-path="url(#clip0_4132_18281)">
<path d="M70.1018 0.227051C70.1432 0.552658 70.2195 0.878265 70.2195 1.20387C70.2245 19.2408 70.2195 37.2778 70.2411 55.3148C70.2411 56.1313 70.0636 56.4535 69.1912 56.4068C67.8212 56.3333 66.4462 56.3868 65.0728 56.3868C65.0513 56.2899 65.0297 56.1931 65.0065 56.0962C65.2321 56.0261 65.456 55.8975 65.6832 55.8925C66.7315 55.8708 67.7814 55.8858 68.8313 55.8808C69.1 55.8808 69.367 55.8574 69.6739 55.8424V0.756371H0.525784V55.8842C1.37666 55.8842 2.19768 55.8508 3.01372 55.8942C3.75181 55.9342 4.53634 55.7038 5.23628 56.0478C5.22964 56.1446 5.22467 56.2415 5.21803 56.34H0V0.227051C23.3667 0.227051 46.7334 0.227051 70.1018 0.227051Z" fill="black"/>
<path d="M47.3004 22.4701C48.9292 19.2475 50.4932 16.1684 52.0275 13.0726C52.1353 12.8555 52.0905 12.4815 51.9794 12.2461C51.2579 10.7216 50.4932 9.21708 49.7502 7.70259C49.178 6.53542 49.3886 6.18142 50.6558 6.17641C52.2846 6.16973 53.915 6.16306 55.5438 6.17975C56.6567 6.19144 56.8889 6.58718 56.3913 7.57402C55.62 9.10521 54.8272 10.6264 54.0808 12.1709C53.9548 12.4314 53.8884 12.8405 54.0045 13.0793C55.4957 16.165 57.0249 19.2341 58.6222 22.4668C58.8925 21.687 59.1214 21.0542 59.3337 20.4146C60.795 16.0097 62.2512 11.6032 63.7108 7.19665C63.7456 7.09145 63.7838 6.98793 63.8186 6.88273C63.9779 6.39182 64.225 5.9894 64.8238 6.20981C65.3728 6.41352 65.3213 6.83765 65.1621 7.31186C63.9032 11.0872 62.6559 14.8676 61.407 18.648C60.8165 20.433 60.2493 22.2263 59.6173 23.9946C59.478 24.3837 59.1662 24.8813 58.8278 24.9915C58.1942 25.1952 58.0599 24.5139 57.8492 24.0898C56.3996 21.1694 54.9632 18.2406 53.5202 15.3151C53.3776 15.0262 53.2134 14.7491 52.9862 14.3333C52.2315 15.8277 51.5398 17.197 50.8498 18.5678C49.8928 20.4697 48.9574 22.3833 47.9672 24.2685C47.7996 24.5857 47.4049 24.9781 47.1163 24.9765C46.8609 24.9765 46.4827 24.5173 46.3716 24.1883C44.489 18.6096 42.6397 13.0208 40.7803 7.43543C40.6128 6.93115 40.4669 6.41018 41.1286 6.19812C41.7855 5.98773 41.958 6.49868 42.1238 7.00128C43.7576 11.9338 45.4013 16.863 47.045 21.7939C47.1047 21.9759 47.1793 22.1512 47.3004 22.4718V22.4701ZM53.0226 11.1156C53.6695 9.82989 54.2169 8.74287 54.7858 7.61242H51.2844C51.8633 8.77793 52.3957 9.8516 53.0226 11.1156Z" fill="black"/>
<path d="M17.3376 38.3148C15.6409 41.6844 14.0121 44.9488 12.3435 48.1932C12.166 48.5389 11.7663 48.7693 11.4694 49.0532C11.1891 48.7242 10.7778 48.442 10.6501 48.0613C8.80235 42.5911 6.99445 37.1092 5.17659 31.6307C5.10693 31.422 4.95931 31.1832 5.00907 31.0012C5.08371 30.719 5.24791 30.3266 5.46519 30.2548C5.68081 30.183 6.03576 30.4084 6.2746 30.5821C6.40232 30.6756 6.41724 30.931 6.47861 31.1131C8.07421 35.912 9.66815 40.7126 11.2654 45.5116C11.3583 45.7904 11.4628 46.0643 11.622 46.5034C12.4314 44.9155 13.1612 43.4961 13.8811 42.0718C14.6921 40.4672 15.5131 38.8675 16.2778 37.2411C16.4138 36.9523 16.4154 36.4897 16.2811 36.2009C15.5596 34.6446 14.7618 33.1251 14.0171 31.5789C13.5361 30.5804 13.7849 30.2047 14.8928 30.2014C16.578 30.1963 18.2615 30.1913 19.9466 30.203C20.9385 30.2097 21.1972 30.6205 20.7627 31.5021C19.9931 33.065 19.1853 34.6112 18.439 36.1858C18.3063 36.463 18.2681 36.9055 18.3942 37.1693C19.8654 40.2351 21.3764 43.2807 22.9355 46.45C23.0582 46.1728 23.1544 46.0008 23.2141 45.8155C24.818 40.9898 26.4186 36.1625 28.0208 31.3368C28.0822 31.1531 28.1419 30.9695 28.2 30.7841C28.3476 30.3132 28.6644 30.0711 29.1421 30.2214C29.6446 30.38 29.6795 30.7691 29.5252 31.2299C28.7888 33.4307 28.0689 35.6365 27.3375 37.8373C26.1897 41.297 25.0469 44.7602 23.8693 48.2116C23.7615 48.5289 23.4082 49.0031 23.2025 48.9864C22.8907 48.9613 22.4877 48.6307 22.3317 48.3235C20.6681 45.0457 19.046 41.7479 17.3409 38.3098L17.3376 38.3148ZM15.611 31.6223C16.2181 32.8463 16.7521 33.9266 17.3575 35.1472C17.9679 33.92 18.5202 32.8079 19.1107 31.6223H15.611Z" fill="black"/>
<path d="M11.6017 8.72292C10.6148 11.6851 9.69763 14.4302 8.78704 17.1787C8.00417 19.5381 7.24618 21.9075 6.4235 24.2535C6.31237 24.5691 5.92426 24.9382 5.61243 24.9949C5.08002 25.0918 4.86771 24.5658 5.10821 23.8361C6.57941 19.3761 8.05891 14.9178 9.53508 10.4595C9.89998 9.35744 10.2251 8.24036 10.6464 7.16168C10.7973 6.77262 11.1788 6.4754 11.4541 6.13477C11.7493 6.42364 12.1491 6.65908 12.3232 7.00973C14.7432 11.8554 17.1332 16.7178 19.5316 21.5752C19.6527 21.8223 19.7837 22.0628 19.9861 22.4535C20.424 21.1528 20.8253 19.9789 21.2151 18.8017C22.5006 14.9228 23.7827 11.0406 25.0664 7.16168C25.1013 7.05648 25.1527 6.95797 25.1842 6.8511C25.3268 6.38022 25.5773 6.02289 26.1263 6.19488C26.6737 6.36853 26.6869 6.78765 26.5244 7.27189C25.9074 9.10363 25.3053 10.9404 24.6966 12.7755C23.4344 16.5759 22.1821 20.378 20.89 24.1684C20.7772 24.5007 20.4206 24.9599 20.1586 24.9732C19.8799 24.9866 19.462 24.5975 19.306 24.2836C16.8894 19.4346 14.506 14.5688 12.1142 9.70809C11.9816 9.43759 11.8373 9.1721 11.6034 8.72292H11.6017Z" fill="black"/>
<path d="M35.0985 40.6826C33.818 43.219 32.5873 45.6585 31.355 48.0981C31.2555 48.2951 31.2007 48.5807 31.0415 48.6658C30.7429 48.8261 30.3814 48.8679 30.0463 48.9597C29.9733 48.6408 29.7511 48.255 29.8556 48.0146C30.3283 46.9276 30.8939 45.8806 31.428 44.8203C33.7036 40.3052 35.9792 35.7901 38.2565 31.2751C38.3428 31.1031 38.4207 30.9244 38.5186 30.7574C38.9664 30.0027 39.5171 29.9943 39.9384 30.7574C40.3398 31.4821 40.7013 32.2285 41.0745 32.9699C43.5326 37.8573 45.9874 42.7464 48.4454 47.6322C48.6594 48.058 48.9779 48.569 48.4537 48.8712C48.1801 49.0282 47.5979 48.8979 47.2844 48.6942C43.4911 46.2263 39.7227 43.7199 35.9477 41.2236C35.6973 41.0583 35.4418 40.9013 35.0985 40.6826ZM35.742 39.3985C39.1754 41.6694 42.5606 43.9086 45.9476 46.1495C45.9857 46.111 46.0255 46.0726 46.0637 46.0342C43.8013 41.5475 41.5389 37.0625 39.2252 32.4723C38.0293 34.8501 36.913 37.0709 35.742 39.3985Z" fill="black"/>
<path d="M29.8852 14.8926C32.7895 14.8926 35.5478 14.8843 38.3044 14.8993C38.8683 14.9027 39.7026 14.6639 39.6894 15.599C39.6761 16.4739 38.8766 16.3287 38.2878 16.3303C35.5544 16.337 32.8226 16.322 30.0892 16.352C29.8106 16.3554 29.3628 16.5591 29.2865 16.7745C28.4953 19.0086 27.7655 21.2645 26.9859 23.6106C27.3558 23.6289 27.6444 23.654 27.933 23.654C32.4047 23.6573 36.8763 23.654 41.348 23.6573C41.6233 23.6573 41.9418 23.6039 42.1607 23.7224C42.383 23.8443 42.6417 24.1532 42.6351 24.3736C42.6284 24.5941 42.3448 24.8479 42.1242 25.0048C41.9932 25.0983 41.7494 25.0332 41.557 25.0332C36.533 25.0332 31.509 25.0332 26.485 25.0332C25.3124 25.0332 25.1266 24.7711 25.5048 23.6256C27.3343 18.0919 29.1737 12.5633 30.9882 7.02464C31.2005 6.37676 31.5273 6.06451 32.2289 6.08789C33.4148 6.12463 34.6024 6.09123 35.7899 6.10125C36.2776 6.10626 36.7735 6.1647 36.7801 6.82426C36.7868 7.48717 36.3207 7.54561 35.8098 7.5406C34.8163 7.53225 33.8211 7.51722 32.8293 7.55563C32.612 7.56398 32.2703 7.73596 32.2106 7.91129C31.4294 10.1789 30.688 12.4598 29.8852 14.8926Z" fill="black"/>
<path d="M57.037 42.6245C54.2323 39.0261 51.4392 35.4511 48.6593 31.8661C48.3276 31.4386 47.6724 30.9544 48.3624 30.3983C49.0872 29.8156 49.4223 30.572 49.7789 31.0262C52.4211 34.4025 55.0566 37.7854 57.7685 41.2636C57.9543 40.9597 58.1102 40.7209 58.2495 40.4755C60.0176 37.3463 61.7824 34.2138 63.5488 31.0846C63.6715 30.8676 63.7644 30.587 63.9518 30.4701C64.1774 30.3316 64.5556 30.213 64.7513 30.3149C64.947 30.415 65.0781 30.7924 65.093 31.0562C65.1063 31.2733 64.9221 31.5121 64.8027 31.7258C61.7094 37.2194 58.6127 42.7096 55.5161 48.2015C55.4215 48.3702 55.3585 48.6206 55.2142 48.6858C54.9024 48.826 54.5474 48.8728 54.2107 48.9563C54.1477 48.6357 53.9387 48.25 54.0482 48.0062C54.3948 47.2264 54.8593 46.4984 55.2789 45.7503C55.8594 44.715 56.4416 43.6814 57.0354 42.6261L57.037 42.6245Z" fill="black"/>
<path d="M151.605 14.1178C148.983 16.1266 146.938 16.1566 145.289 14.2815C143.873 12.6701 143.961 9.99348 145.48 8.45896C147.152 6.77081 149.298 6.87934 151.597 8.86304C151.622 8.35543 151.642 7.93464 151.665 7.45208H152.547V15.4871C152.275 15.5104 152.015 15.5321 151.678 15.5589C151.653 15.0846 151.632 14.6538 151.604 14.1178H151.605ZM151.345 11.5013C151.35 9.81482 150.098 8.51907 148.457 8.51072C146.814 8.50237 145.523 9.7881 145.503 11.4512C145.483 13.116 146.757 14.4184 148.407 14.4234C150.094 14.4284 151.34 13.1894 151.345 11.5013Z" fill="black"/>
<path d="M115.845 42.9416V45.7802H114.722V44.0821H107.772V45.7836H106.611V42.8381C107.535 43.0919 107.804 42.5024 108.097 41.8279C108.89 40.0045 109.73 38.2011 110.58 36.4044C110.688 36.1773 110.993 35.8851 111.186 35.9018C111.428 35.9202 111.746 36.1773 111.859 36.4144C112.705 38.1827 113.51 39.9727 114.326 41.7544C114.641 42.4434 115.147 42.8392 115.843 42.9416H115.845ZM108.962 42.8013H113.508C112.75 41.1432 112.027 39.562 111.222 37.8037C110.425 39.5686 109.715 41.1366 108.962 42.8013Z" fill="black"/>
<path d="M128.291 35.8901H129.427V42.8147H134.26V35.9252H135.534V42.8164C136.052 42.8448 136.481 42.8681 136.959 42.8932V45.7769H135.763V44.0487H128.291V35.8918V35.8901Z" fill="black"/>
<path d="M119.552 27.882C119.765 28.1358 119.957 28.3663 120.148 28.595C117.625 30.8793 113.583 30.0728 112.676 27.1006C112.186 25.4993 112.4 23.9581 113.616 22.7041C114.815 21.4684 116.303 21.2497 117.89 21.7005C119.541 22.1681 120.506 23.5991 120.489 25.3206C120.484 25.8583 120.324 26.0436 119.778 26.0353C118.068 26.0052 116.358 26.0252 114.646 26.0252C114.348 26.0252 114.049 26.0252 113.744 26.0252C113.971 28.6986 116.512 29.5151 119.551 27.8854L119.552 27.882ZM119.227 25.1119C119.005 23.3937 117.801 22.497 116.121 22.6974C114.822 22.851 113.815 23.9464 113.923 25.1119H119.229H119.227Z" fill="black"/>
<path d="M159.349 26.0317H152.666C152.555 26.9668 152.933 27.6614 153.616 28.1223C155.222 29.201 156.813 28.7652 158.4 27.8952C158.604 28.1206 158.803 28.3394 159.048 28.6116C157.499 29.8839 155.796 30.2079 153.988 29.6268C152.362 29.1041 151.472 27.8485 151.334 26.1503C151.188 24.3519 151.807 22.8625 153.454 21.9725C155.988 20.6033 158.942 22.036 159.34 24.8095C159.393 25.1802 159.347 25.5642 159.347 26.0334L159.349 26.0317ZM158.063 25.1067C157.995 23.7041 157.037 22.759 155.686 22.6855C154.044 22.5953 152.923 23.487 152.696 25.1067H158.063Z" fill="black"/>
<path d="M104.828 40.2417H98.2648C98.1869 41.2553 98.5899 41.9649 99.328 42.4208C100.902 43.3909 102.44 42.9735 104.009 42.1102C104.206 42.334 104.413 42.5677 104.617 42.7998C102.431 44.8219 98.8785 44.4729 97.4952 42.157C96.3242 40.195 96.9611 37.4532 98.8586 36.301C100.789 35.1289 103.342 35.6932 104.456 37.5417C104.949 38.3599 105.067 39.2315 104.83 40.2417H104.828ZM103.702 39.3267C103.546 37.7838 102.368 36.7619 100.907 36.8604C99.4325 36.9589 98.3229 38.0326 98.361 39.3267H103.703H103.702Z" fill="black"/>
<path d="M86.1853 35.6731C86.6563 35.9386 87.0676 36.0622 87.3198 36.3327C88.3149 37.408 89.2603 38.5301 90.2953 39.7157C91.3005 38.5735 92.2625 37.4414 93.2726 36.3544C93.533 36.0755 93.9426 35.9353 94.4153 35.6531V43.9803H93.2991V38.2312C93.2328 38.2012 93.1664 38.1711 93.1017 38.141C92.1828 39.1713 91.2656 40.2016 90.2986 41.2852C89.325 40.1849 88.4045 39.1429 87.348 37.9507V43.9669H86.1836V35.6714L86.1853 35.6731Z" fill="black"/>
<path d="M137.097 23.7877C135.346 25.7798 133.787 27.5714 132.198 29.3364C131.959 29.6019 131.581 29.7438 131.1 30.0494V21.632H132.262V27.3577C132.349 27.4195 132.433 27.4813 132.519 27.5414C132.684 27.311 132.83 27.0655 133.015 26.8534C134.415 25.2504 135.812 23.6441 137.238 22.0628C137.474 21.8023 137.845 21.6671 138.318 21.3699V29.6837C137.2 29.9893 137.101 29.9208 137.101 28.8371C137.101 27.2375 137.101 25.6395 137.101 23.7844L137.097 23.7877Z" fill="black"/>
<path d="M184.066 29.8639C181.732 29.8605 179.928 28.0421 179.933 25.6978C179.938 23.3334 181.804 21.4749 184.149 21.4983C186.499 21.5216 188.271 23.3667 188.261 25.7829C188.251 28.1189 186.453 29.8672 184.066 29.8639ZM186.98 25.7345C186.99 24.0213 185.711 22.6955 184.061 22.7038C182.484 22.7122 181.138 24.0931 181.14 25.7044C181.14 27.3008 182.492 28.6817 184.074 28.7017C185.671 28.7217 186.972 27.3943 186.982 25.7345H186.98Z" fill="black"/>
<path d="M118.001 35.8836H119.174V41.7796C119.479 41.4974 119.636 41.3739 119.767 41.2253C121.212 39.5872 122.64 37.9358 124.105 36.3161C124.345 36.0506 124.737 35.9237 125.216 35.6382V43.962H124.012V38.2681C123.954 38.243 123.896 38.2197 123.836 38.1946C122.715 39.4653 121.592 40.7344 120.472 42.0067C120.016 42.526 119.59 43.0754 119.099 43.5579C118.842 43.8118 118.475 43.952 118.001 44.2375V35.882V35.8836Z" fill="black"/>
<path d="M104.733 15.7443V7.43379H105.876V13.4834C106.216 13.1094 106.409 12.904 106.594 12.6919C108.016 11.0722 109.426 9.44253 110.869 7.84288C111.107 7.57906 111.496 7.45215 111.967 7.17163V15.4955H110.743V9.55441C109.935 10.4761 109.288 11.2125 108.643 11.9505C107.716 13.0109 106.807 14.0895 105.85 15.1215C105.611 15.3786 105.211 15.4855 104.735 15.7443H104.733Z" fill="black"/>
<path d="M190.823 21.607H191.915V27.3778C191.984 27.4062 192.056 27.4362 192.125 27.4646C192.936 26.5529 193.751 25.6429 194.56 24.7278C195.366 23.8161 196.147 22.8794 196.98 21.9927C197.204 21.7539 197.577 21.6588 198 21.4333V29.7605H196.842V24.0031C196.778 23.9814 196.713 23.9597 196.648 23.938C195.834 24.8614 195.02 25.7865 194.204 26.7099C193.417 27.6015 192.646 28.5099 191.832 29.3765C191.601 29.622 191.241 29.7455 190.823 29.996V21.607Z" fill="black"/>
<path d="M131.181 9.71485C129.617 11.4982 128.063 13.2915 126.476 15.0531C126.222 15.3337 125.807 15.4689 125.331 15.7544V7.42893H126.467V13.4351C126.799 13.0911 126.98 12.9192 127.144 12.7338C128.565 11.1125 129.972 9.47775 131.418 7.87643C131.667 7.60091 132.075 7.469 132.548 7.18848V15.4806H131.403V9.75994C131.33 9.74491 131.256 9.72821 131.183 9.71318L131.181 9.71485Z" fill="black"/>
<path d="M139.092 35.8901H140.21V41.888C140.553 41.5256 140.731 41.3503 140.895 41.1633C142.316 39.5436 143.724 37.9105 145.169 36.3092C145.41 36.0437 145.804 35.9185 146.279 35.6396V43.9602H145.157V38.2144C145.096 38.1844 145.033 38.156 144.972 38.126C144.781 38.3347 144.587 38.5417 144.399 38.7538C142.998 40.3551 141.608 41.9664 140.185 43.5477C139.946 43.8132 139.565 43.9501 139.093 44.2424V35.8901H139.092Z" fill="black"/>
<path d="M159.626 44.0002V35.9102H160.868V38.5017C162.032 38.5017 163.105 38.4466 164.169 38.5133C166.172 38.6402 167.217 40.1514 166.706 42.0967C166.419 43.1871 165.491 43.9368 164.172 43.9869C162.686 44.0437 161.198 44.0002 159.624 44.0002H159.626ZM160.838 42.9199C162.112 42.8498 163.295 42.8364 164.462 42.7028C165.233 42.6143 165.54 42.0049 165.562 41.2668C165.585 40.5137 165.247 39.8575 164.519 39.784C163.311 39.6622 162.082 39.7506 160.838 39.7506V42.9199Z" fill="black"/>
<path d="M85.5918 28.3343C85.7975 28.0956 86.0081 27.8484 86.2154 27.6047C88.8775 29.3312 91.2494 28.7134 91.5264 26.162H88.2075V25.2603H91.5827C91.4401 24.1382 90.8928 23.4335 89.9971 23.0044C88.574 22.3231 87.3798 22.8391 86.2702 23.8393C86.0347 23.5805 85.8157 23.34 85.6017 23.1046C86.4609 21.7838 88.2191 21.1827 89.8462 21.6319C91.6574 22.1311 92.9063 23.7191 92.9578 25.5842C93.0075 27.3726 91.8879 29.034 90.221 29.6501C88.5458 30.2696 86.6682 29.747 85.5918 28.3327V28.3343Z" fill="black"/>
<path d="M175.616 25.4658C176.572 26.8517 177.535 28.2477 178.542 29.7087C177.597 29.9826 176.996 29.8122 176.603 28.9941C176.378 28.5232 176.001 28.1258 175.767 27.6582C175.086 26.3007 173.988 25.9534 172.473 26.2823C172.473 27.0938 172.473 27.9421 172.473 28.7903C172.473 29.9275 172.452 29.9442 171.251 29.7104V21.7005C172.439 21.45 172.472 21.475 172.473 22.6005C172.473 23.3686 172.473 24.135 172.473 24.9265C173.789 25.1035 174.815 24.8947 175.449 23.6975C175.681 23.2584 176.033 22.881 176.243 22.4335C176.632 21.6153 177.237 21.4099 178.196 21.6838C177.308 22.9828 176.446 24.2452 175.615 25.4641L175.616 25.4658Z" fill="black"/>
<path d="M135.617 15.4989V7.42882H136.869V10.6415C138.22 10.937 139.236 10.6582 139.875 9.42587C140.077 9.03515 140.387 8.69785 140.581 8.30378C140.98 7.49561 141.567 7.16666 142.582 7.50062C141.688 8.79637 140.805 10.0771 140.006 11.2376C140.935 12.5818 141.9 13.976 142.889 15.407C141.608 15.6842 141.587 15.6759 140.953 14.6874C140.669 14.2449 140.343 13.8257 140.107 13.3582C139.432 12.0174 138.306 11.7936 136.888 11.994V15.4989H135.617Z" fill="black"/>
<path d="M93.228 7.44875C92.2693 8.82632 91.3919 10.0887 90.5875 11.2425C91.5213 12.5783 92.4932 13.9659 93.4834 15.3835C92.3141 15.7091 92.2013 15.6691 91.6175 14.7774C91.3289 14.3383 90.9988 13.9208 90.765 13.4533C90.0916 12.1024 88.9853 11.7551 87.4975 12.0039V15.4837H86.2402V7.42871H87.4179V10.5896C88.9836 10.9586 89.5873 10.7365 90.3868 9.54265C90.6638 9.13022 90.9275 8.70776 91.2012 8.29199C91.6236 7.64968 92.2992 7.3686 93.228 7.44875Z" fill="black"/>
<path d="M156.59 43.992H155.441V40.5723H150.568V43.9586H149.317V35.927H150.523C150.523 36.827 150.543 37.7303 150.515 38.6337C150.5 39.1213 150.641 39.3333 151.165 39.3183C152.349 39.2882 153.537 39.2832 154.721 39.3183C155.29 39.3367 155.428 39.1046 155.408 38.5853C155.376 37.707 155.4 36.827 155.4 35.9053H156.589V43.992H156.59Z" fill="black"/>
<path d="M122.244 15.5138H121.107V12.0891H116.215V15.4837H115.03V7.43872H116.156V10.8417H121.076V7.44707H122.242V15.5138H122.244Z" fill="black"/>
<path d="M147.657 29.7722V26.7934C146.65 27.8336 145.547 28.1342 144.315 27.9839C142.572 27.7718 141.661 26.9052 141.333 25.1636C141.271 24.838 141.222 24.5058 141.215 24.1768C141.198 23.3519 141.21 22.5254 141.21 21.7189C142.422 21.44 142.454 21.4801 142.485 22.5888C142.51 23.4705 142.497 24.3705 142.68 25.2238C142.918 26.3358 143.773 26.8318 145.068 26.8184C146.35 26.805 147.297 26.2123 147.48 25.1035C147.664 23.9915 147.659 22.8493 147.742 21.6521H148.795V29.7739H147.657V29.7722Z" fill="black"/>
<path d="M102.294 23.0412C102.043 23.3167 101.826 23.5572 101.559 23.8511C100.743 23.0446 99.7876 22.4952 98.6763 22.7557C98.0211 22.9093 97.3228 23.3 96.8651 23.7926C95.8069 24.9297 95.9528 26.7915 97.0442 27.8552C98.2815 29.0608 99.9186 28.9739 101.586 27.5396C101.811 27.7884 102.043 28.0439 102.267 28.291C100.98 30.1094 98.25 30.4317 96.5085 29.019C94.5646 27.4411 94.3605 24.5674 96.0673 22.7607C97.7292 21.0007 100.517 21.0943 102.294 23.0412Z" fill="black"/>
<path d="M168.77 23.1481C168.509 23.3535 168.232 23.5689 167.955 23.786C166.343 22.3984 164.617 22.3366 163.416 23.6357C162.353 24.7862 162.367 26.668 163.447 27.7884C164.675 29.0608 166.38 28.999 168.05 27.5279C168.266 27.7834 168.486 28.0472 168.705 28.3061C167.791 29.6419 166.01 30.2163 164.368 29.7254C162.578 29.191 161.422 27.6715 161.371 25.793C161.323 23.998 162.44 22.3416 164.104 21.7372C165.796 21.1227 167.622 21.642 168.768 23.1481H168.77Z" fill="black"/>
<path d="M102.718 15.4672C101.836 15.7343 101.345 15.4772 100.997 14.6056C100.305 12.8757 99.4856 11.1976 98.6579 9.36247C97.8386 11.1792 97.0275 12.8406 96.3425 14.5521C96.0058 15.392 95.5696 15.7527 94.6523 15.4655C94.6756 15.362 94.6839 15.2301 94.7353 15.1182C95.8233 12.7304 96.9064 10.3376 98.0227 7.96319C98.1371 7.7194 98.4456 7.46226 98.6944 7.42719C98.8636 7.40214 99.1655 7.71606 99.2733 7.94315C100.381 10.2909 101.463 12.6536 102.551 15.0113C102.617 15.1566 102.664 15.3119 102.718 15.4638V15.4672Z" fill="black"/>
<path d="M126.072 22.8275C126.072 24.9147 126.072 26.8533 126.072 28.7936C126.072 29.929 126.05 29.9441 124.816 29.7053V22.8341H121.862V21.5835C123.413 21.5835 124.924 21.5835 126.433 21.5835C127.069 21.5835 127.702 21.5968 128.338 21.5785C128.774 21.5668 129.062 21.6069 129.072 22.1829C129.082 22.8007 128.775 22.8492 128.301 22.8341C127.591 22.8108 126.881 22.8275 126.074 22.8275H126.072Z" fill="black"/>
<path d="M107.947 22.8276V29.7605H106.759V22.8626H103.799V21.6504H110.843V22.8276H107.947Z" fill="black"/>
<path d="M168.977 43.9785H167.771V35.9001H168.977V43.9785Z" fill="black"/>
<path d="M37.6886 54.9907C37.7516 55.2779 37.7947 55.4766 37.8013 55.505C38.4018 55.3414 38.9856 55.0709 39.5761 55.0508C40.417 55.0224 41.0406 55.6753 41.0821 56.5119C41.1252 57.3651 41.092 58.2234 41.092 59.0783C41.0158 59.1234 40.9378 59.1668 40.8615 59.2119C40.7354 59.0366 40.5148 58.8696 40.4999 58.6859C40.4468 58.0798 40.4767 57.467 40.4585 56.8592C40.4402 56.1913 40.1334 55.7405 39.4384 55.6753C38.7501 55.6119 38.1961 55.8941 38.0767 56.5987C37.9407 57.4069 37.9456 58.2401 37.8793 59.2069C37.662 59.09 37.3419 58.9999 37.3402 58.9064C37.3203 57.664 37.3452 56.4201 37.3701 55.1761C37.3701 55.1377 37.4978 55.1009 37.6902 54.9941L37.6886 54.9907Z" fill="black"/>
<path d="M14.9181 56.0328C14.6859 55.9827 14.4288 55.9793 14.2248 55.8758C13.1119 55.3081 12.0122 55.9559 12.052 57.1749C12.0885 58.2853 13.1633 58.8614 14.2049 58.3487C14.4039 58.2502 14.6594 58.2686 14.8899 58.2335C14.7556 58.4556 14.6743 58.7578 14.4786 58.8831C13.5796 59.4591 12.3887 59.2037 11.7601 58.3487C11.1198 57.4771 11.2658 56.2081 12.0885 55.5101C12.951 54.7788 14.0523 54.8622 14.9612 55.7289L14.9181 56.0328Z" fill="black"/>
<path d="M59.288 58.504C58.3027 59.4174 57.0538 59.4157 56.2344 58.5007C55.4549 57.6307 55.5345 56.3032 56.4136 55.5301C57.2993 54.752 58.5117 54.8605 59.2896 56.016C59.079 55.991 58.8385 56.0227 58.6627 55.9309C57.8715 55.5218 57.2097 55.5835 56.7204 56.1529C56.2494 56.7023 56.2411 57.5055 56.7038 58.0548C57.1666 58.6042 57.903 58.676 58.6577 58.2869C58.8368 58.1951 59.0773 58.2268 59.2896 58.2001C59.2896 58.3003 59.2896 58.4021 59.2896 58.5023L59.288 58.504Z" fill="black"/>
<path d="M192.124 18.3392C192.527 18.633 192.786 18.8451 193.068 19.0221C193.511 19.2993 193.963 19.7468 194.419 19.7585C194.841 19.7685 195.279 19.3076 195.697 19.0338C195.975 18.8518 196.229 18.633 196.625 18.3308C196.685 19.867 195.801 20.6986 194.429 20.7086C192.98 20.7169 192.091 19.9238 192.124 18.3408V18.3392Z" fill="black"/>
<path d="M21.8672 59.0451V53.6C21.9319 53.5499 21.9966 53.4998 22.0612 53.4497C22.2055 53.6117 22.4693 53.7703 22.4726 53.9356C22.5041 55.5386 22.5024 57.1433 22.4726 58.7479C22.4693 58.9116 22.2138 59.0685 22.0745 59.2288C22.0065 59.1687 21.9369 59.1069 21.8688 59.0468L21.8672 59.0451Z" fill="black"/>
<path d="M48.2663 55.0744C48.9231 55.2063 49.0608 56.0897 48.8601 58.6344C48.8435 58.8364 48.6146 59.0218 48.4836 59.2138L48.2646 59.0836V55.0728L48.2663 55.0744Z" fill="black"/>
<path d="M30.1473 59.1887C29.517 58.9549 29.3429 57.6775 29.5568 55.5736C29.5784 55.3682 29.784 55.1812 29.9035 54.9858C29.9847 55.0242 30.066 55.0627 30.1473 55.1011V59.1887Z" fill="black"/>
</g>
<defs>
<clipPath id="clip0_4132_18281">
<rect width="198" height="59" fill="white" transform="translate(0 0.227051)"/>
</clipPath>
</defs>
</svg>
