<svg width="214" height="58" viewBox="0 0 214 58" fill="none" xmlns="http://www.w3.org/2000/svg">
<path d="M100.046 41.7911H99.765C99.6907 41.7911 99.6344 41.83 99.5984 41.901L98.6077 43.7689L97.6237 41.901C97.5877 41.8277 97.5291 41.7888 97.4571 41.7888H97.1756C97.1374 41.7888 97.1013 41.8026 97.0721 41.8346C97.0428 41.8644 97.0293 41.8964 97.0293 41.933V44.7922C97.0293 44.8403 97.0428 44.8792 97.0721 44.9089C97.1013 44.9387 97.1396 44.9524 97.1869 44.9524H97.4503C97.4976 44.9524 97.5359 44.9387 97.5652 44.9089C97.5944 44.8792 97.608 44.8403 97.608 44.7922V42.9471L98.3172 44.2817C98.3465 44.3412 98.3735 44.3824 98.4028 44.4122C98.432 44.4442 98.4793 44.4603 98.5379 44.4603H98.6842C98.7428 44.4603 98.7878 44.4442 98.8193 44.4122C98.8486 44.3824 98.8756 44.3389 98.9026 44.284L99.6119 42.9151V44.7945C99.6119 44.8426 99.6276 44.8815 99.6546 44.9112C99.6839 44.941 99.7222 44.9547 99.7695 44.9547H100.033C100.08 44.9547 100.118 44.941 100.148 44.9112C100.177 44.8815 100.191 44.8426 100.191 44.7945V41.9353C100.191 41.8987 100.175 41.8667 100.148 41.8369C100.121 41.8048 100.087 41.7911 100.046 41.7911Z" fill="black"/>
<path d="M104.845 41.7317C104.588 41.7317 104.367 41.7775 104.187 41.869C104.007 41.9606 103.872 42.0705 103.786 42.1941C103.699 42.32 103.656 42.4322 103.656 42.5306C103.656 42.5741 103.672 42.613 103.701 42.6428C103.732 42.6748 103.771 42.6908 103.813 42.6908H104.043C104.081 42.6908 104.111 42.6817 104.135 42.6634C104.158 42.6451 104.178 42.6153 104.194 42.5741C104.243 42.4802 104.32 42.3955 104.426 42.3246C104.529 42.2536 104.671 42.2193 104.845 42.2193C105.295 42.2193 105.513 42.4116 105.513 42.8053V42.9518L104.658 43.0731C104.291 43.1304 103.996 43.2425 103.78 43.4142C103.563 43.5859 103.453 43.8125 103.453 44.0827C103.453 44.2543 103.503 44.4146 103.602 44.5565C103.701 44.6961 103.834 44.8106 104 44.8907C104.165 44.9708 104.349 45.0121 104.543 45.0121C104.804 45.0121 105.022 44.9663 105.191 44.877C105.329 44.8037 105.439 44.7145 105.525 44.6114V44.7831C105.525 44.8312 105.54 44.8701 105.567 44.9022C105.597 44.9342 105.635 44.9502 105.682 44.9502H105.941C105.988 44.9502 106.029 44.9342 106.058 44.9022C106.09 44.8701 106.103 44.8312 106.103 44.7831V42.8419C106.103 42.526 106.006 42.2582 105.813 42.0453C105.612 41.8393 105.288 41.7317 104.845 41.7317ZM105.507 43.547C105.507 43.8629 105.426 44.1078 105.268 44.2727C105.11 44.4375 104.903 44.5199 104.653 44.5199C104.48 44.5199 104.329 44.4787 104.203 44.394C104.079 44.3116 104.018 44.1971 104.018 44.0437C104.018 43.911 104.086 43.8011 104.223 43.7095C104.365 43.618 104.577 43.5493 104.851 43.5104L105.504 43.4142V43.547H105.507Z" fill="black"/>
<path d="M112.105 41.7913H111.846C111.799 41.7913 111.761 41.8073 111.729 41.8393C111.698 41.8714 111.682 41.9103 111.682 41.9584V43.0801H110.119V41.9584C110.119 41.9103 110.104 41.8714 110.072 41.8393C110.04 41.8073 110.002 41.7913 109.953 41.7913H109.701C109.653 41.7913 109.613 41.8073 109.583 41.8393C109.552 41.8714 109.536 41.9103 109.536 41.9584V44.7878C109.536 44.8358 109.552 44.8748 109.583 44.9068C109.615 44.9388 109.653 44.9549 109.703 44.9549H109.959C110.007 44.9549 110.047 44.9388 110.077 44.9068C110.108 44.8748 110.124 44.8358 110.124 44.7878V43.5997H111.686V44.7878C111.686 44.8358 111.702 44.8748 111.734 44.9068C111.765 44.9388 111.803 44.9549 111.851 44.9549H112.11C112.157 44.9549 112.195 44.9388 112.227 44.9068C112.256 44.8748 112.274 44.8358 112.274 44.7878V41.9584C112.274 41.908 112.258 41.8645 112.229 41.837C112.198 41.805 112.157 41.7913 112.105 41.7913Z" fill="black"/>
<path d="M118.34 41.7913H118.095C118.027 41.7913 117.966 41.8256 117.919 41.892L116.327 44.0529V41.9584C116.327 41.9103 116.311 41.8714 116.28 41.8393C116.248 41.8096 116.21 41.7913 116.161 41.7913H115.902C115.854 41.7913 115.814 41.8073 115.785 41.8393C115.753 41.8714 115.737 41.9103 115.737 41.9584V44.7992C115.737 44.8381 115.753 44.8748 115.785 44.9068C115.816 44.9388 115.852 44.9549 115.89 44.9549H116.143C116.21 44.9549 116.271 44.9205 116.32 44.8541L117.912 42.6932V44.7878C117.912 44.8358 117.928 44.8748 117.96 44.9068C117.991 44.9388 118.029 44.9549 118.077 44.9549H118.336C118.383 44.9549 118.421 44.9388 118.453 44.9068C118.484 44.8748 118.5 44.8358 118.5 44.7878V41.9401C118.5 41.8988 118.482 41.8645 118.448 41.8348C118.414 41.805 118.378 41.7913 118.34 41.7913Z" fill="black"/>
<path d="M123.537 43.3067L124.406 42.0041L124.408 41.995C124.413 41.9858 124.417 41.9744 124.424 41.9629C124.435 41.9446 124.44 41.9286 124.44 41.9149C124.44 41.8782 124.424 41.8462 124.392 41.8233C124.363 41.8027 124.329 41.7913 124.289 41.7913H124.001C123.929 41.7913 123.868 41.8256 123.825 41.8943L123.03 43.0823H122.528V41.9607C122.528 41.9103 122.515 41.8668 122.483 41.8393C122.454 41.8096 122.413 41.7935 122.364 41.7935H122.112C122.064 41.7935 122.024 41.8096 121.995 41.8416C121.963 41.8737 121.947 41.9126 121.947 41.9607V44.7901C121.947 44.8381 121.963 44.8793 121.995 44.9091C122.026 44.9411 122.064 44.9572 122.114 44.9572H122.366C122.413 44.9572 122.452 44.9411 122.483 44.9091C122.515 44.8793 122.53 44.8381 122.53 44.7901V43.6134H123.044L123.899 44.8564C123.951 44.9228 124.014 44.9572 124.082 44.9572H124.417C124.539 44.9572 124.557 44.8793 124.557 44.8313C124.557 44.8038 124.548 44.7717 124.528 44.7374L123.537 43.3067Z" fill="black"/>
<path d="M131.287 42.1094C131.046 41.8576 130.706 41.7317 130.276 41.7317C129.846 41.7317 129.506 41.8599 129.265 42.1094C129.028 42.3543 128.9 42.6794 128.88 43.08H128.303V41.9583C128.303 41.9102 128.288 41.869 128.256 41.8393C128.227 41.8072 128.186 41.7912 128.139 41.7912H127.88C127.833 41.7912 127.795 41.8072 127.763 41.8393C127.732 41.8713 127.716 41.9102 127.716 41.9606V44.79C127.716 44.8381 127.732 44.8793 127.763 44.909C127.795 44.9411 127.833 44.9571 127.88 44.9571H128.139C128.186 44.9571 128.227 44.9411 128.256 44.909C128.288 44.877 128.303 44.8381 128.303 44.79V43.6019H128.88V43.6317C128.896 44.0483 129.024 44.3848 129.26 44.6366C129.497 44.8884 129.839 45.0143 130.276 45.0143C130.713 45.0143 131.055 44.8861 131.291 44.6366C131.528 44.3848 131.656 44.046 131.672 43.634C131.681 43.547 131.683 43.4577 131.683 43.3753C131.683 43.2906 131.679 43.2059 131.672 43.1166C131.658 42.7 131.528 42.3612 131.287 42.1094ZM131.082 43.5974C131.071 43.8927 130.992 44.1193 130.852 44.2749C130.713 44.4283 130.519 44.5061 130.278 44.5061C130.037 44.5061 129.844 44.4283 129.704 44.2749C129.562 44.1193 129.486 43.8927 129.474 43.5996L129.468 43.373L129.474 43.1464C129.486 42.8534 129.564 42.6245 129.704 42.4711C129.844 42.3154 130.037 42.2376 130.278 42.2376C130.519 42.2376 130.713 42.3154 130.852 42.4711C130.994 42.6245 131.071 42.8534 131.082 43.1487C131.086 43.1899 131.086 43.27 131.086 43.373C131.086 43.476 131.086 43.5561 131.082 43.5974Z" fill="black"/>
<path d="M137.477 42.1392C137.265 41.869 136.947 41.7317 136.529 41.7317C136.135 41.7317 135.817 41.869 135.59 42.1369V41.9583C135.59 41.908 135.576 41.8645 135.545 41.837C135.515 41.8072 135.475 41.7912 135.425 41.7912H135.18C135.133 41.7912 135.094 41.8049 135.063 41.8347C135.031 41.8645 135.016 41.9057 135.016 41.9583V45.9208C135.016 45.9735 135.031 46.0147 135.063 46.0445C135.094 46.0742 135.133 46.0902 135.18 46.0902H135.443C135.488 46.0902 135.529 46.0742 135.561 46.0422C135.592 46.0101 135.608 45.9712 135.608 45.9231V44.6183C135.826 44.8816 136.135 45.0143 136.529 45.0143C136.947 45.0143 137.267 44.877 137.477 44.6046C137.684 44.3345 137.796 43.9888 137.808 43.579C137.812 43.5355 137.814 43.4692 137.814 43.373C137.814 43.2769 137.812 43.2105 137.808 43.1693C137.799 42.7549 137.686 42.4093 137.477 42.1392ZM137.215 43.5424C137.204 43.8263 137.134 44.0575 137.011 44.2314C136.887 44.4008 136.686 44.4878 136.416 44.4878C136.159 44.4878 135.961 44.4008 135.824 44.2337C135.687 44.0621 135.612 43.856 135.606 43.6202C135.601 43.579 135.599 43.5035 135.599 43.3913C135.599 43.2769 135.601 43.2036 135.606 43.1601C135.612 42.9175 135.684 42.7023 135.819 42.5237C135.952 42.3452 136.148 42.2582 136.416 42.2582C136.956 42.2582 137.22 42.6245 137.22 43.373C137.222 43.4508 137.22 43.5058 137.215 43.5424Z" fill="black"/>
<path d="M144.789 42.8601H142.499C142.452 42.8601 142.412 42.8761 142.382 42.9082C142.351 42.9402 142.335 42.9791 142.335 43.0272V43.2424C142.335 43.2905 142.351 43.3294 142.382 43.3591C142.414 43.3889 142.452 43.4026 142.499 43.4026H144.789C144.834 43.4026 144.875 43.3889 144.906 43.3591C144.938 43.3294 144.954 43.2905 144.954 43.2424V43.0272C144.954 42.9791 144.938 42.9402 144.906 42.9082C144.877 42.8761 144.836 42.8601 144.789 42.8601Z" fill="black"/>
<path d="M152.094 41.7913H149.782C149.734 41.7913 149.694 41.8073 149.664 41.8393C149.633 41.8714 149.617 41.9103 149.617 41.9607V44.7901C149.617 44.8381 149.633 44.8793 149.664 44.9091C149.696 44.9411 149.734 44.9572 149.784 44.9572H150.043C150.09 44.9572 150.131 44.9411 150.16 44.9091C150.191 44.877 150.207 44.8381 150.207 44.7901V42.3132H151.675V44.7901C151.675 44.8381 151.691 44.8793 151.722 44.9091C151.754 44.9411 151.792 44.9572 151.842 44.9572H152.101C152.148 44.9572 152.186 44.9411 152.216 44.9091C152.245 44.877 152.258 44.8381 152.258 44.7901V41.9584C152.258 41.9103 152.245 41.8714 152.216 41.8393C152.179 41.8073 152.141 41.7913 152.094 41.7913Z" fill="black"/>
<path d="M156.849 41.7317C156.444 41.7317 156.115 41.8622 155.869 42.1231C155.626 42.3818 155.491 42.7343 155.469 43.1693L155.462 43.3684L155.469 43.5722C155.493 44.014 155.629 44.3688 155.869 44.6252C156.113 44.8839 156.441 45.0143 156.849 45.0143C157.103 45.0143 157.333 44.9686 157.527 44.877C157.725 44.7854 157.878 44.6755 157.986 44.5496C158.096 44.4192 158.153 44.3093 158.153 44.2131C158.153 44.1719 158.137 44.1376 158.103 44.1101C158.071 44.0872 158.035 44.0758 157.995 44.0758H157.736C157.684 44.0758 157.648 44.0827 157.623 44.0941C157.599 44.1055 157.569 44.1353 157.529 44.1902C157.473 44.2658 157.387 44.3413 157.277 44.4123C157.166 44.4833 157.02 44.5176 156.842 44.5176C156.615 44.5176 156.428 44.4283 156.29 44.2543C156.151 44.0781 156.074 43.8606 156.061 43.6111V43.5882H158.069C158.117 43.5882 158.157 43.5722 158.186 43.5401C158.218 43.5104 158.234 43.4692 158.234 43.4211V43.3135C158.234 42.8305 158.112 42.4436 157.871 42.1598C157.63 41.8759 157.286 41.7317 156.849 41.7317ZM156.063 43.1212C156.065 42.8557 156.135 42.6382 156.272 42.4711C156.41 42.304 156.606 42.2193 156.849 42.2193C157.092 42.2193 157.281 42.3017 157.425 42.4711C157.567 42.6382 157.639 42.8557 157.641 43.1212H156.063Z" fill="black"/>
<path d="M164.31 44.4236H164.063V41.9582C164.063 41.9056 164.047 41.8644 164.02 41.8346C163.991 41.8048 163.95 41.7888 163.898 41.7888H162.043C161.996 41.7888 161.955 41.8048 161.926 41.8369C161.895 41.8689 161.879 41.9079 161.879 41.9582V42.7228C161.879 43.318 161.836 43.7598 161.755 44.0322C161.674 44.2954 161.559 44.4282 161.41 44.4282H161.381C161.334 44.4282 161.296 44.4442 161.264 44.4763C161.233 44.5083 161.217 44.5473 161.217 44.5976V45.4446C161.217 45.4973 161.233 45.5385 161.264 45.5682C161.296 45.598 161.334 45.6117 161.381 45.6117H161.638C161.685 45.6117 161.723 45.5957 161.757 45.5636C161.789 45.5316 161.804 45.4927 161.804 45.4446V44.9547H163.894V45.4446C163.894 45.4927 163.907 45.5316 163.937 45.5636C163.966 45.5957 164.004 45.6117 164.052 45.6117H164.31C164.362 45.6117 164.403 45.598 164.43 45.5682C164.459 45.5385 164.475 45.4973 164.475 45.4446V44.5907C164.475 44.5381 164.459 44.4969 164.43 44.4671C164.401 44.4374 164.36 44.4236 164.31 44.4236ZM163.477 44.4236L162.142 44.4282C162.349 44.11 162.455 43.556 162.455 42.7823V42.3107H163.477V44.4236Z" fill="black"/>
<path d="M170.282 41.7913H170.036C169.969 41.7913 169.908 41.8256 169.861 41.892L168.271 44.0529V41.9584C168.271 41.9103 168.255 41.8714 168.224 41.8393C168.192 41.8096 168.154 41.7913 168.107 41.7913H167.848C167.801 41.7913 167.76 41.8073 167.731 41.8393C167.699 41.8714 167.684 41.9103 167.684 41.9584V44.7992C167.684 44.8381 167.699 44.8748 167.731 44.9068C167.762 44.9388 167.796 44.9549 167.837 44.9549H168.089C168.156 44.9549 168.217 44.9205 168.264 44.8541L169.856 42.6932V44.7878C169.856 44.8358 169.872 44.8748 169.904 44.9068C169.935 44.9388 169.973 44.9549 170.021 44.9549H170.28C170.327 44.9549 170.365 44.9388 170.397 44.9068C170.428 44.8748 170.444 44.8358 170.444 44.7878V41.9401C170.444 41.8988 170.426 41.8645 170.394 41.8348C170.356 41.805 170.32 41.7913 170.282 41.7913Z" fill="black"/>
<path d="M175.479 43.3067L176.348 42.0041L176.353 41.995C176.357 41.9858 176.362 41.9744 176.366 41.9629C176.377 41.9446 176.382 41.9286 176.382 41.9149C176.382 41.8782 176.366 41.8462 176.334 41.8233C176.305 41.8027 176.269 41.7913 176.229 41.7913H175.94C175.868 41.7913 175.808 41.8256 175.763 41.8943L174.968 43.0823H174.466V41.9607C174.466 41.9103 174.452 41.8668 174.423 41.8393C174.394 41.8096 174.353 41.7935 174.301 41.7935H174.049C174.002 41.7935 173.961 41.8096 173.932 41.8416C173.901 41.8737 173.885 41.9126 173.885 41.9607V44.7901C173.885 44.8381 173.901 44.8793 173.932 44.9091C173.964 44.9411 174.002 44.9572 174.049 44.9572H174.301C174.349 44.9572 174.387 44.9411 174.418 44.9091C174.45 44.8793 174.466 44.8381 174.466 44.7901V43.6134H174.979L175.835 44.8564C175.886 44.9228 175.949 44.9572 176.017 44.9572H176.353C176.474 44.9572 176.492 44.8793 176.492 44.8313C176.492 44.8038 176.483 44.7717 176.463 44.7374L175.479 43.3067Z" fill="black"/>
<path d="M183.229 42.1094C182.988 41.8576 182.648 41.7317 182.218 41.7317C181.788 41.7317 181.448 41.8599 181.207 42.1094C180.97 42.3543 180.842 42.6794 180.822 43.08H180.245V41.9583C180.245 41.9102 180.229 41.869 180.198 41.8393C180.166 41.8072 180.128 41.7912 180.079 41.7912H179.82C179.772 41.7912 179.732 41.8072 179.703 41.8393C179.673 41.8713 179.655 41.9102 179.655 41.9606V44.79C179.655 44.8381 179.671 44.8793 179.703 44.909C179.734 44.9411 179.772 44.9571 179.822 44.9571H180.081C180.128 44.9571 180.169 44.9411 180.198 44.909C180.229 44.877 180.245 44.8381 180.245 44.79V43.6019H180.822V43.6317C180.837 44.0483 180.966 44.3848 181.202 44.6366C181.441 44.8884 181.781 45.0143 182.218 45.0143C182.654 45.0143 182.997 44.8861 183.233 44.6366C183.469 44.3848 183.598 44.046 183.614 43.634C183.623 43.547 183.625 43.4577 183.625 43.3753C183.625 43.2906 183.62 43.2059 183.614 43.1166C183.6 42.7 183.469 42.3612 183.229 42.1094ZM183.024 43.5974C183.012 43.8927 182.934 44.1193 182.794 44.2749C182.654 44.4283 182.461 44.5061 182.22 44.5061C181.979 44.5061 181.785 44.4283 181.646 44.2749C181.504 44.1193 181.427 43.8927 181.414 43.5996L181.407 43.373L181.414 43.1464C181.425 42.8534 181.504 42.6245 181.646 42.4711C181.785 42.3154 181.979 42.2376 182.22 42.2376C182.461 42.2376 182.654 42.3154 182.794 42.4711C182.936 42.6245 183.012 42.8534 183.024 43.1487C183.026 43.1899 183.028 43.27 183.028 43.373C183.028 43.476 183.026 43.5561 183.024 43.5974Z" fill="black"/>
<path d="M189.418 42.1392C189.209 41.869 188.889 41.7317 188.47 41.7317C188.076 41.7317 187.759 41.869 187.531 42.1369V41.9583C187.531 41.908 187.518 41.8645 187.488 41.837C187.459 41.8072 187.419 41.7912 187.369 41.7912H187.121C187.074 41.7912 187.036 41.8049 187.004 41.8347C186.973 41.8645 186.957 41.9057 186.957 41.9583V45.9208C186.957 45.9735 186.973 46.0147 187.004 46.0445C187.036 46.0742 187.074 46.0902 187.121 46.0902H187.387C187.434 46.0902 187.473 46.0742 187.504 46.0422C187.533 46.0101 187.551 45.9712 187.551 45.9231V44.6183C187.77 44.8816 188.078 45.0143 188.472 45.0143C188.891 45.0143 189.211 44.877 189.42 44.6046C189.63 44.3345 189.74 43.9888 189.753 43.579C189.758 43.5355 189.76 43.4692 189.76 43.373C189.76 43.2769 189.758 43.2128 189.753 43.1693C189.74 42.7549 189.627 42.4093 189.418 42.1392ZM189.157 43.5424C189.146 43.8263 189.076 44.0575 188.952 44.2314C188.828 44.4008 188.63 44.4878 188.36 44.4878C188.103 44.4878 187.905 44.4008 187.77 44.2337C187.633 44.0621 187.558 43.856 187.551 43.6202C187.547 43.579 187.545 43.5035 187.545 43.3913C187.545 43.2769 187.547 43.2036 187.551 43.1601C187.56 42.9175 187.633 42.7023 187.765 42.5237C187.898 42.3452 188.094 42.2582 188.362 42.2582C188.902 42.2582 189.166 42.6245 189.166 43.373C189.164 43.4508 189.161 43.5058 189.157 43.5424Z" fill="black"/>
<path d="M105.934 34.372V25.8678C105.934 24.3959 105.049 23.3703 103.225 22.7385C102.034 22.3196 100.741 22.1182 99.2734 22.1182C94.5924 22.1182 92.1697 23.5031 91.886 26.3462H94.1646C94.3447 25.6343 94.6397 25.0552 95.0652 24.5859L95.09 24.5607C95.878 23.8556 97.1007 23.4985 98.7308 23.4985C101.888 23.4985 103.488 24.4096 103.488 26.2112C103.488 27.4679 102.806 28.1844 101.516 28.2874L96.3396 28.7956C92.6831 29.1642 90.9043 30.572 90.9043 33.1015C90.9043 34.237 91.4064 35.1503 92.4354 35.892C93.4621 36.6154 94.8198 36.9817 96.4747 36.9817C99.0753 36.9817 101.3 36.2056 103.083 34.6742L103.578 34.2484L103.617 34.9077C103.651 35.5303 103.822 35.9721 104.135 36.256C105.087 37.1167 106.789 36.8741 108.028 36.652V35.5097C107.724 35.5715 107.476 35.599 107.264 35.599C106.418 35.5967 105.934 35.1503 105.934 34.372ZM103.405 31.8219C103.405 32.8795 102.759 33.7929 101.485 34.5345L101.48 34.5368C100.199 35.2511 98.8209 35.5967 97.2673 35.5967C94.1646 35.5967 93.5139 34.0286 93.5139 32.7147C93.5139 31.1855 94.9774 30.2744 97.8662 30.0066C101.827 29.6106 102.734 29.2237 102.917 29.1138L103.405 28.8231V31.8219Z" fill="black"/>
<path d="M144.076 31.673C144.076 30.2468 143.454 29.0153 142.227 28.0103C140.842 26.8406 138.838 26.25 136.269 26.25C134.43 26.25 132.316 26.9115 131.557 27.7265L131.699 27.5891C131.699 27.5891 131.318 27.9165 130.996 28.2644V22.2852H128.542V30.9061C128.542 32.8427 129.184 34.4314 130.35 35.3814C131.814 36.5352 133.75 37.096 136.269 37.096C138.823 37.096 140.829 36.5191 142.229 35.3814C143.454 34.3765 144.076 33.1289 144.076 31.673ZM140.453 34.365C139.557 35.4158 138.188 35.9285 136.267 35.9285C134.425 35.9285 133.07 35.418 132.127 34.3696C131.442 33.573 131.12 32.6642 131.165 31.6615C131.253 28.7337 133.79 27.4243 136.267 27.4243C138.12 27.4243 139.527 27.9485 140.448 28.9832C141.104 29.789 141.417 30.6658 141.417 31.673C141.419 32.7329 141.101 33.6142 140.453 34.365Z" fill="black"/>
<path d="M189.646 29.622L189.24 29.345L189.648 29.0703C190.22 28.6857 190.571 28.3423 191.015 27.9097C191.143 27.7838 191.278 27.6533 191.429 27.5091L196.698 22.3081H193.525L188.716 27.2802C188.103 27.9097 187.322 28.6949 186.381 28.6422H184.929V22.3104H182.483V36.5993H184.929V30.0111H186.399C187.297 30.0111 188.027 30.7116 188.614 31.2747L188.779 31.4304L193.739 36.5993H196.954L191.4 31.1465C190.733 30.4827 190.371 30.1164 189.646 29.622Z" fill="black"/>
<path d="M117.25 22.3127L110.295 36.5994H113.078L118.75 24.5424L124.167 36.5994H126.952L120.267 22.3127H117.25Z" fill="black"/>
<path d="M211.353 22.2852V30.256C211.353 31.6432 210.955 32.8267 210.166 33.7721C209.167 34.9739 207.674 35.5829 205.729 35.5829C203.074 35.5829 201.728 34.3605 201.728 31.95V22.2852H199.127V32.7786C199.127 34.3078 199.746 35.4226 201.018 36.1872C202.068 36.8007 203.387 37.0983 205.044 37.0983C207.647 37.0983 209.55 36.2742 210.86 34.5756C211.213 34.1155 211.416 33.7264 211.493 33.5707V36.6611H213.949V22.2852H211.353Z" fill="black"/>
<path d="M158.02 26.5659C158.02 27.9532 157.622 29.1367 156.833 30.0821C155.834 31.2839 154.341 31.8928 152.396 31.8928C149.741 31.8928 148.395 30.6704 148.395 28.2599V22.3081H145.794V29.084C145.794 30.6132 146.413 31.728 147.685 32.4926C148.735 33.1061 150.054 33.4036 151.711 33.4036C154.314 33.4036 156.217 32.5796 157.527 30.881C157.878 30.4209 158.083 30.0317 158.157 29.8761V36.5947H160.618V22.3104H158.02V26.5659Z" fill="black"/>
<path d="M176.49 30.256C176.49 31.6432 176.089 32.8267 175.301 33.7721C174.302 34.9739 172.809 35.5829 170.863 35.5829C168.206 35.5829 166.862 34.3605 166.862 31.95V22.2852H164.262V32.7786C164.262 34.3078 164.881 35.4226 166.153 36.1872C167.202 36.8007 168.522 37.0983 170.179 37.0983C172.782 37.0983 174.684 36.2742 175.995 34.5756C176.348 34.1155 176.551 33.7264 176.627 33.5707V36.6611H179.088V22.2852H176.492V30.256H176.49Z" fill="black"/>
<path d="M86.3814 22.9606C85.3321 22.3471 84.0127 22.0496 82.3555 22.0496C79.7527 22.0496 77.8501 22.8759 76.5397 24.5722C76.1884 25.0323 75.9835 25.4215 75.9092 25.5771V22.4868H73.4482V36.604H76.0466V28.8941C76.0466 27.5069 76.4451 26.3234 77.2332 25.378C78.2329 24.1762 79.7279 23.5673 81.671 23.5673C84.3257 23.5673 85.6721 24.7897 85.6721 27.2002V36.604H88.2727V26.3692C88.2749 24.84 87.6557 23.7252 86.3814 22.9606Z" fill="black"/>
<path d="M33.4058 55.1874C20.6596 55.1874 10.0411 45.7767 7.90439 33.4312H5.74512C7.90664 46.9739 19.4843 57.3484 33.4058 57.3484C47.3274 57.3484 58.9073 46.9739 61.0666 33.429H58.9073C56.7705 45.7744 46.1521 55.1874 33.4058 55.1874Z" fill="black"/>
<path d="M33.4061 2.51839C46.1546 2.51839 56.7754 11.9337 58.9099 24.2837H61.0691C58.9121 10.7365 47.3299 0.357422 33.4061 0.357422C19.4823 0.357422 7.90243 10.7365 5.74316 24.2837H7.90243C10.0369 11.936 20.6577 2.51839 33.4061 2.51839Z" fill="black"/>
<path d="M2.79552 27.7449C2.60413 27.5687 2.34745 27.4817 2.02548 27.4817C1.70125 27.4817 1.44457 27.571 1.25318 27.7449C1.0618 27.9212 0.962728 28.173 0.953722 28.5027C0.95147 28.5759 0.949219 28.6812 0.949219 28.8231C0.949219 28.9628 0.95147 29.0681 0.953722 29.139C0.962728 29.4778 1.0618 29.7296 1.24643 29.9013C1.43106 30.073 1.69224 30.1577 2.02773 30.1577C2.35871 30.1577 2.61764 30.073 2.80453 29.9013C2.99141 29.7296 3.08823 29.4778 3.09948 29.139C3.10399 28.9948 3.10624 28.8895 3.10624 28.8231C3.10624 28.7545 3.10399 28.6469 3.09948 28.5027C3.08597 28.173 2.9869 27.9212 2.79552 27.7449ZM2.56586 29.1207C2.5591 29.3268 2.50732 29.4801 2.41275 29.5786C2.31818 29.677 2.18759 29.7274 2.02548 29.7274C1.86111 29.7274 1.73052 29.677 1.63595 29.5763C1.54139 29.4755 1.4896 29.3245 1.4851 29.1207C1.48284 29.0475 1.48059 28.9468 1.48059 28.8186C1.48059 28.6904 1.48284 28.5896 1.4851 28.5187C1.4896 28.3149 1.54139 28.1639 1.6382 28.0631C1.73502 27.9624 1.86561 27.9121 2.02773 27.9121C2.18534 27.9121 2.31368 27.9624 2.4105 28.0631C2.50732 28.1639 2.5591 28.3149 2.56811 28.5187C2.57261 28.6629 2.57486 28.7636 2.57486 28.8186C2.57261 28.8712 2.57036 28.9719 2.56586 29.1207Z" fill="black"/>
<path d="M6.3751 30.0454C6.53722 29.9698 6.66105 29.8668 6.75112 29.7341C6.84118 29.6036 6.88846 29.4548 6.89297 29.2923C6.89522 29.2694 6.88846 29.2511 6.8727 29.2373C6.85694 29.2213 6.83668 29.2144 6.81641 29.2144H6.46291C6.43364 29.2144 6.41113 29.2213 6.39762 29.235C6.38411 29.2488 6.3706 29.2717 6.36159 29.306C6.32557 29.4594 6.26027 29.567 6.17021 29.6311C6.07789 29.6952 5.96081 29.7249 5.81221 29.7249C5.46321 29.7249 5.28308 29.5258 5.26732 29.1297C5.26507 29.0588 5.26507 28.9535 5.26507 28.8138C5.26507 28.6742 5.26507 28.5712 5.26732 28.5048C5.28308 28.1088 5.46321 27.9096 5.81221 27.9096C5.96081 27.9096 6.08015 27.9417 6.17021 28.0035C6.26027 28.0676 6.32332 28.1752 6.36159 28.3285C6.3706 28.3629 6.38411 28.388 6.39762 28.4018C6.41113 28.4155 6.43364 28.4224 6.46291 28.4224H6.81641C6.83668 28.4224 6.85469 28.4155 6.87045 28.4018C6.88621 28.388 6.89522 28.372 6.89522 28.3514V28.3445C6.89072 28.182 6.84343 28.0332 6.75337 27.9027C6.66556 27.7723 6.53947 27.6692 6.37735 27.5937C6.21749 27.5182 6.02836 27.4792 5.80996 27.4792C5.47672 27.4792 5.21779 27.5685 5.03091 27.7448C4.84628 27.9211 4.74721 28.1683 4.73595 28.4865C4.7337 28.5552 4.73145 28.6673 4.73145 28.8207C4.73145 28.9718 4.73145 29.0817 4.73595 29.148C4.74721 29.4708 4.84628 29.7203 5.03091 29.8943C5.21554 30.0683 5.47447 30.1576 5.81221 30.1576C6.02611 30.1576 6.21524 30.1209 6.3751 30.0454Z" fill="black"/>
<path d="M10.1809 30.0959C10.1989 30.1119 10.2192 30.1234 10.2439 30.1234H10.5839C10.6109 30.1234 10.6312 30.1142 10.647 30.0959C10.6627 30.0799 10.6717 30.057 10.6717 30.0318V27.6099C10.6717 27.5824 10.6627 27.5595 10.647 27.5435C10.6312 27.5252 10.6109 27.5183 10.5839 27.5183H10.2439C10.2192 27.5183 10.1989 27.5275 10.1809 27.5435C10.1651 27.5618 10.1561 27.5824 10.1561 27.6099V28.5667H9.08886V27.6099C9.08886 27.5824 9.07985 27.5595 9.06409 27.5435C9.04608 27.5252 9.02581 27.5183 8.99879 27.5183H8.66331C8.63629 27.5183 8.61377 27.5275 8.59801 27.5435C8.58225 27.5618 8.57324 27.5824 8.57324 27.6099V30.0318C8.57324 30.057 8.58225 30.0776 8.59801 30.0959C8.61602 30.1119 8.63629 30.1234 8.66105 30.1234H8.99654C9.02356 30.1234 9.04607 30.1142 9.06184 30.0959C9.07985 30.0799 9.0866 30.057 9.0866 30.0318V29.0383H10.1539V30.0318C10.1561 30.057 10.1651 30.0776 10.1809 30.0959Z" fill="black"/>
<path d="M11.9775 29.5671C11.9527 29.5671 11.9324 29.5763 11.9144 29.5923C11.8964 29.6106 11.8896 29.6312 11.8896 29.6564V30.0318C11.8896 30.057 11.8987 30.0776 11.9144 30.0959C11.9302 30.112 11.9527 30.1234 11.9775 30.1234H12.3467C12.3737 30.1234 12.394 30.1142 12.4098 30.0959C12.4255 30.0799 12.4345 30.057 12.4345 30.0318V29.6564C12.4345 29.6312 12.4255 29.6106 12.4098 29.5923C12.3918 29.574 12.3715 29.5671 12.3467 29.5671H11.9775Z" fill="black"/>
<path d="M55.3313 28.7475C55.2367 28.8345 55.1039 28.9489 54.9305 29.0886L54.3609 29.6654C54.3001 29.7112 54.2686 29.7707 54.2686 29.8394V30.0317C54.2686 30.0569 54.2776 30.0775 54.2933 30.0958C54.3113 30.1141 54.3316 30.1233 54.3564 30.1233H56.1081C56.1351 30.1233 56.1576 30.1141 56.1734 30.0981C56.1892 30.0821 56.1982 30.0614 56.1982 30.0317V29.7639C56.1982 29.7364 56.1892 29.7158 56.1734 29.6975C56.1576 29.6815 56.1351 29.67 56.1081 29.67H55.0724L55.5812 29.1458C55.7749 28.9924 55.9167 28.8482 56.009 28.7131C56.1013 28.5781 56.1464 28.427 56.1464 28.2622C56.1464 28.1111 56.1126 27.976 56.0451 27.857C55.9775 27.738 55.8739 27.6441 55.7366 27.5754C55.5992 27.5068 55.4349 27.4724 55.239 27.4724C55.0499 27.4724 54.8877 27.5113 54.7481 27.5892C54.6085 27.667 54.5027 27.77 54.4284 27.8982C54.3541 28.0264 54.3136 28.1637 54.3091 28.3102C54.3091 28.3331 54.3181 28.3514 54.3316 28.3652C54.3474 28.3812 54.3654 28.3881 54.3856 28.3881H54.7144C54.7391 28.3881 54.7617 28.3812 54.7819 28.3675C54.8022 28.3537 54.8157 28.3331 54.8247 28.3034C54.8427 28.1866 54.8855 28.0928 54.9553 28.0195C55.0251 27.9463 55.1197 27.9096 55.2435 27.9096C55.3673 27.9096 55.4596 27.9417 55.5204 28.0104C55.5812 28.0768 55.6128 28.1683 55.6128 28.2851C55.6128 28.356 55.588 28.4293 55.543 28.5048C55.4957 28.5781 55.4259 28.6582 55.3313 28.7475Z" fill="black"/>
<path d="M58.3448 27.4817C58.0228 27.4817 57.7797 27.5733 57.6175 27.7564C57.4532 27.9395 57.3676 28.1776 57.3541 28.4706C57.3519 28.5393 57.3496 28.656 57.3496 28.8208C57.3496 28.9811 57.3519 29.0955 57.3541 29.1619C57.3676 29.4595 57.4554 29.6999 57.6153 29.883C57.7752 30.0661 58.0183 30.16 58.3448 30.16C58.6713 30.16 58.9145 30.0684 59.0743 29.883C59.2342 29.6999 59.3197 29.4595 59.3355 29.1619C59.34 29.0292 59.3423 28.9147 59.3423 28.8208C59.3423 28.727 59.34 28.6102 59.3355 28.4706C59.322 28.1776 59.2342 27.9395 59.0721 27.7564C58.91 27.5733 58.6668 27.4817 58.3448 27.4817ZM58.8064 29.1436C58.8019 29.329 58.7614 29.4733 58.6848 29.574C58.6082 29.6747 58.4957 29.7251 58.3448 29.7251C58.194 29.7251 58.0791 29.6747 58.0048 29.574C57.9305 29.4733 57.89 29.329 57.8855 29.1436C57.8832 29.0704 57.881 28.9605 57.881 28.8117C57.881 28.6629 57.881 28.5553 57.8855 28.4889C57.89 28.3081 57.9305 28.1661 58.0048 28.0654C58.0814 27.9647 58.194 27.9121 58.3448 27.9098C58.4957 27.9121 58.6082 27.9647 58.6848 28.0654C58.7614 28.1684 58.7996 28.3081 58.8064 28.4889C58.8086 28.5553 58.8086 28.6629 58.8086 28.8117C58.8086 28.9605 58.8086 29.0704 58.8064 29.1436Z" fill="black"/>
<path d="M62.2508 27.7564C62.0887 27.5733 61.8455 27.4817 61.5235 27.4817C61.2015 27.4817 60.9584 27.5733 60.7963 27.7564C60.6319 27.9395 60.5463 28.1776 60.5328 28.4706C60.5306 28.5393 60.5283 28.656 60.5283 28.8208C60.5283 28.9811 60.5306 29.0955 60.5328 29.1619C60.5463 29.4595 60.6342 29.6999 60.794 29.883C60.9539 30.0661 61.197 30.16 61.5235 30.16C61.85 30.16 62.0932 30.0684 62.253 29.883C62.4129 29.6999 62.4985 29.4595 62.5142 29.1619C62.5187 29.0292 62.521 28.9147 62.521 28.8208C62.521 28.727 62.5187 28.6102 62.5142 28.4706C62.503 28.1776 62.4152 27.9395 62.2508 27.7564ZM61.9828 29.1436C61.9783 29.329 61.9378 29.4733 61.8613 29.574C61.7847 29.6747 61.6721 29.7251 61.5213 29.7251C61.3704 29.7251 61.2556 29.6747 61.1813 29.574C61.1047 29.4733 61.0665 29.329 61.062 29.1436C61.0597 29.0704 61.0574 28.9605 61.0574 28.8117C61.0574 28.6629 61.0574 28.5553 61.062 28.4889C61.0665 28.3081 61.107 28.1661 61.1813 28.0654C61.2578 27.9647 61.3704 27.9121 61.5213 27.9098C61.6721 27.9121 61.7847 27.9647 61.8613 28.0654C61.9378 28.1684 61.9761 28.3081 61.9828 28.4889C61.9851 28.5553 61.9851 28.6629 61.9851 28.8117C61.9873 28.9605 61.9851 29.0704 61.9828 29.1436Z" fill="black"/>
<path d="M65.3022 27.5183H63.6923C63.6653 27.5183 63.645 27.5275 63.627 27.5435C63.6112 27.5618 63.6045 27.5824 63.6045 27.6099V27.8731C63.6045 27.8983 63.6135 27.9189 63.6293 27.9372C63.6473 27.9555 63.6675 27.9624 63.6923 27.9624H64.8384L63.9602 30.0043C63.9557 30.0204 63.9535 30.0318 63.9535 30.0387C63.9535 30.0616 63.9602 30.0799 63.976 30.0959C63.9895 30.1119 64.0098 30.1211 64.03 30.1211H64.37C64.3993 30.1211 64.4218 30.1119 64.4398 30.0959C64.4556 30.0799 64.4736 30.0593 64.4871 30.0318L65.3562 28.0059C65.381 27.951 65.3923 27.8983 65.3923 27.8457V27.6122C65.3923 27.5847 65.3832 27.5618 65.3675 27.5458C65.3495 27.5275 65.3292 27.5183 65.3022 27.5183Z" fill="black"/>
<path d="M18.7275 13.2317V45.186L19.7858 45.1906C20.1686 45.1929 27.7181 45.1608 33.8559 40.1911C39.9082 45.0876 47.3249 45.1906 47.9058 45.1906H47.9261L48.9843 45.186V26.8453C48.9843 19.3392 42.9771 13.2317 35.5942 13.2317H18.7275ZM33.8537 37.2999C32.9643 36.4208 32.1335 35.4067 31.3995 34.2393C30.3367 32.5453 29.6275 30.9704 29.6275 28.7865C29.6275 26.4172 31.5233 24.4898 33.8537 24.4898C36.1841 24.4898 38.0799 26.4172 38.0799 28.7865C38.0799 30.9727 37.3729 32.5476 36.3102 34.2393C35.5762 35.4067 34.7453 36.4208 33.8537 37.2999ZM46.8589 26.8453V42.9724C44.7243 42.7847 39.7438 41.9995 35.4816 38.7192C36.425 37.7623 37.3099 36.6635 38.1024 35.4022C39.1967 33.6624 40.2077 31.6548 40.2077 28.7865H40.2054C40.2054 25.2269 37.3572 22.3288 33.8559 22.3288C30.3525 22.3288 27.5042 25.2246 27.5042 28.7865C27.5042 31.6548 28.5152 33.6601 29.6095 35.4022C30.402 36.6612 31.2869 37.76 32.228 38.7169C27.968 41.9858 22.9875 42.7778 20.853 42.9678V15.3927H35.5942C41.804 15.3927 46.8589 20.5295 46.8589 26.8453Z" fill="black"/>
</svg>
