<svg width="130" height="34" viewBox="0 0 130 34" fill="none" xmlns="http://www.w3.org/2000/svg">
<g clip-path="url(#clip0_4132_18211)">
<path d="M99.2631 24.1241C96.7962 25.5473 96.1226 27.0312 96.8949 29.0387C97.3252 30.1534 98.1486 30.9369 99.2313 31.3963C102.054 32.5908 104.906 32.5908 107.653 31.2247C109.577 30.2661 110.607 28.6296 110.64 26.4696C110.668 24.6545 109.388 23.3301 107.533 23.2919C105.331 23.2469 103.127 23.2919 100.922 23.2434C99.8714 23.2209 98.7905 23.1966 97.7783 22.9539C94.9641 22.2796 93.735 19.4261 95.2144 16.9749C95.7417 16.1012 96.5475 15.3887 97.2934 14.5236C96.0432 12.9114 95.7311 10.9126 96.0591 8.83408C96.5793 5.54379 99.1961 3.40284 102.783 3.21562C104.304 3.13587 105.777 3.35257 107.135 4.05813C107.568 4.28349 107.866 4.23495 108.242 3.95411C108.61 3.67674 109.037 3.46005 109.464 3.27456C110.705 2.73542 111.85 2.83597 112.878 3.78942C113.431 4.30256 113.992 5.04105 114.641 5.14853C115.195 5.24041 115.877 4.57473 116.505 4.24882C122.765 0.99493 129.7 4.8885 129.986 11.8713C130.042 13.2668 129.933 14.7212 129.587 16.0717C128.258 21.262 123.892 23.0857 119.399 22.517C114.706 21.9242 111.91 18.7466 111.679 14.0746C111.532 11.1224 112.102 8.39549 114.167 5.96331C112.148 5.50565 110.559 3.73395 108.436 4.59033C108.963 5.88183 109.656 7.07452 109.935 8.35388C110.972 13.1056 107.521 16.9281 102.569 16.6455C101.028 16.5571 99.5505 16.271 98.2227 15.4164C98.027 15.2898 97.6038 15.3332 97.3763 15.4563C96.3712 16.0006 95.7805 17.3285 96.0326 18.3392C96.2672 19.2822 97.1718 19.8439 98.5313 19.8352C101.527 19.8162 104.525 19.7382 107.521 19.7572C111.016 19.7798 112.998 21.9328 112.783 25.3653C112.652 27.4438 111.767 29.1912 110.122 30.4463C106.209 33.4315 101.848 33.9689 97.2529 32.2787C95.218 31.5298 94.2111 29.8552 94.4157 27.8651C94.4809 27.2219 94.7472 26.4019 95.2197 26.0344C96.2354 25.2439 97.4415 24.6857 98.5824 24.0547C98.6917 23.994 98.8875 24.0807 99.2666 24.1275L99.2631 24.1241ZM122.059 4.21241C122.171 5.63913 121.735 6.33775 120.303 6.64286C119.374 6.84049 118.376 6.88209 117.427 6.79715C116.658 6.72781 116.422 7.01038 116.228 7.64139C115.357 10.4706 115.378 13.3327 115.858 16.2121C116.11 17.7307 116.531 19.1834 117.572 20.4125C119.354 22.5205 123.9 22.9972 125.253 19.069C125.673 17.852 125.925 16.5536 126.055 15.2742C126.33 12.5578 126.219 9.84994 125.3 7.23227C124.759 5.68767 123.719 4.64407 122.059 4.21241ZM99.2983 9.92275C99.6069 11.2316 99.8203 12.6618 100.296 14.0018C100.751 15.2777 101.73 16.1029 103.245 16.0301C104.719 15.959 105.555 15.0645 105.962 13.8042C106.794 11.2333 106.803 8.62952 105.897 6.07079C105.378 4.60593 104.373 3.90037 103.049 3.88824C101.679 3.8761 100.575 4.58513 100.102 6.05692C99.718 7.25134 99.5787 8.5203 99.2966 9.92275H99.2983ZM116.969 6.1436C117.686 6.1436 118.256 6.27535 118.714 6.11066C119.277 5.90783 119.843 5.53858 120.227 5.08959C120.589 4.66834 120.222 4.02346 119.755 4.1292C118.623 4.38404 117.676 4.93184 116.969 6.14533V6.1436Z" fill="black"/>
<path d="M66.0791 21.841C65.9945 21.9919 65.9433 22.1652 65.8922 22.1652C63.0638 22.1791 60.2372 22.1773 57.4088 22.1773C57.377 22.0733 57.3435 21.9693 57.3118 21.8653C57.6028 21.77 57.8867 21.6434 58.1864 21.5845C58.9376 21.4354 59.121 21.1649 58.7419 20.5166C57.4828 18.367 56.1886 16.2399 54.8431 13.9949C54.6262 14.2862 54.4517 14.4942 54.3071 14.7213C53.1433 16.5571 51.9548 18.3791 50.8368 20.2427C50.2884 21.1563 50.433 21.3626 51.491 21.5169C52.0024 21.5914 52.5155 21.6486 53.0287 21.7127C53.0445 21.8012 53.0604 21.8878 53.0763 21.9762C52.8611 22.0577 52.6337 22.2311 52.4309 22.2068C50.2779 21.9502 48.1619 22.1444 46.0423 22.5605C45.3423 22.6974 44.5735 22.6055 43.8523 22.5067C42.2247 22.2814 41.1614 21.4302 40.9516 19.7382C40.9375 19.629 40.867 19.5285 40.7806 19.3239C40.3926 19.6828 40.0558 20.0156 39.6961 20.3224C37.7794 21.9589 35.6669 23.0337 33.0236 22.4391C29.9061 21.7388 28.2609 17.5331 30.1688 14.9969C30.6096 14.4093 31.3502 13.9499 32.0503 13.6569C34.422 12.6618 36.8219 11.7257 39.2429 10.8485C40.509 10.3909 41.2196 9.7096 40.9234 8.30715C40.8758 8.08525 40.9163 7.84602 40.9075 7.61546C40.7612 3.81203 37.7441 3.36651 35.3565 4.19168C34.131 4.6164 33.4768 5.53692 33.3781 6.80762C33.3428 7.26528 33.3657 7.73161 33.4151 8.18927C33.5368 9.32475 33.3375 9.65065 32.3871 9.77374C31.2762 9.91589 30.5321 9.41489 30.4033 8.4337C30.2746 7.45077 30.6326 6.6152 31.2497 5.87497C32.7556 4.0686 34.824 3.37518 37.0793 3.25383C38.2907 3.18795 39.5568 3.3093 40.7347 3.59707C43.0623 4.16568 44.1855 5.72241 44.2102 8.07658C44.2473 11.6581 44.2737 15.2396 44.3284 18.8212C44.3442 19.8769 44.4183 20.976 45.6456 21.4146C46.9064 21.8653 48.1019 21.5585 48.9183 20.5617C50.4806 18.653 51.8666 16.604 53.4378 14.7005C54.2824 13.6777 54.3565 12.9063 53.5718 11.7829C52.2775 9.93323 51.1736 7.95003 50.0292 6.00152C49.3786 4.89377 48.5304 4.16915 47.1568 4.19688C47.0086 4.20035 46.857 4.0998 46.6912 3.83284C46.9046 3.78256 47.1162 3.68895 47.3296 3.68722C49.6801 3.67855 52.0306 3.67855 54.3811 3.69588C54.5716 3.69588 54.762 3.8415 54.9542 3.91951C54.7797 4.02353 54.6174 4.19168 54.4305 4.21942C53.0921 4.42745 53.0551 4.47599 53.7375 5.63574C54.7215 7.30688 55.723 8.96763 56.8057 10.7827C58.0383 8.84628 59.2074 7.02085 60.3624 5.18501C60.6216 4.77416 60.5369 4.46905 59.9921 4.39451C59.5847 4.33903 59.1756 4.2957 58.7736 4.21942C58.5902 4.18475 58.4227 4.079 58.2464 4.00619C58.2658 3.92991 58.2834 3.8519 58.3028 3.77563H65.0634C65.0881 3.82937 65.1146 3.88484 65.1392 3.93858C64.8959 4.03566 64.6561 4.19862 64.4057 4.21595C63.0938 4.31303 62.0481 4.8591 61.267 5.90097C60.0132 7.57385 58.7383 9.23287 57.5199 10.9318C57.3594 11.1554 57.3488 11.6529 57.4952 11.8887C59.0875 14.4821 60.7397 17.0408 62.3444 19.6273C63.092 20.8338 64.0231 21.6954 65.5624 21.685C65.7159 21.685 65.871 21.7752 66.0809 21.841H66.0791ZM40.7911 10.7359C39.1054 11.5125 37.4549 12.2389 35.8362 13.0259C33.3005 14.2602 32.4541 16.9663 33.7907 19.4383C34.4661 20.6882 35.6686 21.2534 37.104 20.9985C39.0578 20.6501 40.6606 19.0084 40.7894 17.0061C40.9163 15.0524 40.874 13.0866 40.9005 11.1276C40.9005 11.0236 40.844 10.9196 40.7911 10.7359Z" fill="black"/>
<path d="M77.4118 10.247C79.2034 11.939 80.9949 13.6275 82.8076 15.3402C83.3613 14.1995 83.9009 12.9202 84.5868 11.7223C85.271 10.5261 86.0204 9.34558 86.8986 8.28291C87.5246 7.52534 88.4732 7.17863 89.5242 7.49067C90.5416 7.79404 90.9701 8.80818 90.3917 9.68189C90.2436 9.90378 89.7587 10.0979 89.503 10.0321C88.043 9.65242 87.1419 9.81191 86.2726 11.0393C85.1723 12.5908 84.2254 14.2481 83.1991 15.8828C85.83 18.3878 88.1664 21.0332 91.9153 21.7804C90.099 22.7165 87.9936 23.0944 86.1985 22.5015C84.377 21.9 82.8711 20.3797 81.1836 19.2321C81.0443 19.4106 80.7921 19.7556 80.5171 20.085C78.3041 22.746 74.4988 23.5694 71.3601 22.0699C67.8123 20.3762 67.3203 15.342 70.4943 13.0571C71.4624 12.3602 72.4851 11.7344 73.5537 11.0289C73.1904 10.5521 72.8201 10.0841 72.4692 9.60041C71.3618 8.07835 70.8311 6.39853 71.2296 4.53842C71.8767 1.51337 74.8691 -0.244461 78.2865 0.339748C80.8979 0.787005 82.3703 2.13225 82.6666 4.3824C82.8447 5.73978 82.462 6.9238 81.2929 7.73164C80.0515 8.59148 78.7573 9.38025 77.4136 10.247H77.4118ZM73.8058 11.8263C71.9279 13.1074 71.2349 15.0941 71.9543 17.5332C72.5821 19.662 74.2325 21.0644 76.2533 21.1875C78.2917 21.3106 80.018 20.2583 80.8292 18.3029C78.5386 16.1897 76.2075 14.0401 73.8058 11.8263ZM76.7682 9.69922C79.7306 8.00207 80.7921 5.26132 79.609 2.69739C79.1117 1.61911 78.3129 0.92569 77.0398 0.915289C75.7649 0.906621 74.9467 1.58964 74.4424 2.66098C73.8111 4.00102 73.8129 5.38267 74.5764 6.65163C75.213 7.7091 76.0188 8.66949 76.7682 9.69922Z" fill="black"/>
<path d="M22.373 18.1087C23.632 13.9413 24.8928 9.77379 26.1483 5.60458C26.374 4.85222 26.0989 4.44657 25.2754 4.40323C24.8381 4.38069 24.3973 4.31655 23.9706 4.21947C23.7925 4.1796 23.6443 4.00624 23.4839 3.89356C23.6532 3.82075 23.8154 3.70634 23.99 3.68727C24.2492 3.6578 24.5172 3.70114 24.7817 3.70114C26.3969 3.70114 28.0139 3.70114 29.6291 3.69767C29.9059 3.69767 30.181 3.69767 30.4579 3.69767C30.4755 3.78608 30.4949 3.87276 30.5125 3.96117C30.308 4.04265 30.107 4.18653 29.8971 4.19694C28.4583 4.26801 27.6771 5.10532 27.2292 6.35001C25.6422 10.781 24.0534 15.2102 22.47 19.6412C22.2954 20.1301 22.0767 20.6172 21.9974 21.1234C21.8334 22.1791 21.2903 22.6957 20.0771 22.5172C18.4161 17.8504 16.7268 13.1074 14.9829 8.20492C13.3253 13.1005 11.7277 17.8227 10.1319 22.5328C8.62251 22.434 8.64367 22.427 8.18873 21.1095C6.46419 16.1151 4.7132 11.1312 3.00453 6.13159C2.59544 4.93716 1.93948 4.16573 0.56055 4.19867C0.398324 4.20214 0.23257 4.07559 -0.00195312 3.98024C0.743937 3.55379 8.49379 3.65953 8.88172 4.11546C8.3298 4.20907 7.82725 4.35469 7.32117 4.36682C6.45185 4.38936 6.4395 4.88169 6.62818 5.47803C7.25064 7.46122 7.88015 9.44268 8.52905 11.4172C9.24144 13.5824 9.97851 15.7407 10.7068 17.9024C10.7138 17.9232 10.7438 17.9371 10.9219 18.0897C12.4454 13.2686 13.9443 8.52736 15.4501 3.76355C15.66 3.75141 15.8663 3.76355 16.062 3.72194C16.8185 3.55552 17.1006 3.88836 17.3387 4.58872C18.8375 8.98849 20.3998 13.3675 21.9445 17.7516C21.9815 17.8556 22.0468 17.9475 22.0997 18.0463C22.1914 18.0671 22.2831 18.0862 22.3765 18.107L22.373 18.1087Z" fill="black"/>
</g>
<defs>
<clipPath id="clip0_4132_18211">
<rect width="130" height="33" fill="white" transform="translate(0 0.227051)"/>
</clipPath>
</defs>
</svg>
