<svg width="228" height="16" viewBox="0 0 228 16" fill="none" xmlns="http://www.w3.org/2000/svg">
<g clip-path="url(#clip0_4132_18196)">
<path d="M164.579 0.227051C165.387 0.36733 166.207 0.456599 166.999 0.659225C169.106 1.19767 171.011 2.08753 172.336 3.89841C174.156 6.3866 174.079 9.7774 171.91 12.1111C170.333 13.8073 168.297 14.5809 166.037 14.9706C163.382 15.4283 160.787 15.2752 158.273 14.3712C155.702 13.4473 153.704 11.8533 153.175 9.04625C152.803 7.07525 153.188 5.2006 154.559 3.61076C156.446 1.4258 158.944 0.578458 161.741 0.363079C161.839 0.355995 161.933 0.275228 162.028 0.228468C162.88 0.228468 163.73 0.228468 164.582 0.228468L164.579 0.227051ZM163.709 12.6099C164.184 12.5093 165.06 12.3917 165.892 12.1338C167.711 11.5713 168.761 10.2903 168.961 8.43695C169.207 6.16839 168.28 4.44394 166.478 3.56259C165.05 2.86402 163.56 2.78042 161.995 3.01422C159.917 3.32454 158.456 4.31216 157.868 6.3611C157.316 8.28675 157.715 9.96444 159.274 11.3247C160.435 12.3379 161.845 12.5107 163.709 12.6085V12.6099Z" fill="black"/>
<path d="M114.071 0.227051C114.854 0.36733 115.646 0.47502 116.422 0.654974C118.398 1.11265 120.155 1.95433 121.308 3.69011C121.623 4.16338 121.766 4.74859 122.043 5.41173C120.493 5.41173 119.15 5.42023 117.809 5.39898C117.671 5.39756 117.471 5.25019 117.411 5.12125C116.847 3.87999 115.729 3.34154 114.521 3.0709C112.882 2.70391 111.25 2.8201 109.695 3.57959C107.767 4.52046 106.979 6.67708 107.296 8.51347C107.702 10.8642 109.122 12.0545 111.562 12.437C113.253 12.702 114.84 12.617 116.295 11.601C117.09 11.047 117.407 10.2379 117.713 9.34097H122.067C122.062 11.5146 120.03 13.4629 118.156 14.2366C116.328 14.9918 114.396 15.3135 112.431 15.21C109.888 15.0754 107.412 14.6362 105.327 12.9996C103.799 11.8008 102.865 10.3314 102.699 8.35193C102.51 6.09187 103.305 4.24131 104.938 2.77476C106.348 1.50799 108.107 0.83918 109.985 0.511861C110.543 0.41409 111.101 0.323404 111.659 0.229885C112.462 0.229885 113.267 0.229885 114.071 0.229885V0.227051Z" fill="black"/>
<path d="M0 0.647949H17.165C17.165 1.42303 17.1692 2.15985 17.1636 2.89667C17.1593 3.3586 16.8101 3.30901 16.5034 3.31043C14.8978 3.31043 13.2908 3.31043 11.6851 3.31043C11.4552 3.31043 11.2252 3.31043 10.9242 3.31043C10.9242 3.62499 10.9242 3.87438 10.9242 4.12518C10.9242 7.48623 10.9114 10.8473 10.937 14.2083C10.9412 14.802 10.7496 14.982 10.1647 14.9579C9.17378 14.9182 8.18144 14.9465 7.18911 14.9465C6.55973 14.9465 6.24457 14.6452 6.24362 14.0425C6.24362 10.7523 6.24362 7.46072 6.24362 4.17053C6.24362 3.91689 6.24362 3.66325 6.24362 3.31326H0V0.647949Z" fill="black"/>
<path d="M189.391 10.2025V0.69037H193.663C193.663 0.891579 193.663 1.11263 193.663 1.33367C193.663 5.61007 193.651 9.88506 193.676 14.1615C193.678 14.7708 193.512 15.0003 192.878 14.9592C192.124 14.9096 191.354 14.8657 190.611 14.9663C189.493 15.1179 188.731 14.6588 188.075 13.8497C187.55 13.2022 187.003 12.5716 186.441 11.9552C184.59 9.92474 182.727 7.90556 180.87 5.88072C180.743 5.74185 180.626 5.59449 180.325 5.49247V6.11877C180.325 8.80533 180.307 11.4933 180.339 14.1799C180.348 14.8133 180.134 14.9876 179.523 14.9606C178.532 14.9181 177.537 14.9394 176.545 14.9535C176.153 14.9592 175.923 14.8756 175.923 14.4179C175.933 9.86381 175.929 5.30968 175.929 0.650695C176.988 0.650695 178.04 0.782473 179.042 0.618105C180.41 0.394224 181.149 1.17072 181.91 2.0124C182.484 2.64862 183.025 3.31601 183.6 3.95081C185.302 5.83112 187.013 7.70293 188.724 9.57475C188.889 9.7547 189.077 9.91057 189.39 10.2039L189.391 10.2025Z" fill="black"/>
<path d="M23.4084 8.82796C23.4084 10.6488 23.3885 12.4214 23.4197 14.1926C23.4297 14.7622 23.2735 14.9804 22.6645 14.9592C21.3996 14.9167 20.1318 14.9464 18.8428 14.9464V0.703077H23.3913V6.11589C24.1437 6.11589 24.8209 6.11589 25.4995 6.11589C27.4132 6.11589 29.3269 6.10172 31.2406 6.12581C31.7673 6.13289 31.9419 5.96144 31.9334 5.44141C31.9064 3.87991 31.9234 2.317 31.9234 0.70166H36.4294C36.4408 0.919873 36.4606 1.14517 36.4606 1.36905C36.462 5.61853 36.4507 9.86659 36.4748 14.1161C36.4791 14.7424 36.3371 14.9918 35.6528 14.962C34.4504 14.9082 33.2437 14.9464 31.9632 14.9464V8.82796H23.4098H23.4084Z" fill="black"/>
<path d="M39.756 0.664795H55.4687C55.4687 1.43846 55.5042 2.2022 55.4361 2.95603C55.4233 3.09347 54.9889 3.29327 54.7461 3.29468C51.5775 3.31735 48.4102 3.31027 45.2416 3.31027C44.9874 3.31027 44.7319 3.31027 44.4437 3.31027V6.2278H54.4366V8.76134H44.4579V12.2768H55.6135C55.6135 13.0703 55.6121 13.7887 55.6135 14.5071C55.6149 14.962 55.2969 14.9478 54.9761 14.9478C53.5096 14.945 52.0445 14.9478 50.578 14.9478C47.1964 14.9478 43.8162 14.9407 40.4346 14.9563C39.9392 14.9591 39.712 14.8515 39.7149 14.3003C39.7333 9.88499 39.7248 5.46973 39.7262 1.05446C39.7262 0.94252 39.7418 0.83058 39.7532 0.667629L39.756 0.664795Z" fill="black"/>
<path d="M140.175 0.69751C140.175 1.35498 140.141 1.96144 140.185 2.56365C140.227 3.14744 140.019 3.3274 139.424 3.32315C136.258 3.29764 133.091 3.31181 129.925 3.31181C129.689 3.31181 129.455 3.31181 129.166 3.31181V6.25768C129.404 6.25768 129.654 6.25768 129.904 6.25768C132.763 6.25768 135.622 6.27327 138.481 6.24493C139.107 6.23926 139.359 6.37104 139.343 7.0526C139.302 8.77847 139.336 8.77847 137.581 8.77847C134.794 8.77847 132.008 8.77847 129.116 8.77847C129.116 9.84261 129.09 10.8841 129.147 11.9199C129.154 12.0531 129.589 12.267 129.827 12.2685C133.017 12.2911 136.207 12.284 139.397 12.284C139.724 12.284 140.05 12.284 140.459 12.284C140.459 13.0733 140.479 13.8129 140.44 14.5498C140.433 14.6872 140.198 14.8162 140.06 14.9409C140.033 14.9649 139.969 14.9465 139.921 14.9465C134.841 14.9465 129.762 14.9465 124.627 14.9465V0.69751H140.176H140.175Z" fill="black"/>
<path d="M82.019 14.9464C82.5428 13.9474 82.9815 13.0746 83.4529 12.2187C84.4395 10.4305 85.4475 8.65364 86.4398 6.86826C87.5329 4.90293 88.6133 2.9291 89.722 0.97085C89.81 0.814984 90.0656 0.666202 90.2459 0.661951C91.6158 0.636446 92.9886 0.636446 94.3586 0.661951C94.5375 0.664785 94.7887 0.826319 94.8768 0.983603C95.8819 2.79023 96.8543 4.61245 97.8481 6.42475C99.2294 8.93987 100.622 11.4479 102.008 13.9602C102.151 14.2209 102.269 14.4972 102.436 14.8444C102.218 14.8826 102.046 14.9393 101.874 14.9407C100.669 14.9478 99.4622 14.9705 98.2584 14.9237C98.0043 14.9138 97.6593 14.6927 97.5301 14.4717C97.09 13.7179 96.7067 12.9286 96.3475 12.1323C96.197 11.8007 96.0068 11.7115 95.659 11.7143C93.3663 11.7285 91.0735 11.7115 88.7794 11.737C88.5593 11.7398 88.2498 11.9027 88.1405 12.0855C87.6806 12.8549 87.3029 13.6711 86.8444 14.4405C86.7138 14.6602 86.4157 14.9152 86.1857 14.9223C84.8654 14.9676 83.5423 14.945 82.0176 14.945L82.019 14.9464ZM92.2604 4.08817C91.3234 5.87355 90.4333 7.56824 89.5233 9.30544H94.8966C94.0207 7.57108 93.1732 5.89481 92.2618 4.08817H92.2604Z" fill="black"/>
<path d="M69.2376 0.679103H83.8003V3.2849H73.8316V6.517H82.5312V8.91734C82.2983 8.91734 82.0513 8.91734 81.8029 8.91734C79.3682 8.91734 76.9335 8.93151 74.4988 8.90601C73.9451 8.90034 73.7492 9.05621 73.762 9.62157C73.7961 11.1618 73.7506 12.7049 73.7861 14.2451C73.7989 14.8148 73.5945 14.9735 73.0451 14.955C71.9832 14.9196 70.9184 14.9366 69.8551 14.9494C69.4661 14.9536 69.2305 14.8771 69.2305 14.4166C69.239 9.86388 69.2361 5.30975 69.2361 0.67627L69.2376 0.679103Z" fill="black"/>
<path d="M208.096 0.647903C209.82 0.647903 211.378 0.633733 212.936 0.66349C213.176 0.66774 213.478 0.820773 213.638 1.00214C214.634 2.12863 215.593 3.28488 216.571 4.42553C217.01 4.93706 217.456 5.4415 217.922 5.92752C218.002 6.01254 218.278 6.06071 218.326 6.00687C219.199 5.01924 220.052 4.0132 220.908 3.0114C221.509 2.30859 222.097 1.5916 222.721 0.908625C222.855 0.76126 223.119 0.662073 223.325 0.659239C224.837 0.637984 226.347 0.647903 227.998 0.647903C227.835 0.895872 227.74 1.08575 227.604 1.24019C225.707 3.40107 223.806 5.55769 221.905 7.71431C221.583 8.07989 221.312 8.51348 220.927 8.79404C220.311 9.2418 220.324 9.82843 220.331 10.4661C220.346 11.9326 220.335 13.3978 220.335 14.9423C218.92 14.9423 217.557 14.9593 216.197 14.9153C216.058 14.9111 215.82 14.5427 215.815 14.3386C215.781 12.916 215.776 11.4905 215.806 10.0665C215.818 9.51386 215.622 9.11994 215.254 8.71186C213.783 7.07384 212.362 5.39474 210.907 3.74397C210.02 2.73793 209.103 1.75455 208.095 0.646486L208.096 0.647903Z" fill="black"/>
<path d="M201.583 12.3011H211.823C211.823 13.0691 211.82 13.7875 211.823 14.5059C211.824 14.9607 211.508 14.948 211.187 14.9466C209.438 14.9437 207.688 14.9466 205.939 14.9466C203.172 14.9466 200.406 14.9423 197.639 14.9508C197.213 14.9508 196.918 14.9239 196.921 14.3685C196.938 9.88234 196.931 5.39764 196.935 0.911529C196.935 0.846349 196.965 0.781168 196.988 0.684814H201.584V12.3011H201.583Z" fill="black"/>
<path d="M66.3587 10.5695H57.6562V8.2627H66.3587V10.5695Z" fill="black"/>
<path d="M151.072 8.27124V10.5596H142.343V8.27124H151.072Z" fill="black"/>
</g>
<defs>
<clipPath id="clip0_4132_18196">
<rect width="228" height="15" fill="white" transform="translate(0 0.227051)"/>
</clipPath>
</defs>
</svg>
