<svg width="137" height="42" viewBox="0 0 137 42" fill="none" xmlns="http://www.w3.org/2000/svg">
<g clip-path="url(#clip0_4132_18446)">
<path fill-rule="evenodd" clip-rule="evenodd" d="M25.2607 40.7946V40.2096C25.951 40.1842 26.4367 40.1079 26.769 39.9807C27.0758 39.8536 27.2803 39.6246 27.4081 39.294C27.5359 38.9634 27.5871 38.4547 27.5871 37.7171V23.5248C27.5871 22.8126 27.5104 22.2785 27.4081 21.9478C27.2803 21.6172 27.0502 21.3883 26.769 21.2866C26.4622 21.1594 25.9765 21.0831 25.2607 21.0576V20.4727C26.0532 20.5235 27.2803 20.549 28.9419 20.549C30.5013 20.549 31.7284 20.5235 32.5976 20.4727V21.0576C31.9074 21.0831 31.3961 21.1594 31.0893 21.2866C30.7825 21.4137 30.578 21.6426 30.4502 21.9478C30.3224 22.2785 30.2713 22.7872 30.2713 23.5248V30.0105C31.7028 29.9851 32.8277 29.4255 33.6713 28.3573L36.4322 24.8728C37.4036 23.6519 37.8893 22.7363 37.8893 22.1259C37.8893 21.4646 37.3013 21.1085 36.0998 21.0831V20.4981C37.1991 20.549 38.2983 20.5744 39.4231 20.5744C40.4713 20.5744 41.2893 20.549 41.8773 20.4981V21.0831C40.5735 21.2611 39.4232 21.9733 38.4773 23.1687L33.0322 30.0359C33.7735 30.0614 34.4126 30.1631 35.0006 30.2903C35.563 30.4174 36.1254 30.6464 36.6367 30.9516C37.148 31.2568 37.6081 31.6637 37.966 32.2233C38.3239 32.7574 38.6051 33.4187 38.7841 34.2071L39.6277 37.8188C39.8577 38.7344 40.0367 39.3703 40.2156 39.6755C40.3946 39.9807 40.6758 40.1588 41.0337 40.1588C41.366 40.1588 41.6216 40.0825 41.8262 39.9044C42.0307 39.7264 42.2863 39.4466 42.6186 39.0651L43.0532 39.3703C42.6186 40.0062 42.1841 40.464 41.7495 40.7437C41.3149 41.049 40.7269 41.2016 39.9856 41.2016C39.2442 41.2016 38.5795 40.9727 38.0683 40.5403C37.557 40.1079 37.1735 39.294 36.8923 38.0986L36.0743 34.5632C35.972 34.1563 35.8953 33.8256 35.8442 33.5713C35.7675 33.3424 35.6908 33.0626 35.5886 32.732C35.4863 32.4013 35.3585 32.147 35.2307 31.9689C35.1028 31.7909 34.975 31.5874 34.7705 31.3839C34.566 31.1805 34.3615 31.0279 34.1314 30.9261C33.9013 30.8244 33.6201 30.7227 33.2878 30.6718C32.9555 30.5955 32.5976 30.5701 32.1886 30.5701H30.2713V37.7679C30.2713 38.4801 30.3224 39.0142 30.4502 39.3449C30.578 39.6755 30.7825 39.9044 31.0893 40.0316C31.3961 40.1588 31.8818 40.2351 32.5976 40.2605V40.8455C31.7028 40.7946 30.5013 40.7692 28.9419 40.7692C27.3059 40.6929 26.0788 40.7183 25.2607 40.7946Z" fill="black"/>
<path fill-rule="evenodd" clip-rule="evenodd" d="M49.8015 32.0198H51.7444C52.5369 32.0198 53.2271 31.9181 53.8151 31.7146C54.403 31.5111 54.8888 31.2568 55.2467 30.9261C55.6045 30.5955 55.9113 30.1885 56.1414 29.7053C56.3715 29.222 56.5248 28.7134 56.6015 28.2047C56.6782 27.696 56.7294 27.1364 56.7294 26.5006C56.7294 24.6439 56.3715 23.2959 55.6301 22.4057C54.8888 21.5155 53.6617 21.0831 51.9745 21.0831C51.1053 21.0831 50.5173 21.2357 50.2617 21.5663C49.9805 21.897 49.8527 22.5583 49.8527 23.5502V32.0198H49.8015ZM44.791 40.7946V40.2096C45.4812 40.1842 45.967 40.1079 46.2993 39.9807C46.6061 39.8536 46.8106 39.6246 46.9384 39.294C47.0662 38.9634 47.1173 38.4547 47.1173 37.7171V23.5248C47.1173 22.8126 47.0406 22.2785 46.9384 21.9478C46.8106 21.6172 46.5805 21.3883 46.2993 21.2866C45.9925 21.1594 45.5068 21.0831 44.791 21.0576V20.4727C45.5835 20.5235 46.7594 20.549 48.2933 20.549C48.9835 20.549 49.8527 20.549 50.8752 20.5235C51.8978 20.4981 52.4858 20.4981 52.6391 20.4981C54.8888 20.4981 56.6271 21.0068 57.803 22.0496C58.979 23.067 59.5925 24.4404 59.5925 26.1699C59.5925 26.7803 59.5158 27.3399 59.388 27.8995C59.2602 28.459 59.0046 29.0186 58.6211 29.6036C58.2632 30.1885 57.803 30.6972 57.2662 31.1296C56.7038 31.562 55.988 31.9181 55.0933 32.1724C54.1985 32.4522 53.176 32.5794 52.0256 32.5794H49.8015V37.7425C49.8015 38.2766 49.8271 38.709 49.9038 38.9888C49.9805 39.294 50.1339 39.5229 50.3639 39.7009C50.594 39.879 50.8752 40.0062 51.2331 40.057C51.591 40.1333 52.0767 40.1588 52.7158 40.1842V40.7692C51.7188 40.7183 50.2873 40.6929 48.4722 40.6929C46.8361 40.6929 45.6091 40.7183 44.791 40.7946Z" fill="black"/>
<path fill-rule="evenodd" clip-rule="evenodd" d="M63.9895 32.5285H70.5083L67.2872 23.9826L63.9895 32.5285ZM59.0557 40.7946V40.2096C60.0015 39.9807 60.7684 39.1668 61.3053 37.717L68.0797 20.3455H68.5399L75.5444 38.3783C76.0045 39.5483 76.6948 40.1842 77.5384 40.2096V40.7946C76.7459 40.7437 75.7233 40.7183 74.4451 40.7183C72.809 40.7183 71.582 40.7437 70.7639 40.7946V40.2096C71.5053 40.1842 72.0166 40.0824 72.3489 39.9553C72.6557 39.8027 72.809 39.5483 72.809 39.1668C72.809 38.8362 72.7068 38.4038 72.4767 37.8188L70.7128 33.1135H63.7594L62.5835 36.1401C62.2 37.1066 61.9955 37.8951 61.9955 38.5055C61.9955 39.1159 62.2 39.5483 62.609 39.8027C63.0181 40.057 63.6572 40.2096 64.5008 40.2096V40.7946C63.4015 40.7437 62.3023 40.7183 61.1775 40.7183C60.3339 40.6929 59.6181 40.7437 59.0557 40.7946Z" fill="black"/>
<path fill-rule="evenodd" clip-rule="evenodd" d="M78.5357 30.7991C78.5357 28.6881 78.9192 26.8314 79.7117 25.2036C80.5041 23.5758 81.5778 22.3041 82.9583 21.4139C84.3387 20.5237 85.9237 20.0913 87.6876 20.0913C88.838 20.0913 89.8094 20.2693 90.6274 20.5746C91.4455 20.8798 92.2124 21.363 93.0049 21.948C93.2094 22.126 93.3883 22.2024 93.5673 22.2024C93.9508 22.2024 94.2064 21.6428 94.3087 20.4983H94.9733C94.8966 21.7445 94.8455 23.9319 94.8455 27.0857H94.1808C93.9763 25.8394 93.7974 24.9492 93.6184 24.4151C93.4395 23.881 93.1583 23.3469 92.7493 22.8382C92.1613 22.1006 91.4199 21.5411 90.5508 21.1595C89.656 20.778 88.7102 20.6 87.662 20.6C85.7703 20.6 84.262 21.5156 83.1372 23.3215C82.0124 25.1273 81.4244 27.5944 81.4244 30.672C81.4244 33.7495 82.038 36.2166 83.2395 37.9716C84.441 39.7265 86.0259 40.5913 87.9177 40.5913C88.8635 40.5913 89.8094 40.4133 90.7041 40.0318C91.5989 39.6757 92.3147 39.1161 92.8259 38.3785C93.235 37.8698 93.4906 37.2849 93.6696 36.6744C93.8485 36.064 94.0019 35.1229 94.1553 33.8512H94.8199C94.8199 37.1577 94.8711 39.4468 94.9478 40.7439H94.2831C94.232 40.1335 94.1553 39.7011 94.053 39.4468C93.9508 39.1924 93.7974 39.0398 93.5929 39.0398C93.4395 39.0398 93.235 39.1161 93.0049 39.2687C92.1357 39.8792 91.3177 40.337 90.5252 40.6422C89.7327 40.9474 88.7868 41.1254 87.6876 41.1254C84.9011 41.1254 82.7026 40.2098 81.041 38.3531C79.3538 36.5981 78.5102 34.0547 78.5357 30.7991Z" fill="black"/>
<path fill-rule="evenodd" clip-rule="evenodd" d="M101.236 30.6974C101.236 33.6732 101.85 36.0894 103.051 37.9207C104.278 39.752 105.787 40.6676 107.602 40.6676C108.829 40.6676 109.903 40.2352 110.848 39.3959C111.794 38.5566 112.51 37.3357 112.996 35.8351C113.507 34.3091 113.737 32.5541 113.737 30.5957C113.737 27.6198 113.124 25.2036 111.922 23.3723C110.695 21.5411 109.187 20.6254 107.397 20.6254C106.17 20.6254 105.097 21.0578 104.151 21.8971C103.205 22.7619 102.489 23.9573 101.978 25.4579C101.492 26.984 101.236 28.7135 101.236 30.6974ZM98.3477 30.7991C98.3477 28.6881 98.7311 26.8314 99.5236 25.2036C100.291 23.5758 101.39 22.3041 102.77 21.4139C104.151 20.5237 105.736 20.0913 107.5 20.0913C110.286 20.0913 112.484 21.0069 114.146 22.8636C115.808 24.6949 116.626 27.2383 116.626 30.4939C116.626 32.605 116.242 34.4617 115.45 36.0894C114.683 37.7172 113.584 38.989 112.203 39.8791C110.823 40.7693 109.238 41.2272 107.474 41.2272C104.688 41.2272 102.489 40.3115 100.827 38.4548C99.1657 36.5981 98.3477 34.0547 98.3477 30.7991Z" fill="black"/>
<path fill-rule="evenodd" clip-rule="evenodd" d="M119.156 40.7946V40.2096C119.846 40.1842 120.332 40.1079 120.665 39.9807C120.971 39.8536 121.176 39.6246 121.304 39.294C121.431 38.9634 121.483 38.4547 121.483 37.7171V23.5248C121.483 22.8126 121.406 22.2785 121.304 21.9478C121.176 21.6172 120.946 21.3883 120.665 21.2866C120.358 21.1594 119.872 21.0831 119.156 21.0576V20.4727C119.949 20.5235 121.176 20.549 122.837 20.549C124.397 20.549 125.624 20.5235 126.493 20.4727V21.0576C125.803 21.0831 125.292 21.1594 124.985 21.2866C124.678 21.4137 124.474 21.6426 124.346 21.9478C124.218 22.2785 124.167 22.7872 124.167 23.5248V30.0105C125.598 29.9851 126.723 29.4255 127.567 28.3573L130.328 24.8473C131.299 23.6265 131.785 22.7109 131.785 22.1004C131.785 21.4392 131.197 21.0831 129.995 21.0576V20.4727C131.095 20.5235 132.194 20.549 133.319 20.549C134.367 20.549 135.185 20.5235 135.773 20.4727V21.0576C134.469 21.2357 133.319 21.9478 132.373 23.1433L126.928 30.0105C127.669 30.0359 128.308 30.1377 128.896 30.2648C129.484 30.392 130.021 30.6209 130.532 30.9261C131.069 31.2313 131.504 31.6383 131.862 32.1978C132.219 32.732 132.501 33.3933 132.68 34.1817L133.523 37.7934C133.753 38.709 133.932 39.3449 134.111 39.6501C134.29 39.9553 134.571 40.1333 134.929 40.1333C135.262 40.1333 135.517 40.057 135.722 39.879C135.926 39.7009 136.182 39.4212 136.514 39.0397L136.949 39.3449C136.514 39.9807 136.08 40.4385 135.645 40.7183C135.21 41.0235 134.622 41.1761 133.881 41.1761C133.14 41.1761 132.475 40.9472 131.964 40.5148C131.452 40.0825 131.069 39.2686 130.788 38.0732L129.97 34.5378C129.868 34.1308 129.791 33.8002 129.74 33.5459C129.689 33.3169 129.586 33.0372 129.484 32.7065C129.382 32.3759 129.254 32.1215 129.126 31.9435C128.998 31.7655 128.871 31.562 128.666 31.3585C128.487 31.155 128.257 31.0024 128.027 30.9007C127.797 30.799 127.516 30.6972 127.183 30.6464C126.851 30.5701 126.493 30.5446 126.084 30.5446H124.167V37.7425C124.167 38.4547 124.218 38.9888 124.346 39.3194C124.474 39.6501 124.678 39.879 124.985 40.0062C125.292 40.1333 125.777 40.2096 126.493 40.2351V40.8201C125.598 40.7692 124.397 40.7437 122.837 40.7437C121.176 40.6929 119.949 40.7183 119.156 40.7946Z" fill="black"/>
<path fill-rule="evenodd" clip-rule="evenodd" d="M1.79297 20.2439C2.25312 20.3456 3.76139 20.3965 6.31778 20.3965H13.0922V21.0324C12.811 21.6936 12.402 22.5075 11.8907 23.5249C11.3794 24.5423 10.8937 25.4834 10.4591 26.3227C10.0245 27.1874 9.61553 28.1539 9.18094 29.2476C8.74635 30.3413 8.41402 31.4858 8.18395 32.7321C7.95387 33.9784 7.82605 35.2501 7.85162 36.5727C7.85162 36.9033 7.87718 37.3611 7.90274 37.8953C7.92831 38.4294 7.95387 38.7855 7.95387 38.9889C7.95387 39.4467 7.82605 39.8028 7.57041 40.108C7.31477 40.3878 6.95688 40.5404 6.52229 40.5404C6.06214 40.5404 5.72981 40.3624 5.47417 40.0317C5.21853 39.7011 5.11628 39.2941 5.11628 38.7855C5.11628 37.7935 5.21853 36.7762 5.42304 35.7588C5.62756 34.716 5.88319 33.8003 6.18996 32.961C6.49673 32.1217 6.88019 31.2061 7.39147 30.1633C7.90274 29.1204 8.36289 28.2811 8.74635 27.6198C9.12981 26.9585 9.64109 26.0938 10.2802 25.0255C10.9193 23.9827 11.3794 23.1688 11.6862 22.6093H4.45162C3.65913 22.6093 3.12229 22.7365 2.86665 22.9654C2.63658 23.2197 2.45763 23.703 2.35537 24.4914H1.92079C1.92079 22.533 1.86966 21.1087 1.79297 20.2439Z" fill="black"/>
<path fill-rule="evenodd" clip-rule="evenodd" d="M3.91463 10.7822C3.91463 11.3672 3.99132 11.7487 4.14471 11.9267C4.32365 12.1048 4.65599 12.1811 5.19283 12.1811C7.31463 12.1811 8.38832 11.1891 8.38832 9.23069C8.38832 8.3405 8.13268 7.65377 7.67253 7.19595C7.18681 6.73814 6.41989 6.50923 5.37177 6.50923H3.9402V10.7822H3.91463ZM3.91463 6.20402H5.06501C5.55072 6.20402 5.95974 6.12772 6.29208 5.97511C6.62441 5.82251 6.88005 5.61903 7.05899 5.36469C7.23794 5.08491 7.36576 4.80514 7.44245 4.49992C7.51914 4.19471 7.54471 3.83863 7.54471 3.43169C7.54471 2.59236 7.36576 1.9565 6.9823 1.52412C6.59884 1.11717 5.98531 0.888262 5.16726 0.888262C4.65599 0.888262 4.32365 0.989999 4.14471 1.16804C3.96576 1.37151 3.88907 1.75303 3.88907 2.33801L3.91463 6.20402ZM0.949219 12.5626V12.2319C1.35824 12.2065 1.63944 12.1811 1.84396 12.1048C2.0229 12.0285 2.15072 11.9013 2.22741 11.6978C2.30411 11.4943 2.35523 11.1891 2.35523 10.7822V2.36345C2.35523 1.93107 2.30411 1.62586 2.22741 1.44782C2.15072 1.24434 2.0229 1.11717 1.84396 1.04087C1.66501 0.964565 1.35824 0.939131 0.949219 0.913697V0.557617C1.40937 0.583051 2.12516 0.608486 3.0199 0.608486C3.42892 0.608486 3.9402 0.608486 4.55373 0.583051H5.60185C6.75223 0.583051 7.64696 0.837394 8.2605 1.32064C8.87403 1.8039 9.1808 2.46519 9.1808 3.25365C9.1808 3.91494 8.97629 4.49992 8.56726 5.00861C8.15824 5.51729 7.49358 5.92424 6.59884 6.20402V6.22945C7.2635 6.30576 7.80035 6.45836 8.2605 6.66184C8.72065 6.86531 9.07854 7.09422 9.33418 7.37399C9.58982 7.65377 9.76877 7.95898 9.89659 8.26419C9.99884 8.5694 10.0755 8.92548 10.0755 9.28156C10.0755 10.2481 9.71764 11.0365 8.97629 11.6469C8.23493 12.2574 7.2635 12.5626 5.98531 12.5626C5.88305 12.5626 5.52516 12.5626 4.83493 12.5371C4.17027 12.5117 3.5823 12.5117 3.04546 12.5117C2.12516 12.5371 1.40937 12.5371 0.949219 12.5626Z" fill="black"/>
<path fill-rule="evenodd" clip-rule="evenodd" d="M13.5522 7.67934H17.4123L15.495 2.64336L13.5522 7.67934ZM10.6123 12.5627V12.2321C11.1747 12.1049 11.6349 11.6216 11.9416 10.7569L15.9807 0.481445H16.2619L20.4033 11.1638C20.6845 11.8506 21.0679 12.2321 21.5792 12.2575V12.5881C21.1191 12.5627 20.5055 12.5373 19.7386 12.5373C18.7672 12.5373 18.0514 12.5627 17.5657 12.5881V12.2575C18.0003 12.2321 18.307 12.1812 18.486 12.1049C18.6649 12.0032 18.7672 11.8506 18.7672 11.6216C18.7672 11.4182 18.6905 11.1638 18.5627 10.8332L17.5146 8.06085H13.4243L12.7341 9.81581C12.504 10.3754 12.4018 10.8586 12.4018 11.2147C12.4018 11.5708 12.5296 11.8251 12.7597 11.9777C13.0153 12.1303 13.3732 12.2066 13.8845 12.2321V12.5627C13.2454 12.5373 12.5807 12.5118 11.9161 12.5118C11.3792 12.5118 10.9702 12.5373 10.6123 12.5627Z" fill="black"/>
<path fill-rule="evenodd" clip-rule="evenodd" d="M21.8604 12.5626V12.2319C22.2694 12.2065 22.5506 12.1811 22.7551 12.1048C22.934 12.0285 23.0619 11.9013 23.1385 11.6978C23.2152 11.4943 23.2408 11.1891 23.2408 10.7822V2.36345C23.2408 1.93107 23.2152 1.62586 23.1385 1.44782C23.0619 1.24434 22.934 1.11717 22.7551 1.04087C22.5761 0.964565 22.2694 0.913697 21.8604 0.913697V0.557617C22.3205 0.583051 23.0619 0.608486 24.0333 0.608486C24.9536 0.608486 25.6694 0.583051 26.2062 0.557617V0.888262C25.7972 0.913697 25.516 0.964565 25.3115 1.01543C25.1325 1.09174 25.0047 1.21891 24.928 1.42238C24.8513 1.62586 24.8258 1.93107 24.8258 2.33801V10.7567C24.8258 11.3672 24.9025 11.7487 25.0814 11.9267C25.2604 12.1048 25.6182 12.1811 26.2062 12.1811H27.4588C27.9957 12.1811 28.4303 12.1302 28.7626 12.0285C29.0949 11.9267 29.3506 11.7487 29.5551 11.4689C29.7596 11.1891 29.913 10.8839 29.9897 10.5024C30.0919 10.1463 30.1686 9.63764 30.2453 9.00179H30.6288C30.6032 9.35787 30.5776 9.81568 30.5776 10.4007C30.5776 11.0365 30.6288 11.7741 30.7055 12.5626C29.9385 12.5371 28.6348 12.5117 26.7942 12.5117C24.6213 12.5117 22.9596 12.5371 21.8604 12.5626Z" fill="black"/>
<path fill-rule="evenodd" clip-rule="evenodd" d="M31.8818 12.5626V12.2319C32.2909 12.2065 32.5721 12.1811 32.7766 12.1048C32.9555 12.0285 33.0833 11.9013 33.16 11.6978C33.2367 11.4943 33.2879 11.1891 33.2879 10.7822V2.36345C33.2879 1.93107 33.2367 1.62586 33.16 1.44782C33.0833 1.24434 32.9555 1.11717 32.7766 1.04087C32.5976 0.964565 32.3164 0.913697 31.8818 0.913697V0.557617C32.342 0.583051 33.0833 0.608486 34.0548 0.608486C34.9751 0.608486 35.6909 0.583051 36.2277 0.557617V0.888262C35.8187 0.913697 35.5375 0.964565 35.333 1.01543C35.154 1.09174 35.0262 1.21891 34.9495 1.42238C34.8728 1.62586 34.8473 1.93107 34.8473 2.33801V10.7567C34.8473 11.1891 34.8728 11.4943 34.9495 11.6724C35.0262 11.8759 35.154 12.003 35.333 12.0793C35.5119 12.1556 35.7931 12.2065 36.2277 12.2065V12.5371C35.7164 12.5117 34.9751 12.4863 34.0548 12.4863C33.0833 12.5117 32.342 12.5371 31.8818 12.5626Z" fill="black"/>
<path fill-rule="evenodd" clip-rule="evenodd" d="M42.1074 8.59492C42.1074 8.1371 42.1841 7.70472 42.3631 7.29777C42.542 6.89082 42.7465 6.58561 42.9766 6.33127C43.2322 6.07693 43.4879 5.84802 43.8202 5.64454C44.127 5.44107 44.4082 5.28847 44.6638 5.21216C44.9195 5.11043 45.124 5.03412 45.354 4.98325C44.7916 4.75435 44.3826 4.4237 44.0758 4.04219C43.7946 3.63524 43.6413 3.22829 43.6413 2.79591C43.6413 2.21092 43.8969 1.70224 44.4082 1.26985C44.9195 0.862907 45.6097 0.633999 46.5044 0.633999C47.2713 0.633999 47.8593 0.812038 48.2683 1.14268C48.6773 1.49876 48.9074 1.88028 48.9074 2.31266C48.9074 2.59244 48.8052 2.79591 48.6262 2.97395C48.4473 3.15199 48.2172 3.22829 47.9616 3.22829C47.7059 3.22829 47.5014 3.15199 47.348 2.99938C47.1691 2.84678 47.0924 2.6433 47.0924 2.38896C47.0924 2.13462 47.1691 1.93115 47.348 1.77854C47.527 1.6005 47.7315 1.49876 48.0127 1.47333C47.9616 1.32072 47.8082 1.19355 47.5781 1.09182C47.348 0.990078 47.0668 0.93921 46.7089 0.93921C46.121 0.93921 45.6352 1.11725 45.2773 1.47333C44.9195 1.82941 44.7405 2.31266 44.7405 2.97395C44.7405 3.73698 45.0217 4.37283 45.6097 4.90695C45.9931 4.83065 46.351 4.80521 46.6578 4.80521C46.8623 4.80521 47.0413 4.83065 47.1691 4.90695C47.2969 4.98325 47.348 5.05956 47.348 5.18673C47.348 5.28847 47.2969 5.36477 47.2202 5.41564C47.1435 5.46651 47.0157 5.49194 46.8623 5.49194C46.6067 5.49194 46.1976 5.36477 45.6352 5.13586C44.1525 5.56824 43.4367 6.48387 43.4367 7.90819C43.4367 8.64579 43.6413 9.30708 44.0503 9.8412C44.4593 10.4007 44.9961 10.8077 45.6864 11.0875C46.3766 11.3672 47.1435 11.4944 47.9871 11.4944C48.7796 11.4944 49.521 11.3672 50.2112 11.1383C50.8758 10.9094 51.4127 10.5534 51.8217 10.0701C52.2307 9.61229 52.4352 9.05273 52.4352 8.44231C52.4352 8.26427 52.4097 8.0608 52.3586 7.85732C52.3074 7.65385 52.2307 7.45038 52.1285 7.19603C52.0007 6.94169 51.8217 6.71278 51.5661 6.48387C51.3104 6.25497 51.0037 6.07693 50.6202 5.92432C49.6743 6.22953 49.0097 6.43301 48.6518 6.58561C48.2172 6.76365 47.8849 6.99256 47.6292 7.22147C47.3736 7.45038 47.2713 7.75559 47.2713 8.08623C47.2713 8.49318 47.4503 8.82382 47.7826 9.07817C48.1149 9.33251 48.4728 9.45968 48.8307 9.45968C49.0352 9.45968 49.2398 9.43425 49.4698 9.35794C49.6999 9.28164 49.8277 9.20534 49.8533 9.07817C49.6488 9.05273 49.4443 8.951 49.2909 8.82382C49.1375 8.69665 49.0608 8.49318 49.0608 8.23884C49.0608 7.9845 49.1631 7.75559 49.3164 7.60298C49.4954 7.42494 49.7255 7.34864 49.9811 7.34864C50.2623 7.34864 50.4668 7.42494 50.6458 7.60298C50.8247 7.78102 50.9014 7.9845 50.9014 8.26427C50.9014 8.56948 50.7992 8.82382 50.5691 9.05273C50.3646 9.28164 50.1089 9.43425 49.8022 9.56142C49.4954 9.66316 49.1886 9.71402 48.8819 9.71402C48.6262 9.71402 48.3961 9.68859 48.1405 9.58685C47.9104 9.51055 47.6804 9.38338 47.4758 9.23077C47.2713 9.07817 47.0924 8.87469 46.9646 8.59492C46.8367 8.34058 46.7856 8.00993 46.7856 7.67928C46.7856 7.0943 46.9646 6.61105 47.348 6.2041C47.7315 5.79715 48.2939 5.46651 49.0608 5.18673C49.0608 5.18673 49.6488 5.00869 50.7736 4.67804C51.8984 4.3474 52.7164 4.06762 53.2533 3.83871C53.8157 3.58437 54.1992 3.33003 54.4292 3.05025C54.6593 2.77048 54.7616 2.4907 54.7616 2.18549C54.7616 1.72767 54.557 1.32072 54.1736 0.990078C53.7901 0.659433 53.33 0.506827 52.7931 0.506827C52.5119 0.506827 52.333 0.532262 52.2819 0.608564C52.4352 0.684867 52.5375 0.812038 52.6398 0.964644C52.7164 1.11725 52.7676 1.26985 52.7676 1.42246C52.7676 1.65137 52.6653 1.85484 52.4864 2.00745C52.3074 2.16005 52.0773 2.23636 51.8217 2.23636C51.5916 2.23636 51.3616 2.16005 51.2082 2.00745C51.0292 1.85484 50.9525 1.65137 50.9525 1.39703C50.9525 1.11725 51.0548 0.888341 51.2593 0.710301C51.4638 0.532262 51.6939 0.40509 51.9495 0.328788C52.2052 0.252485 52.5119 0.227051 52.7931 0.227051C53.5089 0.227051 54.0969 0.430525 54.557 0.862907C55.0172 1.26985 55.2473 1.82941 55.2473 2.54157C55.2473 3.07569 55.0939 3.5335 54.7871 3.91502C54.4804 4.29653 54.0969 4.62718 53.5856 4.85608C53.151 5.05956 52.3074 5.33933 51.0037 5.72085C51.6683 5.97519 52.1796 6.38214 52.4864 6.89082C52.7931 7.39951 52.9721 7.98449 52.9721 8.64579C52.9721 9.15447 52.8443 9.66316 52.6142 10.1464C52.3841 10.6297 52.0518 11.062 51.6172 11.4436C51.1826 11.8251 50.6458 12.1303 49.9811 12.3592C49.3164 12.5881 48.6007 12.7153 47.8082 12.7153C47.0668 12.7153 46.351 12.6135 45.6608 12.4101C44.9961 12.2066 44.3826 11.9268 43.8713 11.5707C43.3601 11.2146 42.951 10.7823 42.6443 10.2481C42.3375 9.71402 42.1074 9.23077 42.1074 8.59492Z" fill="black"/>
<path fill-rule="evenodd" clip-rule="evenodd" d="M59.7715 0.557617C60.7173 0.583051 62.3279 0.608486 64.5775 0.608486C66.8271 0.608486 68.4121 0.583051 69.358 0.557617C69.2813 1.37151 69.2301 2.08367 69.2301 2.71953C69.2301 3.30452 69.2557 3.76233 69.2813 4.11841H68.8722C68.8211 3.68603 68.7955 3.32995 68.7444 3.05017C68.6933 2.79583 68.6422 2.51605 68.5655 2.26171C68.4888 2.00737 68.3865 1.77846 68.2843 1.65129C68.182 1.52412 68.0286 1.39695 67.8497 1.26978C67.6707 1.1426 67.4407 1.0663 67.185 1.04087C66.9294 1.01543 66.6226 0.964565 66.2647 0.964565H65.3444V10.6041C65.3444 10.8839 65.37 11.1128 65.3955 11.2909C65.4211 11.4689 65.4722 11.6215 65.5489 11.7487C65.6256 11.8759 65.7279 11.9776 65.8557 12.0285C65.9835 12.0793 66.1625 12.1302 66.3414 12.1556C66.5204 12.1811 66.776 12.2065 67.0828 12.2065V12.5371C66.4692 12.5117 65.6512 12.4863 64.5775 12.4863C63.4271 12.4863 62.6091 12.5117 62.0467 12.5371V12.2065C62.3534 12.1811 62.6091 12.1811 62.788 12.1556C62.967 12.1302 63.1204 12.0793 63.2737 12.0285C63.4016 11.9522 63.5294 11.8759 63.5805 11.7487C63.6572 11.6215 63.7083 11.4689 63.7339 11.2909C63.7595 11.1128 63.785 10.8839 63.785 10.6041V0.964565H62.8647C62.5068 0.964565 62.2001 0.989999 61.9444 1.04087C61.6888 1.09174 61.4843 1.16804 61.2798 1.26978C61.1008 1.39695 60.9474 1.52412 60.8452 1.65129C60.7429 1.77846 60.6407 2.00737 60.564 2.26171C60.4873 2.51605 60.4361 2.79583 60.385 3.05017C60.3339 3.32995 60.3083 3.66059 60.2572 4.11841H59.8482C59.8737 3.76233 59.8993 3.30452 59.8993 2.71953C59.8993 2.08367 59.8482 1.34608 59.7715 0.557617Z" fill="black"/>
<path fill-rule="evenodd" clip-rule="evenodd" d="M70.585 12.5626V12.2319C70.994 12.2065 71.2752 12.1811 71.4797 12.1048C71.6586 12.0285 71.7865 11.9013 71.8632 11.6978C71.9398 11.4943 71.991 11.1891 71.991 10.7822V2.36345C71.991 1.93107 71.9398 1.62586 71.8632 1.44782C71.7865 1.24434 71.6586 1.11717 71.4797 1.04087C71.3008 0.964565 70.994 0.913697 70.585 0.913697V0.557617C71.0707 0.583051 71.7865 0.608486 72.7579 0.608486C73.6782 0.608486 74.394 0.583051 74.9308 0.557617V0.888262C74.5218 0.913697 74.2406 0.964565 74.0361 1.01543C73.8571 1.09174 73.7293 1.21891 73.6526 1.42238C73.5759 1.62586 73.5504 1.93107 73.5504 2.33801V6.33119H79.0977V2.36345C79.0977 1.93107 79.0722 1.62586 78.9699 1.44782C78.8932 1.24434 78.7654 1.11717 78.5865 1.04087C78.4075 0.964565 78.1008 0.913697 77.6917 0.913697V0.557617C78.2286 0.583051 78.9444 0.608486 79.8391 0.608486C80.8105 0.608486 81.5519 0.583051 82.012 0.557617V0.888262C81.603 0.913697 81.3218 0.964565 81.1173 1.01543C80.9383 1.09174 80.8105 1.21891 80.7338 1.42238C80.6571 1.62586 80.6316 1.93107 80.6316 2.33801V10.7567C80.6316 11.1891 80.6571 11.4943 80.7338 11.6724C80.8105 11.8759 80.9383 12.003 81.1173 12.0793C81.2962 12.1556 81.603 12.2065 82.012 12.2065V12.5371C81.5263 12.5117 80.8105 12.4863 79.8391 12.4863C78.9444 12.4863 78.203 12.5117 77.6917 12.5371V12.2065C78.1008 12.1811 78.382 12.1556 78.5865 12.0793C78.7654 12.003 78.8932 11.8759 78.9699 11.6724C79.0466 11.4689 79.0977 11.1637 79.0977 10.7567V6.68727H73.5504V10.7567C73.5504 11.1891 73.5759 11.4943 73.6526 11.6724C73.7293 11.8759 73.8571 12.003 74.0361 12.0793C74.215 12.1556 74.5218 12.2065 74.9308 12.2065V12.5371C74.4195 12.5117 73.6782 12.4863 72.7579 12.4863C71.7865 12.5117 71.0707 12.5371 70.585 12.5626Z" fill="black"/>
<path fill-rule="evenodd" clip-rule="evenodd" d="M85.5657 7.67934H89.4258L87.5085 2.61792L85.5657 7.67934ZM82.6514 12.5627V12.2321C83.2138 12.1049 83.6739 11.6216 83.9807 10.7569L87.9942 0.481445H88.2754L92.4168 11.1638C92.698 11.8506 93.0814 12.2321 93.5927 12.2575V12.5881C93.1326 12.5627 92.519 12.5373 91.7521 12.5373C90.7807 12.5373 90.0649 12.5627 89.5792 12.5881V12.2575C90.0138 12.2321 90.3205 12.1812 90.4995 12.1049C90.6784 12.0032 90.7807 11.8506 90.7807 11.6216C90.7807 11.4182 90.704 11.1638 90.5762 10.8332L89.5281 8.06085H85.4123L84.722 9.86668C84.492 10.4262 84.3897 10.9095 84.3897 11.2656C84.3897 11.6216 84.5175 11.876 84.7476 12.0286C85.0032 12.1812 85.3611 12.2575 85.8724 12.2829V12.6136C85.2333 12.5881 84.5687 12.5627 83.904 12.5627C83.4183 12.5118 82.9837 12.5373 82.6514 12.5627Z" fill="black"/>
<path fill-rule="evenodd" clip-rule="evenodd" d="M93.874 12.5626V12.2319C94.283 12.2065 94.5642 12.1811 94.7688 12.1048C94.9477 12.0285 95.0755 11.9013 95.1522 11.6978C95.2289 11.4943 95.2545 11.1891 95.2545 10.7822V2.36345C95.2545 1.93107 95.2289 1.62586 95.1522 1.44782C95.0755 1.24434 94.9477 1.11717 94.7688 1.04087C94.5898 0.964565 94.283 0.913697 93.874 0.913697V0.557617C94.3342 0.583051 95.0755 0.608486 96.047 0.608486C96.9673 0.608486 97.683 0.583051 98.2199 0.557617V0.888262C97.8109 0.913697 97.5297 0.964565 97.3252 1.01543C97.1462 1.09174 97.0184 1.21891 96.9417 1.42238C96.865 1.62586 96.8394 1.93107 96.8394 2.33801V10.7567C96.8394 11.1891 96.865 11.4943 96.9417 11.6724C97.0184 11.8759 97.1462 12.003 97.3252 12.0793C97.5041 12.1556 97.8109 12.2065 98.2199 12.2065V12.5371C97.7086 12.5117 96.9928 12.4863 96.047 12.4863C95.0755 12.5117 94.3597 12.5371 93.874 12.5626Z" fill="black"/>
<path fill-rule="evenodd" clip-rule="evenodd" d="M99.8564 8.49311V7.52661H106.017V8.49311H99.8564Z" fill="black"/>
<path fill-rule="evenodd" clip-rule="evenodd" d="M108.267 12.6897C108.318 12.0793 108.343 10.7059 108.343 8.62025H108.803C108.829 9.15436 108.906 9.66305 109.034 10.0954C109.161 10.5278 109.34 10.9348 109.57 11.3163C109.8 11.6724 110.107 11.9776 110.491 12.181C110.874 12.3845 111.334 12.4863 111.846 12.4863C112.459 12.4863 112.97 12.3082 113.379 11.9267C113.814 11.5452 114.018 10.9856 114.018 10.248C114.018 9.91739 113.967 9.61218 113.84 9.3324C113.712 9.05263 113.533 8.77285 113.277 8.54394C113.021 8.31503 112.74 8.06069 112.459 7.85722C112.178 7.65374 111.82 7.42484 111.36 7.17049C111.028 6.96702 110.772 6.81441 110.567 6.68724C110.363 6.56007 110.133 6.38203 109.877 6.17856C109.621 5.97508 109.391 5.79705 109.238 5.61901C109.085 5.44097 108.931 5.23749 108.778 4.98315C108.624 4.75424 108.522 4.4999 108.446 4.22012C108.369 3.94035 108.343 3.66057 108.343 3.35536C108.343 2.87211 108.42 2.43972 108.599 2.05821C108.778 1.6767 109.008 1.37149 109.315 1.14258C109.621 0.91367 109.954 0.735631 110.337 0.60846C110.721 0.481288 111.13 0.43042 111.539 0.43042C111.897 0.43042 112.203 0.455854 112.485 0.532157C112.766 0.60846 112.97 0.684762 113.124 0.761065C113.252 0.837368 113.431 0.939105 113.635 1.06628C113.891 1.21888 114.095 1.29518 114.223 1.29518C114.325 1.29518 114.402 1.24432 114.453 1.11714C114.504 0.989973 114.555 0.811934 114.581 0.557591H114.964C114.913 1.21888 114.888 2.36342 114.888 4.01665H114.479C114.453 3.58427 114.376 3.20275 114.249 2.82124C114.121 2.46516 113.967 2.10908 113.737 1.77843C113.507 1.44779 113.226 1.21888 112.894 1.04084C112.536 0.862802 112.127 0.761065 111.692 0.761065C111.079 0.761065 110.567 0.939105 110.184 1.32062C109.826 1.6004 109.621 2.08365 109.621 2.66863C109.621 2.84667 109.647 2.99928 109.647 3.15188C109.673 3.30449 109.724 3.45709 109.8 3.58427C109.877 3.71144 109.928 3.83861 110.005 3.94035C110.082 4.06752 110.184 4.16925 110.312 4.29642C110.44 4.4236 110.567 4.52533 110.644 4.60164C110.746 4.67794 110.874 4.77968 111.053 4.90685C111.232 5.03402 111.36 5.11032 111.488 5.18662C111.59 5.26293 111.769 5.36466 111.973 5.49183C112.203 5.61901 112.357 5.72074 112.485 5.79704C112.791 5.97508 113.047 6.12769 113.226 6.25486C113.431 6.38203 113.635 6.53464 113.865 6.71268C114.121 6.89072 114.3 7.04332 114.453 7.19593C114.606 7.34853 114.76 7.50114 114.913 7.70461C115.067 7.90809 115.194 8.08613 115.271 8.26417C115.348 8.44221 115.424 8.67111 115.476 8.90002C115.527 9.12893 115.552 9.38327 115.552 9.63762C115.552 10.3243 115.373 10.9348 115.041 11.418C114.709 11.9267 114.274 12.2828 113.737 12.5117C113.2 12.7406 112.587 12.8678 111.922 12.8678C111.385 12.8678 110.925 12.8169 110.593 12.6897C110.235 12.5626 109.903 12.4354 109.596 12.2319C109.366 12.0793 109.187 12.003 109.059 12.003C108.957 12.003 108.88 12.0539 108.829 12.181C108.778 12.3082 108.727 12.4863 108.701 12.7406H108.267V12.6897Z" fill="black"/>
<path fill-rule="evenodd" clip-rule="evenodd" d="M120.077 7.37399H121.227C121.687 7.37399 122.096 7.32313 122.454 7.19595C122.812 7.06878 123.093 6.91618 123.298 6.7127C123.502 6.50923 123.681 6.28032 123.809 5.97511C123.937 5.69533 124.039 5.39012 124.09 5.08491C124.141 4.7797 124.167 4.44906 124.167 4.09298C124.167 2.9993 123.937 2.18541 123.502 1.67672C123.068 1.16804 122.352 0.888262 121.329 0.888262C120.818 0.888262 120.486 0.989999 120.307 1.16804C120.128 1.37151 120.051 1.75303 120.051 2.33801L120.077 7.37399ZM117.111 12.5626V12.2319C117.52 12.2065 117.802 12.1811 118.006 12.1048C118.185 12.0285 118.313 11.9013 118.39 11.6978C118.466 11.4943 118.492 11.1891 118.492 10.7822V2.36345C118.492 1.93107 118.466 1.62586 118.39 1.44782C118.313 1.24434 118.185 1.11717 118.006 1.04087C117.827 0.964565 117.52 0.913697 117.111 0.913697V0.557617C117.571 0.583051 118.262 0.608486 119.182 0.608486C119.591 0.608486 120.102 0.608486 120.716 0.583051C121.329 0.583051 121.662 0.557617 121.764 0.557617C123.093 0.557617 124.116 0.862828 124.832 1.47325C125.522 2.08367 125.88 2.89757 125.88 3.91494C125.88 4.27102 125.829 4.60166 125.752 4.93231C125.675 5.26295 125.522 5.5936 125.317 5.94968C125.113 6.30576 124.832 6.58553 124.499 6.83988C124.167 7.09422 123.758 7.29769 123.221 7.4503C122.684 7.6029 122.071 7.67921 121.406 7.67921H120.102V10.7313C120.102 11.062 120.128 11.2909 120.153 11.4689C120.205 11.6469 120.281 11.7996 120.435 11.9013C120.562 12.003 120.741 12.0793 120.946 12.1048C121.15 12.1302 121.432 12.1556 121.815 12.1811V12.5117C121.227 12.4863 120.384 12.4608 119.31 12.4608C118.287 12.5117 117.571 12.5371 117.111 12.5626Z" fill="black"/>
<path fill-rule="evenodd" clip-rule="evenodd" d="M128.462 7.67934H132.322L130.405 2.61792L128.462 7.67934ZM125.548 12.5627V12.2321C126.11 12.1049 126.57 11.6216 126.877 10.7569L130.891 0.481445H131.172L135.313 11.1638C135.594 11.8506 135.978 12.2321 136.489 12.2575V12.5881C136.029 12.5627 135.416 12.5373 134.649 12.5373C133.677 12.5373 132.961 12.5627 132.476 12.5881V12.2575C132.91 12.2321 133.217 12.1812 133.396 12.1049C133.575 12.0032 133.677 11.8506 133.677 11.6216C133.677 11.4182 133.6 11.1638 133.473 10.8332L132.425 8.06085H128.309L127.619 9.86668C127.388 10.4262 127.286 10.9095 127.286 11.2656C127.286 11.6216 127.414 11.876 127.644 12.0286C127.9 12.1812 128.258 12.2575 128.769 12.2829V12.6136C128.13 12.5881 127.465 12.5627 126.8 12.5627C126.315 12.5118 125.906 12.5373 125.548 12.5627Z" fill="black"/>
</g>
<defs>
<clipPath id="clip0_4132_18446">
<rect width="136" height="41" fill="white" transform="translate(0.949219 0.227051)"/>
</clipPath>
</defs>
</svg>
