<svg width="146" height="53" viewBox="0 0 146 53" fill="none" xmlns="http://www.w3.org/2000/svg">
<g clip-path="url(#clip0_4132_18232)">
<path d="M102.673 0.812988C102.518 5.92797 102.814 11.045 102.106 16.0199C101.148 22.7372 94.9725 27.4561 88.1189 27.5261C86.815 27.5401 85.5111 27.5261 84.0221 27.5261C84.0221 26.5439 83.9838 25.6278 84.0543 24.7176C84.0684 24.5355 84.4809 24.2535 84.7223 24.2395C85.7586 24.1835 86.8009 24.2175 87.8392 24.2095C94.3709 24.1595 99.176 19.3566 99.2002 12.8573C99.2022 12.2572 99.1559 11.6531 99.2102 11.059C99.2767 10.3388 98.9788 10.1508 98.2907 10.1608C95.8438 10.1948 93.395 10.1768 90.9461 10.1728C90.7187 10.1728 90.4913 10.1328 90.1915 10.1028V6.92216H99.1941C99.1941 6.06 99.2585 5.29985 99.1539 4.56371C99.1237 4.35367 98.6126 4.06361 98.3188 4.05761C96.0048 4.0176 93.6908 4.03961 91.3767 4.03561C90.9843 4.03561 90.5919 4.0036 90.1613 3.9836V0.812988H102.675H102.673Z" fill="black"/>
<path d="M10.0548 18.0485H18.4558C18.4558 19.0687 18.5081 19.9629 18.4156 20.841C18.3954 21.0391 17.8702 21.3251 17.5724 21.3291C15.2604 21.3691 12.9484 21.3531 10.6343 21.3531C10.3043 21.3531 9.97433 21.3531 9.5578 21.3531V24.2117C10.3063 24.2117 11.0629 24.2117 11.8195 24.2117C13.7291 24.2117 15.6407 24.2337 17.5503 24.1997C18.2425 24.1877 18.5202 24.4077 18.4719 25.1159C18.4216 25.872 18.4598 26.6341 18.4598 27.4923H9.52158V33.6075H6.24167C6.22155 33.2294 6.18936 32.8753 6.18936 32.5213C6.18533 28.8886 6.18332 25.2579 6.18936 21.6252C6.20545 13.1696 12.5017 6.91635 20.9972 6.91235C22.1985 6.91235 23.3978 6.91235 24.6796 6.91235V10.293C22.8806 10.293 21.0978 10.123 19.3573 10.327C14.9022 10.8491 11.8859 13.3376 10.1876 17.4384C10.1293 17.5804 10.1172 17.7444 10.0528 18.0465L10.0548 18.0485Z" fill="black"/>
<path d="M24.7256 0.924977V4.03758C23.5646 4.03758 22.4418 4.05358 21.319 4.03357C18.7755 3.98957 16.2864 4.31963 13.9663 5.37783C7.13286 8.49643 3.54107 13.8255 3.31369 21.2969C3.20301 24.9576 3.2996 28.6243 3.30363 32.289C3.30363 32.7131 3.30363 33.1372 3.30363 33.6233H0.148478C0.090124 33.5172 0.0297577 33.4612 0.0297577 33.4072C0.0740263 28.5143 -0.163415 23.5993 0.232991 18.7344C0.96946 9.66266 8.91367 1.85116 18.0149 0.956983C20.1941 0.742942 22.4116 0.924977 24.7256 0.924977Z" fill="black"/>
<path d="M105.412 0.781006H108.633C108.659 1.05506 108.702 1.2791 108.702 1.50114C108.7 5.63194 108.766 9.76473 108.671 13.8935C108.436 24.0255 100.228 32.7011 90.0866 33.5333C88.1307 33.6933 86.1486 33.5573 84.0399 33.5573C84.0399 32.6811 84.0036 31.757 84.072 30.8428C84.0861 30.6708 84.5208 30.4107 84.7723 30.3987C85.8428 30.3467 86.9153 30.3747 87.9878 30.3707C97.584 30.3387 105.251 22.8512 105.397 13.3174C105.454 9.5867 105.412 5.85398 105.414 2.12326C105.414 1.69918 105.414 1.2751 105.414 0.781006H105.412Z" fill="black"/>
<path d="M49.7921 0.759033H52.9854C53.0056 1.14311 53.0377 1.49918 53.0377 1.85324C53.0377 12.0892 53.0237 22.3232 53.0619 32.5591C53.0659 33.5293 52.756 33.7794 51.8666 33.6954C51.2066 33.6334 50.5366 33.6834 49.79 33.6834V0.759033H49.7921Z" fill="black"/>
<path d="M142.831 0.753174H146V33.6255H142.831V0.753174Z" fill="black"/>
<path d="M59.1449 33.6175H55.9717V0.815186H59.1449V33.6175Z" fill="black"/>
<path d="M136.657 0.726963C137.611 0.726963 138.446 0.724963 139.279 0.726963C139.44 0.726963 139.601 0.752968 139.82 0.770972V33.6133H136.657V0.726963Z" fill="black"/>
<path d="M59.3824 47.962C58.5091 46.7918 58.4709 45.8416 59.2415 45.1875C59.982 44.5594 61.2356 44.6254 61.8936 45.3295C62.5778 46.0617 62.451 46.8938 61.4288 48.022C61.8534 48.5681 62.288 49.1302 62.9017 49.9204C63.1492 49.0382 63.3303 48.3941 63.5275 47.694H64.6886C64.5115 48.4741 64.5256 49.3103 64.1453 49.8904C63.5658 50.7726 63.8374 51.3387 64.4351 51.9608C64.5457 52.0748 64.6182 52.2248 64.7087 52.3589C64.6725 52.4609 64.6343 52.5629 64.598 52.6649C63.9481 52.4789 63.3002 52.2909 62.4832 52.0568C60.8372 53.035 59.1067 52.949 58.2032 51.6947C57.4366 50.6285 57.8169 49.3843 59.3824 47.96V47.962ZM60.3825 48.6481C59.652 49.2043 59.0685 49.7244 59.3502 50.5445C59.475 50.9086 59.9438 51.3667 60.2859 51.3947C60.8211 51.4367 61.3805 51.1466 62.0828 50.9566C61.4067 50.0384 60.9237 49.3823 60.3825 48.6481ZM61.3946 46.3817C60.974 46.0977 60.7004 45.7696 60.479 45.8016C60.2416 45.8356 60.0525 46.2077 59.8412 46.4317C60.0686 46.6318 60.2859 46.9698 60.5273 46.9878C60.7507 47.0038 60.9982 46.6758 61.3946 46.3817Z" fill="black"/>
<path d="M72.7822 48.4983C73.8285 49.0944 74.243 49.8966 73.9231 50.9768C73.5891 52.105 72.7037 52.5171 71.6271 52.5811C70.7981 52.6311 69.9631 52.5911 69.0596 52.5911V44.9597C70.1663 44.9597 71.277 44.8176 72.3354 44.9937C73.8929 45.2537 74.3155 47.3421 72.7822 48.4983ZM70.3655 51.5509C71.1442 51.3129 71.8384 51.1829 72.434 50.8668C72.6091 50.7728 72.6413 49.8926 72.5025 49.8206C71.8807 49.4985 71.1724 49.3365 70.3655 49.0744V51.5509ZM70.4158 45.9218V48.3883C71.1784 48.0482 71.7821 47.8582 72.2751 47.5101C72.422 47.4061 72.3757 46.656 72.2067 46.558C71.7076 46.2659 71.104 46.1499 70.4178 45.9238L70.4158 45.9218Z" fill="black"/>
<path d="M47.0108 52.437C47.7573 50.6547 48.4978 48.8863 49.2423 47.118C49.4999 46.5039 49.7434 45.8818 50.0412 45.2877C50.345 44.6815 51.2787 44.6335 51.5443 45.2396C52.5866 47.6081 53.5766 49.9986 54.6109 52.439C53.7557 52.6771 53.1219 52.7011 52.9126 51.7489C52.7074 50.8067 52.1218 50.4466 51.1741 50.5907C50.9125 50.6307 50.6348 50.6307 50.3732 50.5907C49.4395 50.4526 48.85 50.7787 48.6347 51.7349C48.4455 52.5711 47.8881 52.7491 47.0088 52.437H47.0108ZM51.8763 49.3024C51.5141 48.4063 51.1841 47.5961 50.7756 46.5839C50.3531 47.5881 50.011 48.3963 49.6307 49.3024H51.8763Z" fill="black"/>
<path d="M88.9176 52.435C87.99 52.7431 87.3823 52.6151 87.1771 51.6489C87.006 50.8527 86.5492 50.4466 85.68 50.5907C85.3862 50.6387 85.0723 50.6347 84.7765 50.5907C83.7643 50.4426 83.1064 50.7467 82.9011 51.8329C82.7381 52.6951 82.1003 52.6631 81.3135 52.465C81.9996 50.8187 82.6737 49.2024 83.3498 47.5861C83.6336 46.91 83.871 46.2058 84.2352 45.5777C84.4143 45.2716 84.8248 44.9536 85.1548 44.9236C85.4144 44.9016 85.843 45.2576 85.9697 45.5457C86.9799 47.8241 87.9336 50.1246 88.9116 52.437L88.9176 52.435ZM86.2172 49.3124C85.8309 48.3902 85.4989 47.6001 85.0622 46.5539C84.6336 47.6401 84.3217 48.4323 83.9756 49.3124H86.2172Z" fill="black"/>
<path d="M90.1612 44.9295H91.4108C91.4108 45.9517 91.4028 46.9379 91.4148 47.9241C91.4209 48.5222 91.4149 49.1283 91.4913 49.7184C91.6422 50.8506 92.423 51.5348 93.4291 51.4868C94.4211 51.4407 95.0388 50.7966 95.0972 49.6004C95.1596 48.3361 95.1234 47.0679 95.1354 45.8017C95.1374 45.5416 95.1696 45.2816 95.1918 44.9575H96.3025C96.3025 46.8699 96.4353 48.7662 96.2582 50.6306C96.1315 51.9568 94.7229 52.773 93.2379 52.723C91.6241 52.671 90.3142 51.7128 90.1955 50.2165C90.0586 48.5022 90.1633 46.7678 90.1633 44.9275L90.1612 44.9295Z" fill="black"/>
<path d="M80.245 44.8815V46.0977H77.2891V48.0921C77.8726 48.0921 78.436 48.1301 78.9914 48.0841C79.8466 48.0121 80.2108 48.2941 79.8707 49.2903H77.285V51.3407H80.3698C80.3899 51.7608 80.406 52.0769 80.4261 52.489H75.8443V49.3263C75.8443 48.0921 75.8141 46.8579 75.8684 45.6276C75.8805 45.3736 76.1984 44.9275 76.3956 44.9175C77.6573 44.8535 78.923 44.8835 80.243 44.8835L80.245 44.8815Z" fill="black"/>
<path d="M41.916 44.9295C42.9925 44.9295 43.9966 44.8495 44.9826 44.9495C46.2262 45.0775 47.0411 46.0817 47.0331 47.2739C47.025 48.5422 46.2141 49.5244 44.9706 49.7184C44.4474 49.8004 43.9101 49.8024 43.2642 49.8484C43.24 50.3025 43.2099 50.7506 43.1978 51.1987C43.1857 51.6228 43.1958 52.0468 43.1958 52.5189H41.918V44.9295H41.916ZM43.1918 46.1857C43.1918 46.8638 43.1555 47.428 43.2119 47.9841C43.232 48.1781 43.5016 48.5162 43.6224 48.5022C44.1918 48.4341 44.8559 48.4021 45.2744 48.0821C45.536 47.882 45.6326 47.0319 45.4253 46.7658C45.1416 46.4038 44.5077 46.2897 44.0047 46.1277C43.8075 46.0637 43.558 46.1537 43.1938 46.1857H43.1918Z" fill="black"/>
<path d="M35.7453 50.8386C36.4999 51.0727 37.1176 51.3707 37.7535 51.4147C38.0674 51.4367 38.6087 51.0467 38.6932 50.7446C38.7757 50.4525 38.4799 49.9564 38.2102 49.6924C37.9144 49.4023 37.4597 49.2703 37.0673 49.0803C35.536 48.3421 34.9686 47.3819 35.3811 46.2237C35.8137 45.0115 37.1015 44.4634 38.6529 44.8755C39.0554 44.9815 39.4256 45.2135 39.9347 45.4436C39.659 45.8376 39.4618 46.1197 39.2928 46.3578C38.6912 46.2297 38.172 46.0197 37.6649 46.0457C37.343 46.0617 36.86 46.3738 36.7755 46.6518C36.689 46.9299 36.9144 47.45 37.1719 47.65C37.6347 48.0121 38.2243 48.2141 38.7596 48.4882C39.8763 49.0603 40.3512 49.8564 40.1822 50.8626C40.0132 51.8628 39.166 52.633 37.9627 52.679C37.3168 52.703 36.6246 52.5589 36.0189 52.3229C35.0289 51.9348 35.0108 51.5427 35.7433 50.8366L35.7453 50.8386Z" fill="black"/>
<path d="M101.478 52.4831C101.115 52.5271 100.952 52.5651 100.789 52.5611C100.592 52.5571 100.397 52.5171 100.085 52.4791C100.085 50.8108 100.085 49.1565 100.085 47.5021C100.085 46.5913 99.6425 46.1339 98.7571 46.1299C98.4291 46.1299 98.0991 46.1299 97.6846 46.1299V44.8976C99.6324 44.8976 101.562 44.8836 103.49 44.9236C103.653 44.9276 103.959 45.3217 103.932 45.4918C103.894 45.7238 103.623 46.0659 103.411 46.0959C102.824 46.1779 102.216 46.1239 101.478 46.1239V52.4831Z" fill="black"/>
<path d="M108.353 52.5091H107.146C106.895 51.1528 106.832 49.7745 106.361 48.5523C105.88 47.3061 105.001 46.2119 104.232 44.9476C106.748 44.5575 106.351 47.102 107.77 47.8802C108.152 47.2361 108.621 46.5299 109.003 45.7778C109.394 45.0096 109.909 44.6556 110.887 45.0276C109.641 47.3881 107.438 49.4145 108.353 52.5091Z" fill="black"/>
</g>
<defs>
<clipPath id="clip0_4132_18232">
<rect width="146" height="52" fill="white" transform="translate(0 0.727051)"/>
</clipPath>
</defs>
</svg>
