<svg width="4" height="7" viewBox="0 0 4 7" fill="none" xmlns="http://www.w3.org/2000/svg">
<path d="M0.13149 0.977284C0.0469265 1.06187 -0.000579133 1.17659 -0.000579138 1.2962C-0.000579144 1.4158 0.0469265 1.53052 0.13149 1.61511L2.36432 3.84794L0.13149 6.08077C0.0493228 6.16584 0.00385666 6.27979 0.00488448 6.39806C0.00591229 6.51633 0.0533514 6.62946 0.136985 6.7131C0.220618 6.79673 0.333754 6.84417 0.452025 6.8452C0.570296 6.84623 0.684239 6.80076 0.769313 6.71859L3.32106 4.16685C3.40562 4.08226 3.45312 3.96755 3.45312 3.84794C3.45312 3.72833 3.40562 3.61362 3.32106 3.52903L0.769313 0.977284C0.684724 0.89272 0.570011 0.845215 0.450402 0.845215C0.330792 0.845215 0.21608 0.89272 0.13149 0.977284Z" fill="#B9B9B9"/>
</svg>
