<svg width="16" height="36" viewBox="0 0 16 36" fill="none" xmlns="http://www.w3.org/2000/svg">
<path d="M7 1C7 0.447715 7.44772 0 8 0C8.55228 0 9 0.447715 9 1L7 1ZM8.70711 35.7071C8.31658 36.0976 7.68342 36.0976 7.29289 35.7071L0.928932 29.3431C0.538408 28.9526 0.538408 28.3195 0.928932 27.9289C1.31946 27.5384 1.95262 27.5384 2.34315 27.9289L8 33.5858L13.6569 27.9289C14.0474 27.5384 14.6805 27.5384 15.0711 27.9289C15.4616 28.3195 15.4616 28.9526 15.0711 29.3431L8.70711 35.7071ZM9 1L9 35H7L7 1L9 1Z" fill="#795DDB"/>
</svg>
