<svg width="79" height="23" viewBox="0 0 79 23" fill="none" xmlns="http://www.w3.org/2000/svg">
<path d="M2.30859 9.91797C1.48017 9.91797 0.808594 10.5895 0.808594 11.418C0.808594 12.2464 1.48017 12.918 2.30859 12.918L2.30859 9.91797ZM78.0489 12.4786C78.6347 11.8928 78.6347 10.9431 78.0489 10.3573L68.503 0.811373C67.9172 0.225586 66.9675 0.225586 66.3817 0.811373C65.7959 1.39716 65.7959 2.34691 66.3817 2.93269L74.867 11.418L66.3817 19.9033C65.7959 20.489 65.7959 21.4388 66.3817 22.0246C66.9675 22.6104 67.9172 22.6104 68.503 22.0246L78.0489 12.4786ZM2.30859 12.918L76.9883 12.918L76.9883 9.91798L2.30859 9.91797L2.30859 12.918Z" fill="#795DDB"/>
</svg>
