<svg width="49" height="50" viewBox="0 0 49 50" fill="none" xmlns="http://www.w3.org/2000/svg">
<circle cx="24.5712" cy="25" r="23.3475" stroke="white" stroke-width="2"/>
<path d="M15.0889 24C14.5366 24 14.0889 24.4477 14.0889 25C14.0889 25.5523 14.5366 26 15.0889 26V24ZM34.7606 25.7071C35.1511 25.3166 35.1511 24.6834 34.7606 24.2929L28.3966 17.9289C28.0061 17.5384 27.3729 17.5384 26.9824 17.9289C26.5919 18.3195 26.5919 18.9526 26.9824 19.3431L32.6393 25L26.9824 30.6569C26.5919 31.0474 26.5919 31.6805 26.9824 32.0711C27.3729 32.4616 28.0061 32.4616 28.3966 32.0711L34.7606 25.7071ZM15.0889 26H34.0535V24H15.0889V26Z" fill="white"/>
</svg>
