<svg width="65" height="65" viewBox="0 0 65 65" fill="none" xmlns="http://www.w3.org/2000/svg">
<path d="M29.2122 48.6869H35.7038V29.2122H29.2122V48.6869ZM32.458 22.7206C33.3776 22.7206 34.149 22.409 34.7722 21.7858C35.3954 21.1626 35.7059 20.3923 35.7038 19.4748C35.7016 18.5573 35.39 17.787 34.769 17.1638C34.1479 16.5406 33.3776 16.229 32.458 16.229C31.5383 16.229 30.768 16.5406 30.147 17.1638C29.5259 17.787 29.2143 18.5573 29.2122 19.4748C29.21 20.3923 29.5216 21.1637 30.147 21.789C30.7723 22.4144 31.5427 22.7249 32.458 22.7206ZM32.458 64.9159C27.9679 64.9159 23.7484 64.0634 19.7994 62.3582C15.8503 60.6531 12.4152 58.341 9.49396 55.422C6.57274 52.5029 4.26065 49.0678 2.55769 45.1166C0.854731 41.1653 0.00216797 36.9458 4.1086e-06 32.458C-0.00215976 27.9701 0.850403 23.7506 2.55769 19.7994C4.26498 15.8481 6.57707 12.413 9.49396 9.49395C12.4108 6.5749 15.846 4.26281 19.7994 2.55769C23.7527 0.852563 27.9723 0 32.458 0C36.9437 0 41.1632 0.852563 45.1166 2.55769C49.07 4.26281 52.5051 6.5749 55.422 9.49395C58.3389 12.413 60.652 15.8481 62.3615 19.7994C64.0709 23.7506 64.9224 27.9701 64.9159 32.458C64.9094 36.9458 64.0569 41.1653 62.3582 45.1166C60.6596 49.0678 58.3475 52.5029 55.422 55.422C52.4964 58.341 49.0613 60.6542 45.1166 62.3615C41.1718 64.0688 36.9523 64.9202 32.458 64.9159Z" fill="#795DDB"/>
</svg>
