<svg width="560" height="238" viewBox="0 0 560 238" fill="none" xmlns="http://www.w3.org/2000/svg">
<path fill-rule="evenodd" clip-rule="evenodd" d="M171.559 71.1201C77.6802 71.1201 -11.6193 111.554 -71.1523 181.394L-120 126.992C21.9634 -28.1267 266.965 -42.8299 428.009 93.1749C589.054 229.18 605.082 465.902 463.119 621.021C321.155 776.14 76.1537 791.578 -84.8907 654.838C-95.5762 646.016 -105.498 636.459 -114.657 626.902L-65.8096 573.235C48.677 699.683 247.12 712.916 378.398 602.642C509.676 492.367 523.415 301.225 408.928 174.778C348.632 109.348 262.385 71.1201 171.559 71.1201Z" fill="#8664FC"/>
<path fill-rule="evenodd" clip-rule="evenodd" d="M-71.1271 181.46C39.5433 52.072 237.224 33.6929 371.555 140.291C505.886 246.89 524.967 437.296 414.296 566.685C303.626 696.073 105.946 714.452 -28.3854 607.854C-42.1238 596.826 -54.3357 585.064 -65.7844 572.566L-13.8838 514.488C66.2569 613 215.089 630.644 317.364 552.717C419.639 474.79 437.957 332.168 357.053 233.657C276.149 135.145 128.08 117.501 25.8049 195.428C9.01352 207.926 -6.25134 222.629 -18.4633 239.538L-71.1271 181.46Z" fill="#795DDB"/>
</svg>
