<svg width="1424" height="1660" viewBox="0 0 1424 1660" fill="none" xmlns="http://www.w3.org/2000/svg">
<path fill-rule="evenodd" clip-rule="evenodd" d="M1288.9 948.192C1288.9 1177.3 1211.92 1395.24 1078.97 1540.53L1182.53 1659.74C1477.84 1313.28 1505.83 715.356 1246.91 322.327C987.995 -70.7012 537.338 -109.818 242.031 236.643C-53.2759 583.104 -82.6666 1181.03 177.651 1574.06C194.446 1600.14 212.64 1624.35 230.834 1646.7L333.002 1527.49C92.2782 1248.09 67.086 763.786 277.02 443.402C486.953 123.019 850.839 89.4905 1091.56 368.895C1216.12 516.047 1288.9 726.532 1288.9 948.192Z" fill="#9074f1"/>
<path fill-rule="evenodd" clip-rule="evenodd" d="M1078.84 1539.19C1325.16 1269.1 1360.15 786.657 1157.22 458.823C954.28 130.989 591.795 84.4218 345.472 354.512C99.1502 624.603 64.1612 1107.04 267.097 1434.88C288.09 1468.4 310.483 1498.21 334.276 1526.15L444.841 1399.48C257.3 1203.9 223.711 840.676 372.064 591.075C520.417 341.474 791.931 296.769 979.472 494.215C1167.01 691.66 1200.6 1053.02 1052.25 1302.62C1028.46 1343.6 1000.47 1380.86 968.276 1410.66L1078.84 1539.19Z" fill="#8464f0"/>
</svg>
