<svg width="26" height="27" viewBox="0 0 26 27" fill="none" xmlns="http://www.w3.org/2000/svg">
<rect y="0.845215" width="26" height="26" rx="3.71429" fill="#F5F6F9"/>
<path d="M15.4765 7.03564H10.0289C9.6677 7.03564 9.32129 7.17913 9.06588 7.43454C8.81048 7.68994 8.66699 8.03635 8.66699 8.39755V19.2928C8.66699 19.654 8.81048 20.0004 9.06588 20.2558C9.32129 20.5112 9.6677 20.6547 10.0289 20.6547H15.4765C15.8377 20.6547 16.1841 20.5112 16.4395 20.2558C16.6949 20.0004 16.8384 19.654 16.8384 19.2928V8.39755C16.8384 8.03635 16.6949 7.68994 16.4395 7.43454C16.1841 7.17913 15.8377 7.03564 15.4765 7.03564ZM13.4337 19.9737H12.0718V19.2928H13.4337V19.9737ZM15.4765 18.6118H10.0289V9.0785H15.4765V18.6118Z" fill="#795DDB"/>
</svg>
