<svg width="36" height="32" viewBox="0 0 36 32" fill="none" xmlns="http://www.w3.org/2000/svg">
<path d="M8.15915 31.1548V27.7103H16.0322V22.3715C14.4248 22.0557 12.9899 21.4604 11.7276 20.5855C10.4653 19.7106 9.53824 18.6124 8.94645 17.2909C6.48613 17.0326 4.428 16.0928 2.77204 14.4716C1.11608 12.8504 0.287445 10.9485 0.286133 8.7659V7.04367C0.286133 6.09645 0.671911 5.28586 1.44347 4.6119C2.21502 3.93793 3.14141 3.60038 4.22264 3.59923H8.15915V0.154785H27.8417V3.59923H31.7782C32.8607 3.59923 33.7878 3.93678 34.5593 4.6119C35.3309 5.28701 35.716 6.0976 35.7147 7.04367V8.7659C35.7147 10.9474 34.8861 12.8493 33.2288 14.4716C31.5715 16.094 29.5134 17.0337 27.0544 17.2909C26.4639 18.6113 25.5375 19.7095 24.2752 20.5855C23.0129 21.4615 21.5774 22.0569 19.9687 22.3715V27.7103H27.8417V31.1548H8.15915ZM8.15915 13.5881V7.04367H4.22264V8.7659C4.22264 9.85664 4.58349 10.84 5.30518 11.7161C6.02687 12.5921 6.9782 13.2161 8.15915 13.5881ZM27.8417 13.5881C29.0226 13.215 29.974 12.5904 30.6957 11.7143C31.4173 10.8383 31.7782 9.85549 31.7782 8.7659V7.04367H27.8417V13.5881Z" fill="#F17E00"/>
</svg>
