<svg width="17" height="17" viewBox="0 0 17 17" fill="none" xmlns="http://www.w3.org/2000/svg">
<path d="M2.85628 1.86621C2.67947 1.86621 2.5099 1.93645 2.38488 2.06147C2.25985 2.1865 2.18962 2.35607 2.18962 2.53288V3.86621H3.52295V5.19954H1.52295V6.53288H3.52295V7.86621H1.52295V9.19954H3.52295V10.5329H1.52295V11.8662H3.52295V13.1995H2.18962V14.5329C2.18962 14.7097 2.25985 14.8793 2.38488 15.0043C2.5099 15.1293 2.67947 15.1995 2.85628 15.1995H13.5229C13.6998 15.1995 13.8693 15.1293 13.9944 15.0043C14.1194 14.8793 14.1896 14.7097 14.1896 14.5329V2.53288C14.1896 2.35607 14.1194 2.1865 13.9944 2.06147C13.8693 1.93645 13.6998 1.86621 13.5229 1.86621H2.85628ZM6.18962 11.1995C6.18962 10.6691 6.40033 10.1604 6.7754 9.78533C7.15048 9.41026 7.65918 9.19954 8.18962 9.19954C8.72005 9.19954 9.22876 9.41026 9.60383 9.78533C9.9789 10.1604 10.1896 10.6691 10.1896 11.1995H6.18962ZM8.18962 8.53288C7.83599 8.53288 7.49686 8.3924 7.24681 8.14235C6.99676 7.8923 6.85628 7.55317 6.85628 7.19954C6.85628 6.84592 6.99676 6.50678 7.24681 6.25674C7.49686 6.00669 7.83599 5.86621 8.18962 5.86621C8.54324 5.86621 8.88238 6.00669 9.13242 6.25674C9.38247 6.50678 9.52295 6.84592 9.52295 7.19954C9.52295 7.55317 9.38247 7.8923 9.13242 8.14235C8.88238 8.3924 8.54324 8.53288 8.18962 8.53288Z" fill="#795DDB"/>
</svg>
