<svg width="27" height="22" viewBox="0 0 27 22" fill="none" xmlns="http://www.w3.org/2000/svg">
<path d="M25.3893 9.47776L23.7383 19.7056C23.7383 19.7056 23.5548 21.1411 22.4542 21.5C21.1701 21.5 20.0694 21.1411 19.1522 20.4234C18.9687 20.2439 14.1992 17.373 12.5482 15.9375C11.9979 15.5786 11.8144 14.8608 12.1813 14.1431C12.3647 13.9637 12.3647 13.7842 12.5482 13.7842C14.933 11.631 17.6846 8.93945 19.5191 7.32452C20.2528 6.60677 21.1701 4.81241 17.8681 6.96564L8.51241 13.0665C7.59519 13.4254 6.49453 13.4254 5.39386 13.0665C3.19253 12.5282 0.991206 11.631 0.991206 11.631C0.991206 11.631 -0.659791 10.7338 2.09187 9.65719L17.5012 3.37691C18.9687 2.65917 24.2886 0.685368 24.2886 0.685368C24.2886 0.685368 26.6734 -0.211813 26.4899 1.94142C26.4899 2.83861 25.9396 6.06846 25.3893 9.47776Z" fill="#57B2EC"/>
</svg>
