<svg width="16" height="34" viewBox="0 0 16 34" fill="none" xmlns="http://www.w3.org/2000/svg">
<path d="M14.0796 2.50752C14.0919 2.65936 14.1148 2.8112 14.1148 2.96305C14.117 4.44208 14.1164 5.92163 14.1127 7.40067C14.1127 7.49321 14.0759 7.58523 14.0534 7.68902C14.6703 7.68544 15.1253 7.84035 15.4425 8.28155C15.8906 8.90476 15.6866 9.85211 14.9859 10.2018C14.784 10.3025 14.737 10.4175 14.7376 10.6149C14.7434 13.0208 14.7183 15.3756 14.7504 17.781C14.7691 19.1977 14.666 20.5944 14.3942 21.9871C14.156 23.2059 13.969 24.4334 13.7666 25.6583C13.7293 25.8838 13.7111 26.1144 13.71 26.3424C13.7047 27.7279 13.7079 29.1139 13.7074 30.4993C13.7074 31.0142 13.5851 31.1323 13.0457 31.1292C12.6921 31.1272 11.8045 31.1154 11.4478 31.1082C11.4302 31.8598 11.4136 32.5719 11.397 33.2836L11.1711 33.4999C10.6611 33.4963 10.549 33.3843 10.5495 32.8756C10.55 32.3066 10.5522 31.7371 10.5543 31.1471C10.268 31.166 8.9297 31.1839 8.56014 31.2084C8.57402 31.3138 8.61461 31.4881 8.61782 31.6629C8.6269 32.122 8.62583 32.5811 8.61782 33.0402C8.61301 33.325 8.44692 33.4932 8.19271 33.4993C7.92782 33.506 7.74677 33.3317 7.74517 33.0362C7.74143 32.4083 7.75105 31.7805 7.75478 31.1486C7.44877 31.1491 6.1099 31.1497 5.81243 31.1502C5.81243 31.6839 5.8135 32.2176 5.81403 32.7514C5.81403 32.8107 5.81403 32.8705 5.81403 32.9298C5.81189 33.3138 5.66182 33.5039 5.36596 33.4999C5.08665 33.4958 4.93284 33.3025 4.93284 32.9421C4.93284 32.3475 4.93765 31.7534 4.94085 31.0939C4.53871 31.1062 3.62654 31.1246 3.24896 31.1272C2.80143 31.1302 2.65616 30.9891 2.65509 30.5607C2.65296 29.1491 2.68287 27.7371 2.64174 26.3271C2.62198 25.6609 2.47992 24.9963 2.37205 24.3347C2.14721 22.9584 1.90582 21.5842 1.67671 20.2084C1.64199 19.9999 1.6233 19.7862 1.62277 19.575C1.61956 16.5566 1.6201 13.5893 1.62116 10.5709C1.62116 10.4329 1.62223 10.3276 1.4524 10.2447C0.86334 9.95742 0.585098 9.33932 0.710066 8.75394C0.837706 8.15476 1.32904 7.75343 2.00462 7.69617C2.07511 7.69004 2.14614 7.68799 2.32985 7.68084C2.30262 7.59035 2.25135 7.50037 2.25081 7.40988C2.24601 5.92215 2.24708 4.4339 2.24761 2.94617C2.24761 2.3792 2.34961 2.28257 2.95256 2.2836C3.61746 2.28411 4.28236 2.28718 4.9809 2.28871C4.97984 1.83472 4.97022 1.40323 4.97984 0.972248C4.98838 0.593413 5.35581 0.370509 5.64687 0.581655C5.76436 0.667033 5.84073 0.864375 5.84874 1.01519C5.87011 1.4293 5.84554 1.84597 5.83966 2.24219C6.34648 2.24219 10.0176 2.24219 10.5233 2.24219C10.5175 1.84648 10.4934 1.43033 10.5148 1.01621C10.5228 0.865397 10.5986 0.667544 10.7161 0.582166C11.0066 0.37051 11.3757 0.593413 11.3832 0.971736C11.3917 1.39607 11.3794 1.82041 11.3757 2.27746C12.2173 2.28155 13.0361 2.28615 13.8542 2.29024L14.0801 2.5065L14.0796 2.50752ZM4.92376 25.5295C4.92643 25.4349 4.93124 25.3429 4.93124 25.2504C4.93124 24.0771 4.93017 22.9032 4.93124 21.7299C4.93124 21.6282 4.92857 21.5239 4.95206 21.4257C5.02576 21.1164 5.43859 20.9814 5.65915 21.2125C5.75902 21.3173 5.80548 21.5034 5.80709 21.6532C5.8183 22.8521 5.8135 24.0515 5.81403 25.2504C5.81403 25.3419 5.81937 25.4329 5.82257 25.5188C6.11096 25.5157 7.44984 25.5126 7.73449 25.5091C7.73663 25.4273 7.74037 25.3347 7.7409 25.2427C7.7409 24.0438 7.73396 22.8444 7.74998 21.6456C7.75211 21.4871 7.83276 21.2892 7.95025 21.1859C8.0357 21.1108 8.28991 21.1021 8.38176 21.1706C8.50567 21.2631 8.60927 21.4574 8.61194 21.6098C8.6301 22.8255 8.62209 24.0418 8.62262 25.258C8.62262 25.349 8.62796 25.4405 8.62957 25.4932C8.92383 25.5039 10.2632 25.5142 10.5906 25.5259C10.5757 25.4211 10.5511 25.3286 10.5511 25.2355C10.5484 24.0622 10.549 22.8884 10.5495 21.7151C10.5495 21.6384 10.5458 21.5612 10.557 21.4861C10.5901 21.256 10.7562 21.1088 10.9794 21.1031C11.2208 21.097 11.3896 21.2407 11.4237 21.4891C11.435 21.573 11.4323 21.6589 11.4323 21.7437C11.4323 22.917 11.4323 24.0909 11.4328 25.2642C11.4328 25.3547 11.4366 25.4452 11.4382 25.5101C11.7559 25.5167 12.581 25.5229 12.886 25.5295C12.9004 25.4605 12.9159 25.3956 12.9271 25.3296C13.207 23.6773 13.4895 22.0254 13.7624 20.372C13.8147 20.0546 13.8574 19.7314 13.8585 19.4109C13.866 16.4942 13.8622 13.6282 13.8654 10.7115C13.8654 10.6113 13.9082 10.5106 13.921 10.4528C11.1321 10.4528 5.22336 10.4528 2.50663 10.4528C2.50556 10.4733 2.50129 10.5234 2.50129 10.5735C2.50129 13.6261 2.50129 16.6282 2.50396 19.6808C2.50396 19.7908 2.51838 19.9012 2.53707 20.0101C2.8356 21.78 3.13521 23.5494 3.43588 25.3194C3.44817 25.3925 3.47006 25.4641 3.48395 25.5208C3.79477 25.5239 4.61988 25.5264 4.92536 25.5295H4.92376ZM13.1947 3.18288C10.9159 3.18288 5.42364 3.18288 3.21318 3.18339C3.21211 4.66652 3.21051 6.17521 3.20944 7.63482C5.4498 7.63482 10.9329 7.63482 13.1947 7.63482C13.1947 6.15988 13.1947 4.65681 13.1947 3.18237V3.18288ZM12.808 26.4359C10.7845 26.4359 5.56623 26.4359 3.56245 26.4359C3.56299 27.6957 3.56406 28.9789 3.56459 30.2125C3.82948 30.2212 4.64178 30.2309 4.9323 30.2407C4.93177 29.4385 4.93017 28.6312 4.93124 27.8235C4.93124 27.7222 4.9323 27.6174 4.95847 27.5203C5.01188 27.3235 5.16302 27.2212 5.36916 27.2207C5.57424 27.2202 5.73178 27.3127 5.78412 27.5137C5.80922 27.6108 5.81136 27.7156 5.81136 27.8168C5.81243 28.6323 5.81136 29.4477 5.81029 30.2279C6.10509 30.234 7.45251 30.2401 7.74464 30.2468C7.74303 29.4334 7.74036 28.6174 7.74143 27.8015C7.74143 27.7008 7.74571 27.5955 7.77454 27.4993C7.83436 27.301 7.99618 27.2146 8.20019 27.2202C8.39458 27.2258 8.54091 27.323 8.59165 27.5101C8.61782 27.6067 8.61942 27.7115 8.61942 27.8132C8.62102 28.6287 8.61942 29.4441 8.61889 30.2504C8.91315 30.255 10.2606 30.2601 10.5532 30.2647C10.5516 29.4124 10.5474 28.5704 10.5495 27.7289C10.55 27.4048 10.7076 27.2248 10.9773 27.2176C11.2507 27.2105 11.4216 27.4043 11.4307 27.733C11.4323 27.7923 11.4307 27.8521 11.4307 27.9114C11.4307 28.6926 11.4307 29.4738 11.4307 30.2422C11.7249 30.2488 12.5362 30.255 12.8075 30.2611C12.8075 28.9758 12.8075 27.7008 12.8075 26.4359H12.808ZM14.6623 9.4518C14.9026 9.14249 14.8054 8.68442 14.4609 8.57859C14.3541 8.54587 14.2339 8.54229 14.1202 8.54229C11.2272 8.54024 5.12937 8.54075 2.2364 8.54229C2.13065 8.54229 2.02064 8.5428 1.92023 8.57041C1.56082 8.66857 1.43638 9.15681 1.71996 9.38687C1.84066 9.48503 2.03773 9.5382 2.20115 9.53973C3.41666 9.552 4.6327 9.54638 5.84874 9.54638C7.54383 9.54638 12.4433 9.54945 14.1383 9.54229C14.3135 9.54178 14.4881 9.4835 14.6628 9.4518H14.6623Z" fill="#795DDB" stroke="#795DDB" stroke-width="0.5"/>
</svg>
