<svg width="27" height="32" viewBox="0 0 27 32" fill="none" xmlns="http://www.w3.org/2000/svg">
<path d="M8.79995 16.4C8.79995 16.4 0.399944 10 6.19994 0.800003L15.9999 27.2" stroke="#ffffff" stroke-width="1.5" stroke-miterlimit="10" stroke-linecap="round" stroke-linejoin="round"/>
<path d="M20.6004 31.2C23.1961 31.2 25.3004 29.0957 25.3004 26.5C25.3004 23.9043 23.1961 21.8 20.6004 21.8C18.0047 21.8 15.9004 23.9043 15.9004 26.5C15.9004 29.0957 18.0047 31.2 20.6004 31.2Z" stroke="#ffffff" stroke-width="1.5" stroke-miterlimit="10" stroke-linecap="round" stroke-linejoin="round"/>
<path d="M17.6004 16.4C17.6004 16.4 26.0004 10 20.2004 0.800003L10.4004 27.2" stroke="#ffffff" stroke-width="1.5" stroke-miterlimit="10" stroke-linecap="round" stroke-linejoin="round"/>
<path d="M5.7 31.2C8.29574 31.2 10.4 29.0957 10.4 26.5C10.4 23.9043 8.29574 21.8 5.7 21.8C3.10426 21.8 1 23.9043 1 26.5C1 29.0957 3.10426 31.2 5.7 31.2Z" stroke="#ffffff" stroke-width="1.5" stroke-miterlimit="10" stroke-linecap="round" stroke-linejoin="round"/>
</svg>
