<svg width="35" height="24" viewBox="0 0 35 24" fill="none" xmlns="http://www.w3.org/2000/svg">
<path d="M7.8 10.9375C9.89869 10.9375 11.6 9.23615 11.6 7.13747C11.6 5.03878 9.89869 3.33746 7.8 3.33746C5.70132 3.33746 4 5.03878 4 7.13747C4 9.23615 5.70132 10.9375 7.8 10.9375Z" stroke="#795DDB" stroke-width="1.5" stroke-miterlimit="10" stroke-linecap="round" stroke-linejoin="round"/>
<path d="M23 12.4375L7.3 13.4375C3.8 13.4375 1 10.6375 1 7.13748C1 4.13748 3.2 1.53749 6 0.937488C6.7 0.837488 7.39999 0.837488 8.09999 0.937488L23 2.83748V12.4375Z" stroke="#795DDB" stroke-width="1.5" stroke-miterlimit="10" stroke-linecap="round" stroke-linejoin="round"/>
<path d="M12.0004 13.1375V19.8375C12.0004 21.6375 10.5004 23.1375 8.70039 23.1375C6.90039 23.1375 5.40039 21.6375 5.40039 19.8375V13.2375" stroke="#795DDB" stroke-width="1.5" stroke-miterlimit="10" stroke-linecap="round" stroke-linejoin="round"/>
<path d="M23 12.5375L26.8 13.7375V1.73749L23 2.93749V12.5375Z" stroke="#795DDB" stroke-width="1.5" stroke-miterlimit="10" stroke-linecap="round" stroke-linejoin="round"/>
<path d="M29.2998 7.93747H33.7998" stroke="#795DDB" stroke-width="1.5" stroke-miterlimit="10" stroke-linecap="round" stroke-linejoin="round"/>
<path d="M29.2998 5.13747L33.0998 2.83746" stroke="#795DDB" stroke-width="1.5" stroke-miterlimit="10" stroke-linecap="round" stroke-linejoin="round"/>
<path d="M33.0998 12.9375L29.2998 10.7375" stroke="#795DDB" stroke-width="1.5" stroke-miterlimit="10" stroke-linecap="round" stroke-linejoin="round"/>
</svg>
