<svg width="16" height="11" viewBox="0 0 16 11" fill="none" xmlns="http://www.w3.org/2000/svg">
<path d="M15.2509 2.00838C15.1661 1.69326 15.0001 1.40594 14.7693 1.1752C14.5386 0.944457 14.2512 0.77839 13.9361 0.693628C12.7763 0.382812 8.12581 0.382812 8.12581 0.382812C8.12581 0.382812 3.47528 0.382812 2.31551 0.693579C2.0004 0.778353 1.71309 0.944426 1.48234 1.17517C1.2516 1.40591 1.08553 1.69322 1.00076 2.00833C0.689941 3.16815 0.689941 5.58796 0.689941 5.58796C0.689941 5.58796 0.689941 8.00769 1.0007 9.16742C1.08548 9.48254 1.25156 9.76985 1.48231 10.0006C1.71306 10.2313 2.00039 10.3974 2.31551 10.4822C3.47528 10.7929 8.12581 10.7929 8.12581 10.7929C8.12581 10.7929 12.7763 10.7929 13.9361 10.4822C14.2512 10.3974 14.5386 10.2313 14.7693 10.0006C15.0001 9.76986 15.1661 9.48254 15.2509 9.16742C15.5617 8.00766 15.5617 5.58789 15.5617 5.58789C15.5617 5.58789 15.5617 3.16815 15.2509 2.00838Z" fill="#795DDB"/>
<path d="M6.63818 7.81889L10.5018 5.58822L6.63818 3.35742V7.81889Z" fill="white"/>
</svg>
