<svg width="64" height="22" viewBox="0 0 64 22" fill="none" xmlns="http://www.w3.org/2000/svg">
<g clip-path="url(#clip0_6060_57)">
<path fill-rule="evenodd" clip-rule="evenodd" d="M16.0114 20.898H10.5064L6.37835 4.60678C6.18243 3.85737 5.76639 3.19486 5.15443 2.88261C3.62719 2.09792 1.94429 1.47342 0.108398 1.15846V0.531249H8.97653C10.2005 0.531249 11.1184 1.47342 11.2714 2.56765L13.4133 14.3191L18.9156 0.531249H24.2676L16.0114 20.898ZM27.3274 20.898H22.1284L26.4094 0.531249H31.6085L27.3274 20.898ZM38.3349 6.17491C38.4879 5.07796 39.4058 4.45076 40.4768 4.45076C42.1597 4.29327 43.9928 4.60822 45.5227 5.39021L46.4409 1.00516C44.911 0.377951 43.2279 0.0629883 41.7007 0.0629883C36.6547 0.0629883 32.9829 2.88408 32.9829 6.79939C32.9829 9.77798 35.5837 11.3419 37.4196 12.2841C39.4058 13.2236 40.1708 13.8508 40.0178 14.7902C40.0178 16.1994 38.4879 16.8266 36.9606 16.8266C35.1248 16.8266 33.2889 16.3569 31.6086 15.5722L30.6907 19.96C32.5266 20.742 34.5128 21.0569 36.3487 21.0569C42.0067 21.2117 45.5227 18.3933 45.5227 14.163C45.5227 8.83578 38.3349 8.52354 38.3349 6.17491ZM63.7179 20.898L59.5896 0.531249H55.1554C54.2376 0.531249 53.3198 1.15846 53.0138 2.09792L45.3695 20.898H50.7215L51.7899 17.9221H58.3658L58.9775 20.898H63.7179ZM55.9203 6.01539L57.4476 13.6912H53.1666L55.9203 6.01539Z" fill="white"/>
</g>
<defs>
<clipPath id="clip0_6060_57">
<rect width="64" height="21" fill="white" transform="translate(0 0.0629883)"/>
</clipPath>
</defs>
</svg>
