<svg width="29" height="32" viewBox="0 0 29 32" fill="none" xmlns="http://www.w3.org/2000/svg">
<path d="M21.9814 27.25L20.1815 26.75L20.6815 28.55C18.8815 30.15 16.7814 31.15 14.4814 31.15C12.2814 31.15 10.1814 30.15 8.28143 28.55L8.78143 26.75L6.98145 27.25C3.68145 23.65 1.48145 18.05 1.48145 13.75C1.48145 11.15 2.28146 8.65 3.68146 6.55L6.88144 7.45L5.98145 4.05C8.28145 2.05 11.2815 0.850006 14.5815 0.850006C17.8815 0.850006 20.8815 2.05 23.1815 4.05L22.2814 7.45L25.4814 6.55C26.8814 8.65 27.6815 11.05 27.6815 13.75C27.4815 18.05 25.3814 23.55 21.9814 27.25Z" stroke="#ffffff" stroke-width="1.5" stroke-miterlimit="10" stroke-linecap="round" stroke-linejoin="round"/>
<path d="M9.08127 17.55C10.9038 17.55 12.3813 16.6546 12.3813 15.55C12.3813 14.4454 10.9038 13.55 9.08127 13.55C7.25873 13.55 5.78125 14.4454 5.78125 15.55C5.78125 16.6546 7.25873 17.55 9.08127 17.55Z" stroke="#ffffff" stroke-width="1.5" stroke-miterlimit="10" stroke-linecap="round" stroke-linejoin="round"/>
<path d="M19.9816 17.55C21.8042 17.55 23.2816 16.6546 23.2816 15.55C23.2816 14.4454 21.8042 13.55 19.9816 13.55C18.1591 13.55 16.6816 14.4454 16.6816 15.55C16.6816 16.6546 18.1591 17.55 19.9816 17.55Z" stroke="#ffffff" stroke-width="1.5" stroke-miterlimit="10" stroke-linecap="round" stroke-linejoin="round"/>
<path d="M14.4814 25.45C16.1383 25.45 17.4814 24.868 17.4814 24.15C17.4814 23.432 16.1383 22.85 14.4814 22.85C12.8246 22.85 11.4814 23.432 11.4814 24.15C11.4814 24.868 12.8246 25.45 14.4814 25.45Z" stroke="#ffffff" stroke-width="1.5" stroke-miterlimit="10" stroke-linecap="round" stroke-linejoin="round"/>
</svg>
