<svg width="24" height="14" viewBox="0 0 24 14" fill="none" xmlns="http://www.w3.org/2000/svg">
<path d="M7.96735 0.946147C8.21124 0.464401 8.58547 0.259962 9.01006 0.186081C10.3648 -0.0507443 11.7264 -0.0719978 13.0802 0.183044C13.7585 0.310566 14.0064 0.617224 14.0113 1.33782C14.0202 2.48349 13.9738 3.62915 13.9639 4.77583C13.9599 5.21304 13.9353 5.66342 14.0281 6.08343C14.0903 6.36478 14.2927 6.72407 14.5228 6.82022C14.7045 6.89612 15.0876 6.68865 15.2732 6.49635C16.3653 5.3689 17.0891 3.98742 17.7556 2.57255C17.9619 2.13331 18.1308 1.67484 18.3223 1.2275C18.4833 0.851012 18.7469 0.670863 19.1705 0.675924C20.4699 0.691105 21.7694 0.669851 23.0688 0.674912C23.9604 0.67896 24.2231 1.02408 23.8074 1.84183C23.2939 2.85289 22.6729 3.81031 22.0508 4.7566C21.5462 5.52375 20.9459 6.22512 20.4304 6.9862C19.8479 7.84646 19.9051 8.23206 20.6121 8.97492C21.484 9.89084 22.3687 10.7946 23.2169 11.7328C23.4914 12.0364 23.6968 12.418 23.8814 12.7904C24.1076 13.2469 23.9822 13.5748 23.527 13.7711C23.3058 13.8663 23.055 13.932 22.816 13.9401C21.797 13.9725 20.776 13.9594 19.758 13.9978C18.9424 14.0292 18.2779 13.7124 17.722 13.1447C17.1631 12.5738 16.6427 11.9646 16.0967 11.3816C15.9269 11.2005 15.7412 11.0274 15.5359 10.8918C15.0658 10.5811 14.6067 10.6671 14.3885 11.1924C14.187 11.6761 14.0616 12.2166 14.0202 12.7429C13.9441 13.7023 13.7338 13.9017 12.78 13.9563C10.3263 14.098 8.16582 13.3936 6.33615 11.6974C5.01795 10.4758 3.97624 9.01237 3.10633 7.44365C2.06263 5.55614 1.11966 3.60891 0.158908 1.67282C-0.176812 0.993715 0.0167204 0.696165 0.765178 0.680984C1.86713 0.658719 2.96908 0.674912 4.07202 0.669851C4.6141 0.667827 4.89749 0.987642 5.09102 1.46534C5.75259 3.10692 6.57016 4.66045 7.61682 6.08039C7.71556 6.21398 7.81035 6.37288 7.94563 6.45283C8.22803 6.62084 8.58547 6.9113 8.81751 6.83843C9.05252 6.76455 9.30825 6.31823 9.32306 6.02372C9.3833 4.76773 9.3991 3.50568 9.34874 2.24868C9.31615 1.44712 8.7395 1.07063 7.96834 0.945135L7.96735 0.946147Z" fill="white"/>
</svg>
