<svg width="24" height="24" viewBox="0 0 24 24" fill="none" xmlns="http://www.w3.org/2000/svg">
<g clip-path="url(#clip0_4141_3250)">
<path d="M20.9079 14.8752H19.2176V13.2014H22.6981V21.5449H24.0001V23.1851H21.3683C21.2892 22.6895 21.2101 22.1957 21.1192 21.6284C21.0257 21.7555 20.9718 21.8208 20.9259 21.8907C20.0654 23.2096 18.8912 23.7116 17.3401 23.422C15.9635 23.1651 14.9826 22.1785 14.6939 20.6998C14.5968 20.2015 14.5708 19.6832 14.5627 19.1731C14.5447 17.9223 14.5573 16.6706 14.5573 15.4198C14.5573 15.2591 14.5573 15.0985 14.5573 14.8906H13.1016V13.1724H16.3151C16.3151 13.363 16.3151 13.5227 16.3151 13.6825C16.3151 15.4461 16.3097 17.2098 16.3196 18.9743C16.3223 19.3792 16.3466 19.7894 16.4158 20.1879C16.6694 21.6411 17.9812 22.3037 19.2976 21.6448C20.2093 21.1891 20.7011 20.4112 20.8747 19.4182C20.9106 19.2121 20.9043 18.997 20.9052 18.7864C20.9079 17.5075 20.9061 16.2295 20.9061 14.8761L20.9079 14.8752Z" fill="#474766"/>
<path d="M23.0759 4.41139H21.417C21.417 3.97933 21.3909 3.54636 21.4251 3.11884C21.453 2.77028 21.301 2.61416 21.0115 2.4771C18.7178 1.38878 16.1876 2.84744 15.9619 5.39623C15.7911 7.32508 16.8709 8.96437 18.5964 9.32109C19.8291 9.57525 20.9018 9.20945 21.7938 8.31356C21.8873 8.21916 21.9754 8.12022 22.0851 8.00222C22.5221 8.34351 22.9429 8.67119 23.3897 9.01974C22.4744 10.2506 21.301 10.9495 19.8246 11.0875C17.0661 11.3452 14.5916 9.42094 14.1672 6.71148C13.7293 3.91579 15.3972 1.3089 18.092 0.66353C19.786 0.257792 21.3577 0.629038 22.763 1.65836C22.9231 1.77545 23.0508 2.0405 23.0616 2.24382C23.0975 2.9491 23.0759 3.65619 23.0759 4.41411V4.41139Z" fill="#474766"/>
<path d="M2.68359 2.47495V0.76395C3.23567 0.76395 3.78235 0.757597 4.32813 0.765766C4.80378 0.773027 5.39182 0.63052 5.72361 0.859258C6.03201 1.07166 6.07607 1.68435 6.22353 2.12458C6.89789 4.13421 7.56685 6.14565 8.27628 8.27056C8.46151 7.73775 8.61346 7.31022 8.75822 6.87998C9.39482 4.98381 10.0368 3.08855 10.659 1.18693C10.7651 0.862889 10.9126 0.741258 11.2596 0.753966C12.0617 0.783012 12.8664 0.763043 13.6909 0.763043V2.47676C13.3016 2.47676 12.9294 2.504 12.5625 2.4686C12.1993 2.4341 12.0419 2.57389 11.9196 2.91427C11.0061 5.46216 10.062 7.99916 9.15295 10.5498C9.02167 10.9183 8.84274 11.0163 8.47859 11.0091C7.39872 10.9873 7.39961 11.0018 7.04445 9.98882C6.21364 7.61884 5.37564 5.25067 4.55831 2.87615C4.45221 2.56663 4.31195 2.44681 3.98915 2.4686C3.57375 2.49673 3.15565 2.47495 2.68539 2.47495H2.68359Z" fill="#474766"/>
<path d="M10.9189 23.1995H3.43079V21.5838H4.98901V14.7434H3.4209V13.2003H6.45911C6.49777 13.8012 6.53554 14.3921 6.5733 14.9839C7.70173 13.2802 9.31929 12.9743 11.167 13.1831V16.2347C10.6878 16.2347 10.2274 16.252 9.76977 16.2193C9.68435 16.213 9.55667 16.0096 9.54768 15.8889C9.5189 15.5168 9.53689 15.141 9.53689 14.7352C8.97312 14.6799 8.49568 14.8678 8.06768 15.1827C7.32859 15.7255 6.84574 16.4726 6.80079 17.3812C6.73245 18.7636 6.7828 20.1514 6.7828 21.5747H10.918V23.2004L10.9189 23.1995Z" fill="#474766"/>
<path d="M1.64184 23.2248H0V21.5093H1.64184V23.2248Z" fill="#474766"/>
</g>
<defs>
<clipPath id="clip0_4141_3250">
<rect width="24" height="23" fill="white" transform="translate(0 0.5)"/>
</clipPath>
</defs>
</svg>
