<svg width="17" height="16" viewBox="0 0 17 16" fill="none" xmlns="http://www.w3.org/2000/svg">
<path d="M7.72754 11.333H9.06087V7.33301H7.72754V11.333ZM8.39421 5.99967C8.58309 5.99967 8.74154 5.93567 8.86954 5.80767C8.99754 5.67967 9.06132 5.52145 9.06087 5.33301C9.06087 5.14412 8.99687 4.9859 8.86887 4.85834C8.74087 4.73079 8.58265 4.66679 8.39421 4.66634C8.20532 4.66634 8.04709 4.73034 7.91954 4.85834C7.79198 4.98634 7.72798 5.14456 7.72754 5.33301C7.72754 5.5219 7.79154 5.68034 7.91954 5.80834C8.04754 5.93634 8.20576 6.00012 8.39421 5.99967ZM8.39421 14.6663C7.47198 14.6663 6.60532 14.4912 5.79421 14.141C4.98309 13.7908 4.27754 13.3159 3.67754 12.7163C3.07754 12.1163 2.60265 11.4108 2.25287 10.5997C1.90309 9.78856 1.72798 8.9219 1.72754 7.99967C1.72754 7.07745 1.90265 6.21079 2.25287 5.39967C2.60309 4.58856 3.07798 3.88301 3.67754 3.28301C4.27754 2.68301 4.98309 2.20812 5.79421 1.85834C6.60532 1.50856 7.47198 1.33345 8.39421 1.33301C9.31643 1.33301 10.1831 1.50812 10.9942 1.85834C11.8053 2.20856 12.5109 2.68345 13.1109 3.28301C13.7109 3.88301 14.186 4.58856 14.5362 5.39967C14.8864 6.21079 15.0613 7.07745 15.0609 7.99967C15.0609 8.9219 14.8858 9.78856 14.5355 10.5997C14.1853 11.4108 13.7104 12.1163 13.1109 12.7163C12.5109 13.3163 11.8053 13.7915 10.9942 14.1417C10.1831 14.4919 9.31643 14.6668 8.39421 14.6663Z" fill="#795DDB"/>
</svg>
