<svg width="29" height="30" viewBox="0 0 29 30" fill="none" xmlns="http://www.w3.org/2000/svg">
<path d="M20.2681 2.09592C20.2681 2.09592 19.6168 6.18971 17.756 7.77141C15.8952 9.3531 17.756 14.3773 17.756 14.3773C17.756 14.3773 19.6168 17.3546 15.3369 19.1224C11.0571 20.8902 9.56843 24.7048 7.61457 26.1004C6.03288 27.31 3.98597 28.5195 2.31124 27.496C1.65996 27.1239 1.47388 26.1935 1.93908 25.5422C4.17206 22.751 10.6849 13.633 11.5223 2.0029" stroke="#795DDB" stroke-width="1.5" stroke-miterlimit="10" stroke-linecap="round" stroke-linejoin="round"/>
<path d="M27.6179 1.63071C27.6179 1.63071 27.1527 5.72452 25.478 7.49229C23.8032 9.26006 25.8501 14.0982 25.8501 14.0982C25.8501 14.0982 27.897 16.9824 23.7102 18.9363C19.5234 20.9832 18.2208 24.7978 16.36 26.3795C14.7783 27.6821 12.9175 28.9847 11.0566 28.0543" stroke="#795DDB" stroke-width="1.5" stroke-miterlimit="10" stroke-linecap="round" stroke-linejoin="round"/>
</svg>
