<svg width="24" height="20" viewBox="0 0 24 20" fill="none" xmlns="http://www.w3.org/2000/svg">
<path fill-rule="evenodd" clip-rule="evenodd" d="M1.64987 8.67938C8.09231 5.99804 12.3883 4.23034 14.5378 3.37627C20.675 0.937736 21.9503 0.514137 22.7815 0.500149C22.9643 0.497073 23.3731 0.540353 23.6379 0.745594C23.8614 0.918895 23.9229 1.153 23.9524 1.31731C23.9818 1.48162 24.0185 1.85592 23.9893 2.14838C23.6568 5.48655 22.2177 13.5874 21.4856 17.3262C21.1758 18.9082 20.5658 19.4387 19.9753 19.4906C18.6919 19.6034 17.7174 18.6804 16.4744 17.902C14.5294 16.684 13.4305 15.9259 11.5425 14.7373C9.36064 13.3638 10.7751 12.6089 12.0185 11.3751C12.344 11.0522 17.9985 6.13905 18.1079 5.69335C18.1216 5.63761 18.1343 5.42982 18.0051 5.32011C17.8759 5.21039 17.6851 5.24791 17.5475 5.27775C17.3524 5.32004 14.2452 7.28196 8.22584 11.1635C7.34386 11.742 6.545 12.0239 5.82924 12.0091C5.04017 11.9929 3.52233 11.5829 2.39397 11.2326C1.00999 10.8028 -0.0899676 10.5756 0.00581422 9.84573C0.0557033 9.46558 0.603723 9.07679 1.64987 8.67938Z" fill="white"/>
</svg>
