<svg width="15" height="13" viewBox="0 0 15 13" fill="none" xmlns="http://www.w3.org/2000/svg">
<path d="M14.3583 5.39244L13.4269 11.291C13.4269 11.291 13.3234 12.1189 12.7025 12.3258C11.9782 12.3258 11.3573 12.1189 10.8398 11.7049C10.7364 11.6015 8.04579 9.94572 7.11443 9.11785C6.80398 8.91088 6.7005 8.49695 6.90747 8.08301C7.01095 7.97953 7.01095 7.87605 7.11443 7.87605C8.45972 6.63424 10.012 5.08199 11.0468 4.15064C11.4607 3.73671 11.9782 2.70187 10.1155 3.94367L4.83779 7.46211C4.32038 7.66908 3.69947 7.66908 3.07857 7.46211C1.83677 7.15166 0.594968 6.63425 0.594968 6.63425C0.594968 6.63425 -0.336385 6.11683 1.21587 5.49593L9.90849 1.874C10.7364 1.46007 13.7374 0.321748 13.7374 0.321748C13.7374 0.321748 15.0827 -0.195669 14.9792 1.04613C14.9792 1.56355 14.6687 3.42626 14.3583 5.39244Z" fill="#795DDB"/>
</svg>
