<svg width="15" height="15" viewBox="0 0 15 15" fill="none" xmlns="http://www.w3.org/2000/svg">
<path d="M8.93628 5.20494C8.73195 5.12691 8.42545 5.08789 8.01678 5.08789H5.82275V6.86987H7.96171C8.38633 6.87002 8.70496 6.83398 8.9176 6.76174C9.29349 6.63601 9.48154 6.38698 9.48176 6.01466C9.48176 5.61277 9.29993 5.34286 8.93628 5.20494Z" fill="#795DDB"/>
<path d="M7.65257 0.394531C3.86503 0.394531 0.793945 3.46516 0.793945 7.2527C0.793945 11.0402 3.86503 14.1109 7.65257 14.1109C11.4401 14.1109 14.5107 11.0402 14.5107 7.2527C14.5107 3.46516 11.4401 0.394531 7.65257 0.394531ZM11.0166 10.5693H9.48653C9.45207 10.452 9.4221 10.3334 9.39669 10.2138C9.36008 10.0255 9.3405 9.83419 9.33816 9.64232L9.32879 9.02577C9.32346 8.60285 9.25038 8.32082 9.10956 8.1797C8.96919 8.03903 8.70607 7.96862 8.32018 7.96847H6.59088H5.91397V10.5693H4.55949V3.93609H8.78471C9.23826 3.94508 9.58711 4.00208 9.83127 4.10709C10.1975 4.2646 10.2828 4.36655 10.4524 4.57047C10.5924 4.73763 10.705 4.92599 10.7859 5.1285C10.8676 5.33241 10.9085 5.56491 10.9087 5.82597C10.9087 6.14099 10.8292 6.45068 10.6702 6.75503C10.4318 7.21155 10.2487 7.27465 9.8827 7.40107C10.1887 7.52406 10.4054 7.69879 10.5329 7.92526C10.6606 8.15173 10.7244 8.49746 10.7244 8.96244V9.408C10.7244 9.71082 10.7366 9.91634 10.761 10.0245C10.7976 10.1955 10.8829 10.3214 11.0168 10.4022L11.0166 10.5693Z" fill="#795DDB"/>
</svg>
