<svg width="15" height="28" viewBox="0 0 15 28" fill="none" xmlns="http://www.w3.org/2000/svg">
<path d="M10.8809 4.54999V12.15C10.8809 14.15 9.28086 15.65 7.38086 15.65C5.38086 15.65 3.88086 14.05 3.88086 12.15V4.54999C3.88086 2.54999 5.48086 1.04999 7.38086 1.04999C8.38086 1.04999 9.28086 1.44999 9.88086 2.04999C10.4809 2.64999 10.8809 3.54999 10.8809 4.54999Z" stroke="#795DDB" stroke-width="1.5" stroke-miterlimit="10" stroke-linecap="round" stroke-linejoin="round"/>
<path d="M1.08105 26.95V10.25C1.08105 8.64998 2.28107 7.34999 3.78107 7.14999V12.15C3.78107 14.15 5.38107 15.65 7.28107 15.65C9.28107 15.65 10.7811 14.05 10.7811 12.15V7.14999C12.2811 7.34999 13.481 8.64998 13.481 10.25V26.95" stroke="#795DDB" stroke-width="1.5" stroke-miterlimit="10" stroke-linecap="round" stroke-linejoin="round"/>
<path d="M5.78125 21.95H8.88126" stroke="#795DDB" stroke-width="1.5" stroke-miterlimit="10" stroke-linecap="round" stroke-linejoin="round"/>
</svg>
