<svg width="66" height="66" viewBox="0 0 66 66" fill="none" xmlns="http://www.w3.org/2000/svg">
<rect x="0.658203" y="0.916016" width="65.084" height="65.084" rx="16" fill="white"/>
<path fill-rule="evenodd" clip-rule="evenodd" d="M20.5578 35.1392C20.0763 35.1392 19.6145 35.3305 19.274 35.671C18.9335 36.0115 18.7422 36.4733 18.7422 36.9548V46.1004C18.7422 47.1037 19.5545 47.916 20.5578 47.916H45.8425C46.081 47.916 46.3171 47.8691 46.5374 47.7778C46.7577 47.6866 46.9578 47.5528 47.1264 47.3842C47.295 47.2156 47.4288 47.0155 47.52 46.7952C47.6112 46.5749 47.6582 46.3388 47.6582 46.1004V36.9548C47.6582 36.7164 47.6112 36.4803 47.52 36.26C47.4288 36.0397 47.295 35.8396 47.1264 35.671C46.9578 35.5024 46.7577 35.3686 46.5374 35.2774C46.3171 35.1861 46.081 35.1392 45.8425 35.1392H20.5578ZM25.8932 42.2001C26.0607 41.9997 26.144 41.7422 26.1256 41.4817C26.1072 41.2212 25.9884 40.978 25.7944 40.8033C25.6003 40.6286 25.346 40.5359 25.085 40.5448C24.824 40.5537 24.5766 40.6635 24.3949 40.8511L24.3815 40.8659C24.209 41.0656 24.1216 41.3249 24.138 41.5882C24.1545 41.8516 24.2735 42.098 24.4695 42.2746C24.6655 42.4513 24.9229 42.5441 25.1865 42.5332C25.4502 42.5223 25.699 42.4085 25.8797 42.2162L25.8932 42.2001ZM20.5578 19C20.0763 19 19.6145 19.1913 19.274 19.5318C18.9335 19.8723 18.7422 20.3341 18.7422 20.8157V29.9612C18.7422 30.9645 19.5545 31.7768 20.5578 31.7768H45.8425C46.081 31.7768 46.3171 31.7299 46.5374 31.6386C46.7577 31.5474 46.9578 31.4137 47.1264 31.2451C47.295 31.0765 47.4288 30.8763 47.52 30.656C47.6112 30.4357 47.6582 30.1996 47.6582 29.9612V20.8157C47.6582 20.5772 47.6112 20.3411 47.52 20.1208C47.4288 19.9005 47.295 19.7004 47.1264 19.5318C46.9578 19.3632 46.7577 19.2295 46.5374 19.1382C46.3171 19.047 46.081 19 45.8425 19H20.5578ZM25.8932 26.0609C26.0607 25.8606 26.144 25.6031 26.1256 25.3426C26.1072 25.0821 25.9884 24.8389 25.7944 24.6641C25.6003 24.4894 25.346 24.3967 25.085 24.4056C24.824 24.4146 24.5766 24.5243 24.3949 24.7119L24.3815 24.7267C24.2895 24.8245 24.218 24.9397 24.1712 25.0655C24.1243 25.1913 24.1031 25.3252 24.1086 25.4593C24.1142 25.5935 24.1465 25.7251 24.2036 25.8466C24.2607 25.9681 24.3414 26.077 24.4412 26.1669C24.5409 26.2567 24.6575 26.3258 24.7843 26.37C24.911 26.4142 25.0453 26.4327 25.1793 26.4243C25.3133 26.4159 25.4443 26.3809 25.5645 26.3213C25.6848 26.2616 25.792 26.1786 25.8797 26.077L25.8932 26.0609Z" fill="#474766"/>
</svg>
