<svg width="24" height="22" viewBox="0 0 24 22" fill="none" xmlns="http://www.w3.org/2000/svg">
<g clip-path="url(#clip0_4141_3241)">
<path d="M0.00771265 13.0888C0.00771265 11.258 0.00232128 9.42728 0.00906049 7.59685C0.0164736 5.60611 1.34005 3.84604 3.25635 3.24929C3.76987 3.08931 4.29149 3.01497 4.82962 3.01563C7.3676 3.01961 9.90592 3.01762 12.4439 3.01696C12.8688 3.01696 13.2162 3.15436 13.4103 3.55198C13.7038 4.15372 13.2914 4.85834 12.6144 4.87328C11.677 4.89419 10.7392 4.8839 9.80146 4.8839C8.16754 4.8839 6.53329 4.88157 4.89937 4.87991C3.998 4.87892 3.20479 5.14012 2.60366 5.83114C2.15752 6.34393 1.91659 6.94732 1.91322 7.62373C1.90379 9.55938 1.90682 11.4954 1.90615 13.4313C1.90547 15.1127 1.90379 16.7941 1.90918 18.4756C1.90985 18.6554 1.923 18.8453 1.98196 19.0126C2.19324 19.6113 2.9204 19.8081 3.41068 19.3976C3.8895 18.9966 4.3572 18.5821 4.81681 18.1599C5.11772 17.8834 5.46142 17.7557 5.8688 17.756C8.86168 17.7583 11.8546 17.7593 14.8474 17.7553C15.2619 17.7547 15.6818 17.7616 16.0898 17.7022C17.1785 17.5439 18.1055 16.6259 18.2892 15.5532C18.3309 15.3092 18.3431 15.059 18.3478 14.811C18.3592 14.1808 18.3441 13.5498 18.3663 12.9199C18.3886 12.2909 18.9469 11.8936 19.5598 12.0443C19.9116 12.1306 20.2351 12.4605 20.2368 12.8269C20.2415 13.7828 20.2722 14.744 20.1819 15.6929C20.0538 17.0378 19.3152 18.0627 18.2103 18.836C17.3841 19.4142 16.4467 19.6365 15.4459 19.6369C12.4419 19.6372 9.43755 19.6399 6.43355 19.6322C6.12556 19.6316 5.8907 19.7218 5.66561 19.9289C5.25991 20.3017 4.85017 20.6774 4.40168 20.9963C3.33553 21.7544 2.06688 21.611 1.06678 20.8732C0.372641 20.3611 0.0339956 19.6584 0.0259085 18.8128C0.00872353 17.0321 0.00804961 15.2511 0.00029952 13.4702C-0.0003744 13.343 0.00029952 13.2156 0.00029952 13.0885H0.00737569L0.00771265 13.0888Z" fill="#474766"/>
<path d="M10.1955 12.847C10.2578 11.4646 10.6854 10.2037 11.4827 9.06398C11.9575 8.38524 12.5684 7.82798 13.1547 7.24915C15.0851 5.34238 17.0179 3.43794 18.948 1.53084C19.3527 1.13123 19.7911 0.788045 20.3498 0.615457C21.6764 0.20556 23.4572 0.896908 23.8953 2.53285C24.1901 3.63409 23.8387 4.51097 23.1044 5.29359C22.663 5.76423 22.1872 6.204 21.7276 6.65803C19.964 8.39952 18.1986 10.1393 16.4377 11.8835C15.4635 12.8483 14.3367 13.5516 12.9845 13.8785C12.4107 14.0173 11.8291 14.1012 11.2367 14.1042C10.5712 14.1075 10.1763 13.7172 10.1837 13.0624C10.1844 12.9907 10.1914 12.919 10.1955 12.8473V12.847ZM12.1755 12.1065C12.2641 12.1065 12.2921 12.1115 12.3177 12.1058C13.305 11.8898 14.1733 11.4517 14.892 10.7461C16.804 8.86882 18.7125 6.98828 20.6217 5.10839C21.0264 4.70978 21.4405 4.31946 21.8297 3.90625C22.287 3.42035 22.1566 2.73431 21.5746 2.46082C21.2016 2.28558 20.7831 2.38814 20.4172 2.74825C18.2263 4.90527 16.0387 7.06528 13.8441 9.21831C13.2645 9.78686 12.7742 10.4112 12.4818 11.1692C12.3675 11.4659 12.283 11.7736 12.1755 12.1062V12.1065Z" fill="#474766"/>
<path d="M6.11215 10.4109C5.6576 10.4109 5.2027 10.4159 4.74814 10.4096C4.21069 10.402 3.85789 10.1255 3.76691 9.6542C3.66818 9.14274 4.01188 8.65219 4.5335 8.56921C4.68243 8.54565 4.83474 8.53104 4.9857 8.53038C5.74352 8.52673 6.50168 8.52076 7.25917 8.53436C7.4792 8.53835 7.71339 8.56822 7.91456 8.64953C8.32801 8.81648 8.53557 9.25525 8.44358 9.67278C8.34957 10.0999 7.99745 10.3957 7.54323 10.405C7.06643 10.4149 6.58895 10.4073 6.11182 10.4073C6.11182 10.4086 6.11182 10.4096 6.11182 10.4109H6.11215Z" fill="#474766"/>
<path d="M6.09694 12.2433C6.59665 12.2433 7.0967 12.2304 7.59574 12.2476C7.95662 12.2602 8.22316 12.4564 8.37142 12.777C8.52137 13.1013 8.49407 13.4255 8.28078 13.7213C8.09376 13.9801 7.81779 14.096 7.51015 14.0993C6.56127 14.1092 5.61205 14.1089 4.66317 14.0986C4.15369 14.0933 3.75338 13.6778 3.74428 13.1769C3.73552 12.6894 4.13954 12.2599 4.64902 12.2443C5.13121 12.2297 5.61441 12.241 6.09727 12.241C6.09727 12.242 6.09727 12.2426 6.09727 12.2436L6.09694 12.2433Z" fill="#474766"/>
</g>
<defs>
<clipPath id="clip0_4141_3241">
<rect width="24" height="21" fill="white" transform="translate(0 0.5)"/>
</clipPath>
</defs>
</svg>
