<svg width="26" height="27" viewBox="0 0 26 27" fill="none" xmlns="http://www.w3.org/2000/svg">
<rect y="0.845215" width="26" height="26" rx="3.71429" fill="#F5F6F9"/>
<path fill-rule="evenodd" clip-rule="evenodd" d="M8.68892 8.31805C8.68892 8.14214 8.62253 7.97344 8.50436 7.84905C8.3862 7.72466 8.22593 7.65479 8.05881 7.65479C7.8917 7.65479 7.73143 7.72466 7.61326 7.84905C7.4951 7.97344 7.42871 8.14214 7.42871 8.31805V19.3725C7.42871 19.7386 7.711 20.0357 8.05881 20.0357H18.5605C18.7276 20.0357 18.8879 19.9659 19.0061 19.8415C19.1242 19.7171 19.1906 19.5484 19.1906 19.3725C19.1906 19.1966 19.1242 19.0279 19.0061 18.9035C18.8879 18.7791 18.7276 18.7092 18.5605 18.7092H8.68892V16.2507L10.5389 14.1707C10.7834 14.3175 11.0665 14.4006 11.3673 14.4006C11.7487 14.4006 12.0999 14.268 12.3822 14.0416L13.5777 15.216C13.4845 15.5115 13.467 15.8276 13.5269 16.1324C13.5869 16.4372 13.7221 16.7201 13.919 16.9524C14.1159 17.1846 14.3675 17.3582 14.6484 17.4555C14.9293 17.5527 15.2296 17.5703 15.5191 17.5065C15.8085 17.4426 16.0769 17.2995 16.297 17.0917C16.5172 16.8838 16.6814 16.6185 16.7731 16.3226C16.8648 16.0266 16.8807 15.7104 16.8193 15.4059C16.7579 15.1014 16.6212 14.8193 16.4232 14.5881L16.4249 14.5837L17.3986 11.7688C17.7867 11.7322 18.1506 11.5547 18.428 11.2667C18.7054 10.9787 18.8791 10.5982 18.9192 10.1902C18.9594 9.78229 18.8635 9.37233 18.6481 9.03059C18.4327 8.68885 18.1111 8.43659 17.7384 8.31701C17.3657 8.19743 16.9651 8.21798 16.6052 8.37514C16.2453 8.53229 15.9485 8.81628 15.7657 9.17845C15.5829 9.54061 15.5253 9.95843 15.603 10.3603C15.6806 10.7622 15.8886 11.1232 16.1913 11.3815L15.2831 14.008C14.9756 13.988 14.6688 14.0562 14.3951 14.2052L13.0996 12.9317C13.0785 12.911 13.056 12.8918 13.0324 12.8742C13.0662 12.614 13.0444 12.349 12.9687 12.0988C12.8929 11.8485 12.7651 11.6191 12.5945 11.4273C12.424 11.2356 12.2149 11.0863 11.9826 10.9903C11.7503 10.8943 11.5006 10.8541 11.2517 10.8725C11.0028 10.8909 10.7608 10.9675 10.5436 11.0967C10.3263 11.2259 10.1391 11.4045 9.99569 11.6194C9.85224 11.8344 9.75614 12.0803 9.71437 12.3393C9.67259 12.5983 9.6862 12.8638 9.75421 13.1166L9.729 13.1422L8.68892 14.3095V8.31805Z" fill="#795DDB"/>
</svg>
