<svg width="26" height="27" viewBox="0 0 26 27" fill="none" xmlns="http://www.w3.org/2000/svg">
<rect y="0.845215" width="26" height="26" rx="3.71429" fill="#F5F6F9"/>
<path d="M17.7426 8.54575L18.0411 8.84426C18.4524 9.25611 18.3902 9.9862 17.901 10.475L11.745 16.6309L9.75054 17.3605C9.50009 17.4526 9.25622 17.3332 9.20663 17.0949C9.18988 17.0084 9.19777 16.919 9.2294 16.8368L9.97316 14.8252L16.1119 8.6859C16.6012 8.19715 17.3313 8.1339 17.7426 8.54575ZM11.4763 9.15796C11.5428 9.15796 11.6086 9.17104 11.67 9.19647C11.7314 9.2219 11.7871 9.25916 11.8341 9.30615C11.8811 9.35313 11.9184 9.4089 11.9438 9.47029C11.9692 9.53168 11.9823 9.59747 11.9823 9.66391C11.9823 9.73035 11.9692 9.79615 11.9438 9.85753C11.9184 9.91892 11.8811 9.97469 11.8341 10.0217C11.7871 10.0687 11.7314 10.1059 11.67 10.1314C11.6086 10.1568 11.5428 10.1699 11.4763 10.1699H9.45253C9.18415 10.1699 8.92677 10.2765 8.737 10.4662C8.54723 10.656 8.44062 10.9134 8.44062 11.1818V17.2532C8.44062 17.5216 8.54723 17.779 8.737 17.9688C8.92677 18.1585 9.18415 18.2651 9.45253 18.2651H15.524C15.7924 18.2651 16.0497 18.1585 16.2395 17.9688C16.4293 17.779 16.5359 17.5216 16.5359 17.2532V15.2294C16.5359 15.0952 16.5892 14.9665 16.6841 14.8716C16.779 14.7768 16.9077 14.7235 17.0418 14.7235C17.176 14.7235 17.3047 14.7768 17.3996 14.8716C17.4945 14.9665 17.5478 15.0952 17.5478 15.2294V17.2532C17.5478 17.79 17.3346 18.3047 16.955 18.6843C16.5755 19.0638 16.0607 19.277 15.524 19.277H9.45253C8.91578 19.277 8.40101 19.0638 8.02147 18.6843C7.64193 18.3047 7.42871 17.79 7.42871 17.2532V11.1818C7.42871 10.645 7.64193 10.1303 8.02147 9.75072C8.40101 9.37118 8.91578 9.15796 9.45253 9.15796H11.4763Z" fill="#795DDB"/>
</svg>
