<svg width="66" height="66" viewBox="0 0 66 66" fill="none" xmlns="http://www.w3.org/2000/svg">
<rect width="65.084" height="65.084" rx="16" fill="white"/>
<g clip-path="url(#clip0_6006_5885)">
<path d="M24.7778 34.7298C24.4238 35.1434 24.0872 35.5757 23.7102 35.9661C23.1189 36.5763 22.4528 37.065 21.5766 37.2081C20.7105 37.3498 20.0199 37.0447 19.4933 36.157C20.9479 35.58 22.5779 35.2518 23.4225 33.7553C23.3822 33.6888 23.3434 33.6222 23.3031 33.5557C23.0945 33.6714 22.8815 33.7799 22.6772 33.9028C21.3493 34.7024 20.0084 35.4484 18.3653 35.0393C17.7496 34.886 17.2849 34.5722 17.0662 33.9331C16.905 33.4661 17.0216 33.2796 17.5251 33.2405C18.4761 33.1682 19.4329 33.093 20.3681 32.921C20.9997 32.8053 21.5996 32.5205 22.2139 32.3122C22.1938 32.2284 22.1737 32.146 22.1535 32.0621C21.5464 32.1575 20.9407 32.2906 20.3292 32.3412C19.0962 32.4409 17.8488 32.6535 16.6633 32.0664C15.9066 31.6919 15.4044 31.1266 15.3267 30.2547C15.3095 30.0595 15.3152 29.8195 15.4159 29.6763C15.4677 29.604 15.7742 29.6561 15.9339 29.7255C17.6201 30.4716 19.3868 30.6277 21.1982 30.4976C21.2845 30.4918 21.368 30.4557 21.4529 30.4325C21.4615 30.3704 21.4687 30.3067 21.4773 30.2446C20.991 30.1578 20.5033 30.0826 20.0199 29.9829C18.6488 29.6995 17.2244 29.5766 16.0663 28.6439C15.2174 27.96 14.77 26.5098 15.1196 25.5048C15.2922 25.0103 15.5469 25.0754 15.8519 25.3892C17.1712 26.7527 18.7207 27.7663 20.4832 28.4531C20.7695 28.5644 21.0673 28.6483 21.3593 28.7452C21.4083 28.6974 21.4572 28.6497 21.5061 28.6035C21.3536 28.4343 21.2212 28.2391 21.0457 28.1003C19.8444 27.1575 18.561 26.303 17.446 25.2692C16.295 24.2021 16.1511 22.2428 16.9482 21.089C17.423 20.4022 17.6158 20.3805 18.0603 21.0716C19.4127 23.1784 20.9205 25.1607 22.7017 26.9175C23.3808 27.587 24.139 28.1812 24.8943 28.7668C25.2583 29.0502 25.4079 29.2238 25.0655 29.6734C23.9217 31.1786 25.0367 32.5711 26.4812 32.8921C26.979 33.0019 27.5373 32.9513 28.0451 32.8516C28.4451 32.7735 28.6724 32.8487 28.7328 33.2246C28.8638 34.0488 28.9846 34.8788 29.0422 35.7116C29.0566 35.9155 28.8134 36.1382 28.6882 36.3521C28.5142 36.2177 28.3487 36.0702 28.1645 35.9516C27.6178 35.6003 27.074 35.2373 26.4985 34.9409C26.4208 34.9004 26.0597 35.1853 26.0079 35.3704C25.8007 36.1063 25.6468 36.8597 25.5058 37.6115C25.3979 38.1827 25.054 38.5644 24.526 38.6179C23.939 38.6786 23.3045 38.67 22.7506 38.4979C22.3665 38.3779 22.6499 38.0771 22.8671 37.8458C23.5333 37.1387 24.185 36.4143 24.7936 35.6567C24.9576 35.4528 24.9447 35.1058 25.0123 34.8238C24.936 34.792 24.8583 34.7587 24.7821 34.7269L24.7778 34.7298Z" fill="#474766"/>
<path d="M43.591 30.4758C44.9549 30.5972 46.3159 30.577 47.6582 30.2054C48.1647 30.0651 48.6524 29.8439 49.1632 29.734C49.3042 29.7037 49.6279 29.9162 49.6523 30.0565C49.8293 31.0744 49.0092 32.0475 47.9676 31.9839C46.5216 31.8957 45.0829 31.7092 43.6399 31.5689C43.5521 31.5602 43.46 31.592 43.3694 31.6051C43.3478 31.6672 43.3262 31.7308 43.3046 31.793C43.7607 31.9767 44.2024 32.2398 44.6758 32.328C45.7073 32.5203 46.7547 32.6172 47.7935 32.7705C48.0323 32.8066 48.4323 32.8818 48.4567 33.0018C48.5085 33.2462 48.4193 33.5787 48.2726 33.7971C47.7791 34.5403 46.4842 34.8931 45.3937 34.52C44.542 34.2294 43.7363 33.8029 42.9148 33.4298C42.6673 33.317 42.4299 33.1811 42.135 33.0278C42.2213 33.7783 42.4428 34.0631 43.7391 34.7572C44.4398 35.1317 45.2182 35.3572 45.9591 35.6493C45.5404 36.7786 44.1679 37.1733 43.0111 36.4185C42.3033 35.9558 41.7177 35.2994 41.0991 34.7051C40.9566 34.5677 40.9077 34.3321 40.6934 34.2439C40.4286 35.1635 40.9264 35.7346 41.3839 36.258C41.8616 36.806 42.4687 37.2413 43.0155 37.7227C42.4213 38.5079 41.3077 38.6163 40.5322 37.9946C39.7826 37.3931 39.4359 36.5646 39.2215 35.6594C39.1625 35.4078 39.1021 35.1562 39.0417 34.9032C37.8806 34.7138 37.2649 35.4671 36.5484 36.3506C36.3844 35.9515 36.1772 35.684 36.1858 35.4223C36.2088 34.6343 36.2894 33.8433 36.4146 33.064C36.4361 32.9281 36.7843 32.7647 36.9901 32.7531C37.5612 32.7213 38.1425 32.8196 38.7079 32.7618C39.492 32.6808 40.1409 32.2948 40.4128 31.5125C40.6617 30.7997 40.6157 30.0926 40.0517 29.5012C39.9553 29.4 39.892 29.267 39.7481 29.0501C43.0155 26.7872 45.3189 23.651 47.4511 20.4165C48.3949 20.7606 48.71 22.4928 48.4582 23.4746C48.0496 25.0651 46.8756 26.0079 45.6368 26.8942C45.0743 27.2976 44.4729 27.6476 43.8945 28.0293C43.7449 28.1291 43.6154 28.2592 43.3032 28.5223C43.7089 28.5223 43.9132 28.5701 44.0859 28.5151C45.9649 27.9208 47.6093 26.9289 49.025 25.5495C49.2006 25.3775 49.4106 25.2415 49.6034 25.0912C50.5055 26.1959 49.766 28.4905 48.333 29.0284C47.2468 29.4362 46.0972 29.6805 44.9693 29.9741C44.506 30.0955 44.0269 30.1577 43.555 30.2459L43.5881 30.4772L43.591 30.4758Z" fill="#474766"/>
<path d="M26.0794 26.4661C26.2233 26.1393 26.3657 25.8125 26.606 25.2645C25.8708 25.425 25.2435 25.5624 24.5414 25.7157C23.9889 25.1055 24.1846 24.1078 25.1082 23.7376C25.5442 23.5627 26.0333 23.4557 26.5009 23.4456C28.1195 23.4109 29.7381 23.4325 31.4156 23.4325C31.5235 24.2249 30.6114 24.4751 30.2388 25.1156C31.4703 26.3143 32.0257 27.8845 32.4774 29.5893C32.7968 28.7174 33.0198 27.9106 33.3824 27.1746C33.7392 26.4502 34.237 25.7981 34.6801 25.1011C34.2902 24.6037 33.8615 24.0586 33.4342 23.5121C33.4788 23.421 33.5248 23.3313 33.5694 23.2402C34.0615 23.2981 34.5521 23.3877 35.0456 23.408C36.2872 23.46 37.5317 23.4644 38.7733 23.5222C39.1474 23.5395 39.5373 23.6162 39.8826 23.7579C40.8523 24.1526 41.0177 24.9594 40.3761 25.7822C39.7459 25.6058 39.1287 25.4323 38.3589 25.2168C38.6582 25.7388 38.8496 26.0714 39.0409 26.4039C39.0006 26.4618 38.9603 26.5181 38.9201 26.576C38.3676 26.4184 37.8165 26.2564 37.2626 26.1061C37.1504 26.0757 36.9806 26.0294 36.9145 26.0844C35.7505 27.0531 34.5564 29.2755 35.5016 30.9716C35.5592 31.0742 35.6455 31.161 35.7016 31.2637C35.7966 31.4386 35.8771 31.6208 35.9649 31.8015C35.7707 31.8681 35.5822 31.9534 35.3837 31.9967C33.4112 32.4334 31.4358 32.3148 29.4633 31.9967C29.2676 31.9649 29.0835 31.8681 28.8619 31.7914C29.1281 31.2969 29.4273 30.908 29.5582 30.4684C30.0488 28.8287 29.4345 27.4681 28.2533 26.3967C27.9857 26.1538 27.298 26.3562 26.8059 26.3895C26.6247 26.401 26.4506 26.5152 26.2722 26.5832C26.2089 26.5456 26.1441 26.5066 26.0808 26.469L26.0794 26.4661Z" fill="#474766"/>
<path d="M30.172 40.9845C31.1676 40.0403 31.1978 40.0418 32.6595 41.0481C33.3933 40.2876 34.2033 39.9116 35.1039 40.9064C34.7802 41.3836 34.4277 41.881 34.0997 42.3957C33.8695 42.7587 33.9544 42.9221 34.3975 43.1129C35.4593 43.5713 36.5067 44.0933 37.4865 44.7078C37.921 44.9796 38.249 45.4987 38.4965 45.973C38.8072 46.5658 38.1828 47.5664 37.5153 47.5765C37.3268 47.5794 37.0462 47.3148 36.9556 47.108C36.278 45.5536 35.1212 44.5299 33.5127 43.8532C34.0896 44.3579 34.6766 44.7425 35.0881 45.2673C35.5356 45.8385 35.8679 46.5195 36.16 47.1919C36.3887 47.7153 35.7917 48.6725 35.2277 48.726C35.0838 48.739 34.8335 48.4701 34.7644 48.2821C34.4551 47.4319 34.2019 46.56 33.9055 45.704C33.8307 45.49 33.6667 45.3064 33.4365 45.1502C33.6307 46.1118 33.8264 47.0719 34.0206 48.0334C34.1601 48.7274 34.0494 49.3636 33.4062 49.7323C33.0897 49.9145 32.6121 50.0765 32.3099 49.9651C31.8121 49.7815 31.287 49.3983 31.3589 48.7491C31.4712 47.7269 31.674 46.7162 31.8467 45.7011C31.8783 45.516 31.9445 45.3382 32.0409 44.9941C30.8885 46.1016 30.8496 47.4941 30.4971 48.7274C29.4958 48.7216 28.926 48.0464 29.1375 47.1427C29.4195 45.9325 30.2065 45.0779 31.1633 44.355C31.3474 44.2162 31.5488 44.1005 31.7071 43.9299C30.2439 44.4518 29.1102 45.3613 28.4297 46.7957C28.2527 47.1673 28.3074 47.8165 27.5794 47.5317C26.8787 47.2569 26.4615 46.4978 26.7766 45.9281C27.0255 45.4784 27.3564 44.9984 27.7765 44.7352C28.7649 44.1178 29.7994 43.551 30.8741 43.1071C31.3949 42.8917 31.3949 42.7023 31.1604 42.3451C30.8611 41.8911 30.523 41.4631 30.1734 40.986L30.172 40.9845Z" fill="#474766"/>
<path d="M29.1935 21.9058C30.2883 21.8552 30.8811 20.8546 30.4092 19.9581C30.1977 19.5562 30.0179 19.1354 29.8653 18.7074C29.6539 18.1088 29.8222 17.6302 30.3876 17.302C30.9674 16.9651 31.3516 17.1834 31.7242 17.6736C32.4896 18.6814 32.5054 18.6684 33.3356 17.7198C33.678 17.3294 34.0204 16.9593 34.616 17.26C35.2088 17.5593 35.344 18.0698 35.2203 18.6554C35.1369 19.0486 34.9887 19.439 34.8103 19.8005C34.265 20.9081 34.7167 21.7771 36.0001 22.0027C35.9756 21.7178 35.9296 21.4373 35.9325 21.1568C35.9397 20.3688 36.4749 20.0405 37.118 20.4873C37.5453 20.7838 37.8187 20.8112 38.246 20.4859C38.7538 20.0984 39.2977 20.3847 39.407 21.0137C39.5696 21.9434 38.9322 22.7271 38.0114 22.7314C37.4604 22.7343 36.9079 22.7647 36.3583 22.7285C35.1412 22.649 34.101 22.2022 33.5816 21.0165C33.2651 20.2936 32.6982 20.6493 32.2306 20.5712C31.835 20.5047 31.5918 20.6493 31.399 21.0527C30.8868 22.1212 29.9502 22.6259 28.8122 22.7242C28.0986 22.7864 27.3749 22.7574 26.657 22.7343C26.0642 22.7155 25.611 21.9015 25.706 21.0556C25.765 20.5336 26.0628 20.2748 26.5865 20.3601C26.762 20.389 26.9131 20.5553 27.0886 20.5871C27.3317 20.6319 27.5907 20.6377 27.8353 20.6088C28.1676 20.5698 28.6065 20.3196 28.7935 20.4526C29.041 20.629 29.1086 21.0816 29.215 21.4272C29.2582 21.5689 29.2007 21.7424 29.1891 21.9072L29.1935 21.9058Z" fill="#474766"/>
<path d="M31.7776 38.6784C31.5647 38.5497 31.4179 38.4615 31.2107 38.3371C31.3992 38.2244 31.5085 38.1217 31.6366 38.087C32.1991 37.9395 32.3804 37.7472 31.9128 37.218C31.7603 37.0459 31.8553 36.6093 31.9128 36.3071C31.9589 36.0699 32.12 35.8545 32.2581 35.574C31.4078 35.2877 30.4741 35.2544 30.123 34.1208H33.8263C33.5084 33.2085 33.0681 33.1289 32.484 33.5902C32.202 33.8143 31.6754 33.7261 31.2596 33.7796C31.2438 33.5656 31.1316 33.2692 31.2309 33.1535C31.6582 32.6474 33.4537 32.3771 33.963 32.7993C34.4033 33.1651 34.8047 33.6625 35.0147 34.1859C35.1126 34.4303 34.7572 34.9045 34.5328 35.2197C34.2839 35.5668 33.9616 35.8632 33.6479 36.1581C32.8552 36.9057 32.8912 37.5043 33.7875 38.1868C33.8609 38.2432 33.9285 38.3068 34.0105 38.3776C33.6537 38.5338 33.3055 38.6451 33.0019 38.8317C32.6552 39.0456 32.1056 39.2307 32.6466 39.8149C32.6897 39.8611 32.5027 40.266 32.3732 40.2949C32.1531 40.347 31.8164 40.3166 31.6668 40.1735C31.1776 39.7108 31.2424 39.1975 31.779 38.6755L31.7776 38.6784Z" fill="#474766"/>
<path d="M41.6055 20.2876C41.6803 21.1856 41.3883 22.0227 40.42 22.4074C40.0833 22.5404 39.6862 22.5216 39.3165 22.5722C39.3007 22.4956 39.2834 22.4189 39.2676 22.3423C39.4891 22.2367 39.7121 22.1326 39.9337 22.0256C40.7969 21.6034 41.0444 20.8906 40.5092 20.0852C40.1639 19.5647 40.2445 19.1222 40.6804 18.8605C40.8804 18.7405 41.417 18.9184 41.63 19.1338C42.2544 19.7657 42.9047 20.2356 43.824 20.3513C44.4528 20.4308 44.6283 20.9441 44.3549 21.4661C44.0701 22.0097 43.8226 22.5736 43.6255 23.1737C43.3047 23.3241 42.6112 22.6604 42.5565 23.7709C41.9638 23.4253 41.9422 23.0016 42.1824 22.5447C42.3249 22.2743 42.5651 22.0574 42.7536 21.8088C43.3003 21.0872 43.0845 20.4872 42.2112 20.2847C42.0717 20.2529 41.9321 20.2197 41.7926 20.1908C41.7738 20.1864 41.7508 20.211 41.6084 20.2891L41.6055 20.2876Z" fill="#474766"/>
<path d="M25.9135 22.497C24.5798 22.9568 23.6604 22.0545 23.3094 20.01C22.8519 20.292 22.344 20.4481 22.1008 20.7923C21.7944 21.2289 22.1095 21.6613 22.4634 22.0473C23.1626 22.8122 23.1569 23.2937 22.5396 23.7752C22.321 23.3472 21.8927 23.2214 21.2549 23.3978C21.3959 22.5433 21.1024 21.8637 20.5326 21.268C20.442 21.1725 20.5571 20.7951 20.6722 20.6101C20.7556 20.4756 20.9945 20.3903 21.1729 20.3715C21.9915 20.2833 22.626 19.9536 23.1454 19.2683C23.6086 18.6581 24.2877 18.7275 24.5193 19.3275C24.5985 19.5343 24.5697 19.8481 24.4661 20.049C23.8921 21.1639 24.1294 21.8131 25.2891 22.202C25.4574 22.2584 25.6128 22.3553 25.912 22.4999L25.9135 22.497Z" fill="#474766"/>
<path d="M30.4415 37.5649C30.5091 38.1722 30.6141 38.8504 30.64 39.5299C30.6472 39.7078 30.4084 39.8943 30.2818 40.0765C30.0904 39.8799 29.8991 39.6818 29.6804 39.4562C29.6689 39.4721 29.5696 39.5473 29.5797 39.6008C29.6516 39.9579 30.0372 40.3744 29.315 40.5233C28.4316 40.704 28.0532 40.5551 27.8547 39.8625C27.6863 39.274 27.5108 38.6855 27.3971 38.0869C27.3482 37.8238 27.3914 37.5114 27.4921 37.2598C27.6216 36.9331 27.9237 36.8145 28.141 37.1644C28.3812 37.5505 28.5985 37.5461 29.0186 37.4464C29.4401 37.3452 29.9236 37.51 30.4401 37.5649H30.4415Z" fill="#474766"/>
<path d="M34.4965 37.4712C34.8792 37.6143 35.1338 37.7098 35.4259 37.8197C35.4806 37.717 35.5655 37.464 35.6201 37.4712C36.1971 37.5406 36.751 37.5912 37.1063 36.9868C37.2632 37.1329 37.5394 37.2644 37.5581 37.4278C37.6876 38.5499 37.3955 39.6112 36.6963 40.4599C36.4848 40.7173 35.7712 40.7159 35.3583 40.5944C35.0173 40.4946 34.6001 40.0753 34.5353 39.737C34.4073 39.0588 34.4979 38.3402 34.4979 37.4712H34.4965ZM35.623 39.8425C35.4964 39.416 35.3799 39.0241 35.2662 38.6381C35.1741 38.9113 35.072 39.2121 34.9511 39.5721C35.1986 39.6719 35.4691 39.7803 35.623 39.8425Z" fill="#474766"/>
<path d="M32.5457 16.9491C31.5414 16.2131 31.4522 15.749 32.2076 15.0708C32.3241 14.9667 32.7068 14.9783 32.8262 15.0896C33.5557 15.7663 33.5067 16.0222 32.5471 16.9491H32.5457Z" fill="#474766"/>
<path d="M36.6855 19.0227C37.1085 18.7321 37.3589 18.4632 37.6509 18.4053C37.7747 18.3808 38.12 18.8001 38.12 19.017C38.12 19.2338 37.779 19.6503 37.6495 19.6271C37.3589 19.5765 37.1057 19.3061 36.6855 19.0227Z" fill="#474766"/>
<path d="M28.2173 19.047C27.9051 19.3087 27.6634 19.6615 27.4663 19.6369C27.2476 19.6109 26.8908 19.2118 26.9196 19.0267C26.9599 18.7737 27.3066 18.5698 27.5224 18.3442C27.7296 18.5525 27.9354 18.7607 28.2173 19.0455V19.047Z" fill="#474766"/>
</g>
<defs>
<clipPath id="clip0_6006_5885">
<rect width="35" height="35" fill="white" transform="translate(15 15)"/>
</clipPath>
</defs>
</svg>
