<svg width="22" height="36" viewBox="0 0 22 36" fill="none" xmlns="http://www.w3.org/2000/svg">
<path d="M7.27841 26.5912L1.5205 7.30673C0.697941 4.65627 2.25166 1.82302 4.90213 1.00046L11.2084 22.2042" stroke="#795DDB" stroke-width="1.26606" stroke-miterlimit="10" stroke-linecap="round" stroke-linejoin="round"/>
<path d="M11.3911 22.2042L17.6974 1.00046C20.3479 1.82302 21.9016 4.65627 21.079 7.30673L15.3211 26.774C15.3211 26.774 15.2297 27.2309 15.0469 27.5965C14.8641 28.0535 14.6813 28.5105 14.4072 28.8761C13.8588 29.6072 13.1276 30.0642 12.2137 30.247C11.5739 30.4298 10.9341 30.4298 10.3858 30.247C9.6546 30.0642 9.01482 29.6986 8.46645 29.1502C8.00947 28.6933 7.73529 28.0535 7.5525 27.4137C7.4611 27.0481 7.27832 26.5912 7.27832 26.5912C7.27832 26.4998 7.27832 26.317 7.27832 26.2256C7.27832 24.0321 9.10622 22.2042 11.2997 22.2042" stroke="#795DDB" stroke-width="1.26606" stroke-miterlimit="10" stroke-linecap="round" stroke-linejoin="round"/>
<path d="M11.3916 30.3384V34.9996" stroke="#795DDB" stroke-width="1.26606" stroke-miterlimit="10" stroke-linecap="round" stroke-linejoin="round"/>
<path d="M11.3916 27.8707C12.2497 27.8707 12.9453 27.1751 12.9453 26.317C12.9453 25.4589 12.2497 24.7632 11.3916 24.7632C10.5335 24.7632 9.83789 25.4589 9.83789 26.317C9.83789 27.1751 10.5335 27.8707 11.3916 27.8707Z" stroke="#795DDB" stroke-width="1.26606" stroke-miterlimit="10" stroke-linecap="round" stroke-linejoin="round"/>
</svg>
