<svg width="34" height="32" viewBox="0 0 34 32" fill="none" xmlns="http://www.w3.org/2000/svg">
<path d="M32.6998 19.4675C28.7507 19.4675 28.7507 17.5411 24.898 17.5411C20.9489 17.5411 20.9489 19.4675 17.0961 19.4675C13.147 19.4675 13.147 17.5411 9.19796 17.5411C5.24888 17.5411 5.24888 19.4675 1.2998 19.4675" stroke="#795DDB" stroke-width="1.5" stroke-miterlimit="10" stroke-linecap="round" stroke-linejoin="round"/>
<path d="M32.6998 16.5779C28.7507 16.5779 28.7507 14.6516 24.898 14.6516C20.9489 14.6516 20.9489 16.5779 17.0961 16.5779C13.147 16.5779 13.147 14.6516 9.19796 14.6516C5.24888 14.6516 5.24888 16.5779 1.2998 16.5779" stroke="#795DDB" stroke-width="1.5" stroke-miterlimit="10" stroke-linecap="round" stroke-linejoin="round"/>
<path d="M17.4812 11.473C16.1328 11.473 15.0732 10.4135 15.0732 9.06503" stroke="#795DDB" stroke-width="1.5" stroke-miterlimit="10" stroke-linecap="round" stroke-linejoin="round"/>
<path d="M20.7563 9.64294C20.7563 10.3172 20.5637 10.8951 20.2747 11.3767C19.6005 12.6288 18.3483 13.3994 16.9035 13.3994C14.7845 13.3994 13.0508 11.6656 13.0508 9.54662C13.0508 7.4276 16.9035 1.16689 16.9035 1.16689C16.9035 1.16689 18.3483 3.47853 19.4078 5.79018C20.1784 7.33129 20.7563 8.77607 20.7563 9.64294Z" stroke="#795DDB" stroke-width="1.5" stroke-miterlimit="10" stroke-linecap="round" stroke-linejoin="round"/>
<path d="M5.44141 3.8638V11.6656" stroke="#795DDB" stroke-width="1.5" stroke-miterlimit="10" stroke-linecap="round" stroke-linejoin="round"/>
<path d="M7.46435 9.54663L5.44165 11.6657L3.41895 9.54663" stroke="#795DDB" stroke-width="1.5" stroke-miterlimit="10" stroke-linecap="round" stroke-linejoin="round"/>
<path d="M28.4619 3.8638V11.6656" stroke="#795DDB" stroke-width="1.5" stroke-miterlimit="10" stroke-linecap="round" stroke-linejoin="round"/>
<path d="M30.5812 9.54663L28.4621 11.6657L26.4395 9.54663" stroke="#795DDB" stroke-width="1.5" stroke-miterlimit="10" stroke-linecap="round" stroke-linejoin="round"/>
<path d="M25.5726 29.0031C25.5726 29.2921 25.4763 29.581 25.38 29.87C25.091 30.4479 24.5131 30.8332 23.8389 30.8332C22.8757 30.8332 22.0088 30.0626 22.0088 29.0031C22.0088 28.0399 23.8389 25.054 23.8389 25.054C23.8389 25.054 24.5131 26.1135 24.9947 27.2693C25.2836 27.9436 25.5726 28.6178 25.5726 29.0031Z" stroke="#795DDB" stroke-width="1.5" stroke-miterlimit="10" stroke-linecap="round" stroke-linejoin="round"/>
<path d="M18.7337 26.1135C18.7337 26.4025 18.6374 26.6914 18.5411 26.9804C18.2521 27.5583 17.6742 27.9436 17 27.9436C16.0368 27.9436 15.1699 27.173 15.1699 26.1135C15.1699 25.1503 17 22.1644 17 22.1644C17 22.1644 17.6742 23.2239 18.1558 24.3798C18.4448 25.054 18.7337 25.7282 18.7337 26.1135Z" stroke="#795DDB" stroke-width="1.5" stroke-miterlimit="10" stroke-linecap="round" stroke-linejoin="round"/>
<path d="M32.3148 26.1135C32.3148 26.4025 32.2185 26.6914 32.1221 26.9804C31.8332 27.5583 31.2553 27.9436 30.581 27.9436C29.6179 27.9436 28.751 27.173 28.751 26.1135C28.751 25.1503 30.581 22.1644 30.581 22.1644C30.581 22.1644 31.2553 23.2239 31.7369 24.3798C32.0258 25.054 32.3148 25.7282 32.3148 26.1135Z" stroke="#795DDB" stroke-width="1.5" stroke-miterlimit="10" stroke-linecap="round" stroke-linejoin="round"/>
<path d="M11.9915 29.0031C11.9915 29.292 11.8952 29.581 11.7989 29.8699C11.5099 30.4478 10.932 30.8331 10.2578 30.8331C9.2946 30.8331 8.42773 30.0626 8.42773 29.0031C8.42773 28.0399 10.2578 25.054 10.2578 25.054C10.2578 25.054 10.932 26.1135 11.4136 27.2693C11.7026 27.9435 11.9915 28.6178 11.9915 29.0031Z" stroke="#795DDB" stroke-width="1.5" stroke-miterlimit="10" stroke-linecap="round" stroke-linejoin="round"/>
<path d="M5.15267 26.1135C5.15267 26.4025 5.05635 26.6914 4.96003 26.9804C4.67107 27.5583 4.09315 27.9436 3.41892 27.9436C2.45573 27.9436 1.58887 27.173 1.58887 26.1135C1.58887 25.1503 3.41892 22.1644 3.41892 22.1644C3.41892 22.1644 4.09317 23.2239 4.57476 24.3798C4.86372 25.054 5.15267 25.7282 5.15267 26.1135Z" stroke="#795DDB" stroke-width="1.5" stroke-miterlimit="10" stroke-linecap="round" stroke-linejoin="round"/>
</svg>
