<svg width="38" height="38" viewBox="0 0 38 38" fill="none" xmlns="http://www.w3.org/2000/svg">
<path d="M12.9173 18.7879C13.4218 19.9601 14.9162 21.43 15.684 22.1978C16.4518 22.9656 17.9216 24.4599 19.0938 24.9644C19.378 25.0867 19.6968 25.0416 19.9791 24.9151L21.972 24.0217C22.4585 23.8036 23.0242 23.8602 23.4579 24.1703L28.3897 27.6962C29.1166 28.2159 29.2308 29.252 28.6344 29.9175L26.8817 31.8734C25.9516 32.9113 24.5413 33.4002 23.2335 32.9187C20.4922 31.9093 16.2867 29.7005 12.234 25.6478C8.18129 21.595 5.97243 17.3896 4.96311 14.6482C4.4816 13.3404 4.97052 11.9302 6.0084 11.0001L7.96432 9.24738C8.62982 8.65102 9.66586 8.76515 10.1856 9.49208L13.7115 14.4238C14.0216 14.8576 14.0782 15.4233 13.8601 15.9098L12.9667 17.9027C12.8402 18.185 12.795 18.5038 12.9173 18.7879Z" fill="white"/>
<mask id="mask0_3694_11722" style="mask-type:alpha" maskUnits="userSpaceOnUse" x="7" y="6" width="24" height="24">
<circle cx="19.0659" cy="18.2413" r="2.36575" transform="rotate(45 19.0659 18.2413)" stroke="#FF8947" stroke-width="2"/>
<circle cx="19.0659" cy="18.2411" r="6.3838" transform="rotate(45 19.0659 18.2411)" stroke="#FF8947" stroke-width="2"/>
<circle cx="19.0659" cy="18.2409" r="10.4371" transform="rotate(45 19.0659 18.2409)" stroke="#FF8947" stroke-width="2"/>
</mask>
<g mask="url(#mask0_3694_11722)">
<path d="M19.0657 18.241L23.0133 3.50821L33.7984 14.2933L19.0657 18.241Z" fill="white"/>
</g>
</svg>
