<svg width="31" height="24" viewBox="0 0 31 24" fill="none" xmlns="http://www.w3.org/2000/svg">
<path d="M29.9994 12.5C28.8994 18.6 23.5994 22.8 17.6994 22.8C16.8994 22.8 16.1994 22.7 15.3994 22.6C16.6994 21.3 17.6994 19.8 18.3994 18.3C18.3994 18.2 18.4994 18.1 18.4994 18C18.7994 17.4 18.9994 16.8 19.1994 16.2C19.2994 16 19.2994 15.7 19.3994 15.5C20.1994 14.8 20.9994 14.2 21.8994 13.7C24.3994 12.5 27.1994 12 29.9994 12.5Z" stroke="#ffffff" stroke-width="1.5" stroke-miterlimit="10" stroke-linecap="round" stroke-linejoin="round"/>
<path d="M15.3998 22.6C14.5998 22.7 13.8998 22.8 13.0998 22.8C7.09982 22.8 1.8998 18.6 0.799805 12.5C3.6998 12 6.4998 12.5 8.7998 13.7C9.6998 14.2 10.5998 14.8 11.2998 15.5C11.3998 15.7 11.3998 16 11.4998 16.2C11.6998 16.8 11.8998 17.4 12.0998 18C12.0998 18.1 12.1998 18.2 12.1998 18.3C13.0998 19.8 14.0998 21.3 15.3998 22.6Z" stroke="#ffffff" stroke-width="1.5" stroke-miterlimit="10" stroke-linecap="round" stroke-linejoin="round"/>
<path d="M19.8 11.9C19.8 13.1 19.7 14.3 19.4 15.5C19.3 15.7 19.3 16 19.2 16.2C19 16.8 18.8 17.4 18.5 18C18.5 18.1 18.4 18.2 18.4 18.3C17.7 19.9 16.6 21.3 15.4 22.6C14.1 21.3 13.1 19.8 12.4 18.3C12.4 18.2 12.3 18.1 12.3 18C12 17.4 11.8 16.8 11.7 16.2C11.6 16 11.6 15.7 11.5 15.5C10.8 12.7 11 9.7 11.9 7C12.6 4.9 13.8 2.89998 15.5 1.19998C17.2 2.89998 18.4 4.9 19.1 7C19.6 8.6 19.8 10.2 19.8 11.9Z" stroke="#ffffff" stroke-width="1.5" stroke-miterlimit="10" stroke-linecap="round" stroke-linejoin="round"/>
<path d="M24.9996 5.5C24.9996 8.6 23.8996 11.5 21.9996 13.7C21.0996 14.2 20.1996 14.8 19.4996 15.5C19.7996 14.3 19.8996 13.1 19.8996 11.9C19.8996 10.2 19.5996 8.6 19.0996 7C20.7996 6 22.7996 5.5 24.9996 5.5Z" stroke="#ffffff" stroke-width="1.5" stroke-miterlimit="10" stroke-linecap="round" stroke-linejoin="round"/>
<path d="M11.3994 15.5C10.5994 14.8 9.79941 14.2 8.89941 13.7C6.99941 11.5 5.89941 8.6 5.89941 5.5C7.99941 5.5 10.0994 6 11.7994 7C10.7994 9.7 10.6994 12.7 11.3994 15.5Z" stroke="#ffffff" stroke-width="1.5" stroke-miterlimit="10" stroke-linecap="round" stroke-linejoin="round"/>
</svg>
