<svg width="16" height="13" viewBox="0 0 16 13" fill="none" xmlns="http://www.w3.org/2000/svg">
<path d="M6.63787 0.845817C5.50881 0.306755 3.93069 0.0426925 1.81787 0.0333175C1.61861 0.0306103 1.42326 0.0887139 1.25787 0.19988C1.12212 0.291639 1.01099 0.415351 0.934269 0.560135C0.857545 0.704918 0.817575 0.866337 0.817873 1.03019V9.97082C0.817873 10.5752 1.24787 11.0311 1.81787 11.0311C4.03881 11.0311 6.26662 11.2386 7.601 12.4999C7.61925 12.5172 7.6422 12.5288 7.66698 12.5332C7.69176 12.5376 7.71729 12.5346 7.7404 12.5246C7.7635 12.5146 7.78317 12.4981 7.79694 12.477C7.81071 12.456 7.81799 12.4313 7.81787 12.4061V1.87144C7.81793 1.80037 7.80272 1.73011 7.77329 1.66541C7.74385 1.60072 7.70087 1.5431 7.64725 1.49644C7.34159 1.23514 7.00207 1.01629 6.63787 0.845817ZM15.3779 0.198942C15.2124 0.088053 15.017 0.0302739 14.8179 0.0333175C12.7051 0.0426925 11.1269 0.305505 9.99787 0.845817C9.63369 1.01598 9.29408 1.2344 8.98819 1.49519C8.93468 1.54193 8.8918 1.59957 8.86243 1.66425C8.83305 1.72893 8.81786 1.79915 8.81787 1.87019V12.4055C8.81786 12.4297 8.82499 12.4533 8.83836 12.4735C8.85174 12.4937 8.87077 12.5094 8.89307 12.5188C8.91536 12.5282 8.93993 12.5308 8.96369 12.5262C8.98745 12.5217 9.00934 12.5102 9.02662 12.4933C9.82881 11.6964 11.2366 11.0302 14.8191 11.0305C15.0843 11.0305 15.3387 10.9251 15.5262 10.7376C15.7138 10.5501 15.8191 10.2957 15.8191 10.0305V1.03051C15.8195 0.866325 15.7794 0.704581 15.7025 0.559554C15.6255 0.414527 15.514 0.290678 15.3779 0.198942Z" fill="#795DDB"/>
</svg>
