<svg width="20" height="12" viewBox="0 0 20 12" fill="none" xmlns="http://www.w3.org/2000/svg">
<path d="M17.8949 5.15242C18.3412 5.61119 18.3412 6.30189 17.8949 6.76066C17.1281 7.5489 15.9675 8.60432 14.556 9.46016C13.1427 10.3171 11.5067 10.9565 9.7793 10.9565C8.05189 10.9565 6.41588 10.3171 5.00256 9.46016C3.59105 8.60432 2.4305 7.5489 1.6637 6.76066C1.21741 6.30189 1.21741 5.61119 1.6637 5.15242C2.4305 4.36419 3.59105 3.30877 5.00256 2.45293C6.41588 1.59598 8.05189 0.956543 9.7793 0.956543C11.5067 0.956543 13.1427 1.59598 14.556 2.45293C15.9675 3.30877 17.1281 4.36419 17.8949 5.15242Z" stroke="#9B9BA4"/>
<circle cx="9.7793" cy="5.95654" r="2.5" stroke="#9B9BA4"/>
</svg>
