<svg width="17" height="16" viewBox="0 0 17 16" fill="none" xmlns="http://www.w3.org/2000/svg">
<g clip-path="url(#clip0_3694_12776)">
<path d="M13.384 1.17383H2.76546C1.92357 1.17383 1.24854 1.84886 1.24854 2.69076V13.3092C1.24854 13.7116 1.40835 14.0974 1.69283 14.3819C1.97731 14.6664 2.36315 14.8262 2.76546 14.8262H13.384C14.2258 14.8262 14.9009 14.1511 14.9009 13.3092V2.69076C14.9009 2.28844 14.7411 1.9026 14.4566 1.61813C14.1721 1.33365 13.7863 1.17383 13.384 1.17383ZM5.67038 4.24561C6.41367 4.24561 7.01286 4.84479 7.01286 5.59567C7.01286 6.33896 6.41367 6.93815 5.67038 6.93815C4.9195 6.93815 4.32031 6.33896 4.32031 5.59567C4.32031 4.84479 4.9195 4.24561 5.67038 4.24561ZM10.517 11.7923C9.77367 11.7923 9.17448 11.1855 9.17448 10.4423C9.17448 9.69896 9.77367 9.09977 10.517 9.09977C11.2603 9.09977 11.867 9.69896 11.867 10.4423C11.867 11.1855 11.2603 11.7923 10.517 11.7923ZM5.42008 11.8151L4.28239 10.6774L10.7521 4.20768L11.8898 5.34538L5.42008 11.8151Z" fill="#795DDB"/>
</g>
<defs>
<clipPath id="clip0_3694_12776">
<rect width="16" height="16" fill="white" transform="translate(0.074707)"/>
</clipPath>
</defs>
</svg>
