<svg width="30" height="31" viewBox="0 0 30 31" fill="none" xmlns="http://www.w3.org/2000/svg">
<path d="M22.8614 19.3811C21.7611 19.3802 20.6867 19.7147 19.7815 20.3402L17.936 18.1528C19.3006 17.6233 20.7495 16.8368 21.5846 15.7324C23.4755 13.2122 27.8079 7.22491 28.2045 5.56955C28.601 3.91479 27.6509 0 27.6509 0L15.1709 14.8518L2.69083 0C2.69083 0 1.74683 3.89982 2.14025 5.55497C2.53362 7.20995 6.86608 13.1975 8.75683 15.7324C9.58872 16.8427 11.0411 17.6294 12.4025 18.1528L10.557 20.3493C9.05732 19.3243 7.1468 19.1105 5.45783 19.7787C3.76887 20.4469 2.52162 21.91 2.12934 23.6833C1.7368 25.4567 2.25026 27.3094 3.4996 28.6278C4.74917 29.9461 6.57147 30.5584 8.36341 30.2619C10.1553 29.9651 11.6833 28.7983 12.4411 27.1477C13.199 25.497 13.0882 23.5778 12.1453 22.0254L14.6172 19.0846C14.6172 19.0846 14.8227 19.0605 15.1707 18.9727C15.5187 19.0483 15.7304 19.0846 15.7304 19.0846L18.1962 22.0254C17.3651 23.4107 17.1921 25.0933 17.7235 26.6187C18.2549 28.1442 19.436 29.3549 20.948 29.9238C22.4599 30.4928 24.1462 30.3613 25.5516 29.5648C26.9567 28.7682 27.9359 27.3891 28.2244 25.7997C28.5129 24.2102 28.0809 22.5748 27.0451 21.3352C26.0093 20.0957 24.4768 19.3799 22.8615 19.3811L22.8614 19.3811ZM7.48019 27.4196C6.79179 27.4188 6.13186 27.145 5.64519 26.6582C5.15854 26.1713 4.88483 25.5112 4.8844 24.8227C4.88377 24.1343 5.15643 23.4738 5.64222 22.9863C6.12825 22.4986 6.78774 22.2238 7.47614 22.2219C8.16454 22.22 8.82555 22.4914 9.31411 22.9764C9.80267 23.4614 10.0789 24.1202 10.0821 24.8086C10.0844 25.5002 9.81133 26.1644 9.32318 26.6544C8.83505 27.1442 8.17178 27.4196 7.48019 27.4196ZM22.8614 27.4196C22.1728 27.4205 21.5119 27.1478 21.0239 26.6616C20.5362 26.1755 20.2612 25.5156 20.2595 24.8268C20.2581 24.1382 20.5299 23.477 21.0155 22.9884C21.5011 22.5001 22.1605 22.2242 22.8494 22.2219C23.538 22.2196 24.1996 22.4906 24.6886 22.9755C25.1776 23.4607 25.454 24.12 25.4572 24.8086C25.4598 25.4994 25.1875 26.1625 24.7006 26.6523C24.2138 27.1419 23.5519 27.4181 22.8614 27.4196Z" fill="#FF8204"/>
</svg>
