<svg width="271" height="43" viewBox="0 0 271 43" fill="none" xmlns="http://www.w3.org/2000/svg">
<path d="M83.6172 24.7124C87.4412 24.7124 89.8725 22.2811 90.3446 18.9528H87.2287C86.7802 20.8176 85.5292 22.0687 83.6172 22.0687C81.1623 22.0687 79.3919 20.2983 79.3919 16.852V15.6246C79.3919 12.131 81.1151 10.4079 83.6172 10.4079C85.5764 10.4079 86.7566 11.5881 87.2287 13.0516H90.3446C89.8725 10.1718 87.4648 7.76412 83.6172 7.76412C79.3211 7.76412 76.4177 10.6675 76.4177 15.6246V16.852C76.4177 21.8563 79.2739 24.7124 83.6172 24.7124ZM103.278 24.5H106.394L100.493 7.97656H97.1882L91.2869 24.5H94.2612L95.6302 20.3219H101.886L103.278 24.5ZM97.6603 14.2083L98.7697 10.8092L99.8791 14.2083L101.059 17.8198H96.4564L97.6603 14.2083ZM106.988 24.7124H107.46C110.93 24.7124 112.653 22.9893 112.653 16.7104V10.4787H118.318V24.5H121.151V7.97656H109.82V16.7104C109.82 21.1009 108.853 22.0687 107.46 22.0687H106.988V24.7124ZM131.176 24.7124C135.542 24.7124 138.493 21.7854 138.493 16.852V15.6246C138.493 10.6675 135.59 7.76412 131.176 7.76412C126.809 7.76412 123.858 10.7147 123.858 15.6246V16.852C123.858 21.809 126.761 24.7124 131.176 24.7124ZM131.176 22.0687C128.626 22.0687 126.832 20.2747 126.832 16.852V15.6246C126.832 12.1546 128.579 10.4079 131.176 10.4079C133.701 10.4079 135.519 12.2254 135.519 15.6246V16.852C135.519 20.3219 133.748 22.0687 131.176 22.0687ZM151.829 24.5H154.662V7.97656H151.829V14.7512H144.039V7.97656H141.207V24.5H144.039V17.2533H151.829V24.5ZM173.308 24.5H176.849L170.759 15.8842L176.377 7.97656H173.025L168.351 14.7512H166.699V7.97656H163.866V24.5H166.699V17.2533H168.351L173.308 24.5ZM178.85 24.5H181.683V18.882H184.515C188.741 18.882 190.889 16.734 190.889 13.4293C190.889 9.91217 188.953 7.97656 184.515 7.97656H178.85V24.5ZM184.515 10.4787C186.852 10.4787 187.914 11.5409 187.914 13.4293C187.914 15.2233 186.758 16.3799 184.515 16.3799H181.683V10.4787H184.515ZM202.285 24.5H205.401L199.5 7.97656H196.195L190.294 24.5H193.268L194.637 20.3219H200.892L202.285 24.5ZM196.667 14.2083L197.777 10.8092L198.886 14.2083L200.066 17.8198H195.463L196.667 14.2083ZM213.329 24.7124C217.153 24.7124 219.584 22.2811 220.056 18.9528H216.94C216.492 20.8176 215.241 22.0687 213.329 22.0687C210.874 22.0687 209.104 20.2983 209.104 16.852V15.6246C209.104 12.131 210.827 10.4079 213.329 10.4079C215.288 10.4079 216.468 11.5881 216.94 13.0516H220.056C219.584 10.1718 217.177 7.76412 213.329 7.76412C209.033 7.76412 206.129 10.6675 206.129 15.6246V16.852C206.129 21.8563 208.986 24.7124 213.329 24.7124ZM229.26 24.7124C233.627 24.7124 236.578 21.7854 236.578 16.852V15.6246C236.578 10.6675 233.675 7.76412 229.26 7.76412C224.893 7.76412 221.943 10.7147 221.943 15.6246V16.852C221.943 21.809 224.846 24.7124 229.26 24.7124ZM229.26 22.0687C226.711 22.0687 224.917 20.2747 224.917 16.852V15.6246C224.917 12.1546 226.664 10.4079 229.26 10.4079C231.786 10.4079 233.604 12.2254 233.604 15.6246V16.852C233.604 20.3219 231.833 22.0687 229.26 22.0687ZM237.048 10.4787H242.123V24.5H244.956V10.4787H250.031V7.97656H237.048V10.4787ZM252.039 24.5H257.35C261.788 24.5 263.724 22.5644 263.724 19.0473C263.724 15.7426 261.576 13.5945 257.35 13.5945H254.872V7.97656H252.039V24.5ZM265.494 24.5H268.327V7.97656H265.494V24.5ZM257.35 16.0967C259.593 16.0967 260.749 17.2533 260.749 19.0473C260.749 20.9357 259.687 21.9979 257.35 21.9979H254.872V16.0967H257.35Z" fill="#F17E00"/>
<path d="M81.076 38.5022C82.1164 38.5022 82.9715 38.0319 83.4845 37.2195L83.6413 38.3882H84.639V33.5425C84.639 32.0746 83.7126 31.1482 81.9311 31.1482C80.0498 31.1482 79.152 32.0461 79.0807 33.2575H80.5059C80.5772 32.6874 80.9762 32.2884 81.9311 32.2884C82.9002 32.2884 83.3563 32.7444 83.3563 33.5425V34.0698H81.9311C79.665 34.0698 78.7957 34.9392 78.7957 36.3929C78.7957 37.7041 79.5938 38.5022 81.076 38.5022ZM81.2185 37.362C80.5344 37.362 80.1353 36.963 80.1353 36.3644C80.1353 35.6376 80.6199 35.153 81.9311 35.153H83.3563V35.4095C83.3563 36.4642 82.4584 37.362 81.2185 37.362ZM86.6988 38.3882H89.6917C91.6157 38.3882 92.3996 37.6043 92.3996 36.3217C92.3996 35.6233 92.029 35.0105 91.2309 34.6827C91.8295 34.3406 92.1145 33.8276 92.1145 33.2432C92.1145 32.0461 91.3307 31.2622 89.4067 31.2622H86.6988V38.3882ZM89.6917 35.3098C90.7178 35.3098 91.0599 35.6518 91.0599 36.2504C91.0599 36.8775 90.7178 37.2195 89.6917 37.2195H87.9815V35.3098H89.6917ZM89.4067 32.4309C90.4471 32.4309 90.7749 32.7587 90.7749 33.3145C90.7749 33.8703 90.4471 34.1981 89.4067 34.1981H87.9815V32.4309H89.4067ZM93.1801 32.4309H95.4604V38.3882H96.7431V32.4309H99.0234V31.2622H93.1801V32.4309ZM102.952 38.5022C104.933 38.5022 106.23 37.2053 106.23 35.096V34.5544C106.23 32.4309 104.947 31.1482 102.952 31.1482C100.971 31.1482 99.6742 32.4451 99.6742 34.5544V35.096C99.6742 37.2195 100.957 38.5022 102.952 38.5022ZM102.952 37.2765C101.769 37.2765 101.014 36.5212 101.014 35.096V34.5544C101.014 33.115 101.755 32.3739 102.952 32.3739C104.135 32.3739 104.89 33.1292 104.89 34.5544V35.096C104.89 36.5354 104.149 37.2765 102.952 37.2765ZM111.073 36.678H112.356L113.496 34.2551L114.208 32.7017V38.3882H115.491V31.2622H113.667L111.743 35.3098L109.819 31.2622H107.938V38.3882H109.22V32.7159L109.919 34.2551L111.073 36.678ZM119.406 38.5022C120.446 38.5022 121.301 38.0319 121.814 37.2195L121.971 38.3882H122.969V33.5425C122.969 32.0746 122.042 31.1482 120.261 31.1482C118.38 31.1482 117.482 32.0461 117.411 33.2575H118.836C118.907 32.6874 119.306 32.2884 120.261 32.2884C121.23 32.2884 121.686 32.7444 121.686 33.5425V34.0698H120.261C117.995 34.0698 117.126 34.9392 117.126 36.3929C117.126 37.7041 117.924 38.5022 119.406 38.5022ZM119.548 37.362C118.864 37.362 118.465 36.963 118.465 36.3644C118.465 35.6376 118.95 35.153 120.261 35.153H121.686V35.4095C121.686 36.4642 120.788 37.362 119.548 37.362ZM124.106 32.4309H126.386V38.3882H127.669V32.4309H129.949V31.2622H124.106V32.4309ZM136.151 38.3882H137.434V31.2622H135.781L133.372 35.3953L132.588 36.8632V31.2622H131.306V38.3882H132.959L135.367 34.2551L136.151 32.7872V38.3882ZM141.924 31.1482C140.143 31.1482 139.288 32.0033 139.145 33.3287H140.457C140.599 32.7159 140.97 32.3454 141.924 32.3454C142.879 32.3454 143.25 32.7159 143.25 33.2575C143.25 33.8276 142.879 34.1696 141.924 34.1696H141.141V35.3383H141.924C143.05 35.3383 143.464 35.7231 143.464 36.3217C143.464 36.8917 143.05 37.305 141.924 37.305C140.799 37.305 140.385 36.8917 140.243 36.1791H138.932C139.074 37.6186 139.958 38.5022 141.924 38.5022C143.891 38.5022 144.775 37.6186 144.775 36.3929C144.775 35.6803 144.419 35.096 143.649 34.7539C144.262 34.4261 144.561 33.8703 144.561 33.1862C144.561 32.0033 143.706 31.1482 141.924 31.1482ZM148.272 38.5022C149.312 38.5022 150.167 38.0319 150.68 37.2195L150.837 38.3882H151.835V33.5425C151.835 32.0746 150.908 31.1482 149.127 31.1482C147.245 31.1482 146.348 32.0461 146.276 33.2575H147.702C147.773 32.6874 148.172 32.2884 149.127 32.2884C150.096 32.2884 150.552 32.7444 150.552 33.5425V34.0698H149.127C146.861 34.0698 145.991 34.9392 145.991 36.3929C145.991 37.7041 146.789 38.5022 148.272 38.5022ZM148.414 37.362C147.73 37.362 147.331 36.963 147.331 36.3644C147.331 35.6376 147.816 35.153 149.127 35.153H150.552V35.4095C150.552 36.4642 149.654 37.362 148.414 37.362ZM153.894 38.3882H159.381V40.2409H160.664V37.2195H159.666V31.2622H158.384V37.2195H155.177V31.2622H153.894V38.3882ZM166.799 38.3882H168.081V31.2622H166.428L164.019 35.3953L163.236 36.8632V31.2622H161.953V38.3882H163.606L166.015 34.2551L166.799 32.7872V38.3882ZM169.793 33.5995C169.793 34.5687 170.149 35.267 171.047 35.6376L169.508 38.3882H170.933L172.258 35.8941C172.443 35.9083 172.643 35.9083 172.857 35.9083H174.068V38.3882H175.351V31.2622H172.857C170.633 31.2622 169.793 32.1031 169.793 33.5995ZM171.132 33.5995C171.132 32.8299 171.531 32.4309 172.857 32.4309H174.068V34.7397H172.857C171.531 34.7397 171.132 34.3406 171.132 33.5995ZM185.894 38.3882H187.177V31.2622H185.523L183.115 35.3953L182.331 36.8632V31.2622H181.048V38.3882H182.701L185.11 34.2551L185.894 32.7872V38.3882ZM193.805 41.2386H195.173L199.007 31.2622H197.639L195.586 36.7777L193.42 31.2622H192.023L194.902 38.3882L193.805 41.2386ZM204.843 38.3882H206.126V31.2622H200.283V38.3882H201.565V32.4309H204.843V38.3882ZM211.707 38.5022C213.317 38.5022 214.529 37.2908 214.529 35.096V34.5544C214.529 32.3454 213.331 31.1482 211.721 31.1482C210.695 31.1482 209.882 31.533 209.384 32.2884L209.255 31.2622H208.258V41.2386H209.54V37.5758C210.039 38.1887 210.78 38.5022 211.707 38.5022ZM211.365 37.2765C210.31 37.2765 209.54 36.4927 209.54 35.096V34.4547C209.569 33.1007 210.339 32.3739 211.365 32.3739C212.491 32.3739 213.189 33.0865 213.189 34.5544V35.096C213.189 36.5924 212.505 37.2765 211.365 37.2765ZM218.014 38.5022C219.055 38.5022 219.91 38.0319 220.423 37.2195L220.58 38.3882H221.577V33.5425C221.577 32.0746 220.651 31.1482 218.869 31.1482C216.988 31.1482 216.09 32.0461 216.019 33.2575H217.444C217.515 32.6874 217.914 32.2884 218.869 32.2884C219.838 32.2884 220.294 32.7444 220.294 33.5425V34.0698H218.869C216.603 34.0698 215.734 34.9392 215.734 36.3929C215.734 37.7041 216.532 38.5022 218.014 38.5022ZM218.157 37.362C217.473 37.362 217.074 36.963 217.074 36.3644C217.074 35.6376 217.558 35.153 218.869 35.153H220.294V35.4095C220.294 36.4642 219.397 37.362 218.157 37.362ZM223.637 38.3882H226.63C228.554 38.3882 229.338 37.6043 229.338 36.3217C229.338 35.6233 228.967 35.0105 228.169 34.6827C228.768 34.3406 229.053 33.8276 229.053 33.2432C229.053 32.0461 228.269 31.2622 226.345 31.2622H223.637V38.3882ZM226.63 35.3098C227.656 35.3098 227.998 35.6518 227.998 36.2504C227.998 36.8775 227.656 37.2195 226.63 37.2195H224.92V35.3098H226.63ZM226.345 32.4309C227.385 32.4309 227.713 32.7587 227.713 33.3145C227.713 33.8703 227.385 34.1981 226.345 34.1981H224.92V32.4309H226.345ZM230.186 38.5022H230.4C231.882 38.5022 232.823 37.5758 232.823 34.7682V32.4309H235.388V38.3882H236.671V31.2622H231.54V34.7682C231.54 36.7492 231.013 37.2765 230.4 37.2765H230.186V38.5022ZM241.587 38.5022C243.511 38.5022 244.437 37.5758 244.722 36.1791H243.411C243.126 36.9202 242.713 37.3335 241.587 37.3335C240.518 37.3335 239.762 36.6209 239.72 35.2385H244.793V34.5544C244.793 32.4594 243.482 31.1482 241.587 31.1482C239.705 31.1482 238.38 32.4736 238.38 34.5544V35.096C238.38 37.2053 239.677 38.5022 241.587 38.5022ZM241.587 32.3169C242.656 32.3169 243.311 32.8727 243.425 34.1269H239.734C239.862 32.9154 240.575 32.3169 241.587 32.3169ZM251.35 38.3882H252.632V31.2622H251.35V34.1696H247.787V31.2622H246.504V38.3882H247.787V35.3383H251.35V38.3882ZM259.617 38.3882H260.9V31.2622H259.246L256.838 35.3953L256.054 36.8632V31.2622H254.771V38.3882H256.425L258.833 34.2551L259.617 32.7872V38.3882ZM265.818 38.5022C267.742 38.5022 268.668 37.5758 268.953 36.1791H267.642C267.357 36.9202 266.944 37.3335 265.818 37.3335C264.749 37.3335 263.993 36.6209 263.951 35.2385H269.024V34.5544C269.024 32.4594 267.713 31.1482 265.818 31.1482C263.936 31.1482 262.611 32.4736 262.611 34.5544V35.096C262.611 37.2053 263.908 38.5022 265.818 38.5022ZM265.818 32.3169C266.887 32.3169 267.542 32.8727 267.656 34.1269H263.965C264.093 32.9154 264.806 32.3169 265.818 32.3169Z" fill="white"/>
<path fill-rule="evenodd" clip-rule="evenodd" d="M13.6359 39.3386V1.73828H12.0541L0.902344 4.93507L2.68188 11.6331L9.44411 10.0347V39.3386H13.6359Z" fill="#F17E00"/>
<path d="M17.8671 1.73828H13.6357V39.3386H17.8671V1.73828Z" fill="#FFAA2B"/>
<path fill-rule="evenodd" clip-rule="evenodd" d="M45.748 4.8592C50.612 4.8592 55.2388 6.95234 58.3233 10.5678L60.8542 7.75154C53.4988 -0.278499 40.8048 -1.03964 32.4608 6.00092C24.1167 13.0415 23.2863 25.2958 30.6417 33.3259C37.9971 41.3559 50.6911 42.1551 59.0351 35.0765C59.5888 34.6198 60.1029 34.1251 60.5774 33.6303L58.0465 30.8522C52.1147 37.398 41.833 38.083 35.0312 32.3745C28.2294 26.6659 27.5176 16.7711 33.4494 10.2252C36.5735 6.83817 41.0421 4.8592 45.748 4.8592Z" fill="#F17E00"/>
<path fill-rule="evenodd" clip-rule="evenodd" d="M58.3217 10.5676C52.5876 3.86956 42.3454 2.91814 35.3855 8.43641C28.4255 13.9547 27.4369 23.8115 33.171 30.5095C38.905 37.2075 49.1472 38.159 56.1072 32.6407C56.819 32.0698 57.4517 31.4609 58.0449 30.814L55.3558 27.8074C51.2036 32.9071 43.4923 33.8205 38.1932 29.7864C32.8941 25.7524 31.9451 18.3693 36.1368 13.2697C40.3286 8.17001 48.0004 7.25664 53.2995 11.2907C54.1694 11.9377 54.9604 12.6988 55.5931 13.5741L58.3217 10.5676Z" fill="#FFAA2B"/>
<path d="M66.5476 18.3697C67.6396 18.3697 68.5248 17.5177 68.5248 16.4668C68.5248 15.4159 67.6396 14.564 66.5476 14.564C65.4556 14.564 64.5703 15.4159 64.5703 16.4668C64.5703 17.5177 65.4556 18.3697 66.5476 18.3697Z" fill="#F17E00"/>
<path d="M66.5476 31.6888C67.6396 31.6888 68.5248 30.8368 68.5248 29.7859C68.5248 28.735 67.6396 27.8831 66.5476 27.8831C65.4556 27.8831 64.5703 28.735 64.5703 29.7859C64.5703 30.8368 65.4556 31.6888 66.5476 31.6888Z" fill="#F17E00"/>
</svg>
