<svg width="20" height="20" viewBox="0 0 20 20" fill="none" xmlns="http://www.w3.org/2000/svg">
<g clip-path="url(#clip0_3694_12670)">
<path d="M10.2001 15.327C10.4039 15.327 10.5993 15.408 10.7434 15.5521C10.8875 15.6962 10.9685 15.8917 10.9685 16.0955V16.8639C10.9685 17.0677 10.8875 17.2631 10.7434 17.4073C10.5993 17.5514 10.4039 17.6323 10.2001 17.6323C9.99627 17.6323 9.80082 17.5514 9.65671 17.4073C9.5126 17.2631 9.43164 17.0677 9.43164 16.8639V16.0955C9.43164 15.8917 9.5126 15.6962 9.65671 15.5521C9.80082 15.408 9.99627 15.327 10.2001 15.327ZM15.0904 13.7517L15.6337 14.295C15.7736 14.4399 15.8511 14.6341 15.8493 14.8355C15.8476 15.037 15.7668 15.2297 15.6243 15.3722C15.4818 15.5147 15.2891 15.5955 15.0876 15.5973C14.8861 15.599 14.692 15.5216 14.5471 15.3816L14.0038 14.8383C13.8638 14.6934 13.7864 14.4993 13.7881 14.2978C13.7899 14.0963 13.8707 13.9036 14.0132 13.7611C14.1557 13.6186 14.3484 13.5378 14.5499 13.5361C14.7513 13.5343 14.9455 13.6118 15.0904 13.7517ZM5.30977 13.7517C5.44806 13.6139 5.63362 13.5339 5.82876 13.5279C6.0239 13.522 6.214 13.5905 6.36043 13.7197C6.50687 13.8488 6.59867 14.0288 6.61718 14.2232C6.6357 14.4175 6.57954 14.6116 6.46011 14.7661L6.39634 14.8383L5.85305 15.3816C5.71477 15.5194 5.52921 15.5994 5.33407 15.6054C5.13892 15.6113 4.94883 15.5428 4.80239 15.4137C4.65595 15.2845 4.56416 15.1045 4.54564 14.9102C4.52713 14.7158 4.58329 14.5217 4.70271 14.3673L4.76649 14.295L5.30977 13.7517ZM10.2001 5.3374C11.4229 5.3374 12.5956 5.82316 13.4603 6.68781C14.3249 7.55247 14.8107 8.72519 14.8107 9.948C14.8107 11.1708 14.3249 12.3435 13.4603 13.2082C12.5956 14.0728 11.4229 14.5586 10.2001 14.5586C8.97727 14.5586 7.80455 14.0728 6.93989 13.2082C6.07524 12.3435 5.58948 11.1708 5.58948 9.948C5.58948 8.72519 6.07524 7.55247 6.93989 6.68781C7.80455 5.82316 8.97727 5.3374 10.2001 5.3374ZM4.05262 9.17956C4.24847 9.17978 4.43686 9.25478 4.57927 9.38923C4.72169 9.52368 4.8074 9.70744 4.81887 9.90296C4.83035 10.0985 4.76674 10.291 4.64103 10.4412C4.51532 10.5914 4.33701 10.6879 4.14252 10.7111L4.05262 10.7164H3.28418C3.08833 10.7162 2.89994 10.6412 2.75752 10.5068C2.61511 10.3723 2.5294 10.1886 2.51792 9.99303C2.50645 9.79751 2.57006 9.60499 2.69577 9.45479C2.82148 9.3046 2.99979 9.20808 3.19428 9.18494L3.28418 9.17956H4.05262ZM17.116 9.17956C17.3198 9.17956 17.5152 9.26052 17.6593 9.40463C17.8034 9.54874 17.8844 9.7442 17.8844 9.948C17.8844 10.1518 17.8034 10.3473 17.6593 10.4914C17.5152 10.6355 17.3198 10.7164 17.116 10.7164H16.3475C16.1437 10.7164 15.9483 10.6355 15.8042 10.4914C15.6601 10.3473 15.5791 10.1518 15.5791 9.948C15.5791 9.7442 15.6601 9.54874 15.8042 9.40463C15.9483 9.26052 16.1437 9.17956 16.3475 9.17956H17.116ZM4.76649 4.51441C4.89881 4.3821 5.07486 4.30262 5.26161 4.29088C5.44835 4.27914 5.63297 4.33594 5.78082 4.45063L5.85305 4.51441L6.39634 5.05769C6.53415 5.19598 6.61417 5.38154 6.62012 5.57668C6.62608 5.77182 6.55754 5.96192 6.42842 6.10835C6.2993 6.25479 6.11928 6.34659 5.92492 6.3651C5.73057 6.38362 5.53645 6.32746 5.382 6.20804L5.30977 6.14426L4.76649 5.60097C4.62243 5.45687 4.5415 5.26145 4.5415 5.05769C4.5415 4.85393 4.62243 4.65851 4.76649 4.51441ZM15.6337 4.51441C15.7777 4.65851 15.8587 4.85393 15.8587 5.05769C15.8587 5.26145 15.7777 5.45687 15.6337 5.60097L15.0904 6.14426C15.0195 6.21765 14.9347 6.27619 14.841 6.31646C14.7472 6.35674 14.6464 6.37793 14.5443 6.37882C14.4423 6.37971 14.3411 6.36026 14.2467 6.32163C14.1522 6.28299 14.0664 6.22593 13.9943 6.15378C13.9221 6.08163 13.8651 5.99583 13.8264 5.9014C13.7878 5.80696 13.7684 5.70577 13.7693 5.60374C13.7701 5.50171 13.7913 5.40087 13.8316 5.30712C13.8719 5.21337 13.9304 5.12858 14.0038 5.05769L14.5471 4.51441C14.6912 4.37035 14.8866 4.28942 15.0904 4.28942C15.2941 4.28942 15.4896 4.37035 15.6337 4.51441ZM10.2001 2.26367C10.4039 2.26367 10.5993 2.34463 10.7434 2.48874C10.8875 2.63285 10.9685 2.8283 10.9685 3.0321V3.80054C10.9685 4.00434 10.8875 4.19979 10.7434 4.3439C10.5993 4.48801 10.4039 4.56897 10.2001 4.56897C9.99627 4.56897 9.80082 4.48801 9.65671 4.3439C9.5126 4.19979 9.43164 4.00434 9.43164 3.80054V3.0321C9.43164 2.8283 9.5126 2.63285 9.65671 2.48874C9.80082 2.34463 9.99627 2.26367 10.2001 2.26367Z" fill="#795DDB"/>
</g>
<defs>
<clipPath id="clip0_3694_12670">
<rect width="18.4424" height="18.4424" fill="white" transform="translate(0.976562 0.726562)"/>
</clipPath>
</defs>
</svg>
