<svg width="19" height="19" viewBox="0 0 19 19" fill="none" xmlns="http://www.w3.org/2000/svg">
<g clip-path="url(#clip0_3694_12701)">
<path d="M12.9969 2.56376H10.4331C9.9698 2.56524 9.98714 3.25572 10.4331 3.25166H12.9969V3.60465H10.4331C9.97238 3.60059 9.98935 4.29071 10.4331 4.29255H12.9969V4.65328H10.4331C9.97238 4.65328 9.98935 5.34303 10.4331 5.34119H12.9969V5.68495H10.4331C9.98197 5.68827 9.98935 6.37875 10.4331 6.38097H12.9969V6.72547H10.4331C9.98197 6.724 9.98013 7.41337 10.4331 7.41337H12.9969V7.75714H10.4331C9.98197 7.75861 9.98013 8.44873 10.4331 8.44541H12.9969V8.79766H10.4331C9.98197 8.7936 9.98013 9.48298 10.4331 9.48556H12.9969V9.82859H10.4331C9.98197 9.82822 9.98935 10.5191 10.4331 10.5169H12.9969V17.2148C12.9984 18.2354 14.5487 18.2169 14.5531 17.2148V1.54058C14.5487 1.07436 14.1658 0.484937 13.5358 0.483093H10.4331C9.9698 0.483462 9.98714 1.17394 10.4331 1.17099L12.9969 1.17948V1.52251H10.4331C9.97054 1.52029 9.98787 2.21041 10.4331 2.21078H12.9969V2.56376ZM10.2568 14.4384C10.2553 13.2471 9.02039 11.9657 7.545 12.7956V8.23885L6.59079 0.723582C6.57087 0.524773 6.40231 0.477929 6.28907 0.474609C6.17214 0.477929 5.93793 0.524773 5.91248 0.723582L4.96306 8.23885V12.7956C3.48767 11.9657 2.29261 13.2552 2.29224 14.4292C2.29261 15.4738 3.09669 16.3317 4.18479 16.3292C5.28101 16.3317 6.06961 15.3702 6.06961 14.4292V9.6958H6.43845V14.4292C6.43845 15.4827 7.25434 16.2624 8.16097 16.3118C8.14585 16.8894 8.33433 17.7134 8.68916 18.0402C9.10522 18.4238 9.60058 17.9333 9.39735 17.5338C9.20112 17.162 9.00858 16.9418 9.16497 16.13C9.81857 15.8275 10.2553 15.1909 10.2568 14.4384ZM4.22684 15.3757C3.97812 15.3757 3.73959 15.2769 3.56372 15.101C3.38785 14.9251 3.28905 14.6866 3.28905 14.4379C3.28905 14.1892 3.38785 13.9506 3.56372 13.7748C3.73959 13.5989 3.97812 13.5001 4.22684 13.5001C4.73807 13.503 5.15449 13.9224 5.15818 14.4384C5.15713 14.6857 5.05886 14.9226 4.88459 15.0979C4.71032 15.2733 4.47406 15.3731 4.22684 15.3757ZM7.38824 14.4384C7.38909 14.191 7.48732 13.9538 7.66168 13.7782C7.83603 13.6026 8.0725 13.5027 8.31994 13.5001C8.56747 13.5023 8.80413 13.6021 8.97851 13.7778C9.15288 13.9535 9.25091 14.1909 9.25129 14.4384C9.2509 14.6859 9.15285 14.9232 8.97844 15.0987C8.80403 15.2742 8.56737 15.3737 8.31994 15.3757C8.07257 15.3735 7.83605 15.2738 7.66164 15.0984C7.48724 14.9229 7.389 14.6858 7.38824 14.4384Z" fill="#795DDB"/>
</g>
<defs>
<clipPath id="clip0_3694_12701">
<rect width="18.4424" height="18.4424" fill="white" transform="translate(0.167969 0.105469)"/>
</clipPath>
</defs>
</svg>
