<svg width="20" height="19" viewBox="0 0 20 19" fill="none" xmlns="http://www.w3.org/2000/svg">
<path d="M17.4939 8.25786L10.578 2.1104C10.2706 1.87987 9.88641 1.87987 9.57903 2.1104L2.66314 8.25786C2.35577 8.56523 2.27893 9.02629 2.5863 9.33366C2.89367 9.64104 3.35473 9.71788 3.6621 9.41051L3.89263 9.10313V16.4801C3.89263 16.9411 4.20001 17.2485 4.66107 17.2485H15.4191C15.8802 17.2485 16.1876 16.9411 16.1876 16.4801V9.10313L16.4181 9.33366C16.7255 9.64104 17.1865 9.56419 17.4939 9.25682C17.8013 9.02629 17.8013 8.48839 17.4939 8.25786ZM11.577 11.8695H10.8085V12.6379C10.8085 13.099 10.5012 13.4064 10.0401 13.4064C9.57904 13.4064 9.27166 13.099 9.27166 12.6379V11.8695H8.50323C8.04217 11.8695 7.7348 11.5621 7.7348 11.1011C7.7348 10.64 8.04217 10.3326 8.50323 10.3326H9.27166V9.56419C9.27166 9.10313 9.57904 8.79576 10.0401 8.79576C10.5012 8.79576 10.8085 9.10313 10.8085 9.56419V10.3326H11.577C12.038 10.3326 12.3454 10.64 12.3454 11.1011C12.3454 11.5621 12.038 11.8695 11.577 11.8695Z" fill="#795DDB"/>
</svg>
