<svg width="20" height="19" viewBox="0 0 20 19" fill="none" xmlns="http://www.w3.org/2000/svg">
<g clip-path="url(#clip0_3694_12674)">
<path fill-rule="evenodd" clip-rule="evenodd" d="M10.1822 10.8367C9.15252 12.2037 7.45275 12.8592 5.83289 12.6456C4.00172 12.4043 2.3396 11.0703 1.76481 8.61285C1.73174 8.47143 1.73943 8.32354 1.78699 8.18631C1.83454 8.04908 1.92001 7.92813 2.03349 7.83749C2.14697 7.74685 2.28382 7.69023 2.42817 7.67418C2.57251 7.65814 2.71845 7.68333 2.84907 7.74683C4.4574 8.52756 5.94892 7.69765 7.19378 6.70561C7.7532 6.25991 8.37333 6.04245 8.99115 6.11545C9.46758 6.17154 9.87177 6.39285 10.1822 6.70023C10.4934 6.39285 10.8969 6.17154 11.3741 6.11545C11.9919 6.04245 12.612 6.25991 13.1722 6.70561C14.4163 7.69765 15.9078 8.52756 17.5161 7.74683C17.6467 7.68354 17.7926 7.65852 17.9368 7.67467C18.081 7.69082 18.2177 7.74747 18.3311 7.83808C18.4444 7.92868 18.5298 8.04953 18.5773 8.18665C18.6249 8.32376 18.6326 8.47153 18.5996 8.61285C18.0256 11.0703 16.3635 12.4043 14.5323 12.6456C12.9125 12.8592 11.2127 12.2037 10.183 10.8367H10.1822Z" fill="#795DDB"/>
</g>
<defs>
<clipPath id="clip0_3694_12674">
<rect width="18.4424" height="18.4424" fill="white" transform="translate(0.976562 0.390625)"/>
</clipPath>
</defs>
</svg>
