<svg width="19" height="19" viewBox="0 0 19 19" fill="none" xmlns="http://www.w3.org/2000/svg">
<path d="M9.42537 16.8979C8.22149 16.7443 7.14569 16.4369 6.19795 15.9758C5.25022 15.5148 4.4467 14.9128 3.78738 14.17C3.12807 13.4272 2.62525 12.566 2.27895 11.5865C1.93264 10.607 1.75974 9.52151 1.76026 8.32993C3.16905 8.4708 4.36012 8.72695 5.33347 9.09836C6.30681 9.46977 7.09779 9.99486 7.70639 10.6736C8.31498 11.3524 8.7535 12.201 9.02194 13.2195C9.29038 14.2379 9.42486 15.4641 9.42537 16.8979ZM9.42537 10.4239C9.1308 9.97565 8.73071 9.5338 8.22508 9.09836C7.71945 8.66291 7.13339 8.26589 6.4669 7.90729C6.54375 7.36938 6.67182 6.81227 6.85112 6.23595C7.03042 5.65962 7.24814 5.09303 7.50429 4.53617C7.76043 3.97932 8.05192 3.44449 8.37876 2.93169C8.7056 2.41889 9.05447 1.95142 9.42537 1.5293C9.79678 1.95193 10.1459 2.4194 10.4727 2.93169C10.7996 3.44397 11.0908 3.9788 11.3465 4.53617C11.6021 5.09354 11.8198 5.66013 11.9996 6.23595C12.1794 6.81176 12.3075 7.36887 12.3838 7.90729C11.7179 8.25308 11.1321 8.6437 10.6264 9.07915C10.1208 9.51459 9.72045 9.96284 9.42537 10.4239ZM10.9622 16.5906C10.9366 15.6941 10.8695 14.8647 10.7609 14.1024C10.6523 13.3401 10.4825 12.6198 10.2514 11.9416C10.8534 10.9042 11.6828 10.0589 12.7396 9.40573C13.7965 8.75256 15.2468 8.39396 17.0905 8.32993C17.1033 10.3535 16.5621 12.0986 15.4668 13.5653C14.3715 15.0319 12.87 16.0404 10.9622 16.5906Z" fill="#795DDB"/>
</svg>
