<svg width="16" height="16" viewBox="0 0 16 16" fill="none" xmlns="http://www.w3.org/2000/svg">
<path d="M14.1544 7.00391C14.4346 7.00391 14.7085 6.92143 14.9415 6.76691C15.1744 6.61239 15.356 6.39276 15.4632 6.13581C15.5705 5.87885 15.5985 5.5961 15.5439 5.32331C15.4892 5.05053 15.3543 4.79996 15.1561 4.60329C14.958 4.40662 14.7056 4.27269 14.4308 4.21843C14.156 4.16417 13.8711 4.19202 13.6123 4.29845C13.3534 4.40489 13.1322 4.58513 12.9765 4.81639C12.8208 5.04764 12.7377 5.31953 12.7377 5.59766C12.7377 5.97062 12.887 6.3283 13.1527 6.59203C13.4183 6.85575 13.7787 7.00391 14.1544 7.00391ZM8.70821 5.66943C8.86637 5.62175 9.03077 5.59756 9.19607 5.59766C9.38755 5.59924 9.57729 5.63383 9.75684 5.6999L10.2099 4.27578C10.2417 4.17635 10.2509 4.07113 10.2367 3.96774C10.2225 3.86436 10.1853 3.76541 10.1278 3.67807C10.0703 3.59073 9.99393 3.51718 9.90424 3.46277C9.81456 3.40836 9.7138 3.37444 9.60927 3.36348C9.26897 3.32393 8.95376 3.55215 8.85046 3.87647L8.23362 5.81504L8.70821 5.66943ZM2.27949 11.7597C2.3031 11.7541 2.32494 11.7438 2.34885 11.7389V10.9862C2.34962 10.0256 2.65534 9.08956 3.22256 8.31119C3.78979 7.53282 4.58968 6.95167 5.50861 6.65029L7.68378 5.9835L8.69198 2.81592C8.72367 2.71658 8.73272 2.6115 8.71848 2.50826C8.70424 2.40503 8.66707 2.30623 8.60965 2.219C8.55222 2.13178 8.47599 2.05831 8.38646 2.00392C8.29692 1.94952 8.19633 1.91556 8.09196 1.90449C7.75166 1.86523 7.43616 2.09346 7.33286 2.41777L6.34562 5.53555C6.32672 5.59483 6.28486 5.64424 6.22926 5.67289C6.17367 5.70154 6.10888 5.7071 6.04915 5.68833C5.98943 5.66957 5.93966 5.62802 5.9108 5.57283C5.88193 5.51764 5.87634 5.45333 5.89524 5.39404L7.17526 1.35723C7.20695 1.25789 7.216 1.15281 7.20176 1.04957C7.18753 0.946337 7.15035 0.847534 7.09293 0.760309C7.03551 0.673084 6.95927 0.599619 6.86974 0.545226C6.78021 0.490833 6.67961 0.456873 6.57524 0.445801C6.23494 0.406543 5.92003 0.634766 5.81644 0.95879L4.40184 5.40342C4.38297 5.4627 4.34115 5.51212 4.28558 5.5408C4.23001 5.56948 4.16524 5.57507 4.10552 5.55635C4.04579 5.53762 3.99601 5.49611 3.96712 5.44095C3.93822 5.38579 3.93259 5.32149 3.95145 5.26221L5.08951 1.68799C5.1212 1.58865 5.13026 1.48357 5.11602 1.38033C5.10178 1.2771 5.0646 1.1783 5.00718 1.09107C4.94976 1.00385 4.87352 0.93038 4.78399 0.875987C4.69446 0.821595 4.59387 0.787634 4.48949 0.776563C4.1492 0.734375 3.83399 0.96377 3.73069 1.28809L1.95986 6.8501L1.89906 5.38379C1.89964 5.29143 1.88189 5.19986 1.84681 5.11431C1.81173 5.02876 1.76002 4.95091 1.69462 4.88521C1.62923 4.81951 1.55143 4.76724 1.46568 4.73139C1.37993 4.69554 1.2879 4.67681 1.19486 4.67627C0.804388 4.67481 0.465273 4.98506 0.459961 5.37529V8.67793C0.469259 9.30386 0.64175 9.91673 0.960624 10.4568C1.2795 10.9969 1.73388 11.4457 2.27949 11.7597ZM14.8362 10.2852H10.1405C10.0779 10.2852 10.0178 10.2605 9.97356 10.2165C9.92928 10.1726 9.90441 10.1129 9.90441 10.0508C9.90441 9.98862 9.92928 9.92901 9.97356 9.88505C10.0178 9.8411 10.0779 9.81641 10.1405 9.81641H13.9183C14.0233 9.81648 14.127 9.79339 14.2218 9.74881C14.3167 9.70423 14.4004 9.63927 14.4669 9.55863C14.5334 9.47799 14.581 9.38369 14.6063 9.28255C14.6316 9.18141 14.6339 9.07596 14.6131 8.97383C14.5484 8.63984 14.2344 8.41016 13.8917 8.41016H8.01552L9.40533 7.91035C9.49424 7.88307 9.57687 7.83868 9.64849 7.77971C9.72012 7.72073 9.77934 7.64833 9.82278 7.56663C9.86622 7.48493 9.89302 7.39555 9.90166 7.30357C9.9103 7.21159 9.9006 7.11882 9.87312 7.03057C9.84564 6.94231 9.80092 6.86029 9.74151 6.78919C9.68209 6.71809 9.60915 6.6593 9.52685 6.61618C9.44455 6.57306 9.3545 6.54645 9.26184 6.53788C9.16918 6.52931 9.07573 6.53893 8.98682 6.56621L5.80758 7.54033C5.07612 7.77904 4.43926 8.24088 3.98778 8.86002C3.5363 9.47915 3.29325 10.224 3.29329 10.9883V11.7397C3.63384 11.8078 3.955 11.9499 4.23373 12.1557C4.51246 12.3615 4.74185 12.626 4.90547 12.9302C5.06909 13.2344 5.16287 13.5707 5.1801 13.9151C5.19732 14.2596 5.13756 14.6035 5.0051 14.9223C5.55524 15.2593 6.18848 15.439 6.83496 15.4414H12.9739C13.0788 15.4415 13.1825 15.4184 13.2774 15.3738C13.3723 15.3292 13.456 15.2643 13.5225 15.1836C13.589 15.103 13.6366 15.0087 13.6618 14.9076C13.6871 14.8064 13.6894 14.701 13.6686 14.5988C13.604 14.2648 13.2899 14.0352 12.9473 14.0352H10.1405C10.0779 14.0352 10.0178 14.0105 9.97356 13.9665C9.92928 13.9226 9.90441 13.8629 9.90441 13.8008C9.90441 13.7386 9.92928 13.679 9.97356 13.6351C10.0178 13.5911 10.0779 13.5664 10.1405 13.5664H13.9183C14.0233 13.5665 14.127 13.5434 14.2218 13.4988C14.3167 13.4542 14.4004 13.3893 14.4669 13.3086C14.5334 13.228 14.581 13.1337 14.6063 13.0326C14.6316 12.9314 14.6339 12.826 14.6131 12.7238C14.5484 12.3898 14.2344 12.1602 13.8917 12.1602H10.1405C10.0779 12.1602 10.0178 12.1355 9.97356 12.0915C9.92928 12.0476 9.90441 11.9879 9.90441 11.9258C9.90441 11.8636 9.92928 11.804 9.97356 11.7601C10.0178 11.7161 10.0779 11.6914 10.1405 11.6914H14.8627C14.9677 11.6915 15.0714 11.6684 15.1663 11.6238C15.2612 11.5792 15.3449 11.5143 15.4114 11.4336C15.4779 11.353 15.5255 11.2587 15.5507 11.1576C15.576 11.0564 15.5783 10.951 15.5575 10.8488C15.4929 10.5148 15.1788 10.2852 14.8362 10.2852ZM11.7933 2.31641C11.9801 2.31641 12.1627 2.26142 12.318 2.15841C12.4733 2.0554 12.5944 1.90898 12.6658 1.73767C12.7373 1.56637 12.756 1.37787 12.7196 1.19601C12.6832 1.01415 12.5932 0.847106 12.4611 0.715994C12.329 0.584882 12.1608 0.495594 11.9775 0.45942C11.7943 0.423247 11.6044 0.441812 11.4319 0.51277C11.2593 0.583727 11.1118 0.703888 11.008 0.85806C10.9042 1.01223 10.8489 1.19349 10.8489 1.37891C10.8489 1.62755 10.9484 1.866 11.1255 2.04182C11.3026 2.21763 11.5428 2.31641 11.7933 2.31641ZM2.82107 12.6289C2.54088 12.6289 2.26698 12.7114 2.03401 12.8659C1.80104 13.0204 1.61947 13.24 1.51224 13.497C1.40502 13.754 1.37696 14.0367 1.43163 14.3095C1.48629 14.5823 1.62121 14.8329 1.81934 15.0295C2.01746 15.2262 2.26989 15.3601 2.54469 15.4144C2.8195 15.4686 3.10435 15.4408 3.36321 15.3344C3.62207 15.2279 3.84332 15.0477 3.99899 14.8164C4.15465 14.5852 4.23774 14.3133 4.23774 14.0352C4.23774 13.6622 4.08848 13.3045 3.82281 13.0408C3.55713 12.7771 3.1968 12.6289 2.82107 12.6289Z" fill="#795DDB"/>
</svg>
