<svg width="19" height="20" viewBox="0 0 19 20" fill="none" xmlns="http://www.w3.org/2000/svg">
<g clip-path="url(#clip0_3694_12683)">
<path d="M11.1138 1.51963C10.5507 1.52457 9.97964 1.66638 9.43325 1.96423C10.6938 1.87266 11.802 2.25895 12.1112 3.18668C7.4696 2.57967 2.7369 7.26922 10.9686 12.0184C13.2021 13.3069 11.6667 16.6216 7.21134 14.7233C1.27332 12.1934 1.7047 7.49168 3.84337 5.03157C4.10711 5.47563 4.32669 5.97509 4.52545 6.4994C5.21225 4.74899 6.55656 4.02769 7.89677 3.30036C6.01661 2.41499 4.22234 2.76788 2.46109 3.60315C2.83433 3.81005 3.14922 4.08953 3.42121 4.42153C-0.669181 6.86785 0.619804 14.5216 5.99327 17.624C12.8318 21.5722 20.934 12.8608 13.4911 10.0215C8.03631 7.94064 9.4675 4.98212 12.1213 5.47736L12.2158 7.01272L17.3071 8.43102L18.0601 6.24614C17.0177 5.79542 16.1796 5.28883 15.4994 4.6669C15.5451 3.64955 15.1154 2.63158 14.278 1.61418C14.3053 2.11101 14.2998 2.60769 14.2207 3.10456C13.4207 2.09297 12.2852 1.50933 11.114 1.51967L11.1138 1.51963ZM12.6785 3.87442C13.5069 4.13622 14.2894 4.62602 14.9117 5.4627C13.6968 6.03254 12.4218 5.27107 12.6785 3.87446V3.87442Z" fill="#795DDB"/>
</g>
<defs>
<clipPath id="clip0_3694_12683">
<rect width="18.4424" height="18.4424" fill="white" transform="translate(0.390625 0.760742)"/>
</clipPath>
</defs>
</svg>
