<svg width="19" height="20" viewBox="0 0 19 20" fill="none" xmlns="http://www.w3.org/2000/svg">
<path d="M1.70508 10.4199C1.70508 10.318 1.74556 10.2202 1.81761 10.1482C1.88967 10.0761 1.98739 10.0356 2.08929 10.0356H5.93146C6.03336 10.0356 6.13108 10.0761 6.20314 10.1482C6.27519 10.2202 6.31567 10.318 6.31567 10.4199V14.6462C6.31567 15.2576 6.07279 15.844 5.64047 16.2763C5.20814 16.7087 4.62178 16.9515 4.01038 16.9515C3.39897 16.9515 2.81261 16.7087 2.38028 16.2763C1.94796 15.844 1.70508 15.2576 1.70508 14.6462V10.4199ZM2.47351 8.88299H5.54724V5.42504C5.5473 5.29404 5.51387 5.1652 5.45013 5.05076C5.38638 4.93631 5.29444 4.84007 5.18303 4.77116C5.07162 4.70225 4.94444 4.66296 4.81358 4.65704C4.68271 4.65111 4.5525 4.67874 4.43532 4.73729L2.89845 5.50573C2.77072 5.56956 2.66329 5.66772 2.58823 5.7892C2.51317 5.91068 2.47344 6.05067 2.47351 6.19347V8.88299ZM8.62097 8.88299C8.62097 7.76208 9.06625 6.68709 9.85885 5.89449C10.6514 5.10189 11.7264 4.65661 12.8474 4.65661C13.9683 4.65661 15.0433 5.10189 15.8359 5.89449C16.6285 6.68709 17.0737 7.76208 17.0737 8.88299C17.0737 10.0039 16.6285 11.0789 15.8359 11.8715C15.0433 12.6641 13.9683 13.1094 12.8474 13.1094C11.7264 13.1094 10.6514 12.6641 9.85885 11.8715C9.06625 11.0789 8.62097 10.0039 8.62097 8.88299ZM12.271 14.4234C12.6542 14.4641 13.0405 14.4641 13.4237 14.4234V15.7989H15.1526C15.3055 15.7989 15.4521 15.8596 15.5602 15.9677C15.6683 16.0758 15.729 16.2224 15.729 16.3752C15.729 16.5281 15.6683 16.6746 15.5602 16.7827C15.4521 16.8908 15.3055 16.9515 15.1526 16.9515H10.5421C10.3892 16.9515 10.2426 16.8908 10.1345 16.7827C10.0264 16.6746 9.96573 16.5281 9.96573 16.3752C9.96573 16.2224 10.0264 16.0758 10.1345 15.9677C10.2426 15.8596 10.3892 15.7989 10.5421 15.7989H12.271V14.4234Z" fill="#795DDB"/>
</svg>
