<svg width="22.734131" height="21.621582" viewBox="0 0 22.7341 21.6216" fill="none" xmlns="http://www.w3.org/2000/svg" xmlns:xlink="http://www.w3.org/1999/xlink">
	<desc>
			Created with Pixso.
	</desc>
	<defs/>
	<path id="Star 4" d="M11.3671 0L8.68347 8.2583L0 8.25879L7.0249 13.3628L4.3418 21.6216L11.3671 16.5176L18.3923 21.6216L15.7092 13.3628L22.7341 8.25879L14.0507 8.2583L11.3671 0Z" fill="#FFA412" fill-opacity="1.000000" fill-rule="nonzero"/>
	<path id="Star 4" d="M11.3671 0L8.68347 8.2583L0 8.25879L7.0249 13.3628L4.3418 21.6216L11.3671 16.5176L18.3923 21.6216L15.7092 13.3628L22.7341 8.25879L14.0507 8.2583L11.3671 0ZM11.3671 2.78564L9.30896 9.11914L2.64941 9.11963L8.03687 13.0342L5.97925 19.3677L11.3671 15.4536L16.7549 19.3677L14.6973 13.0342L20.0847 9.11963L13.4252 9.11914L11.3671 2.78564Z" fill="#1EA0DE" fill-opacity="0" fill-rule="evenodd"/>
</svg>
