<svg width="49" height="46" viewBox="0 0 49 46" fill="none" xmlns="http://www.w3.org/2000/svg">
<rect x="0.0820312" y="0.283203" width="48.3643" height="45.4335" rx="22.7168" fill="#1EA0DE"/>
<path fill-rule="evenodd" clip-rule="evenodd" d="M14.0131 21.7858C20.0894 19.3206 24.1413 17.6953 26.1686 16.9101C31.9571 14.6681 33.1599 14.2786 33.9438 14.2658C34.1163 14.2629 34.5018 14.3027 34.7515 14.4914C34.9624 14.6508 35.0204 14.866 35.0482 15.0171C35.0759 15.1681 35.1105 15.5123 35.083 15.7812C34.7693 18.8503 33.4121 26.2983 32.7215 29.7359C32.4294 31.1904 31.8541 31.6781 31.2971 31.7258C30.0867 31.8295 29.1675 30.9809 27.9952 30.2653C26.1607 29.1454 25.1243 28.4484 23.3436 27.3556C21.2857 26.0928 22.6197 25.3987 23.7925 24.2643C24.0995 23.9675 29.4326 19.4502 29.5358 19.0405C29.5487 18.9892 29.5607 18.7982 29.4389 18.6973C29.317 18.5964 29.1371 18.6309 29.0073 18.6583C28.8233 18.6972 25.8927 20.501 20.2154 24.0698C19.3835 24.6017 18.6301 24.8609 17.955 24.8473C17.2108 24.8323 15.7792 24.4554 14.715 24.1333C13.4096 23.7382 12.3722 23.5293 12.4625 22.8582C12.5096 22.5087 13.0264 22.1512 14.0131 21.7858Z" fill="white"/>
</svg>
