<svg width="41" height="41" viewBox="0 0 41 41" fill="none" xmlns="http://www.w3.org/2000/svg">
<rect x="0.184082" y="0.610352" width="40" height="39.9009" rx="5" fill="#F83D3D"/>
<path d="M32.0295 14.6102C31.7446 13.5457 30.908 12.7092 29.8435 12.4242C27.9161 11.9072 20.1836 11.9072 20.1836 11.9072C20.1836 11.9072 12.4513 11.9072 10.5238 12.4242C9.45928 12.7092 8.62274 13.5457 8.33779 14.6102C7.8208 16.5377 7.8208 20.5616 7.8208 20.5616C7.8208 20.5616 7.8208 24.5856 8.33779 26.5131C8.62274 27.5776 9.45928 28.4141 10.5238 28.699C12.4513 29.2161 20.1836 29.2161 20.1836 29.2161C20.1836 29.2161 27.9161 29.2161 29.8435 28.699C30.908 28.4141 31.7446 27.5776 32.0295 26.5131C32.5466 24.5856 32.5466 20.5616 32.5466 20.5616C32.5466 20.5616 32.5445 16.5377 32.0295 14.6102Z" fill="white"/>
<path d="M17.7075 24.2694L24.1312 20.561L17.7075 16.8525V24.2694Z" fill="#F83D3D"/>
</svg>
