<svg width="41" height="41" viewBox="0 0 41 41" fill="none" xmlns="http://www.w3.org/2000/svg">
<rect x="0.445801" y="0.610352" width="40" height="39.9009" rx="5" fill="#1EA0DE"/>
<path fill-rule="evenodd" clip-rule="evenodd" d="M12.4606 19.4941C17.4299 17.3291 20.7436 15.9017 22.4016 15.2121C27.1355 13.2431 28.1192 12.9011 28.7603 12.8898C28.9013 12.8873 29.2166 12.9222 29.4209 13.088C29.5933 13.2279 29.6408 13.4169 29.6635 13.5496C29.6862 13.6823 29.7144 13.9845 29.692 14.2206C29.4354 16.9161 28.3254 23.4571 27.7607 26.476C27.5218 27.7534 27.0513 28.1817 26.5958 28.2237C25.6059 28.3147 24.8542 27.5695 23.8954 26.941C22.3951 25.9575 21.5475 25.3453 20.0912 24.3856C18.4082 23.2766 19.4993 22.667 20.4584 21.6708C20.7094 21.4101 25.071 17.4429 25.1554 17.083C25.1659 17.038 25.1757 16.8702 25.0761 16.7817C24.9764 16.6931 24.8293 16.7234 24.7231 16.7475C24.5726 16.7816 22.1759 18.3658 17.5329 21.4999C16.8526 21.9671 16.2364 22.1947 15.6843 22.1827C15.0757 22.1696 13.9049 21.8386 13.0346 21.5557C11.967 21.2087 11.1186 21.0252 11.1925 20.4359C11.231 20.1289 11.6537 19.815 12.4606 19.4941Z" fill="white"/>
</svg>
