<svg width="40" height="40" viewBox="0 0 40 40" fill="none" xmlns="http://www.w3.org/2000/svg">
<rect y="0.0263672" width="40" height="39.9009" rx="5" fill="#1EA0DE"/>
<path fill-rule="evenodd" clip-rule="evenodd" d="M12.0163 18.9101C16.9856 16.7451 20.2993 15.3177 21.9573 14.6281C26.6912 12.6591 27.6748 12.3171 28.316 12.3058C28.457 12.3033 28.7723 12.3382 28.9765 12.504C29.149 12.6439 29.1964 12.8329 29.2191 12.9656C29.2418 13.0983 29.2701 13.4005 29.2476 13.6367C28.9911 16.3321 27.8811 22.8731 27.3164 25.892C27.0774 27.1694 26.6069 27.5978 26.1514 27.6397C25.1615 27.7308 24.4098 26.9855 23.4511 26.357C21.9508 25.3735 21.1032 24.7613 19.6469 23.8016C17.9639 22.6926 19.0549 22.083 20.0141 21.0868C20.2651 20.8261 24.6266 16.8589 24.711 16.499C24.7216 16.454 24.7314 16.2863 24.6317 16.1977C24.5321 16.1091 24.3849 16.1394 24.2788 16.1635C24.1283 16.1976 21.7316 17.7818 17.0886 20.9159C16.4083 21.3831 15.7921 21.6107 15.24 21.5988C14.6314 21.5856 13.4606 21.2546 12.5902 20.9717C11.5227 20.6247 10.6743 20.4412 10.7481 19.8519C10.7866 19.5449 11.2093 19.231 12.0163 18.9101Z" fill="white"/>
</svg>
