<svg width="41" height="40" viewBox="0 0 41 40" fill="none" xmlns="http://www.w3.org/2000/svg">
<rect x="0.737793" y="0.0263672" width="40" height="39.9009" rx="5" fill="#F83D3D"/>
<path d="M32.5837 14.0262C32.2988 12.9617 31.4622 12.1252 30.3977 11.8402C28.4703 11.3232 20.7378 11.3232 20.7378 11.3232C20.7378 11.3232 13.0055 11.3232 11.078 11.8402C10.0135 12.1252 9.17694 12.9617 8.89199 14.0262C8.375 15.9537 8.375 19.9777 8.375 19.9777C8.375 19.9777 8.375 24.0016 8.89199 25.9291C9.17694 26.9936 10.0135 27.8302 11.078 28.1151C13.0055 28.6321 20.7378 28.6321 20.7378 28.6321C20.7378 28.6321 28.4703 28.6321 30.3977 28.1151C31.4622 27.8302 32.2988 26.9936 32.5837 25.9291C33.1008 24.0016 33.1008 19.9777 33.1008 19.9777C33.1008 19.9777 33.0987 15.9537 32.5837 14.0262Z" fill="white"/>
<path d="M18.2632 23.6855L24.6868 19.977L18.2632 16.2686V23.6855Z" fill="#F83D3D"/>
</svg>
