<svg width="29" height="28" viewBox="0 0 29 28" fill="none" xmlns="http://www.w3.org/2000/svg">
<rect x="0.415771" y="0.0703125" width="27.9996" height="27.9303" rx="3.49995" fill="#F83D3D"/>
<path d="M22.7074 9.8696C22.5079 9.12446 21.9223 8.53889 21.1772 8.33942C19.828 7.97754 14.4153 7.97754 14.4153 7.97754C14.4153 7.97754 9.00276 7.97754 7.65353 8.33942C6.90839 8.53889 6.32282 9.12446 6.12336 9.8696C5.76147 11.2188 5.76147 14.0355 5.76147 14.0355C5.76147 14.0355 5.76147 16.8523 6.12336 18.2015C6.32282 18.9467 6.90839 19.5322 7.65353 19.7317C9.00276 20.0936 14.4153 20.0936 14.4153 20.0936C14.4153 20.0936 19.828 20.0936 21.1772 19.7317C21.9223 19.5322 22.5079 18.9467 22.7074 18.2015C23.0693 16.8523 23.0693 14.0355 23.0693 14.0355C23.0693 14.0355 23.0678 11.2188 22.7074 9.8696Z" fill="white"/>
<path d="M12.6821 16.6312L17.1786 14.0354L12.6821 11.4395V16.6312Z" fill="#F83D3D"/>
</svg>
