<svg width="28" height="28" viewBox="0 0 28 28" fill="none" xmlns="http://www.w3.org/2000/svg">
<rect y="0.0703125" width="27.9996" height="27.9303" rx="3.49995" fill="#1EA0DE"/>
<path fill-rule="evenodd" clip-rule="evenodd" d="M8.41035 13.2891C11.8888 11.7736 14.2084 10.7744 15.3689 10.2917C18.6826 8.91343 19.3712 8.67401 19.82 8.6661C19.9187 8.66436 20.1394 8.68882 20.2824 8.80483C20.4031 8.90278 20.4363 9.0351 20.4522 9.12797C20.4681 9.22084 20.4879 9.43239 20.4721 9.5977C20.2926 11.4845 19.5156 16.0631 19.1203 18.1763C18.953 19.0705 18.6237 19.3703 18.3048 19.3997C17.6119 19.4634 17.0857 18.9417 16.4146 18.5018C15.3644 17.8134 14.7711 17.3849 13.7517 16.7131C12.5736 15.9368 13.3373 15.5101 14.0087 14.8127C14.1844 14.6302 17.2375 11.8533 17.2966 11.6013C17.304 11.5698 17.3108 11.4524 17.241 11.3904C17.1713 11.3284 17.0683 11.3496 16.994 11.3664C16.8887 11.3903 15.211 12.4992 11.9609 14.6931C11.4847 15.0201 11.0534 15.1794 10.6669 15.1711C10.2409 15.1619 9.42135 14.9302 8.81211 14.7322C8.06486 14.4893 7.47095 14.3608 7.52267 13.9483C7.54961 13.7334 7.8455 13.5137 8.41035 13.2891Z" fill="white"/>
</svg>
