<svg width="26" height="22" viewBox="0 0 26 22" fill="none" xmlns="http://www.w3.org/2000/svg">
<path d="M24.8893 9.47873L23.2383 19.7066C23.2383 19.7066 23.0548 21.1421 21.9542 21.501C20.6701 21.501 19.5694 21.1421 18.6522 20.4244C18.4687 20.2449 13.6992 17.3739 12.0482 15.9384C11.4979 15.5796 11.3144 14.8618 11.6813 14.1441C11.8647 13.9646 11.8647 13.7852 12.0482 13.7852C14.433 11.632 17.1846 8.94042 19.0191 7.3255C19.7528 6.60775 20.6701 4.81338 17.3681 6.96662L8.01241 13.0675C7.09519 13.4263 5.99453 13.4263 4.89386 13.0675C2.69253 12.5292 0.491206 11.632 0.491206 11.632C0.491206 11.632 -1.15979 10.7348 1.59187 9.65817L17.0012 3.37789C18.4687 2.66015 23.7886 0.686344 23.7886 0.686344C23.7886 0.686344 26.1734 -0.210837 25.9899 1.9424C25.9899 2.83958 25.4396 6.06944 24.8893 9.47873Z" fill="#57B2EC"/>
</svg>
